<?xml version="1.0" encoding="utf-8"?>
<!-- Generator: Adobe Illustrator 25.4.1, SVG Export Plug-In . SVG Version: 6.00 Build 0)  -->
<svg version="1.1" id="Layer_1" xmlns="http://www.w3.org/2000/svg" xmlns:xlink="http://www.w3.org/1999/xlink" x="0px" y="0px"
	 viewBox="0 0 1024 1024" style="enable-background:new 0 0 1024 1024;" xml:space="preserve">
<style type="text/css">
	.st0{fill:#272733;}
	.st1{fill:#F45F61;}
	.st2{fill:#EA5A5E;}
	.st3{fill:#FBFBFB;}
	.st4{fill:#FAFAFA;}
	.st5{fill:#EEEEEF;}
	.st6{fill:#24252F;}
</style>
<g>
	<g>
		<path class="st0" d="M670.4,155.18c1.8-1.4,3.76-2.64,5.36-4.24c23.75-23.87,50.01-44.49,79.71-60.42
			c16.16-8.67,33.1-15.65,51.3-18.98c2.27-0.42,4.6-0.49,7.78-0.82c2.47,9.08,5.38,17.92,7.26,26.98
			c12.29,59.09,6.06,116.54-16.13,172.41c-1.64,4.13-1.6,6.94,1.82,10.05c2.66,2.42,4.55,5.69,6.78,8.58
			c-0.35,1.86-0.34,3.9-1.13,5.55c-1.71,3.57-4.02,6.85-5.75,10.42c-4.76,9.79-13.49,17.67-14.88,29.04
			c-1.75,14.42-10.23,24.97-19.22,35.32c-4.17,4.8-4.12,12.48,0.46,16.87c14.11,13.53,25.29,29.12,33.31,46.96
			c0.69,1.54,1.37,3.08,2.29,5.16c-5.59,0-10.29,0-14.81,0c6.47,12.56,12.81,24.85,19.83,38.46c-6.82-0.29-9.32-6.26-14.81-7.34
			c4.96,16.32,9.85,32.38,14.73,48.43c-0.5,0.31-1,0.62-1.49,0.93c-3.16-2.7-6.32-5.39-10.4-8.87c1.84,12.66,3.52,24.19,5.34,36.64
			c-3.53-2.81-6.28-5.01-9.82-7.83c0.98,11.09,1.86,21.02,2.73,30.95c-0.89,0.56-1.77,1.12-2.66,1.69
			c-1.77-2.88-3.55-5.76-5.32-8.64c-1.27,1.61-1.38,2.39-1.48,3.17c-1.3,10.22-1.41,20.77-4.16,30.59
			c-4.69,16.79-10.97,33.13-16.8,49.59c-0.54,1.53-2.66,2.5-4.04,3.73c-0.54-0.17-1.08-0.33-1.62-0.5
			c5.44,29.29,8.64,58.72,6.97,88.81c-2.29-0.86-4.04-1.51-6.1-2.28c-2.64,14.02-4.57,27.63-10.31,40.95
			c-1.32-1.56-2.07-2.46-2.91-3.46c-6.55,12.2-13.03,24.18-19.41,36.21c-0.58,1.09-0.55,2.5-0.8,3.76
			c-7.11,6.4-14.05,13-21.36,19.17c-36.27,30.6-77.56,52.48-121.36,70.18c-24.98,10.09-49.56,21.16-74.38,31.66
			c-1.63,0.69-3.97,0.96-5.54,0.33c-34.3-13.7-68.7-27.19-102.76-41.49c-40.65-17.06-77.89-39.89-111.42-68.6
			c-3.65-3.13-6.84-6.79-10.24-10.2c-0.19-1.16-0.06-2.5-0.61-3.44c-7.29-12.25-16.3-23.67-18.44-38.4
			c-0.03-0.2-0.43-0.35-0.75-0.59c-0.76,0.7-1.53,1.4-3.4,3.13c-1.57-13.81-3.02-26.5-4.47-39.28c-1.75,0.8-3.35,1.53-5.58,2.55
			c-0.26-2.96-0.54-5.39-0.67-7.82c-1.35-25.08,1.72-49.85,5.19-74.6c0.47-3.32,2.25-7.44-3.55-8.33c-0.54-0.08-0.9-1.66-1.25-2.59
			c-1.05-2.8-2.02-5.64-3.07-8.44c-7.38-19.67-14.11-39.51-15.86-60.65c-0.34-4.09-0.72-8.18-1.19-13.49
			c-2.83,3.53-4.72,5.88-6.6,8.23c-0.5-0.37-1.01-0.75-1.51-1.12c1.06-9.55,2.11-19.1,3.27-29.52c-3.65,2.31-6.28,3.96-9.43,5.95
			c1.77-11.79,3.44-22.98,5.29-35.29c-3.71,2.78-6.41,4.79-9.1,6.81c-0.44-0.26-0.88-0.51-1.33-0.77
			c4.33-15.99,8.66-31.97,13.12-48.43c-5.12,3.36-9.67,6.35-14.22,9.33c-0.48-0.47-0.97-0.95-1.45-1.42
			c6.76-12.84,13.53-25.68,20.55-39.02c-5.03,0.3-9.73,0.58-15.26,0.91c8.24-15.82,15.91-31.1,28-43.6
			c2.78-2.87,5.57-5.74,8.18-8.76c3.82-4.43,4.12-9.39,0.86-14.12c-2.83-4.11-5.53-8.39-8.9-12.02c-5.32-5.72-8.1-12.49-9.75-19.89
			c-0.73-3.25-1.12-6.59-2.11-9.75c-0.98-3.12-2.11-6.36-3.92-9.04c-4.37-6.45-9.12-12.64-13.83-18.86
			c-1.67-2.2-1.62-3.79,0.83-5.29c3.42-2.1,2.68-4.47,0.24-6.85c2.56-3.21,5.11-6.43,7.87-9.89c-0.45-1.64-1.05-3.8-1.64-5.95
			c-14.84-30.14-19.25-62.77-22.4-95.62c-2.91-30.24-0.35-60.17,6.79-89.69c1.05-4.35,2.91-8.52,3.81-12.9
			c0.91-4.44,3.58-5.34,7.21-4.26c10.81,3.22,21.9,5.83,32.25,10.18C285,96.99,315.78,121.56,345,148.3
			c2.7,2.47,5.48,4.84,8.22,7.26c2.08,2.14,4.27,4.2,6.24,6.44c9.13,10.4,18.96,19.34,31.84,25.7c11.75,5.8,21.73,15.21,32.32,23.26
			c2.55,1.94,4.6,2.99,8.01,2.16c33.89-8.19,68.26-12.3,103.05-8.92c19.49,1.9,38.76,5.95,58.16,8.84c1.95,0.29,4.48-0.26,6.11-1.37
			c12.52-8.48,24.79-17.32,37.34-25.75c3.36-2.26,8.3-2.59,11.03-5.31C655.41,172.54,662.76,163.72,670.4,155.18z M397.5,205.43
			c-0.39-0.07-0.78-0.15-1.17-0.22c0.19,0.29,0.38,0.59,0.57,0.88c1.58,3.77,6.12,7.04,3.02,11.69
			c-4.16,6.23-8.85,12.11-13.82,18.83c-1.02-16.88-4.53-26.39-13.63-39.59c-11.43-16.59-25.6-30.65-40.2-44.33
			c-25.06-23.49-52.17-44.09-83.85-57.92c-7.72-3.37-16.07-5.32-24.2-7.69c-1.45-0.42-4.35-1.89-4.03,2.02
			c-0.75,2.01-1.64,3.98-2.23,6.03c-12.54,43.5-10.32,87.03-0.57,130.67c4.72,21.11,12.64,40.9,22.69,59.93c0,5.06,0,10.12,0,15.2
			c-4.11-4.54-8.14-9-12.18-13.46c-0.55,0.3-1.09,0.6-1.64,0.9c1.69,5.45,3.08,11.02,5.14,16.32c4.26,10.98,8.96,21.79,13.33,32.73
			c2.5,6.26,5.84,11.81,10.65,15.54c2.71-1.34,4.74-2.84,7-3.39c45.49-11.09,91.6-15.21,138.29-11.53
			c26.43,2.08,52.06,7.46,75.16,21.52c1.47,0.89,3.76,1.01,5.54,0.72c21.07-3.39,42.09-3.46,63.15,0.16
			c1.85,0.32,4.13-0.43,5.91-1.29c7.92-3.81,15.35-9.36,23.66-11.49c16.54-4.23,33.43-7.77,50.39-9.49
			c28.07-2.86,56.22-1.41,84.26,1.94c20.76,2.49,41.47,5.14,62.68,12.4c10.91-20.67,19.07-42.49,26.54-64.59
			c-0.54-0.3-1.08-0.6-1.63-0.89c-3.97,4.67-7.94,9.34-12.81,15.06c0.39-7.03,0.69-12.62,1-18.21
			c10.09-18.41,17.58-37.78,22.69-58.18c9.57-38.19,11.92-76.54,3.39-115.17c-1.66-7.49-4.9-14.64-7.41-21.94
			c-1.81-0.35-3.72-1.28-5.42-0.97c-18.82,3.4-35.55,11.91-51.54,21.9c-27.4,17.13-51.61,38.21-73.8,61.57
			c-17.38,18.3-33.33,37.61-34.66,64.67c-0.46-0.22-0.81-0.29-0.98-0.5c-3.14-3.88-6.32-7.73-9.35-11.69
			c-6.03-7.91-6.02-8.61-0.73-17.1c0-0.39-0.01-0.78-0.01-1.17c-0.31,0.15-0.62,0.31-0.93,0.46c-0.88,0.45-1.85,0.78-2.62,1.37
			c-7.9,6.07-15.72,12.26-23.7,18.23c-1.53,1.15-3.83,2.4-5.48,2.08c-15.79-3.11-31.39-7.44-47.28-9.7
			c-38.37-5.45-76.35-2.62-113.51,8.57c-4.6,1.38-7.08,0.34-10.45-2.32C414.54,217.54,405.94,211.59,397.5,205.43z M772.91,591.9
			c-4.1,4.04-8.2,8.08-13.27,13.07c6.99-21.76,12.93-42.4,11.6-64.33c0.5-0.08,1-0.16,1.51-0.24c2.07,7.38,4.15,14.75,6.22,22.13
			c0.15-0.02,0.29-0.03,0.44-0.05c0-20.16,0-40.33,0-60.83c3.09,4.9,6.02,9.54,8.94,14.18c0.35-0.15,0.7-0.29,1.05-0.44
			c-2.78-11.01-5.55-22.02-8.67-34.37c2.58,2.84,4.18,4.61,5.79,6.39c0.35-0.24,0.69-0.48,1.04-0.73
			c-2.04-5.7-4.07-11.41-6.14-17.19c4.11,0.44,8.14,0.88,13.56,1.46c-8.52-16.3-16.55-31.66-24.72-47.28c5.9,0,11.79,0,18.24,0
			c-5.92-10.15-11.9-19.43-20.53-26.77c-2.87-2.44-5.69-2.68-7.6,0.38c-3.11,5-6.28,10.16-8.16,15.69
			c-5.4,15.89-9.46,32.26-15.31,47.97c-13.46,36.16-38.37,58.86-78.19,63.84c7.18,4.4,14.24,9.09,21.99,11.87
			c15.33,5.51,27.66,14.39,36.38,28.16c0.94,1.49,1.48,3.23,2.21,4.85c-0.35,0.29-0.7,0.57-1.05,0.86
			c-11.81-10.52-25.06-17.84-39.78-19.51c-1.62,8.31-2.09,16.44-4.81,23.72c-9.1,24.3-27.22,40.08-50.27,50.86
			c-1.59,0.75-3.15,2.53-3.79,4.19c-4.2,10.85-7.29,22.21-12.35,32.62c-13.3,27.37-34.02,47.74-63.18,57
			c-45.84,14.56-88.88-0.96-118.81-41.18c-10.59-14.23-16.31-30.8-22.4-47.2c-0.74-1.98-2.82-3.79-4.72-4.96
			c-9.45-5.83-20.16-10.14-28.36-17.35c-17-14.94-27.26-33.76-25.33-57.9c-16.13,2.91-29.37,10.57-41.29,21.26
			c0.75-2.7,1.7-5.13,3.11-7.26c9.35-14.14,22.04-24.16,38.4-28.57c7.59-2.05,12.38-7,18.1-11.88
			c-25.84-3.72-46.69-15.02-60.96-36.59c-5.75-8.69-11.06-17.98-14.68-27.7c-5.96-16.03-10.12-32.71-15.58-48.93
			c-1.64-4.89-4.82-9.35-7.77-13.68c-1.85-2.71-4.41-2.62-7.26-0.41c-9.18,7.13-14.11,17.31-20.62,27c6.67,0,12.6,0,19.24,0
			c-11.75,14.18-17.97,30.46-24.14,47.98c5.18-1.11,9.3-1.99,13.32-2.85c-1.99,5.83-3.95,11.58-5.91,17.34
			c-0.01,0.54-0.02,1.07-0.04,1.61c0.33-0.24,0.66-0.48,0.99-0.73c1.74-1.87,3.47-3.74,5.75-6.19c-3.13,12.42-6.05,23.95-8.96,35.48
			c0.42,0.14,0.85,0.28,1.27,0.42c3.21-5.2,6.41-10.39,9.98-16.17c-1.08,16.91-2.1,32.95-3.12,48.99c0,5.41,0,10.83,0,16.24
			c0.42-0.01,0.84-0.01,1.26-0.02c0.53-4.03,1.05-8.07,1.58-12.1c1.64-4.91,3.27-9.82,4.91-14.73c0.29,15.89,0.95,31.43,5.12,46.65
			c2.01,7.33,3.86,14.69,5.79,22.04l0.09-0.08c-4.13-5.44-8.26-10.88-12.4-16.31c4.55,19.35,14.47,36.17,22.6,53.33
			c-1.23,1.44-1.99,2.99-1.68,4.28c4.16,17.84,12.02,34.15,21.07,49.92c13.31,23.19,29.7,44.22,46.14,65.2
			c1.38,1.76,2.46,3.74,3.68,5.62c-0.44,0.29-0.89,0.59-1.33,0.88c-31.21-23.7-56.28-52.54-73.44-88.41
			c-0.71,8.17-0.39,16.17-0.77,24.13c-1.42,30.11,10.62,55.88,26.26,80.24c14.35,22.35,33.7,40.32,53.58,57.68
			c0.33,0.29,0.82,0.41,1.37,0.67c0.22-1.18,0.42-2.2,0.76-4c11.93,8.6,23.35,16.84,34.77,25.07c0.06-0.44,0.12-0.87,0.18-1.31
			c2.03,0.2,4.28-0.1,6.04,0.69c3.93,1.78,7.59,4.15,11.41,6.18c34.77,18.52,71.9,31.58,108.16,46.64c1.81,0.75,4.58,0.14,6.57-0.66
			c6.02-2.41,11.87-5.25,17.8-7.88c30.72-13.62,62.41-25.13,91.69-41.92c2.31-1.32,4.58-2.77,7.03-3.76
			c0.95-0.39,2.36,0.34,4.92,0.81c8.43-6.78,18.06-14.54,27.7-22.3c0.22,0.23,0.44,0.47,0.67,0.7c-0.6,1.87-1.19,3.74-2.21,6.94
			c4.48-3.67,7.84-6.38,11.14-9.15c36.77-30.84,65.11-67.53,78.83-114.25c1.2-4.08,1.86-8.46,1.92-12.71
			c0.12-9.66-0.29-19.32-0.5-28.99c-0.04-1.71-0.2-3.41-0.31-5.11c-9.37,17.9-19.59,34.76-31.97,50.31
			c-15.36,19.29-36.16,38.11-44.15,39.36c1.05-1.61,1.87-3.05,2.85-4.36c9.04-12.17,18.13-24.3,27.16-36.47
			c16.78-22.61,30.2-47.05,39.82-73.53c1.07-2.96,3.13-6.73,2.15-9.01c-1.99-4.64,1.2-7.06,2.58-10.22
			c1.46-3.34,3.74-6.32,5.24-9.64c5.13-11.34,10.07-22.76,15.08-34.16c0.07-0.41,0.13-0.82,0.2-1.22
			C773.38,591.44,773.14,591.67,772.91,591.9z M441.5,566.55c0.06,0.7,0.11,1.41,0.17,2.11c-12.54,1.77-25.06,3.71-37.62,5.28
			c-12.61,1.57-25.27,2.78-38.2,4.17c1.52,2.67,2.7,5.29,4.41,7.49c0.94,1.21,2.8,2.44,4.23,2.43c15.49-0.1,30.98-0.29,46.46-0.79
			c6.85-0.22,13.67-1.21,20.5-1.84c-8.37,6.55-17.84,9.89-27.93,11.21c-10.11,1.32-20.31,2.03-30.47,3
			c-0.24,0.37-0.47,0.74-0.71,1.11c6.1,3.42,11.91,7.56,18.34,10.15c37.31,14.98,73.17,2.34,101.83-21.97
			c0.63-0.53,1.13-1.22,1.66-1.86c6.19-7.4,5.37-14.36-2.31-20.13c-1.46-1.1-2.82-2.34-4.18-3.56c-3.16-2.83-4.06-5.56-0.88-9.36
			c3.88-4.63,3.28-7.68-1.2-14.44c-2.85-4.3-6.52-6.84-11.76-5.24c-2.43,0.75-4.58,2.42-7.12,3.82
			c-11.64-11.83-17.68-26.19-18.05-42.78c3.26,5.89,6.61,11.96,9.3,16.82c7.89-2.54,14.46-5.84,21.32-6.61
			c11.37-1.28,22.96-1.7,34.38-1.08c10.84,0.59,22.54-0.22,31.19,9.85c3.78-6.12,7.29-11.8,10.41-16.87
			c-1.1,15.53-7.58,29.34-18.45,41.26c-7.73-7.29-12.74-6.81-18.5,1.57c-0.75,1.1-1.43,2.25-2.15,3.37
			c-2.47,3.84-1.81,7.84,1.29,10.42c3.59,2.98,2.51,5.29,0.33,7.9c-1.59,1.9-3.36,3.71-5.31,5.24c-8.68,6.83-9.11,14.97-0.74,22.45
			c3.59,3.2,7.61,5.94,11.57,8.7c24.53,17.07,50.89,24.36,80.33,14.77c9.12-2.97,17.93-6.56,25.54-14.11
			c-21.1-0.09-41.09-1.32-57.88-12.52c20.43,0.52,41.38,1.19,62.33,1.52c8.05,0.13,9.77-1.59,12.5-10.04
			c-25.26-1.69-50.25-5.03-75.08-9.5c0.05-0.69,0.1-1.38,0.14-2.07c26.89-0.81,53.78-1.62,80.88-2.44c0-4.37,0-8.75,0-13.16
			c-27.16,0-53.83,0-80.49,0c23.98-6.75,48.19-11.89,73.81-13.41c-5.58-6.08-10.9-10.46-18.53-11.59
			c-5.58-0.83-11.14-2.18-16.51-3.92c-19.85-6.41-37.74-16.21-50.85-32.87c-17.56-22.34-29.65-47.71-39.64-74.16
			c-1.85-4.9-2.42-9.3,0.4-14.26c3.18-5.58,0.54-11.05-5.75-12.59c-8.72-2.14-17.55-2.05-26.16,0.63c-5.74,1.79-7.7,6.24-4.52,11.31
			c3.42,5.46,3.34,10.47,0.64,15.93c-9.6,19.37-18.49,39.12-28.89,58.04c-11.13,20.25-27.42,35.68-49.5,43.67
			c-10.12,3.66-20.82,5.78-31.31,8.37c-7.33,1.81-13.3,5.4-18.46,12.31c25.07-0.04,48.48,5.11,71.86,10.42
			c-0.01,0.47-0.02,0.94-0.03,1.41c-25.63,0-51.25,0-77.15,0c0,5.33,0,9.72,0,13.84C388.11,564.81,414.81,565.68,441.5,566.55z
			 M600.75,632.2c-0.53-0.24-0.68-0.38-0.83-0.37c-1.33,0.05-2.67,0.07-3.99,0.19c-22.2,2-42.17-3.92-60.2-16.86
			c-6.49-4.66-13.22-9-19.65-13.72c-3.28-2.41-5.85-2.48-9.29-0.03c-8,5.68-16.34,10.89-24.55,16.28
			c-11.47,7.53-23.98,12.43-37.66,13.59c-7.49,0.63-15.09,0.11-22.93,0.11c8.57,33.97,42.22,74.28,91.28,73.35
			C553.42,703.95,595.79,668.91,600.75,632.2z M377.95,346.76c-22.07,0.19-44.02,1.49-64.67,10.28
			c-16.53,7.04-25.31,19.68-26.45,37.8c-1.61,25.51,5.09,49.16,15.81,71.85c9.12,19.31,22.36,34.46,43.54,41.43
			c34.8,11.45,83.56,1.89,107.35-35.49c14.43-22.66,24.92-46.65,26.4-73.81c0.72-13.25-4.4-24.08-15.72-31.5
			c-3.6-2.36-7.34-4.64-11.27-6.38C429.07,350.42,403.88,346.63,377.95,346.76z M646.78,346.73c-26.27-0.38-51.7,3.87-75.97,14.36
			c-19.75,8.54-27.62,20.91-26.05,42.28c1.51,20.5,9.37,39.06,18.82,56.96c16.83,31.86,43.4,49.73,79.29,51.93
			c25.19,1.55,48.74-4.51,65.71-24.87c21.01-25.21,29.98-55.11,29.3-87.57c-0.52-24.69-13.04-39.42-36.7-46.26
			C683.41,348.44,665.24,346.55,646.78,346.73z M270.15,370.54c4.04,3.78,8.33,3.15,12.51,2.35c1.02-0.2,2.56-1.7,2.5-2.51
			c-0.07-0.98-1.42-2.35-2.49-2.69C278.37,366.34,274.23,366.55,270.15,370.54z M752.8,370.6c-3.41-3.76-7.13-4.16-10.93-3.49
			c-1.11,0.2-2.28,1.73-2.8,2.93c-0.24,0.54,0.93,2.43,1.63,2.54C744.64,373.15,748.79,374.18,752.8,370.6z"/>
		<path class="st1" d="M214.23,289.64c2.44,2.37,3.19,4.75-0.24,6.85c-2.45,1.5-2.49,3.09-0.83,5.29
			c4.7,6.22,9.46,12.41,13.83,18.86c1.81,2.68,2.94,5.91,3.92,9.04c0.99,3.16,1.38,6.5,2.11,9.75c1.66,7.4,4.43,14.17,9.75,19.89
			c3.38,3.63,6.07,7.92,8.9,12.02c3.26,4.73,2.96,9.69-0.86,14.12c-2.61,3.02-5.4,5.89-8.18,8.76c-12.1,12.5-19.76,27.77-28,43.6
			c5.53-0.33,10.23-0.61,15.26-0.91c-7.02,13.33-13.79,26.17-20.55,39.02c0.48,0.47,0.97,0.95,1.45,1.42
			c4.55-2.98,9.09-5.97,14.22-9.33c-4.46,16.46-8.79,32.45-13.12,48.43c0.44,0.26,0.88,0.51,1.33,0.77c2.7-2.02,5.39-4.03,9.1-6.81
			c-1.84,12.31-3.52,23.5-5.29,35.29c3.15-1.99,5.78-3.65,9.43-5.95c-1.15,10.42-2.21,19.97-3.27,29.52
			c0.5,0.37,1.01,0.75,1.51,1.12c1.89-2.35,3.77-4.7,6.6-8.23c0.47,5.31,0.85,9.4,1.19,13.49c1.76,21.14,8.48,40.98,15.86,60.65
			c1.05,2.8,2.02,5.64,3.07,8.44c0.35,0.92,0.71,2.5,1.25,2.59c5.8,0.89,4.01,5.01,3.55,8.33c-3.47,24.75-6.54,49.52-5.19,74.6
			c0.13,2.43,0.41,4.86,0.67,7.82c2.24-1.02,3.83-1.75,5.58-2.55c1.46,12.78,2.9,25.47,4.47,39.28c1.87-1.72,2.64-2.43,3.4-3.13
			c0.31,0.24,0.72,0.39,0.75,0.59c2.13,14.74,11.14,26.15,18.44,38.4c0.56,0.94,0.43,2.28,0.61,3.44
			c-22.12-18.92-41.38-40.5-59.06-63.54c-25.43-33.14-46.03-69.01-60.06-108.41c-10.88-30.54-17.77-62.07-20.88-94.37
			c-2.85-29.59-2.96-59.28-0.74-88.86c2.32-30.9,9.78-60.87,21.45-89.55c7.13-17.52,16.1-34.28,24.24-51.39
			c0.31-0.39,0.63-0.79,0.94-1.18c0,0-0.11,0.11-0.11,0.11c0.38-0.81,0.77-1.61,1.15-2.42l-0.06-0.28c0,0,0.21-0.19,0.21-0.19
			c0.29-0.39,0.57-0.77,0.86-1.16c0,0-0.1,0.07-0.1,0.07c0.37-0.67,0.74-1.35,1.11-2.02c0,0-0.03,0.05-0.03,0.05
			c0.31-0.39,0.62-0.79,0.94-1.18c0,0-0.12,0.07-0.12,0.07c0.38-0.67,0.76-1.34,1.14-2c0,0-0.05,0.07-0.05,0.07
			c0.38-0.67,0.76-1.33,1.13-2c0,0-0.02,0.04-0.02,0.04c0.32-0.39,0.63-0.77,0.95-1.16c0,0-0.12,0.05-0.12,0.05
			c0.66-1.03,1.32-2.07,1.98-3.1c0,0-0.01,0.08-0.01,0.08c0.75-1.3,1.49-2.6,2.23-3.9c0,0-0.02,0.02-0.02,0.02
			c0.68-0.99,1.36-1.99,2.04-2.98c0,0,0-0.01,0-0.01c3.28-2.3,6.56-4.6,9.8-6.86C213.86,288.41,214.04,289.03,214.23,289.64z"/>
		<path class="st1" d="M732.03,813.04c0.25-1.26,0.22-2.67,0.8-3.76c6.38-12.03,12.85-24.02,19.41-36.21c0.84,1,1.6,1.89,2.91,3.46
			c5.74-13.32,7.67-26.93,10.31-40.95c2.07,0.77,3.81,1.43,6.1,2.28c1.66-30.09-1.53-59.52-6.97-88.81c0.54,0.17,1.08,0.33,1.62,0.5
			c1.38-1.23,3.5-2.2,4.04-3.73c5.83-16.45,12.1-32.8,16.8-49.59c2.74-9.82,2.86-20.37,4.16-30.59c0.1-0.78,0.21-1.56,1.48-3.17
			c1.77,2.88,3.55,5.76,5.32,8.64c0.89-0.56,1.77-1.12,2.66-1.69c-0.88-9.93-1.75-19.86-2.73-30.95c3.54,2.82,6.29,5.02,9.82,7.83
			c-1.81-12.45-3.49-23.98-5.34-36.64c4.07,3.47,7.23,6.17,10.4,8.87c0.5-0.31,1-0.62,1.49-0.93c-4.88-16.06-9.77-32.11-14.73-48.43
			c5.49,1.08,7.99,7.05,14.81,7.34c-7.01-13.6-13.35-25.9-19.83-38.46c4.53,0,9.22,0,14.81,0c-0.92-2.08-1.6-3.62-2.29-5.16
			c-8.02-17.84-19.2-33.44-33.31-46.96c-4.58-4.39-4.63-12.07-0.46-16.87c8.99-10.34,17.47-20.89,19.22-35.32
			c1.38-11.37,10.11-19.25,14.88-29.04c1.73-3.56,4.04-6.85,5.75-10.42c0.79-1.65,0.78-3.68,1.13-5.55
			c7.38,10.82,15.62,21.15,21.98,32.54c19.85,35.56,34.42,73.18,41.07,113.56c4.62,28.05,5.33,56.28,3.98,84.65
			c-2.2,46.1-13.31,90.13-30.48,132.71c-20.74,51.43-52.55,95.53-91.18,134.9C750.82,796.11,741.26,804.41,732.03,813.04z"/>
		<path class="st1" d="M670.4,155.18c-7.64,8.53-14.99,17.36-23.09,25.43c-2.72,2.72-7.66,3.05-11.03,5.31
			c-12.55,8.42-24.82,17.27-37.34,25.75c-1.63,1.1-4.16,1.66-6.11,1.37c-19.4-2.88-38.67-6.94-58.16-8.84
			c-34.79-3.39-69.16,0.73-103.05,8.92c-3.41,0.82-5.46-0.22-8.01-2.16c-10.59-8.05-20.58-17.46-32.32-23.26
			c-12.88-6.36-22.71-15.3-31.84-25.7c-1.97-2.24-4.15-4.3-6.24-6.44c15.24-5.21,30.31-11,45.75-15.53
			c35.1-10.29,71.26-13.32,107.64-13.62c53.99-0.44,106.95,6.08,157.74,25.59C666.46,152.81,668.39,154.11,670.4,155.18z"/>
		<path class="st2" d="M214.23,289.64c-0.19-0.61-0.38-1.23-0.47-1.54c-3.23,2.26-6.52,4.56-9.8,6.86c5.5-7.06,11-14.12,16.5-21.17
			c0.59,2.17,1.19,4.32,1.64,5.96C219.35,283.21,216.79,286.43,214.23,289.64z"/>
		<path class="st2" d="M201.94,297.93c-0.74,1.3-1.49,2.6-2.23,3.9C200.45,300.53,201.2,299.23,201.94,297.93z"/>
		<path class="st2" d="M203.96,294.97c-0.68,0.99-1.36,1.99-2.04,2.98C202.6,296.95,203.28,295.96,203.96,294.97z"/>
		<path class="st2" d="M199.72,301.75c-0.66,1.03-1.32,2.07-1.98,3.1C198.4,303.82,199.06,302.78,199.72,301.75z"/>
		<path class="st2" d="M196.93,305.92c-0.38,0.67-0.75,1.33-1.13,2C196.17,307.25,196.55,306.59,196.93,305.92z"/>
		<path class="st2" d="M195.84,307.84c-0.38,0.67-0.76,1.34-1.14,2C195.08,309.18,195.46,308.51,195.84,307.84z"/>
		<path class="st2" d="M191.9,314.48c-0.38,0.81-0.77,1.61-1.15,2.42C191.13,316.09,191.51,315.29,191.9,314.48z"/>
		<path class="st2" d="M193.92,310.9c-0.37,0.67-0.74,1.35-1.11,2.02C193.18,312.25,193.55,311.58,193.92,310.9z"/>
		<path class="st2" d="M194.82,309.77c-0.31,0.39-0.62,0.79-0.94,1.18C194.2,310.56,194.51,310.17,194.82,309.77z"/>
		<path class="st2" d="M190.86,316.79c-0.31,0.39-0.63,0.79-0.94,1.18C190.23,317.58,190.54,317.19,190.86,316.79z"/>
		<path class="st2" d="M197.86,304.8c-0.32,0.39-0.63,0.77-0.95,1.16C197.22,305.57,197.54,305.18,197.86,304.8z"/>
		<path class="st2" d="M192.91,312.85c-0.29,0.39-0.57,0.77-0.86,1.16C192.33,313.63,192.62,313.24,192.91,312.85z"/>
		<path class="st3" d="M244.31,549.93c1.02-16.04,2.05-32.08,3.12-48.99c-3.57,5.78-6.77,10.98-9.98,16.17
			c-0.42-0.14-0.85-0.28-1.27-0.42c2.91-11.53,5.83-23.07,8.96-35.48c-2.28,2.45-4.02,4.32-5.75,6.19
			c-0.32-0.29-0.63-0.59-0.95-0.88c1.96-5.75,3.92-11.5,5.91-17.34c-4.02,0.86-8.14,1.74-13.32,2.85
			c6.17-17.52,12.39-33.8,24.14-47.98c-6.65,0-12.57,0-19.24,0c6.5-9.69,11.43-19.87,20.62-27c2.85-2.21,5.41-2.3,7.26,0.41
			c2.95,4.33,6.12,8.79,7.77,13.68c5.46,16.23,9.62,32.91,15.58,48.93c3.61,9.72,8.93,19.01,14.68,27.7
			c14.26,21.57,35.12,32.87,60.96,36.59c-5.72,4.88-10.52,9.83-18.1,11.88c-16.36,4.41-29.05,14.44-38.4,28.57
			c-1.41,2.13-2.37,4.56-3.11,7.26c11.92-10.69,25.16-18.36,41.29-21.26c-1.93,24.14,8.32,42.96,25.33,57.9
			c8.2,7.2,18.91,11.52,28.36,17.35c1.9,1.17,3.99,2.98,4.72,4.96c6.1,16.4,11.81,32.96,22.4,47.2
			c29.93,40.22,72.97,55.74,118.81,41.18c29.17-9.26,49.88-29.64,63.18-57c5.06-10.41,8.15-21.78,12.35-32.62
			c0.64-1.66,2.2-3.44,3.79-4.19c23.05-10.78,41.17-26.57,50.27-50.86c2.73-7.28,3.2-15.41,4.81-23.72
			c14.72,1.67,27.97,8.99,39.78,19.51c0.35-0.29,0.7-0.57,1.05-0.86c-0.73-1.62-1.27-3.36-2.21-4.85
			c-8.73-13.76-21.06-22.64-36.38-28.16c-7.75-2.79-14.81-7.47-21.99-11.87c39.82-4.98,64.73-27.68,78.19-63.84
			c5.85-15.71,9.91-32.08,15.31-47.97c1.88-5.53,5.05-10.69,8.16-15.69c1.9-3.06,4.73-2.82,7.6-0.38
			c8.63,7.34,14.61,16.62,20.53,26.77c-6.45,0-12.34,0-18.24,0c8.17,15.62,16.2,30.98,24.72,47.28c-5.43-0.59-9.46-1.02-13.56-1.46
			c2.06,5.78,4.1,11.48,6.14,17.19c-0.35,0.24-0.69,0.48-1.04,0.73c-1.61-1.77-3.21-3.55-5.79-6.39
			c3.11,12.35,5.89,23.36,8.67,34.37c-0.35,0.15-0.7,0.29-1.05,0.44c-2.93-4.64-5.85-9.28-8.94-14.18c0,20.5,0,40.67,0,60.83
			c-0.15,0.02-0.29,0.03-0.44,0.05c-2.07-7.38-4.15-14.75-6.22-22.13c-0.5,0.08-1,0.16-1.51,0.24c1.33,21.94-4.61,42.58-11.6,64.33
			c5.07-4.99,9.17-9.03,13.27-13.07c0.17,0.18,0.34,0.35,0.52,0.52c-5.01,11.39-9.96,22.82-15.08,34.16
			c-1.5,3.33-3.78,6.3-5.24,9.64c-1.38,3.16-4.57,5.59-2.58,10.22c0.98,2.28-1.08,6.06-2.15,9.01
			c-9.62,26.48-23.04,50.92-39.82,73.53c-9.03,12.17-18.12,24.31-27.16,36.47c-0.98,1.32-1.8,2.75-2.85,4.36
			c7.99-1.25,28.79-20.07,44.15-39.36c12.38-15.55,22.6-32.41,31.97-50.31c0.11,1.7,0.27,3.41,0.31,5.11
			c0.22,9.66,0.62,19.33,0.5,28.99c-0.05,4.25-0.72,8.63-1.92,12.71c-13.72,46.72-42.06,83.4-78.83,114.25
			c-3.3,2.77-6.66,5.48-11.14,9.15c1.02-3.19,1.62-5.07,2.21-6.94c-0.22-0.23-0.44-0.47-0.67-0.7c-9.64,7.76-19.27,15.52-27.7,22.3
			c-2.56-0.47-3.96-1.2-4.92-0.81c-2.45,0.99-4.72,2.44-7.03,3.76c-29.28,16.79-60.96,28.3-91.69,41.92
			c-5.93,2.63-11.78,5.47-17.8,7.88c-1.99,0.8-4.76,1.41-6.57,0.66c-36.26-15.06-73.39-28.12-108.16-46.64
			c-3.82-2.03-7.48-4.41-11.41-6.18c-1.76-0.79-4.01-0.5-6.04-0.69c-0.06,0.44-0.12,0.87-0.18,1.31
			c-11.42-8.23-22.84-16.47-34.77-25.07c-0.34,1.8-0.53,2.83-0.76,4c-0.55-0.26-1.03-0.38-1.37-0.67
			c-19.87-17.36-39.23-35.33-53.58-57.68c-15.64-24.35-27.67-50.13-26.26-80.24c0.37-7.96,0.06-15.96,0.77-24.13
			c17.16,35.87,42.24,64.71,73.44,88.41c0.44-0.29,0.89-0.59,1.33-0.88c-1.22-1.88-2.31-3.86-3.68-5.62
			c-16.44-20.98-32.83-42.01-46.14-65.2c-9.05-15.77-16.91-32.09-21.07-49.92c-0.3-1.3,0.46-2.84,1.68-4.28
			c-8.13-17.16-18.05-33.98-22.6-53.33c4.13,5.44,8.26,10.88,12.4,16.31c0.06,0.3,0.12,0.6,0.18,0.9c0.14-0.11,0.27-0.23,0.41-0.34
			c-0.23-0.16-0.45-0.32-0.68-0.48c-1.92-7.35-3.78-14.72-5.79-22.04c-4.17-15.22-4.82-30.76-5.12-46.65
			c-1.64,4.91-3.27,9.82-4.91,14.73c-0.24-1.75-0.48-3.49-0.71-5.19C245.76,549.21,245.04,549.57,244.31,549.93z"/>
		<path class="st3" d="M220.19,89.1c-0.31-3.91,2.59-2.45,4.03-2.02c8.13,2.37,16.48,4.32,24.2,7.69
			c31.68,13.83,58.79,34.43,83.85,57.92c14.6,13.69,28.77,27.75,40.2,44.33c9.09,13.19,12.61,22.71,13.63,39.59
			c4.97-6.72,9.66-12.6,13.82-18.83c3.1-4.65-1.44-7.92-3.02-11.69c0.22-0.21,0.42-0.43,0.6-0.66c8.44,6.16,17.04,12.12,25.24,18.58
			c3.36,2.65,5.85,3.7,10.45,2.32c37.16-11.19,75.14-14.02,113.51-8.57c15.9,2.26,31.49,6.6,47.28,9.7
			c1.65,0.32,3.95-0.93,5.48-2.08c7.98-5.97,15.79-12.16,23.7-18.23c0.77-0.59,1.74-0.92,2.62-1.37c0.32,0.24,0.63,0.47,0.95,0.71
			c-5.3,8.49-5.31,9.19,0.73,17.1c3.03,3.97,6.22,7.81,9.35,11.69c0.17,0.21,0.52,0.27,0.98,0.5c1.33-27.07,17.28-46.37,34.66-64.67
			c22.19-23.36,46.4-44.45,73.8-61.57c15.99-9.99,32.72-18.5,51.54-21.9c1.69-0.31,3.6,0.62,5.42,0.97
			c-3.11,3.14-6.76,5.91-9.23,9.49c-10.74,15.56-24.29,28.11-39.72,38.82c-18.32,12.72-36.18,26.01-51.41,42.47
			c-0.94,1.01-1.83,2.06-3.14,3.53c13.48-5.11,26.27-9.96,39.06-14.81c0.09,0.66,0.18,1.32,0.27,1.97
			c-12.65,10.7-25.3,21.41-37.95,32.11c0.19,0.42,0.38,0.85,0.57,1.27c16.06-5.47,32-11.59,50.4-10.39
			c-14.35,6.2-27.66,12.23-38.94,21.7c-15.27,12.82-26.14,25.5-28.34,32.41c14.57-4.78,34.58-6.59,40.86-3.53
			c-7.54,2.92-14.4,6.44-18.82,13.45c-0.68,1.07-2.76,1.31-4.23,1.82c-5.48,1.89-11.22,3.21-16.39,5.72
			c-5.44,2.64-5.43,5.41-0.88,9.3c1.51,1.29,3.18,2.41,4.8,3.58c17.47,12.6,34.01,26.22,47.35,43.34c0.67,0.86,1.62,1.51,3.24,2.99
			c8.84-10.31,17.44-20.36,26.82-31.3c0,4.25,0,7.4,0,11.61c2.85-3.25,4.97-5.57,6.98-7.99c3.38-4.06,6.7-8.17,10.04-12.26
			c-0.31,5.59-0.61,11.17-1,18.21c4.87-5.73,8.84-10.4,12.81-15.06c0.54,0.3,1.08,0.6,1.63,0.89c-7.47,22.1-15.63,43.93-26.54,64.59
			c-21.22-7.26-41.93-9.91-62.68-12.4c-28.03-3.36-56.19-4.8-84.26-1.94c-16.96,1.73-33.85,5.27-50.39,9.49
			c-8.32,2.12-15.75,7.67-23.66,11.49c-1.79,0.86-4.06,1.61-5.91,1.29c-21.05-3.62-42.08-3.55-63.15-0.16
			c-1.78,0.29-4.07,0.17-5.54-0.72c-23.1-14.06-48.73-19.44-75.16-21.52c-46.69-3.68-92.8,0.44-138.29,11.53
			c-2.26,0.55-4.29,2.05-7,3.39c-4.81-3.74-8.15-9.28-10.65-15.54c-4.36-10.94-9.06-21.75-13.33-32.73
			c-2.06-5.31-3.45-10.87-5.14-16.32c0.55-0.3,1.09-0.6,1.64-0.9c4.03,4.46,8.07,8.92,12.18,13.46c0-5.08,0-10.14,0-15.19
			c5.2,5.9,10.39,11.8,15.96,18.12c0.38-4.51,0.71-8.36,1.02-11.91c8.9,10.62,17.68,21.1,26.35,31.44
			c10.22-10.28,19.21-20.36,29.31-29.18c10.04-8.77,21.2-16.26,32.52-24.81c-13.6-13.43-32.14-16.32-46.95-28.36
			c14.26,1.58,27.37,3.02,41.17,4.55c-18.09-23.26-40.35-40.59-66.64-53.06c17.43,0.38,33.8,5.06,49.72,11.79
			c0.34-0.59,0.69-1.18,1.03-1.77c-14.09-11.99-28.17-23.98-41.69-35.48c14.73,2.91,29.01,10.18,43.68,16.67
			c-1.62-2.63-3.5-4.71-5.5-6.67c-18.54-18.16-39.85-32.77-61.07-47.48c-11.19-7.75-21.08-16.75-28.86-28.04
			C227.13,97.18,223.52,93.23,220.19,89.1z"/>
		<path class="st4" d="M441.5,566.55c-26.7-0.87-53.4-1.74-80.52-2.62c0-4.12,0-8.51,0-13.84c25.9,0,51.53,0,77.15,0
			c0.01-0.47,0.02-0.94,0.03-1.41c-23.38-5.31-46.79-10.46-71.86-10.42c5.16-6.91,11.13-10.5,18.46-12.31
			c10.49-2.59,21.19-4.7,31.31-8.37c22.08-7.99,38.37-23.42,49.5-43.67c10.4-18.92,19.29-38.68,28.89-58.04
			c2.71-5.46,2.78-10.47-0.64-15.93c-3.17-5.07-1.21-9.52,4.52-11.31c8.6-2.69,17.44-2.77,26.16-0.63
			c6.29,1.54,8.93,7.01,5.75,12.59c-2.82,4.95-2.26,9.35-0.4,14.26c9.99,26.45,22.07,51.82,39.64,74.16
			c13.11,16.67,30.99,26.46,50.85,32.87c5.37,1.73,10.93,3.09,16.51,3.92c7.64,1.13,12.96,5.51,18.53,11.59
			c-25.61,1.51-49.82,6.66-73.81,13.41c26.67,0,53.33,0,80.49,0c0,4.42,0,8.79,0,13.16c-27.1,0.82-53.99,1.63-80.88,2.44
			c-0.05,0.69-0.1,1.38-0.14,2.07c24.83,4.46,49.82,7.81,75.08,9.5c-2.73,8.45-4.46,10.17-12.5,10.04c-20.95-0.33-41.9-1-62.33-1.52
			c16.79,11.2,36.78,12.43,57.88,12.52c-7.61,7.55-16.41,11.13-25.54,14.11c-29.43,9.59-55.8,2.3-80.33-14.77
			c-3.96-2.76-7.98-5.49-11.57-8.7c-8.37-7.48-7.95-15.61,0.74-22.45c1.94-1.53,3.72-3.34,5.31-5.24c2.17-2.61,3.26-4.92-0.33-7.9
			c-3.1-2.57-3.76-6.58-1.29-10.42c0.72-1.12,1.4-2.27,2.15-3.37c5.76-8.38,10.76-8.86,18.5-1.57
			c10.87-11.92,17.35-25.73,18.45-41.26c-3.13,5.07-6.64,10.75-10.41,16.87c-8.65-10.07-20.35-9.26-31.19-9.85
			c-11.42-0.62-23.01-0.2-34.38,1.08c-6.86,0.77-13.43,4.07-21.32,6.61c-2.68-4.85-6.04-10.93-9.3-16.82
			c0.36,16.6,6.4,30.95,18.05,42.78c2.54-1.4,4.69-3.07,7.12-3.82c5.24-1.61,8.91,0.93,11.76,5.24c4.48,6.76,5.08,9.81,1.2,14.44
			c-3.18,3.8-2.28,6.52,0.88,9.36c1.36,1.22,2.72,2.46,4.18,3.56c7.69,5.77,8.5,12.73,2.31,20.13c-0.53,0.64-1.03,1.33-1.66,1.86
			c-28.66,24.31-64.52,36.96-101.83,21.97c-6.43-2.58-12.24-6.72-18.34-10.15c0.24-0.37,0.47-0.74,0.71-1.11
			c10.16-0.97,20.36-1.68,30.47-3c10.08-1.32,19.55-4.66,27.93-11.21c-6.83,0.64-13.65,1.62-20.5,1.84
			c-15.48,0.5-30.97,0.69-46.46,0.79c-1.43,0.01-3.29-1.22-4.23-2.43c-1.71-2.2-2.88-4.82-4.41-7.49c12.93-1.4,25.59-2.6,38.2-4.17
			c12.56-1.57,25.08-3.5,37.62-5.28C441.62,567.95,441.56,567.25,441.5,566.55z"/>
		<path class="st2" d="M784.53,283.89c-3.34,4.09-6.66,8.21-10.04,12.26c-2.01,2.41-4.13,4.73-6.98,7.99c0-4.21,0-7.35,0-11.61
			c-9.37,10.94-17.98,20.99-26.82,31.3c-1.62-1.48-2.57-2.12-3.24-2.99c-13.34-17.11-29.88-30.74-47.35-43.34
			c-1.62-1.17-3.29-2.28-4.8-3.58c-4.55-3.89-4.56-6.66,0.88-9.3c5.17-2.5,10.91-3.83,16.39-5.72c1.47-0.51,3.55-0.74,4.23-1.82
			c4.43-7.01,11.28-10.53,18.82-13.45c-6.29-3.06-26.3-1.25-40.86,3.53c2.2-6.91,13.08-19.58,28.34-32.41
			c11.28-9.47,24.59-15.5,38.94-21.7c-18.41-1.2-34.34,4.92-50.4,10.39c-0.19-0.42-0.38-0.85-0.57-1.27
			c12.65-10.7,25.3-21.41,37.95-32.11c2.75-1.37,5.51-2.74,8.26-4.1c-0.14-0.31-0.28-0.63-0.43-0.94c-2.7,1.02-5.4,2.05-8.1,3.07
			c-12.79,4.85-25.57,9.7-39.06,14.81c1.3-1.47,2.2-2.52,3.14-3.53c15.24-16.45,33.1-29.75,51.41-42.47
			c15.43-10.72,28.99-23.27,39.72-38.82c2.47-3.58,6.12-6.34,9.23-9.49c2.51,7.3,5.75,14.45,7.41,21.94
			c8.54,38.63,6.18,76.99-3.39,115.17C802.11,246.11,794.62,265.48,784.53,283.89z M749.72,164.43l0.35,0.06l-0.03,0.07
			L749.72,164.43z"/>
		<path class="st2" d="M220.19,89.1c3.33,4.14,6.94,8.08,9.94,12.44c7.77,11.29,17.67,20.29,28.86,28.04
			c21.22,14.71,42.53,29.32,61.07,47.48c2,1.96,3.88,4.04,5.5,6.67c-14.67-6.48-28.95-13.75-43.68-16.67
			c13.51,11.5,27.6,23.49,41.69,35.48c-0.34,0.59-0.69,1.18-1.03,1.77c-15.92-6.73-32.29-11.41-49.72-11.79
			c26.28,12.47,48.55,29.8,66.64,53.06c-13.8-1.52-26.91-2.97-41.17-4.55c14.8,12.05,33.35,14.93,46.95,28.36
			c-11.32,8.55-22.48,16.04-32.52,24.81c-10.1,8.82-19.09,18.9-29.31,29.18c-8.66-10.34-17.45-20.83-26.35-31.44
			c-0.3,3.55-0.63,7.4-1.02,11.91c-5.57-6.32-10.76-12.22-15.96-18.12c-10.05-19.04-17.97-38.83-22.69-59.94
			c-9.75-43.64-11.97-87.17,0.57-130.67C218.55,93.07,219.44,91.11,220.19,89.1z"/>
		<path class="st3" d="M600.75,632.2c-4.95,36.71-47.32,71.75-87.82,72.52c-49.06,0.94-82.71-39.38-91.28-73.35
			c7.84,0,15.43,0.52,22.93-0.11c13.68-1.16,26.19-6.06,37.66-13.59c8.21-5.39,16.54-10.6,24.55-16.28
			c3.44-2.44,6.01-2.37,9.29,0.03c6.44,4.73,13.16,9.07,19.65,13.72c18.03,12.94,38,18.86,60.2,16.86c1.33-0.12,2.66-0.14,3.99-0.19
			C600.06,631.82,600.22,631.95,600.75,632.2z"/>
		<path class="st5" d="M377.95,346.76c25.92-0.13,51.12,3.66,75,14.19c3.93,1.73,7.67,4.01,11.27,6.38
			c11.32,7.42,16.44,18.25,15.72,31.5c-1.48,27.16-11.98,51.14-26.4,73.81c-23.8,37.38-72.55,46.94-107.35,35.49
			c-21.19-6.97-34.42-22.13-43.54-41.43c-10.72-22.69-17.42-46.33-15.81-71.85c1.15-18.12,9.92-30.76,26.45-37.8
			C333.94,348.25,355.88,346.95,377.95,346.76z M376.46,353.05c-5.99,0-12.02-0.4-17.97,0.08c-15.44,1.23-30.89,2.56-44.99,10
			c-13.08,6.9-19.8,17.61-20.61,32.4c-1.32,24.38,4.18,47.27,14.78,69c5.26,10.78,11.37,21.1,21.16,28.67
			c14.84,11.47,31.74,14.84,50.17,14.57c23.82-0.34,44.84-6.78,60.55-25.38c19.01-22.52,30.54-48.66,34.42-77.88
			c2.14-16.16-3.9-28.7-19.05-36.07c-3.13-1.52-6.25-3.11-9.47-4.44C423.33,354.9,400.07,352.67,376.46,353.05z"/>
		<path class="st5" d="M646.78,346.73c18.47-0.18,36.64,1.7,54.39,6.83c23.67,6.84,36.19,21.57,36.7,46.26
			c0.68,32.46-8.28,62.36-29.3,87.57c-16.97,20.36-40.52,26.42-65.71,24.87c-35.89-2.2-62.46-20.07-79.29-51.93
			c-9.45-17.9-17.31-36.45-18.82-56.96c-1.57-21.36,6.3-33.74,26.05-42.28C595.08,350.61,620.51,346.36,646.78,346.73z
			 M646.23,507.74c1.83,0,3.67,0.06,5.49-0.01c21.25-0.78,40.45-7.27,53.69-24.41c19.4-25.11,28.05-54.02,26.17-85.95
			c-1.31-22.29-13.08-33.63-34.62-39.3c-24.16-6.36-48.75-6.53-73.43-4.44c-19.05,1.62-37.55,5.54-54.51,14.86
			c-14.46,7.94-20.39,20.09-18.6,36.51c2.27,20.8,10.52,39.45,20.37,57.47C587.06,492.17,612.17,507.54,646.23,507.74z"/>
		<path class="st5" d="M270.15,370.54c4.08-3.99,8.22-4.21,12.52-2.85c1.07,0.34,2.42,1.71,2.49,2.69c0.06,0.81-1.48,2.31-2.5,2.51
			C278.48,373.69,274.19,374.32,270.15,370.54z"/>
		<path class="st5" d="M752.8,370.6c-4.01,3.58-8.15,2.55-12.1,1.97c-0.7-0.1-1.87-1.99-1.63-2.54c0.52-1.19,1.69-2.73,2.8-2.93
			C745.66,366.44,749.38,366.84,752.8,370.6z"/>
		<path class="st5" d="M244.31,549.93c0.72-0.36,1.44-0.72,2.13-1.06c0.23,1.69,0.47,3.44,0.71,5.19c-0.53,4.03-1.05,8.07-1.58,12.1
			c-0.42,0.01-0.84,0.01-1.26,0.02C244.31,560.76,244.31,555.34,244.31,549.93z"/>
		<path class="st3" d="M772.91,591.9c0.24-0.23,0.47-0.47,0.71-0.7c-0.07,0.41-0.13,0.82-0.2,1.22
			C773.25,592.26,773.08,592.08,772.91,591.9z"/>
		<path class="st3" d="M396.9,206.09c-0.19-0.29-0.38-0.59-0.57-0.88c0.39,0.07,0.78,0.15,1.17,0.22
			C397.32,205.67,397.12,205.89,396.9,206.09z"/>
		<path class="st3" d="M625.77,205.77c0.31-0.15,0.62-0.31,0.93-0.46c0,0.39,0.01,0.78,0.01,1.17
			C626.4,206.25,626.09,206.01,625.77,205.77z"/>
		<path class="st3" d="M239.39,487.4c-0.33,0.24-0.66,0.48-0.99,0.73c0.01-0.54,0.02-1.07,0.04-1.61
			C238.76,486.81,239.08,487.11,239.39,487.4z"/>
		<path class="st0" d="M262.97,608.02c0.23,0.16,0.45,0.32,0.68,0.48c-0.14,0.11-0.27,0.23-0.41,0.34c-0.06-0.3-0.12-0.6-0.18-0.9
			C263.05,607.94,262.97,608.02,262.97,608.02z"/>
		<path class="st5" d="M738.74,168.1c2.7-1.02,5.4-2.05,8.1-3.07c0.14,0.31,0.28,0.63,0.43,0.94c-2.75,1.37-5.51,2.74-8.26,4.1
			C738.92,169.42,738.83,168.76,738.74,168.1z"/>
		<polygon class="st5" points="749.72,164.43 750.05,164.56 750.08,164.49 		"/>
		<path class="st6" d="M376.46,353.05c23.61-0.38,46.88,1.86,68.99,10.95c3.22,1.32,6.33,2.91,9.47,4.44
			c15.15,7.37,21.2,19.9,19.05,36.07c-3.88,29.22-15.41,55.37-34.42,77.88c-15.71,18.61-36.73,25.04-60.55,25.38
			c-18.43,0.26-35.33-3.11-50.17-14.57c-9.79-7.57-15.9-17.89-21.16-28.67c-10.61-21.73-16.11-44.62-14.78-69
			c0.8-14.79,7.53-25.49,20.61-32.4c14.1-7.44,29.55-8.77,44.99-10C364.44,352.65,370.47,353.05,376.46,353.05z M333.89,372.52
			c9.46,0.92,18.55,1.04,27.29,2.86c8.68,1.81,17,5.33,25.6,8.14C375.89,365.59,358.9,363.94,333.89,372.52z"/>
		<path class="st6" d="M646.23,507.74c-34.06-0.2-59.17-15.57-75.42-45.28c-9.85-18.02-18.1-36.68-20.37-57.47
			c-1.79-16.42,4.14-28.57,18.6-36.51c16.97-9.32,35.46-13.24,54.51-14.86c24.68-2.09,49.28-1.92,73.43,4.44
			c21.54,5.67,33.31,17.02,34.62,39.3c1.87,31.93-6.77,60.84-26.17,85.95c-13.24,17.14-32.45,23.63-53.69,24.41
			C649.9,507.8,648.06,507.74,646.23,507.74z M635.39,385.02c16.69-9.37,34.5-13.21,53.49-11.77
			C668.05,363.72,646.48,365.06,635.39,385.02z"/>
		<path class="st5" d="M333.89,372.52c25.01-8.58,42-6.94,52.9,11c-8.61-2.81-16.93-6.33-25.6-8.14
			C352.44,373.56,343.35,373.44,333.89,372.52z"/>
		<path class="st5" d="M635.39,385.02c11.09-19.96,32.66-21.3,53.49-11.77C669.89,371.81,652.08,375.65,635.39,385.02z"/>
	</g>
</g>
</svg>
