<?xml version="1.0" encoding="utf-8"?>
<!-- Generator: Adobe Illustrator 25.4.1, SVG Export Plug-In . SVG Version: 6.00 Build 0)  -->
<svg version="1.1" id="Layer_1" xmlns="http://www.w3.org/2000/svg" xmlns:xlink="http://www.w3.org/1999/xlink" x="0px" y="0px"
	 viewBox="0 0 535 556" style="enable-background:new 0 0 535 556;" xml:space="preserve">
<style type="text/css">
	.st0{fill:#FCFCFC;}
	.st1{fill:#F5F5F6;}
	.st2{fill:#171826;}
	.st3{fill:#DA2C2F;}
	.st4{fill:#171724;}
	.st5{fill:#1D1927;}
	.st6{fill:#1B1D2A;}
	.st7{fill:#F0F0EE;}
	.st8{fill:#D22B2E;}
</style>
<g>
	<g>
		<path class="st0" d="M193,510c-0.67-0.67-1.33-1.33-2-2c0.03-3.37-1.63-5.03-5-5c-2.67-2.67-5.33-5.33-8-8
			c-0.52-1.43-1.03-2.85-1.55-4.28c-0.82,0.63-1.64,1.25-2.46,1.88c0,1.8,0,3.6,0,5.4c-0.34,1-0.67,2-1.01,2.99
			c-1.33,0.34-2.66,0.68-3.99,1.02c-5.67-5.33-11.34-10.67-17.01-16c1.86-2.49,4.08-3.89,7.17-2.19c3.01,1.65,5.96,3.42,8.94,5.14
			c0.38-0.44,0.75-0.88,1.13-1.32c-1.35-1.21-2.69-2.42-4.04-3.63c-1.47-3.79-2.95-7.57-4.42-11.36c-0.49-0.88-0.97-1.77-1.46-2.65
			c-3.46-13.8-6.44-27.67-5.21-42.05c-0.41-0.79-0.65-2.01-1.27-2.26c-0.78-0.31-1.88,0.18-2.84,0.32
			c-5.96-12.73-8.84-26.27-10.48-40.14c0-2.72,2.24-5.87-1.52-7.86l0,0c0.24-2.11,0.47-4.22,0.71-6.33
			c-0.51-0.05-1.02-0.1-1.54-0.15c-0.38,2.5-0.76,5-1.13,7.5c-3.74,16.13-4.23,32.43-2.52,48.84c-3.05,2.74-1.56,9.64,2.4,11.15
			c1.09,3.2,2.19,6.4,3.28,9.6c-0.99,1.05-1.98,2.11-2.98,3.16c0.47,0.06,0.94,0.12,1.41,0.18c0.16,2.8,0.07,5.66,0.6,8.39
			c0.26,1.34,1.46,3.15,2.63,3.54c5.42,1.8,7.12,4.19,6.43,9.39c1.44,1.2,2.66,2.23,4.44,3.72c-3.37,0-5.55,0-7.73,0
			c-4-5.67-8-11.33-12.01-17c0.91-1.05,1.83-2.11,3.2-3.7c-2.8-1.1-5.16-2.03-7.86-3.09c-0.15,1.24-0.24,2.02-0.33,2.79
			c-1.69,2.96-3.38,5.91-5.62,9.81c-2.76-2.92-5.65-4.88-7.03-7.61c-6.58-13.07-12.74-26.34-19.05-39.54
			c-0.43-0.9-0.87-1.78-1.31-2.67c-1.13-4.17-2.13-8.39-3.52-12.48c-0.27-0.79-2.12-1.04-3.25-1.53
			c-0.28-6.13-0.32-12.29-0.89-18.39c-1.94-20.72,0.92-41.16,3.39-61.62c0.59-0.36,1.19-0.73,1.78-1.09
			c-0.5-0.3-1.01-0.59-1.51-0.89c0.19-1.34,0.39-2.69,0.58-4.03c4-4.75-0.6-7.22-2.75-10.34c1.29-1.83,2.59-3.66,3.88-5.49
			c0.93,0.91,1.85,1.81,2.78,2.72c1.06-1.12,2.86-2.16,3-3.39c0.17-1.43-1.11-3.03-1.76-4.56c8.28-11.25,18.01-20.93,30.21-27.93
			c0.9-0.68,1.8-1.35,2.7-2.03c-0.77,0.06-1.53,0.12-2.3,0.18c-3.05,0.56-6.11,1.12-9.16,1.68c-2.75-3.49-3.48-1.1-4.15,1.43
			c-5.29,2.61-10.58,5.22-15.88,7.83c-2.9-0.4-5.8-0.81-8.7-1.21c4.02-6.98,8.04-13.96,12.06-20.94c1.02-0.24,2.04-0.49,3.05-0.73
			c-0.31-0.77-0.62-1.55-0.94-2.32c0.47-0.61,0.94-1.23,1.42-1.84c4.49-0.78,6.62-3.12,9.03-7.51c3.07-5.57,9.45-9.46,14.76-13.62
			c3.12-2.45,4.3-5.19,2.2-8.23c2.63-2.31,5.27-4.61,7.9-6.92c0.76,1.44,1.52,2.88,2.28,4.32c0.45-0.17,0.91-0.34,1.36-0.51
			c0.2-2.5,0.41-5,0.61-7.5c0.84-0.66,1.69-1.31,2.53-1.97c1.28,2.59,2.78,2.02,4.71,0.58c4.68-3.48,9.53-6.74,14.18-10.25
			c0.34-0.26-0.31-1.83-0.51-2.79c4.5-2.68,9-5.37,13.51-8.05c0.46,0.59,0.93,1.17,1.39,1.76c0.18-0.23,0.36-0.47,0.53-0.7
			c-0.64-0.35-1.27-0.7-1.91-1.04c1-0.58,2-1.17,3.01-1.75c0.84,0.58,1.68,1.17,3,2.09c0.14-1.72,0.23-2.89,0.33-4.07
			c0.92-0.6,1.83-1.2,2.75-1.8c1.92,1.49,3.85,2.98,5.77,4.47c0.39-0.36,0.79-0.72,1.18-1.08c-2.42-3.2-2.99-5.25,2.03-5.63
			c2.23-0.17,4.32-2.07,6.49-3.16c1.13-0.57,2.23-1.37,3.43-1.6c5.13-0.98,8.32-4.76,8.35-10.17c1.81-0.95,3.62-1.89,5.42-2.84
			c0,0,0.31-0.13,0.31-0.13c3.2-1.4,6.4-2.8,9.59-4.2c0.91-0.52,1.82-1.03,2.74-1.55c2.51-3.87-1.49-5.05-2.99-7.27
			c-0.38-0.29-0.76-0.57-1.14-0.86c-0.62-0.37-1.24-0.75-1.86-1.12c-0.34-2.2-0.67-4.39-1.01-6.59c2.32,0.07,4.64,0.13,6.96,0.2
			c1.67,0.16,3.35,0.32,5.02,0.47c1.33,0.16,2.65,0.32,3.98,0.48c1,0.21,2,0.41,3,0.62c0.66,0.13,1.33,0.25,1.99,0.38
			c0.67,0.19,1.34,0.39,2,0.58c2.01,0.66,4.01,1.32,6.02,1.98c1.47,2.87,3.86,3.4,6.75,2.63l0.31-0.09
			c2.18,4.31,5.98,6.07,11.76,7.78c-1.4-3.35-2.24-5.36-3.08-7.37c-1.31-5.12-2.63-10.24-3.94-15.35c0.58-3.3,2.76-3.1,4.76-1.76
			c4.61,3.09,9,6.5,13.54,9.7c2.24,1.58,4.63,2.95,6.95,4.42c0.32,0.34,0.64,0.67,0.96,1.01c-0.02,3.45,1.48,5.6,5.07,5.98
			c0.64,0.7,1.28,1.39,1.92,2.09c0.59,0.6,1.17,1.2,1.76,1.79c0.2-0.58,0.4-1.16,0.6-1.74c0-0.7,0-1.39,0-2.09
			c0.38-0.95,0.76-1.9,1.15-2.85c-0.03-0.72-0.06-1.44-0.09-2.15c0.3-0.64,0.61-1.28,0.91-1.92c0.02-0.69,0.04-1.38,0.06-2.08
			c0.24-0.66,0.49-1.33,0.73-1.99c0.09-1,0.17-2.01,0.26-3.01c0.29-1.31,0.59-2.63,0.88-3.94c0.28-1.5,0.56-3,0.84-4.49
			c0.61-0.52,1.22-1.04,1.84-1.57l0.28,0.06c0,0,0.06,0.28,0.06,0.28c0.28,1.28,0.55,2.57,0.83,3.85c-0.02,3.26-0.05,6.53-0.07,9.79
			c-0.4,3.4-3.92,6.59-0.27,11.1c-0.92-6.53,4.62-3.05,6.34-5.33c16.06,9.68,31.36,20.33,43.73,34.67
			c2.87,3.91,5.74,7.82,8.61,11.73c0.63,1.27,1.26,2.53,1.89,3.8c0.26-0.04,0.52-0.08,0.78-0.12c-0.13-1.33-0.26-2.66-0.38-3.99
			c-2.64-8.88-5.27-17.76-8.22-27.69c1.83,1.4,2.99,2.01,3.78,2.94c9.53,11.11,19.58,21.82,28.34,33.51
			c11.66,15.56,18.71,32.96,16.43,53.07c-0.97,8.57-5.93,13.94-15.55,15.79c3.51-9.28,2.52-17.36-5.39-23.33
			c-1.24,6.03-1.92,12.15-3.79,17.88c-3.13,9.63-7.11,18.98-10.54,28.51c-1.57,4.36-3.23,8.8-3.95,13.35
			c-2.32,14.67,0,28.87,5.43,42.59c4.46,11.27,7.14,22.89,6.98,35.04c-0.12,9.8-2.3,11.9-11.85,12.6
			c-6.56,0.49-12.85,0.09-19.05-2.64c-2.68-1.18-6.65-1.81-9.09-0.67c-5.83,2.71-10.43,2.23-14.52-3.01
			c-3.74,11.54-1.94,15.42,8.64,19.67c6.38,2.56,8.39,5.83,8.51,12.9c0.05,2.72,0.87,5.43,1.33,8.15c0.16,0.52,0.31,1.04,0.47,1.55
			c-25.33,13.7-51.83,11.28-78.68,4.13c-0.5-1.12-0.69-2.75-1.55-3.29c-5.57-3.51-11.21-6.91-16.99-10.06
			c-2.35-1.28-5.14-2.88-7.5,0.32c-5.15-3.59-10.66-6.9-11.13-14.16c1.67-1.05,3.33-2.1,5-3.15c-1.25-0.94-2.5-1.88-3.76-2.82
			c0.36-0.66,0.72-1.31,1.08-1.97c3.32,0.5,6.92,0.37,8.19,4.68c0.14,0.49,2.12,0.44,3.25,0.64l0.08,0.24
			c0.06,1.23-0.19,2.58,0.25,3.65c2.77,6.81,8.67,7.03,14.74,6.75c2.23,0.92,4.46,1.83,6.69,2.75c2.64,1.05,5.28,2.09,7.92,3.14
			c1.8,0.64,3.59,1.28,5.39,1.92c1.43,0.97,2.85,1.95,3.68,2.51c1.79-1.32,3.15-2.32,4.51-3.32c1.83,3.97,4.61,3.96,7.89,1.88
			c0.74-0.95,1.47-1.91,2.21-2.86c-1.04-0.65-2.08-1.3-3.12-1.96c-2.17-0.32-4.34-0.64-6.51-0.96c-4.05-0.4-5.38-3.32-5.15-6.64
			c0.3-4.32,4.22-1.67,6.32-2.66c1.95,0.64,3.9,1.28,5.85,1.92c1.39-0.4,2.79-0.8,4.18-1.2c-0.75-0.52-1.5-1.03-2.25-1.55
			c-0.8-1.55-1.59-3.11-2.39-4.66c0.52-0.45,1.03-0.89,1.55-1.34c-0.24-0.18-0.48-0.36-0.72-0.54c-0.27,0.63-0.55,1.27-0.82,1.9
			c-1.09-0.01-2.17-0.02-3.26-0.03c-2.72-0.78-5.44-1.55-8.16-2.33c-1.44-4.24-4.49-4.87-8.34-3.74c-1.39-1.08-2.79-2.17-4.18-3.25
			c-2.96-1.33-5.92-2.66-8.88-3.98c-0.6,0.01-1.2,0.02-1.8,0.02c-2.71-6.1-6.04-7.4-12.2-4.77c-0.58-1-1.17-2-1.75-3
			c-0.41,0.42-0.82,0.83-1.23,1.25c1,0.57,2,1.14,3,1.72c0.64,1.28,1.28,2.55,1.93,3.83c-0.06,4.51,1.79,5.08,5.17,2.52
			c1.21-0.04,2.42-0.09,3.63-0.13c0.72,0.85,1.44,1.7,2.16,2.55c2.53,4.92,4.6,5.84,8.68,3.84c1.46,0.72,2.92,1.44,4.38,2.16
			c0.09,3.94,2.68,5.01,6.01,5.23c0.46,1.37,0.93,2.75,1.23,3.65c-1.21,1.89-2.22,3.47-3.23,5.05c-1.24,0.39-2.49,0.78-3.73,1.18
			c-1.66-1.04-3.32-2.08-4.98-3.12c-2.72-1.19-5.43-2.38-8.15-3.57c-1.21-0.75-2.43-1.49-3.64-2.24c-4.51-1.79-9.03-3.59-13.54-5.38
			c-2.16-2.61-4.33-5.23-6.75-8.16c-0.14,0.1-0.91,0.63-1.68,1.16c-12.7-4.31-25.84-3.78-38.94-3.42c-1.59,0.04-3.15,0.78-4.73,1.2
			c-1.95-0.19-3.9-0.39-5.84-0.58c-0.13-0.07-0.26-0.14-0.39-0.21c0.13,0.07,0.26,0.14,0.38,0.22c-0.56,1.62-1.33,3.21-1.6,4.87
			c-0.23,1.39,0.12,2.88,0.22,4.32c-0.41,0.62-0.81,1.23-1.22,1.85c-1.71,0.81-3.42,1.61-5.13,2.42c0.13,0.37,0.25,0.73,0.38,1.1
			c0.73,0.07,1.45,0.14,2.18,0.21c-8.6,13.19-11.37,27.68-7.64,42.8c2.24,9.06,6.54,17.61,9.91,26.4c-0.49,0.45-0.97,0.9-1.46,1.35
			c0.88,0.19,1.76,0.38,2.65,0.57c0.6,0.97,1.2,1.94,1.8,2.91c0.71,1.01,1.42,2.03,2.14,3.04l-0.05-0.06
			c1.04,1.39,2.07,2.79,3.11,4.18c0.24,0.31,0.48,0.63,0.72,0.94c-0.2,3.07,0.34,5.5,4.3,4.96c0.27,0.29,0.53,0.58,0.8,0.86
			c0,1.54,0,3.08,0,4.94c1.73-0.33,2.94-0.55,4.15-0.78c0.58,0.5,1.15,0.99,1.73,1.49c0.98,0.88,1.95,1.77,2.93,2.65
			c3.35,1.95,6.7,3.9,10.05,5.85c0.46,1.29,0.92,2.58,1.39,3.87c0.61-0.28,1.22-0.57,1.83-0.85c-0.87-1.55-1.75-3.09-2.62-4.64
			c0.2-1.08,0.4-2.17,0.59-3.25c1.06-0.61,2.12-1.22,3.18-1.84c0.58,0.56,1.15,1.12,1.73,1.69c0.52,3.56,6.45,10.22,9.67,10.66
			c0.36,0.05,0.87-1.07,1.31-1.65c16.51,9.03,33.91,13.85,52.89,11.11c1.82-0.16,3.65-0.33,5.47-0.49
			c-0.04-0.44-0.08-0.87-0.12-1.31c-1.72-0.08-3.43-0.15-5.15-0.23c-5.47-3.61-10.94-7.22-16.42-10.83c3.24-4.8-3.2-5.86-3.83-9.3
			c-0.11-0.61-3.89-0.54-5.98-0.79c-5.98-6.68-9.76-14.47-11.6-23.22c3.77,0.84,4.85-0.84,4.82-4.44c-0.01-1.5,1.47-3.01,2.28-4.52
			c3.22,2.99,6.44,5.97,9.67,8.96c2.07,4.84,10.01,9.24,14.9,8.27c12.61,4.79,25.58,6.74,39.02,4.92c1.33,3,2.67,6.01,4,9.01
			c-10.16,2.89-20.47,2.97-30.63,0.5c-6.6-1.6-12.93-4.3-19.38-6.51c-4.39-3.54-8.78-7.09-13.16-10.63
			c-0.37,0.29-0.74,0.58-1.11,0.86c1.37,2.28,3.85,4.52,3.92,6.84c0.23,7.81,5.85,8.63,11.36,9.92c5.69,4.19,11.19,8.67,17.11,12.49
			c5.04,3.24,10.56,5.72,15.87,8.53c-0.33,1.33-0.66,2.67-0.98,4c-5.16,6.59-12.75,7.81-20.27,8.79c-14.6,1.9-28.94,0.77-42.73-4.81
			c-0.67-0.33-1.34-0.66-2.01-0.99c-4.26-1.63-8.53-3.22-12.76-4.91c-3.03-1.21-5.7-2.26-9.34-0.91c-2.07,0.77-5.23-1.36-7.89-2.18
			c-0.82-2.45-0.94-6.22-2.61-7.11C203.6,513.3,198.18,511.88,193,510z M120.21,316.25c0.16-1.42,0.32-2.85,0.49-4.27
			c0.7-0.44,1.41-0.89,2.11-1.33c-0.6-0.55-1.19-1.1-1.79-1.65c0.56-3.77,1.12-7.54,1.68-11.32c0.12-0.76,0.23-1.52,0.35-2.28
			c-0.65,0.95-1.3,1.9-1.95,2.85c-1.13,2.25-2.26,4.49-3.38,6.74c-1.31,0.8-2.61,1.61-3.92,2.41c0.69,0.54,1.39,1.07,2.08,1.61
			c-1.13,2.94-2.2,5.9-3.4,8.81c-13.32,32.34-15.39,65.38-6.28,99.13c-0.58,0.42-1.15,0.85-1.73,1.27c1.01,0.57,2.01,1.14,3.02,1.7
			c1.03,2.3,2.06,4.6,3.08,6.9c-1.91,3.35-0.57,6.1,3.91,8.01c2.44,4.02,4.88,8.03,7.31,12.05c0.67-0.06,1.35-0.12,2.02-0.19
			c-5.44-24.23,2.33-47.23,5.03-70.7c0.65-0.54,1.29-1.09,1.94-1.63c-0.57-0.45-1.15-0.91-1.72-1.36c0.22-3.67,0.43-7.35,0.65-11.02
			c1.08-0.88,3.14-1.88,3.05-2.6c-0.19-1.49-1.53-2.84-2.4-4.24c1.14-6.01,2.28-12.03,3.42-18.04c0.45-1.12,0.89-2.23,1.34-3.35
			c-0.58-0.07-1.16-0.15-1.73-0.22c-0.13,1.08-0.27,2.16-0.4,3.24c-0.97,1.53-2.14,2.97-2.89,4.59c-3.33,7.22-6.55,14.5-9.81,21.75
			c-0.78,0.3-1.56,0.6-2.34,0.89c0.46-13.33,0.92-26.66,1.38-39.99c1.52-1.08,3.04-2.15,4.57-3.23
			C122.67,319.28,121.44,317.76,120.21,316.25z M215.6,266.81c4.3,0.44,7.27,1,10.24,0.98c3.38-0.02,4.73,1.31,5.75,4.62
			c2.5,8.09,5.42,16.07,8.68,23.89c3.65,8.76,10.09,15.09,18.48,19.58c8.97,4.8,18.66,6.99,28.49,5.62
			c14.83-2.08,21.9,8.83,25.69,18.78c0.52,1.37,0.83,2.83,1.24,4.24c1.26-2.15,1.94-4.15,1.76-6.05
			c-1.46-14.71-2.28-29.54-4.83-44.06c-4.48-25.48-26.05-34.62-44.19-36.56C249.51,255.97,233.37,261.35,215.6,266.81z
			 M327.91,287.74c1.86-15.73,1.91-29.82-8.11-41.84c-1.84-2.21-4.4-3.82-6.63-5.7c-0.32,0.37-0.64,0.74-0.96,1.11
			c1.65,4.51,5.42,8.55,3.32,14.73c-4.29-2.01-8.05-4.12-12.05-5.56c-3.7-1.34-7.66-1.99-11.5-2.94
			C306.73,258.47,321.13,268.7,327.91,287.74z M161.17,465.97c0.33,0.29,0.67,0.58,1,0.87c0.47-0.7,0.95-1.4,1.42-2.09
			c-0.24-0.19-0.48-0.37-0.73-0.56C162.3,464.78,161.74,465.38,161.17,465.97z M256.9,384.83c0.55,0.32,0.9,0.57,1.29,0.72
			c0.05,0.02,0.49-0.56,0.42-0.72c-0.17-0.39-0.53-0.7-0.81-1.05C257.54,384.08,257.29,384.37,256.9,384.83z M134.6,263.76
			c-0.26-0.11-0.58-0.37-0.77-0.29c-0.19,0.07-0.24,0.48-0.35,0.74c0.26,0.11,0.58,0.37,0.76,0.29
			C134.43,264.43,134.49,264.02,134.6,263.76z M299.42,420.26c0.26,0.11,0.58,0.38,0.77,0.3c0.19-0.07,0.25-0.48,0.36-0.74
			c-0.26-0.11-0.58-0.38-0.76-0.3C299.59,419.59,299.53,419.99,299.42,420.26z M275.55,393.74c-0.26-0.11-0.52-0.23-0.78-0.34
			c-0.11,0.26-0.37,0.58-0.3,0.77c0.07,0.19,0.48,0.24,0.74,0.35C275.32,394.26,275.43,394,275.55,393.74z"/>
		<path class="st1" d="M87.82,305.63c2.15,3.12,6.75,5.59,2.75,10.34c-0.66,0.31-1.67,0.44-1.94,0.96
			c-6.98,13.21-14.33,26.2-15.42,41.7c-1.18,16.89,3.83,31.79,12.94,46.42c0.54-1.54,0.81-2.3,1.08-3.06
			c1.12,0.5,2.98,0.74,3.25,1.53c1.4,4.08,2.39,8.3,3.52,12.48c-1.47,1.3-3.28,2.38-4.33,3.96c-1.13,1.71-1.56,3.9-3.21,6.06
			c-14.64-20.07-24.58-41.71-24.66-68.08c-2.02,1.94-3.94,4.01-6.1,5.79c-1.54,1.27-4.01,3.39-4.97,2.92
			c-1.67-0.83-2.52-3.35-3.65-5.2c-0.24-0.39-0.22-0.95-0.56-2.61c-7.29,8.09-14.1,15.63-20.91,23.17
			c-0.51-0.21-1.01-0.42-1.52-0.63c-4.73-31.88,5.24-61.58,16.26-92.41c-4.33,0.86-6.85,1.28-9.33,1.88
			c-2.37,0.58-4.69,1.35-8.07,2.35c0.84-2.53,1.1-4.5,2.06-6.05c11.17-18.16,22.52-36.22,33.57-54.46c0.97-1.59,0.57-4.38-0.02-6.36
			c-0.23-0.76-2.76-0.92-4.27-1.19c-1.2-0.21-2.44-0.18-3.67-0.26c0.17-1.4-0.13-3.14,0.6-4.14c4.58-6.29,8.89-12.89,14.24-18.48
			c9.92-10.36,20.81-19.79,30.53-30.33c2.23-2.42,1.34-7.73,1.9-11.7c0.26-1.88,0.09-3.98,0.89-5.59
			c6.82-13.62,12.97-27.68,20.97-40.59c11.08-17.88,22.56-35.7,35.79-51.99c11.23-13.82,25.02-25.61,38.05-37.9
			c4.04-3.81,9.35-6.27,13.99-9.48c2.42-1.67,4.41-4.07,6.99-5.36c4.2-2.1,8.62-3.88,13.12-5.21c7.46-2.2,15.01-4.5,22.94-2.12
			c5.77,1.74,12.1,1.34,17.01,6.21c5.22,5.18,11.39,9.39,16.93,14.27c1.79,1.58,2.98,3.88,4.28,5.95
			c10.1,16.08,19.58,32.44,23.3,51.41c0.95,4.86,2.17,9.66,3.1,14.53c1.03,5.42,4.3,8.59,9.28,10.71c8.98,3.82,17.9,7.8,26.61,12.18
			c2.55,1.28,4.35,1.73,6.8,0.3c17.27-10.12,36.12-16.65,54.71-23.72c7.72-2.94,15.98-4.41,23.91-6.82
			c13.77-4.18,28.02-7.27,40.14-15.56c6.91-4.73,13.41-10.06,20.11-15.13c4.95,5.07,6.31,11.2,6.35,18.4
			c0.09,15.64-2.8,30.68-7.15,45.53c-2.83,9.67-5.35,19.52-9.21,28.79c-5.06,12.18-10.97,24.05-17.14,35.72
			c-5.14,9.74-11.11,19.05-16.86,28.45c-2.33,3.81-4.85,7.55-7.73,10.96c-1.97,2.33-2.05,3.84-0.4,6.46
			c8.24,13.11,12.56,27.69,14.17,42.92c0.9,8.49-0.7,17.27,0.44,25.7c0.93,6.92-3.04,11.57-4.49,17.28
			c-1.51,5.96-0.49,12.89,0.77,19.13c1.76,8.7,4.48,17.18,10.86,24.05c2.88,3.1,1.09,5.99-2.18,8.2c-2.02,1.36-3.68,3.26-5.19,4.64
			c-1.84,0.47-3.6,0.92-5.36,1.37c0.59,1.68,0.77,3.69,1.84,4.97c2.3,2.79,1.55,4.9-0.85,6.82c-3.1,2.48-6.35,4.78-9.51,7.2
			c-1.18,0.9-2.8,1.69-3.33,2.91c-4.38,10.11-14.23,14.04-22.41,19.71c-4.84,3.35-8.93,6.24-10.73,12.57
			c-4.91,17.34-16.49,28.99-32.99,36.19c-3.38,1.47-6.33,4.68-8.65,7.72c-8.79,11.56-18.9,21.35-32.87,26.37
			c-3.69,1.33-7.47,2.4-11.21,3.59c-1.33-3-2.67-6.01-4-9.01c5.55-2.18,11.42-3.8,16.6-6.66c11.75-6.49,22.74-13.99,27.77-27.45
			c0.33-0.87,1.77-1.48,2.81-1.91c17.76-7.34,31.8-17.98,35.09-38.55c0.26-1.62,1.79-3.42,3.24-4.39
			c6.05-4.07,12.41-7.7,18.43-11.81c2.91-1.99,5.34-4.68,8.22-7.26c-3.58-2.06-6.3-3.63-9.02-5.19c0.12-0.29,0.24-0.59,0.36-0.88
			c3.51-0.27,7.01-0.54,10.52-0.81c2.9-1.38,5.8-2.76,9.72-4.62c-4.76-1.34-8.25-2.32-11.73-3.31c-0.83-1.37-1.67-2.73-2.5-4.1
			c1.27-0.35,2.53-0.94,3.82-1c3.07-0.15,6.16-0.05,9.54-0.05c-1.95-5.68-9.58-7.87-6.39-15.05c1.62,1.73,2.78,3.5,4.4,4.54
			c1.31,0.83,3.42,1.47,4.76,1c3.57-1.27,6.9-3.18,10.42-4.88c-11.95-16.95-11.34-37.41-16.11-57.07c1.67,1.07,2.7,1.88,3.86,2.44
			c1.1,0.53,2.33,0.79,3.88,1.29c0.49-2.32,0.93-4.07,1.24-5.85c4.46-25.5-2.51-48.52-15.66-70.01c-2.47-4.04-2.19-6.65,0.64-10
			c15.03-17.8,26.76-37.59,36.54-58.75c12.47-26.98,22.25-54.54,22.94-84.65c0.04-1.7,0.01-3.4,0.01-6.07
			c-11.28,10.36-23.76,15.96-37.02,20.07c-6.84,2.12-13.72,4.11-20.54,6.26c-25.12,7.91-49.92,16.6-72.39,30.76
			c-2.75,1.74-5.47,3.53-7.22,4.66c-4.99-3.36-8.88-6.95-13.47-8.89c-9.93-4.21-20.14-7.82-30.4-11.15c-3.7-1.2-5.25-2.6-5.6-6.68
			c-1.76-20.64-7.51-40.15-17.59-58.32c-4.61-10.75-11.71-19.58-21.2-26.32c-6.56-4.66-13.93-7.44-22.17-7.38
			c-10.67,0.07-20.6,2.66-29.64,8.4c-2.79,1.77-5.47,3.7-8.21,5.55c-1.03,0.49-2.15,0.83-3.06,1.48
			c-15.65,11.15-29.2,24.5-41.12,39.53c-0.85,0.77-1.86,1.43-2.51,2.34c-17.76,24.89-34.69,50.27-47.61,78.12
			c-3.11,6.71-5.38,13.25-3.42,20.63c0.8,3.01-0.44,4.81-2.66,6.81c-9.14,8.24-18.16,16.62-26.98,25.2
			c-3.71,3.61-6.81,7.83-10.82,12.51c6.47-0.36,11.68-0.64,18.51-1.02c-19.2,20.11-33.83,41.53-45.54,65.8
			c5.66-0.85,10.61-1.59,16.24-2.44c-13.22,24.86-20.31,50.65-24.32,78.83c7.93-8.31,14.37-16.36,24.75-21.33
			c-1.34,5.43-2.45,9.93-3.81,15.45c8.85-6.18,15.98-12.05,20.2-21.11C78.62,321.44,83.43,313.63,87.82,305.63z"/>
		<path class="st1" d="M144,477c2.18,0,4.36,0,7.73,0c-1.78-1.49-3-2.52-4.44-3.72c0.69-5.2-1.02-7.59-6.43-9.39
			c-1.17-0.39-2.37-2.21-2.63-3.54c-0.53-2.73-0.44-5.59-0.6-8.39c-0.47-0.06-0.94-0.12-1.41-0.18c0.99-1.05,1.98-2.11,2.98-3.16
			c5.8,9.08,11.39,18.31,17.5,27.18c2.19,3.18,5.63,5.5,8.5,8.21c1.35,1.21,2.69,2.42,4.04,3.63c-0.38,0.44-0.75,0.88-1.13,1.32
			c-2.98-1.72-5.93-3.48-8.94-5.14c-3.09-1.69-5.32-0.29-7.17,2.19C149.33,483,146.66,480,144,477z"/>
		<path class="st1" d="M274.01,502.99c-5.52-1.29-11.13-2.11-11.36-9.92c-0.07-2.32-2.54-4.56-3.92-6.84
			c0.37-0.29,0.74-0.58,1.11-0.86c4.39,3.54,8.78,7.09,13.16,10.63C273.34,498.33,273.67,500.66,274.01,502.99z"/>
		<path class="st1" d="M193,510c5.18,1.88,10.6,3.3,15.39,5.88c1.66,0.9,1.78,4.66,2.61,7.11C205,518.66,199,514.33,193,510z"/>
		<path class="st1" d="M127,456c0.09-0.78,0.18-1.55,0.33-2.79c2.7,1.06,5.07,1.99,7.86,3.09c-1.38,1.59-2.29,2.65-3.2,3.7
			C130.33,458.67,128.67,457.34,127,456z"/>
		<path class="st1" d="M174,498c0-1.8,0-3.6,0-5.4c0.82-0.63,1.64-1.25,2.46-1.88c0.52,1.43,1.03,2.85,1.55,4.28
			C176.67,496,175.33,497,174,498z"/>
		<path class="st1" d="M186,503c3.37-0.03,5.03,1.63,5,5C189.33,506.33,187.67,504.67,186,503z"/>
		<path class="st1" d="M169,502.01c1.33-0.34,2.66-0.68,3.99-1.02C172.33,503.97,171.19,505.04,169,502.01z"/>
		<path class="st1" d="M306.01,528.01c0.33-1.33,0.66-2.67,0.98-4c0.61,0.6,1.22,1.19,1.83,1.79
			C307.89,526.53,306.95,527.27,306.01,528.01z"/>
		<path class="st1" d="M241,531c0.67,0.33,1.34,0.66,2.01,0.99C242.34,531.66,241.67,531.33,241,531z"/>
		<path class="st2" d="M288.16,48.63c10.08,18.17,15.83,37.68,17.59,58.32c0.35,4.08,1.89,5.47,5.6,6.68
			c10.26,3.33,20.47,6.95,30.4,11.15c4.59,1.94,8.49,5.53,13.47,8.89c1.75-1.13,4.46-2.92,7.22-4.66
			c22.47-14.17,47.26-22.85,72.39-30.76c6.83-2.15,13.71-4.14,20.54-6.26c13.26-4.11,25.74-9.71,37.02-20.07
			c0,2.67,0.03,4.37-0.01,6.07c-0.69,30.1-10.47,57.66-22.94,84.65c-9.78,21.16-21.51,40.95-36.54,58.75
			c-2.83,3.35-3.11,5.96-0.64,10c13.15,21.49,20.12,44.51,15.66,70.01c-0.31,1.78-0.74,3.53-1.24,5.85
			c-1.55-0.5-2.78-0.76-3.88-1.29c-1.16-0.56-2.19-1.37-3.86-2.44c4.76,19.67,4.15,40.12,16.11,57.07
			c-3.52,1.7-6.86,3.61-10.42,4.88c-1.33,0.47-3.45-0.16-4.76-1c-1.62-1.03-2.78-2.8-4.4-4.54c-3.19,7.18,4.44,9.37,6.39,15.05
			c-3.38,0-6.47-0.1-9.54,0.05c-1.29,0.06-2.55,0.65-3.82,1c0.83,1.37,1.67,2.73,2.5,4.1c-0.44,2.24-0.88,4.48-1.29,6.61
			c0.71,0.28,2.01,0.8,3.31,1.32c-3.51,0.27-7.01,0.54-10.52,0.81c-0.12,0.29-0.24,0.59-0.36,0.88c2.72,1.57,5.44,3.13,9.02,5.19
			c-2.89,2.59-5.31,5.28-8.22,7.26c-6.02,4.11-12.38,7.74-18.43,11.81c-1.44,0.97-2.98,2.78-3.24,4.39
			c-3.29,20.57-17.33,31.22-35.09,38.55c-1.04,0.43-2.48,1.04-2.81,1.91c-5.03,13.46-16.02,20.96-27.77,27.45
			c-5.18,2.86-11.04,4.48-16.6,6.66c-13.44,1.82-26.41-0.13-39.02-4.92c-4.97-2.76-9.93-5.51-14.9-8.27
			c-3.22-2.99-6.44-5.97-9.67-8.96c-1.99-3.9-3.99-7.8-6.24-12.2c-2.88,7.28-2.82,14.17-0.85,21.16c1.84,8.75,5.62,16.54,11.6,23.22
			c3.27,3.36,6.54,6.73,9.8,10.09c5.47,3.61,10.94,7.22,16.42,10.83c-0.07,0.67-0.14,1.35-0.21,2.02
			c-18.98,2.73-36.38-2.08-52.89-11.11c-3.66-3-7.32-6-10.98-9.01c-0.58-0.56-1.15-1.12-1.73-1.69c-1.29-1.43-2.58-2.87-3.87-4.3
			c-0.25,0.19-0.51,0.37-0.76,0.56c0.48,1.86,0.97,3.72,1.45,5.58c-0.2,1.08-0.4,2.17-0.59,3.25c-0.2,0.54-0.4,1.08-0.6,1.62
			c-3.35-1.95-6.7-3.9-10.05-5.85c-0.98-0.88-1.95-1.77-2.93-2.65c-0.58-0.5-1.15-0.99-1.73-1.49c-1.38-1.39-2.77-2.77-4.15-4.16
			c-0.27-0.29-0.53-0.58-0.8-0.86c-1.43-1.65-2.87-3.31-4.3-4.96c-0.24-0.31-0.48-0.63-0.72-0.94c-1.04-1.39-2.07-2.79-3.11-4.18
			c0,0,0.05,0.06,0.05,0.06c-0.71-1.01-1.42-2.03-2.14-3.04c-0.6-0.97-1.2-1.94-1.8-2.91c-0.4-0.64-0.79-1.28-1.19-1.92
			c-3.37-8.78-7.67-17.33-9.91-26.4c-3.73-15.12-0.96-29.61,7.64-42.8c0.86-1.24,1.72-2.49,2.57-3.73c0.41-0.62,0.81-1.23,1.22-1.85
			c2.41-2.87,4.82-5.75,7.23-8.62c1.58-0.42,3.14-1.16,4.73-1.2c13.11-0.36,26.24-0.89,38.94,3.42c-0.79,1.75-1.58,3.5-2.38,5.25
			c-0.36,0.66-0.72,1.31-1.08,1.97c-0.41,1.99-0.83,3.98-1.24,5.98c0.47,7.26,5.98,10.57,11.13,14.16
			c7.75,6.2,16.27,10.86,26.04,13.03c26.85,7.15,53.35,9.57,78.68-4.13c-0.16-0.52-0.31-1.04-0.47-1.55
			c-0.47-2.71-1.29-5.42-1.33-8.15c-0.13-7.06-2.13-10.33-8.51-12.9c-10.58-4.25-12.38-8.13-8.64-19.67
			c4.09,5.24,8.69,5.73,14.52,3.01c2.44-1.14,6.41-0.5,9.09,0.67c6.21,2.73,12.49,3.13,19.05,2.64c9.55-0.71,11.73-2.81,11.85-12.6
			c0.15-12.15-2.52-23.77-6.98-35.04c-5.43-13.72-7.75-27.92-5.43-42.59c0.72-4.55,2.38-8.98,3.95-13.35
			c3.44-9.53,7.41-18.88,10.54-28.51c1.87-5.73,2.55-11.85,3.79-17.88c7.9,5.98,8.9,14.05,5.39,23.33
			c9.62-1.85,14.58-7.23,15.55-15.79c2.28-20.11-4.77-37.51-16.43-53.07c-8.76-11.68-18.82-22.4-28.34-33.51
			c-0.79-0.92-1.95-1.53-3.78-2.94c2.95,9.93,5.59,18.81,8.22,27.69c-0.76,0.1-1.53,0.21-2.29,0.31c-2.87-3.91-5.74-7.82-8.61-11.73
			c-0.31-1.53-0.32-3.22-1-4.55c-1.57-3.04-3.47-5.91-5.24-8.85c-3.59-11.63-11.25-20.14-21.15-26.66
			c-7.53-4.96-15.42-9.36-23.16-14.01l-0.06-0.28l-0.28-0.06c-0.61-0.6-1.22-1.2-1.84-1.8c-0.49-6.24-4.45-3.07-7.53-2.35
			c-0.42-2.32-0.79-4.32-1.15-6.31c-0.47,0.07-0.94,0.15-1.41,0.22c0,3.75,0.12,7.51-0.04,11.25c-0.13,3.13-0.81,6.05-4.95,5.95
			c0-7.64-0.25-15.3,0.05-22.93c0.56-14.15-2.01-27.75-7.87-40.5C277.37,60.11,271.44,50.17,266,40c-0.66-1-1.33-1.99-1.99-2.99
			c-1-0.68-2-1.37-3-2.05c-0.67-0.98-1.34-1.97-2-2.95c-1.33-0.34-2.66-0.68-4-1.02c-1-0.66-2-1.32-3.01-1.98
			c-6-0.33-11.99-0.67-17.99-1c0.96-1.05,1.72-2.66,2.9-3.06c9.97-3.35,18.74,1.24,26.11,6.41c6.03,4.23,9.86,11.58,15.03,18
			c2.4-1.14,5.87-4.6,9.47,0C287.73,49.11,287.95,48.87,288.16,48.63z M358.99,164.96c0.68,0.53,1.35,1.06,2.03,1.59
			c0-0.55,0.01-1.1,0.01-1.65c-0.37-0.78-0.75-1.55-1.63-3.38C359.17,163.46,359.08,164.21,358.99,164.96z M434.73,147.74
			c0.14,0.14,0.28,0.27,0.42,0.41c-1.04,1.48-1.8,3.3-3.16,4.39c-7.6,6.17-15.34,12.17-23.03,18.24c-0.9,0.71-1.77,1.46-2.65,2.19
			c2.44,0.78,4.58,1.03,6.27,0.27c8.31-3.74,17.22-6.72,24.6-11.85c17.31-12.04,30.88-27.42,36.42-48.48
			c1.05-3.98,1.1-8.22,1.62-12.34c-0.47-0.11-0.95-0.22-1.42-0.33c-23.81,18.22-47.62,36.43-71.43,54.65
			c2.05,0.65,3.76,0.46,5.42,0.03C416.79,152.55,425.76,150.13,434.73,147.74z M258.3,449.37c3.64,10.95,10.45,18.82,20.61,23.95
			c21.12,10.65,49.66,6.94,67.36-8.85c6.6-5.89,6.4-10.44-1.38-14.64c-2.39-1.29-6.16-1.19-8.93-0.41
			c-16.29,4.6-32.88,4.96-49.52,3.77C277.24,452.52,268.14,450.74,258.3,449.37z M397.83,312.84c-0.38,0.01-0.77,0.02-1.15,0.04
			c-0.44-0.98-0.91-1.94-1.32-2.93c-0.44-1.07-0.73-2.22-1.26-3.24c-2.17-4.24-4.12-4.5-6.78-0.69c-1.89,2.71-3.7,5.55-5.06,8.56
			c-4.28,9.46-3.1,11.2,7.29,11.38c1.16,0.02,2.33,0.02,3.49-0.01c12.65-0.3,20.11-6.36,22.97-18.66
			c2.49-10.7-0.16-13.53-11.02-11.76c-0.65,0.11-1.29,0.3-1.94,0.47c-2.79,0.71-3.99,2.29-4.01,5.36
			C399.02,305.19,398.27,309.01,397.83,312.84z M388.34,399.3c-0.47-0.05-0.95-0.11-1.42-0.16c-1.41,8.37-6.66,13.61-13.51,17.65
			c-3.22,1.9-5.54,4.38-6.09,8.55c-0.26,2-2.32,3.91-3.9,5.54c-2.07,2.14-4.65,3.8-6.67,5.98c-3.62,3.91-2.77,6.72,2.28,8.41
			c5.5,1.84,17.96-3.13,21.61-8.37c-1.63-1.36-3.23-2.7-4.82-4.04c1.95-1.49,3.81-3.14,5.89-4.42c1.53-0.94,3.66-1.06,4.93-2.21
			c1.18-1.06,2.59-3.84,2.13-4.39c-2.48-2.97-0.78-4.47,1.15-6.6c1.03-1.14,1.5-3.41,1.24-5
			C390.54,406.55,389.32,402.95,388.34,399.3z M387.11,288.42c0.42,0.56,0.83,1.12,1.25,1.68c7.3-2.1,14.49-5.03,21.93-6.07
			c7.6-1.05,15.46-0.23,23.19-0.23c-2.39-7.52-13.94-17.1-21.38-17.57c-0.8-0.05-1.81,0.59-2.46,1.19
			C402.11,274.39,394.62,281.41,387.11,288.42z M342.46,401.04c0.04,0.53,0.09,1.06,0.13,1.59c3.43,2.8,8.22,4.97,9.91,8.58
			c1.72,3.66,0.38,8.76,0.38,13.43c4.13,1.31,6.34-1.4,8.78-3.96c3.75-3.93,7.48-7.95,11.67-11.37c2.75-2.24,2.82-3.91,0.35-5.88
			c-1.21-0.96-2.83-1.71-4.35-1.94c-5.56-0.86-11.14-1.8-16.74-2.03C349.25,399.32,345.85,400.47,342.46,401.04z"/>
		<path class="st3" d="M253,144.04c-2.01-0.66-4.01-1.32-6.02-1.98c-0.67-0.19-1.34-0.39-2-0.58c-0.66-0.13-1.33-0.25-1.99-0.38
			c-1-0.21-2-0.41-3-0.62c-1.33-0.16-2.65-0.32-3.98-0.48c-1.67-0.16-3.35-0.32-5.02-0.47c-2.32-0.07-4.64-0.13-6.96-0.2
			c-3.5,0-7,0-10.5,0c-0.05,0.34-0.11,0.68-0.16,1.03c3.89,1.85,7.78,3.71,11.67,5.56c0.62,0.37,1.24,0.75,1.86,1.12
			c0.38,0.29,0.76,0.57,1.14,0.86c1.5,2.22,5.5,3.4,2.99,7.27c-0.91,0.52-1.82,1.03-2.74,1.55c-3.2,1.4-6.4,2.8-9.59,4.2
			c0,0-0.22-0.16-0.22-0.16s-0.09,0.3-0.09,0.3c-1.81,0.95-3.62,1.89-5.42,2.84c-1.89,0.98-3.82,1.87-5.65,2.95
			c-5.94,3.52-11.85,7.1-17.77,10.66c-1.86-1.46-3.72-2.91-5.58-4.37l-0.08-0.08c-0.63-0.67-1.25-1.33-1.88-2l-0.04-0.05
			c-0.62-0.7-1.25-1.41-1.87-2.11l0.01,0.06c-0.33-0.45-0.65-0.91-0.98-1.36c0.06-0.27-0.03-0.46-0.27-0.59
			c-4.52-9.21-8.65-18.55-8.05-29.35c-0.69,0.01-1.39,0.03-2.08,0.04c-1.26,6.99-2.53,13.97-3.99,22.04
			c-4.74-14.38-2.4-27.56,1.02-40.73c-0.76-0.14-1.53-0.27-2.29-0.41c-4.43,14.53-8.87,29.06-13.43,44.01
			c-1.47-11.02-2.57-21.6,0.94-32.24c8.2-24.88,21.61-46.74,38.39-66.64c9.46-11.23,19.38-21.98,32.72-28.85
			c10.79-5.56,21.65-7.44,32.88-1.27c6.99,3.85,11.44,10.07,15.43,16.64c15.47,25.45,20.23,53.17,17.2,82.47
			c-0.21,2-1.22,3.91-1.86,5.87c-8.14-5.98-16.28-11.96-24.42-17.94c-0.37,0.42-0.73,0.84-1.1,1.26c1.52,3.25,3.04,6.5,4.56,9.74
			c1.31,5.12,2.63,10.24,3.94,15.35c-1.08,0.55-2.25,1.67-3.23,1.53c-1.87-0.26-3.63-1.25-5.44-1.94c0,0-0.31,0.09-0.31,0.09
			C257.49,145.79,255.25,144.91,253,144.04z"/>
		<path class="st4" d="M178.85,167c0.24,0.13,0.33,0.32,0.27,0.59c0.33,0.46,0.65,0.91,0.98,1.36c0,0-0.01-0.06-0.01-0.06
			c0.62,0.7,1.25,1.41,1.87,2.11c0,0,0.04,0.05,0.04,0.05c0.63,0.67,1.25,1.33,1.88,2c0,0,0.08,0.08,0.08,0.08
			c1.52,1.69,3.04,3.39,4.56,5.08c-0.94,0.95-1.89,1.9-2.83,2.85c-0.92,0.6-1.83,1.2-2.75,1.8c-1.11,0.66-2.22,1.32-3.33,1.98
			c-1,0.58-2,1.17-3.01,1.75c0,0-0.02-0.01-0.02-0.01c-4.5,2.68-9,5.37-13.51,8.05c-6.13,4.15-12.26,8.31-18.39,12.46
			c-0.84,0.66-1.69,1.31-2.53,1.97c-1.42,1.23-2.84,2.46-4.25,3.69c-2.63,2.31-5.27,4.61-7.9,6.92
			c-8.66,9.79-17.32,19.57-25.98,29.36c-0.47,0.61-0.94,1.23-1.42,1.84c-0.71,1.02-1.41,2.03-2.12,3.05
			c-4.02,6.98-8.04,13.96-12.06,20.94c-1.52,3-3.05,6-4.57,9c0.28,0.22,0.56,0.43,0.84,0.65c4.15-2.81,8.29-5.62,12.44-8.44
			c5.29-2.61,10.58-5.22,15.88-7.83c1.38-0.48,2.77-0.95,4.15-1.43c3.05-0.56,6.11-1.12,9.16-1.68c-0.14,0.62-0.27,1.24-0.41,1.85
			c-12.21,7-21.93,16.69-30.21,27.93c-1.34,1.74-2.68,3.49-4.01,5.23c-1.29,1.83-2.59,3.66-3.88,5.49c-4.39,8-9.2,15.81-13.04,24.06
			c-4.22,9.05-11.35,14.93-20.2,21.11c1.36-5.52,2.48-10.03,3.81-15.45c-10.39,4.98-16.82,13.02-24.75,21.33
			c4.01-28.18,11.1-53.97,24.32-78.83c-5.63,0.84-10.58,1.59-16.24,2.44c11.71-24.27,26.34-45.69,45.54-65.8
			c-6.83,0.38-12.04,0.66-18.51,1.02c4.01-4.68,7.11-8.91,10.82-12.51c8.82-8.58,17.85-16.96,26.98-25.2c2.22-2,3.46-3.8,2.66-6.81
			c-1.97-7.38,0.3-13.92,3.42-20.63c12.93-27.86,29.85-53.24,47.61-78.12c0.65-0.91,1.67-1.57,2.51-2.34
			c-0.12,1.76-0.01,3.58-0.42,5.27c-0.57,2.33-1.54,4.57-2.34,6.84l0,0c-1.49,0.93-3.47,1.52-4.36,2.85
			c-2.45,3.66-4.44,7.62-6.61,11.46c-0.92,1.63-3.02,4.22-2.58,4.75c2.88,3.55,6.31,6.67,9.55,9.93c-0.44,1.58-0.77,3.2-1.35,4.72
			c-4.4,11.46-9.05,22.86-7.64,35.57c0.64,5.78,1.31,11.56,1.96,17.34c0.78,0.08,1.55,0.16,2.33,0.24
			c2.58-10.85,5.16-21.69,7.75-32.54c1.32,5.65,1.52,10.98,2.01,16.27c0.93,9.96,2.36,12.97,7.07,14.06c0-5.78,0-11.4,0-17.02
			c0.49-0.05,0.99-0.1,1.48-0.16c0.51,1.8,0.7,3.79,1.6,5.36C173.58,158.99,176.28,162.96,178.85,167z"/>
		<path class="st5" d="M215.6,266.81c17.77-5.45,33.9-10.83,51.31-8.97c18.14,1.94,39.71,11.08,44.19,36.56
			c2.55,14.52,3.38,29.36,4.83,44.06c0.19,1.91-0.5,3.9-1.76,6.05c-0.41-1.42-0.71-2.87-1.24-4.24
			c-3.8-9.95-10.86-20.85-25.69-18.78c-9.83,1.38-19.53-0.82-28.49-5.62c-8.39-4.49-14.83-10.82-18.48-19.58
			c-3.26-7.81-6.18-15.8-8.68-23.89c-1.02-3.31-2.38-4.63-5.75-4.62C222.88,267.81,219.91,267.25,215.6,266.81z M273.56,298.25
			c-5.05-7.69-5.7-14.28-3.4-21.05c1.14-3.35,0.05-5.18-3-5.08c-6.22,0.18-12.47,0.7-18.59,1.77c-1.27,0.22-3.13,3.65-2.8,5.2
			c0.91,4.32,2.22,8.79,4.44,12.57c10.02,17.08,24.52,21.19,48.27,16.51c0.25-11.66-6.88-24.07-15.9-27.65
			C279.78,286.03,276.97,291.56,273.56,298.25z"/>
		<path class="st6" d="M122.7,297.68c-0.56,3.77-1.12,7.54-1.68,11.32c-0.11,0.99-0.21,1.98-0.32,2.98
			c-0.16,1.42-0.32,2.85-0.49,4.27c-0.29,2.59-0.58,5.18-0.87,7.76c-0.46,13.33-0.92,26.66-1.38,39.99c0,1.59,0,3.17,0,4.76
			c0.26,0,0.51,0.01,0.77,0.01c0.52-1.89,1.05-3.78,1.57-5.66c3.26-7.26,6.47-14.53,9.81-21.75c0.75-1.63,1.91-3.07,2.89-4.59
			l0.32,0.35l0.48-0.03c-1.14,6.01-2.28,12.03-3.42,18.04c-0.22,2.28-0.43,4.57-0.65,6.85c-0.22,3.67-0.43,7.35-0.65,11.02
			c-0.07,1-0.15,2-0.22,3c-2.7,23.47-10.47,46.47-5.03,70.7c-0.67,0.06-1.35,0.12-2.02,0.19c-2.44-4.02-4.88-8.03-7.31-12.05
			c-1.3-2.67-2.61-5.34-3.91-8.01c-1.03-2.3-2.06-4.6-3.08-6.9c-0.43-0.99-0.86-1.98-1.3-2.98c-9.11-33.76-7.04-66.8,6.28-99.13
			c1.2-2.91,2.27-5.87,3.4-8.81c0.61-1.34,1.22-2.68,1.84-4.01c1.13-2.25,2.26-4.49,3.38-6.74
			C121.63,298.06,122.17,297.87,122.7,297.68z"/>
		<path class="st6" d="M165.2,484c-2.87-2.71-6.31-5.03-8.5-8.21c-6.11-8.87-11.7-18.09-17.5-27.18c-1.09-3.2-2.19-6.4-3.28-9.6
			c-0.8-3.72-1.6-7.43-2.4-11.15c-1.7-16.41-1.21-32.71,2.52-48.84c0.65-0.34,1.31-0.68,1.96-1.02l0,0
			c0.51,2.62,1.01,5.24,1.52,7.86c1.64,13.86,4.52,27.4,10.48,40.14c0.88,1.68,0.55,5.94,4.11,1.94
			c-1.23,14.39,1.75,28.25,5.21,42.05c0.49,0.88,0.97,1.77,1.46,2.65C162.25,476.42,163.73,480.21,165.2,484z"/>
		<path class="st6" d="M87.22,401.99c-0.27,0.76-0.54,1.52-1.08,3.06c-9.12-14.63-14.12-29.53-12.94-46.42
			c1.08-15.5,8.43-28.49,15.42-41.7c0.27-0.52,1.28-0.65,1.94-0.96c-0.19,1.34-0.39,2.69-0.58,4.03c-0.09,0.66-0.18,1.32-0.27,1.98
			c-2.47,20.47-5.33,40.9-3.39,61.62C86.9,389.71,86.94,395.86,87.22,401.99z"/>
		<path class="st6" d="M327.91,287.74c-6.77-19.03-21.17-29.27-35.93-40.21c3.84,0.95,7.8,1.59,11.5,2.94
			c4,1.45,7.76,3.55,12.05,5.56c2.1-6.18-1.67-10.22-3.32-14.73c0.32-0.37,0.64-0.74,0.96-1.11c2.23,1.89,4.79,3.49,6.63,5.7
			C329.81,257.92,329.76,272.01,327.91,287.74z"/>
		<path class="st6" d="M351.57,168.03c1.77,2.94,3.67,5.81,5.24,8.85c0.69,1.33,0.69,3.02,1,4.55
			c-12.37-14.34-27.66-24.99-43.73-34.67c-2.02-1.92-4.04-3.84-6.06-5.76c0.02-3.26,0.05-6.53,0.07-9.79
			c14.22,9.25,26.89,20.28,38.25,32.88C347.77,165.68,349.81,166.73,351.57,168.03z"/>
		<path class="st4" d="M290.01,133.99c4.14,0.1,4.83-2.82,4.95-5.95c0.15-3.75,0.04-7.5,0.04-11.25c0.47-0.07,0.94-0.15,1.41-0.22
			c0.36,1.99,0.73,3.98,1.15,6.31c3.09-0.72,7.05-3.9,7.53,2.35c0,1.12,0,2.24,0,3.37c-0.28,1.5-0.56,3-0.84,4.49
			c-0.29,1.31-0.59,2.63-0.88,3.94c-0.09,1-0.17,2.01-0.26,3.01c-0.24,0.66-0.49,1.33-0.73,1.99c-0.02,0.69-0.04,1.38-0.06,2.08
			c-0.3,0.64-0.61,1.28-0.91,1.92c0.03,0.72,0.06,1.44,0.09,2.15c-0.38,0.95-0.76,1.9-1.15,2.85c0,0.7,0,1.39,0,2.09
			c-0.79-0.02-1.57-0.03-2.36-0.05c-0.64-0.7-1.28-1.39-1.92-2.09c-1.69-1.99-3.38-3.99-5.07-5.98c-0.32-0.34-0.64-0.67-0.96-1.01
			c-0.35-0.98-0.7-1.96-1.05-2.94C289.33,138.69,289.67,136.34,290.01,133.99z"/>
		<path class="st7" d="M351.57,168.03c-1.76-1.3-3.8-2.35-5.23-3.94c-11.35-12.6-24.02-23.64-38.25-32.88
			c-0.28-1.28-0.55-2.57-0.83-3.85c7.73,4.65,15.63,9.05,23.16,14.01C340.32,147.89,347.97,156.4,351.57,168.03z"/>
		<path class="st1" d="M185.69,181.05c0.94-0.95,1.89-1.9,2.83-2.85c0.34-0.24,0.68-0.47,1.02-0.71
			c5.92-3.56,11.82-7.15,17.77-10.66c1.83-1.08,3.76-1.97,5.65-2.95c-0.04,5.41-3.23,9.2-8.36,10.17c-1.2,0.23-2.3,1.03-3.43,1.6
			c-2.17,1.09-4.26,2.99-6.49,3.16c-5.02,0.38-4.45,2.43-2.03,5.63c-0.39,0.36-0.79,0.72-1.18,1.08
			C189.54,184.04,187.61,182.55,185.69,181.05z"/>
		<path class="st1" d="M104.03,249.01c8.66-9.79,17.32-19.57,25.98-29.36c2.11,3.05,0.93,5.78-2.2,8.23
			c-5.31,4.16-11.69,8.04-14.76,13.62C110.64,245.89,108.52,248.23,104.03,249.01z"/>
		<path class="st1" d="M283.44,403.99c2.72,0.78,5.44,1.55,8.16,2.33c-0.71,1.83-1.42,3.66-2.13,5.5c-2.1,0.99-6.02-1.66-6.32,2.66
			c-0.23,3.33,1.1,6.24,5.15,6.64c-0.15,1.3-0.31,2.59-0.46,3.89c-1.36,1-2.72,2-4.51,3.32c-0.82-0.56-2.25-1.54-3.68-2.51
			c4.08-3.88,3.79-5.46-1.65-8.89c1.01-1.58,2.02-3.16,3.23-5.05c-0.31-0.9-0.77-2.28-1.23-3.65
			C281.14,406.82,282.29,405.41,283.44,403.99z"/>
		<path class="st1" d="M267.99,437.18c-9.77-2.17-18.29-6.82-26.04-13.03c2.35-3.2,5.15-1.6,7.5-0.32
			c5.78,3.15,11.42,6.55,16.99,10.06C267.3,434.43,267.49,436.05,267.99,437.18z"/>
		<path class="st1" d="M248.32,479.81c-1.97-6.99-2.03-13.88,0.85-21.16c2.25,4.41,4.25,8.3,6.24,12.2
			c-0.8,1.51-2.29,3.02-2.28,4.52C253.16,478.97,252.08,480.65,248.32,479.81z"/>
		<path class="st1" d="M289,141.04c0.35,0.98,0.7,1.96,1.05,2.94c-2.32-1.47-4.7-2.84-6.95-4.42c-4.54-3.19-8.93-6.61-13.54-9.7
			c-2-1.34-4.18-1.54-4.76,1.76c-1.52-3.25-3.04-6.49-4.56-9.74c0.37-0.42,0.73-0.84,1.1-1.26c8.14,5.98,16.28,11.96,24.42,17.93
			C286.83,139.39,287.91,140.21,289,141.04z"/>
		<path class="st6" d="M243.95,403.79c4.51,1.79,9.03,3.59,13.54,5.38c-0.86,2.14-1.72,4.27-3.1,7.69c-3.9-3.72-6.82-6.49-9.73-9.27
			c0,0-0.08-0.24-0.08-0.24C244.37,406.17,244.16,404.98,243.95,403.79z"/>
		<path class="st1" d="M144.7,207.08c6.13-4.15,12.26-8.31,18.39-12.46c0.19,0.96,0.85,2.53,0.51,2.79
			c-4.66,3.51-9.5,6.77-14.18,10.25C147.48,209.1,145.98,209.67,144.7,207.08z"/>
		<path class="st1" d="M244.66,407.6c2.91,2.77,5.82,5.55,9.73,9.27c1.38-3.42,2.24-5.56,3.1-7.69c1.21,0.75,2.43,1.49,3.64,2.24
			c-0.49,2.2-0.99,4.4-1.48,6.59c-6.08,0.27-11.97,0.06-14.74-6.75C244.47,410.19,244.73,408.83,244.66,407.6z"/>
		<path class="st6" d="M269.61,400.84c-4.08,2-6.15,1.08-8.68-3.84c0.37-1.33,0.74-2.66,1.11-3.98c2.96,1.33,5.92,2.66,8.88,3.98
			C270.48,398.28,270.04,399.56,269.61,400.84z"/>
		<path class="st6" d="M259.65,418.01c0.49-2.2,0.99-4.4,1.48-6.59c2.72,1.19,5.43,2.38,8.15,3.57c-0.98,1.92-1.96,3.85-2.94,5.77
			C264.11,419.84,261.88,418.93,259.65,418.01z"/>
		<path class="st6" d="M248.03,388.27c6.16-2.63,9.49-1.32,12.2,4.78c-0.49,0.47-0.97,0.94-1.46,1.41
			c-1.21,0.04-2.42,0.09-3.63,0.13c-1.72-0.84-3.45-1.68-5.17-2.52c-0.64-1.28-1.28-2.55-1.93-3.83
			C248.05,388.24,248.03,388.27,248.03,388.27z"/>
		<path class="st6" d="M278,416.93c5.44,3.43,5.73,5.01,1.65,8.89c-1.8-0.64-3.59-1.28-5.39-1.92c0-1.93,0-3.86,0.01-5.79
			C275.51,417.71,276.75,417.32,278,416.93z"/>
		<path class="st6" d="M283.44,403.99c-1.15,1.41-2.3,2.82-3.44,4.24c-3.33-0.22-5.92-1.29-6.01-5.23c0.37-0.92,0.74-1.83,1.11-2.75
			C278.94,399.12,282,399.76,283.44,403.99z"/>
		<path class="st1" d="M243.95,403.79c0.21,1.19,0.42,2.38,0.63,3.57c-1.13-0.2-3.11-0.15-3.25-0.64c-1.27-4.31-4.87-4.19-8.19-4.68
			c0.79-1.75,1.58-3.5,2.38-5.25c0.77-0.53,1.54-1.06,1.68-1.16C239.62,398.57,241.79,401.18,243.95,403.79z"/>
		<path class="st1" d="M269.72,513.12c-3.27-3.36-6.54-6.73-9.8-10.09c2.09,0.25,5.87,0.18,5.98,0.79
			C266.53,507.26,272.97,508.33,269.72,513.12z"/>
		<path class="st6" d="M287.83,425.01c0.15-1.3,0.31-2.59,0.46-3.89c2.17,0.32,4.34,0.64,6.51,0.96c0.3,1.6,0.61,3.21,0.91,4.81
			C292.44,428.97,289.66,428.97,287.83,425.01z"/>
		<path class="st6" d="M289.47,411.82c0.71-1.83,1.42-3.66,2.13-5.5c1.09,0.01,2.17,0.02,3.26,0.03c0,0,0-0.02,0-0.02
			c0.8,1.55,1.59,3.11,2.39,4.66c-0.64,0.92-1.29,1.83-1.93,2.75C293.37,413.1,291.42,412.46,289.47,411.82z"/>
		<path class="st1" d="M97.14,276.05c-4.15,2.81-8.29,5.62-12.44,8.44c-0.28-0.22-0.56-0.43-0.84-0.65c1.52-3,3.05-6,4.57-9
			C91.34,275.25,94.24,275.65,97.14,276.05z"/>
		<path class="st1" d="M225.03,145.91c-3.89-1.85-7.78-3.71-11.67-5.56c0.05-0.34,0.11-0.68,0.16-1.03c3.5,0,7,0,10.5,0
			C224.36,141.52,224.69,143.72,225.03,145.91z"/>
		<path class="st7" d="M308.02,140.99c2.02,1.92,4.04,3.84,6.06,5.76c-1.72,2.28-7.25-1.19-6.34,5.33
			C304.1,147.59,307.63,144.39,308.02,140.99z"/>
		<path class="st1" d="M260.05,146.57c1.81,0.69,3.57,1.67,5.44,1.94c0.99,0.14,2.15-0.98,3.23-1.53c0.84,2.01,1.68,4.02,3.08,7.37
			C266.03,152.64,262.23,150.89,260.05,146.57z"/>
		<path class="st1" d="M222.06,505.86c3.66,3,7.32,6,10.98,9.01c-0.44,0.58-0.96,1.7-1.31,1.65
			C228.51,516.08,222.57,509.41,222.06,505.86z"/>
		<path class="st1" d="M274.26,418.11c0,1.93,0,3.86-0.01,5.79c-2.64-1.05-5.28-2.09-7.92-3.14c0.98-1.92,1.96-3.85,2.94-5.77
			C270.94,416.03,272.6,417.07,274.26,418.11z"/>
		<path class="st1" d="M91.7,300.14c1.34-1.74,2.68-3.49,4.01-5.23c0.65,1.53,1.93,3.13,1.76,4.56c-0.14,1.23-1.94,2.27-3,3.39
			C93.55,301.95,92.62,301.04,91.7,300.14z"/>
		<path class="st1" d="M265.08,479.8c4.97,2.76,9.93,5.51,14.9,8.27C275.09,489.04,267.15,484.64,265.08,479.8z"/>
		<path class="st1" d="M191.84,394.58c-2.41,2.87-4.82,5.75-7.23,8.62c-0.09-1.44-0.45-2.93-0.22-4.32c0.28-1.67,1.05-3.25,1.6-4.87
			l0,0C187.95,394.19,189.9,394.38,191.84,394.58z"/>
		<path class="st1" d="M119.34,324.01c0.29-2.59,0.58-5.18,0.87-7.76c1.23,1.51,2.47,3.03,3.7,4.54
			C122.39,321.86,120.86,322.94,119.34,324.01z"/>
		<path class="st1" d="M133.52,427.86c0.8,3.72,1.6,7.43,2.4,11.15C131.95,437.5,130.47,430.6,133.52,427.86z"/>
		<path class="st1" d="M137.91,212.74c1.42-1.23,2.84-2.46,4.25-3.69c-0.2,2.5-0.41,5-0.61,7.5c-0.45,0.17-0.91,0.34-1.36,0.51
			C139.43,215.62,138.67,214.18,137.91,212.74z"/>
		<path class="st1" d="M230.82,409.99c0.41-1.99,0.83-3.98,1.24-5.98c1.25,0.94,2.5,1.88,3.76,2.82
			C234.15,407.89,232.48,408.94,230.82,409.99z"/>
		<path class="st1" d="M275.1,400.25c-0.37,0.92-0.74,1.83-1.11,2.75c-1.46-0.72-2.92-1.44-4.38-2.16c0.44-1.28,0.87-2.56,1.31-3.84
			C272.31,398.09,273.7,399.17,275.1,400.25z"/>
		<path class="st1" d="M129.73,361.98c0.22-2.28,0.43-4.57,0.65-6.85c0.87,1.41,2.21,2.75,2.4,4.24
			C132.87,360.1,130.81,361.1,129.73,361.98z"/>
		<path class="st1" d="M110.57,426.82c1.3,2.67,2.61,5.34,3.91,8.01C110.01,432.92,108.66,430.17,110.57,426.82z"/>
		<path class="st1" d="M138,378c-0.65,0.34-1.31,0.68-1.96,1.02c0.38-2.5,0.76-5,1.13-7.5c0.51,0.05,1.02,0.1,1.54,0.15
			C138.47,373.78,138.24,375.89,138,378z"/>
		<path class="st1" d="M217.15,506.01c-0.48-1.86-0.97-3.72-1.45-5.58c0.25-0.19,0.51-0.37,0.76-0.56c1.29,1.43,2.58,2.87,3.87,4.3
			C219.27,504.78,218.21,505.39,217.15,506.01z"/>
		<path class="st1" d="M291,144.99c1.69,1.99,3.38,3.99,5.07,5.98C292.48,150.59,290.98,148.44,291,144.99z"/>
		<path class="st1" d="M154.11,427.93c-3.56,4-3.23-0.25-4.11-1.94c0.96-0.14,2.06-0.63,2.84-0.32
			C153.47,425.92,153.71,427.15,154.11,427.93z"/>
		<path class="st1" d="M249.98,392.07c1.72,0.84,3.45,1.68,5.17,2.52C251.77,397.14,249.91,396.57,249.98,392.07z"/>
		<path class="st1" d="M139.52,385.86c-0.51-2.62-1.01-5.24-1.52-7.86C141.76,379.99,139.52,383.14,139.52,385.86z"/>
		<path class="st1" d="M117.71,304.99c-0.61,1.34-1.22,2.68-1.84,4.01c-0.69-0.54-1.39-1.07-2.08-1.61
			C115.1,306.59,116.41,305.79,117.71,304.99z"/>
		<path class="st1" d="M192,490.92c1.43,1.65,2.87,3.31,4.3,4.96C192.35,496.42,191.81,493.99,192,490.92z"/>
		<path class="st1" d="M197.1,496.74c1.38,1.39,2.77,2.77,4.15,4.16c-1.21,0.23-2.42,0.46-4.15,0.78
			C197.1,499.82,197.1,498.28,197.1,496.74z"/>
		<path class="st1" d="M215.96,510.88c0.2-0.54,0.4-1.08,0.6-1.62c0.87,1.55,1.75,3.09,2.62,4.64c-0.61,0.28-1.22,0.57-1.83,0.85
			C216.88,513.46,216.42,512.17,215.96,510.88z"/>
		<path class="st1" d="M285.93,525.97c0.07-0.67,0.14-1.35,0.21-2.02c1.72,0.08,3.43,0.15,5.15,0.23c0.04,0.44,0.08,0.87,0.12,1.31
			C289.58,525.65,287.76,525.81,285.93,525.97z"/>
		<path class="st1" d="M183.39,405.05c-0.86,1.24-1.72,2.49-2.57,3.73c-0.73-0.07-1.45-0.14-2.18-0.21
			c-0.13-0.37-0.25-0.73-0.38-1.1C179.97,406.66,181.68,405.86,183.39,405.05z"/>
		<path class="st1" d="M253,144.04c2.25,0.88,4.49,1.75,6.74,2.63C256.86,147.43,254.47,146.91,253,144.04z"/>
		<path class="st1" d="M295.72,426.89c-0.3-1.6-0.61-3.21-0.91-4.81c1.04,0.65,2.08,1.3,3.12,1.96
			C297.19,424.99,296.46,425.94,295.72,426.89z"/>
		<path class="st1" d="M230.98,139.53c1.67,0.16,3.35,0.32,5.02,0.47C234.33,139.84,232.66,139.69,230.98,139.53z"/>
		<path class="st1" d="M117.17,266.8c-1.38,0.48-2.77,0.95-4.15,1.43C113.69,265.7,114.42,263.31,117.17,266.8z"/>
		<path class="st1" d="M258.77,394.45c0.49-0.47,0.97-0.94,1.46-1.41c0.6-0.01,1.2-0.02,1.8-0.02c-0.37,1.33-0.74,2.66-1.11,3.98
			C260.21,396.15,259.49,395.3,258.77,394.45z"/>
		<path class="st1" d="M133.8,337.09l-0.48,0.03l-0.32-0.35c0.13-1.08,0.27-2.16,0.4-3.24c0.58,0.07,1.16,0.15,1.73,0.22
			C134.69,334.86,134.24,335.97,133.8,337.09z"/>
		<path class="st1" d="M295.32,413.74c0.64-0.92,1.29-1.83,1.93-2.75c0.75,0.52,1.5,1.03,2.25,1.55
			C298.1,412.94,296.71,413.34,295.32,413.74z"/>
		<path class="st1" d="M120.3,363.11c-0.52,1.89-1.05,3.78-1.57,5.66c-0.26,0-0.51-0.01-0.77-0.01c0-1.59,0-3.17,0-4.76
			C118.74,363.71,119.52,363.41,120.3,363.11z"/>
		<path class="st1" d="M179.62,184.83c1.11-0.66,2.22-1.32,3.33-1.98c-0.09,1.17-0.19,2.35-0.33,4.07
			C181.29,186,180.46,185.41,179.62,184.83z"/>
		<path class="st1" d="M100.49,253.9c0.71-1.02,1.41-2.03,2.12-3.05c0.31,0.77,0.62,1.55,0.94,2.32
			C102.53,253.42,101.51,253.66,100.49,253.9z"/>
		<path class="st7" d="M303.37,137.02c0.29-1.31,0.59-2.63,0.88-3.94C303.96,134.39,303.67,135.71,303.37,137.02z"/>
		<path class="st1" d="M106.19,416.94c0.43,0.99,0.86,1.98,1.3,2.98c-1.01-0.57-2.01-1.14-3.02-1.7
			C105.04,417.79,105.62,417.37,106.19,416.94z"/>
		<path class="st1" d="M188.17,485.8c1.04,1.39,2.07,2.79,3.11,4.18C190.24,488.58,189.2,487.19,188.17,485.8z"/>
		<path class="st1" d="M248.03,388.27c0,0,0.02-0.03,0.02-0.03c-1-0.57-2-1.14-3-1.72c0.41-0.42,0.82-0.83,1.23-1.25
			C246.87,386.27,247.45,387.27,248.03,388.27z"/>
		<path class="st1" d="M125.92,266.97c0.14-0.62,0.27-1.24,0.41-1.85c0.77-0.06,1.53-0.12,2.3-0.18
			C127.72,265.62,126.82,266.29,125.92,266.97z"/>
		<path class="st1" d="M161.17,465.97c0.57-0.59,1.13-1.19,1.7-1.78c0.24,0.19,0.48,0.37,0.73,0.56c-0.47,0.7-0.95,1.4-1.42,2.09
			C161.84,466.55,161.5,466.26,161.17,465.97z"/>
		<path class="st1" d="M122.7,297.68c-0.53,0.19-1.07,0.38-1.6,0.57c0.65-0.95,1.3-1.9,1.95-2.85
			C122.93,296.16,122.82,296.92,122.7,297.68z"/>
		<path class="st6" d="M366.42,193.16c0.76-0.1,1.53-0.21,2.29-0.31c0.13,1.33,0.26,2.66,0.38,3.99c-0.26,0.04-0.52,0.08-0.78,0.12
			C367.68,195.69,367.05,194.43,366.42,193.16z"/>
		<path class="st1" d="M183.09,477.97c0.4,0.64,0.79,1.28,1.19,1.92c-0.88-0.19-1.76-0.38-2.65-0.57
			C182.12,478.87,182.61,478.42,183.09,477.97z"/>
		<path class="st7" d="M298,153.06c0.79,0.02,1.57,0.03,2.36,0.05c-0.2,0.58-0.4,1.16-0.6,1.74
			C299.17,154.26,298.58,153.66,298,153.06z"/>
		<path class="st7" d="M300.36,151.02c0.38-0.95,0.76-1.9,1.15-2.85C301.12,149.12,300.74,150.07,300.36,151.02z"/>
		<path class="st1" d="M120.69,311.98c0.11-0.99,0.21-1.98,0.32-2.98c0.6,0.55,1.19,1.1,1.79,1.65
			C122.1,311.09,121.4,311.53,120.69,311.98z"/>
		<path class="st1" d="M128.85,375.99c0.07-1,0.15-2,0.22-3c0.57,0.45,1.15,0.91,1.72,1.36
			C130.15,374.91,129.5,375.45,128.85,375.99z"/>
		<path class="st1" d="M202.98,502.38c0.98,0.88,1.95,1.77,2.93,2.65C204.93,504.15,203.96,503.27,202.98,502.38z"/>
		<path class="st1" d="M239.98,140.48c1,0.21,2,0.41,3,0.62C241.98,140.89,240.98,140.69,239.98,140.48z"/>
		<path class="st1" d="M186.08,482.81c0.71,1.01,1.42,2.03,2.14,3.04C187.5,484.84,186.79,483.82,186.08,482.81z"/>
		<path class="st1" d="M256.9,384.83c0.39-0.46,0.65-0.75,0.9-1.05c0.28,0.34,0.65,0.65,0.81,1.05c0.07,0.16-0.37,0.74-0.42,0.72
			C257.79,385.4,257.44,385.15,256.9,384.83z"/>
		<path class="st1" d="M160.78,472.64c-0.49-0.88-0.97-1.77-1.46-2.65C159.81,470.87,160.3,471.76,160.78,472.64z"/>
		<path class="st1" d="M134.6,263.76c-0.11,0.26-0.17,0.66-0.36,0.74c-0.19,0.07-0.5-0.18-0.76-0.29c0.11-0.26,0.17-0.66,0.35-0.74
			C134.02,263.4,134.34,263.65,134.6,263.76z"/>
		<path class="st1" d="M228.28,156.72c0.91-0.52,1.82-1.03,2.74-1.55C230.1,155.68,229.19,156.2,228.28,156.72z"/>
		<path class="st1" d="M294.86,406.34c0,0,0,0.02,0,0.02c0.27-0.63,0.55-1.26,0.82-1.9c0.24,0.18,0.48,0.36,0.72,0.54
			C295.89,405.45,295.37,405.89,294.86,406.34z"/>
		<path class="st7" d="M301.41,146.02c0.3-0.64,0.61-1.28,0.91-1.92C302.02,144.74,301.71,145.38,301.41,146.02z"/>
		<path class="st1" d="M244.98,141.48c0.67,0.19,1.34,0.39,2,0.58C246.32,141.86,245.65,141.67,244.98,141.48z"/>
		<path class="st7" d="M302.38,142.02c0.24-0.66,0.49-1.33,0.73-1.99C302.87,140.7,302.62,141.36,302.38,142.02z"/>
		<path class="st7" d="M305.09,128.59c0-1.12,0-2.24,0-3.37c0.61,0.6,1.22,1.2,1.84,1.8C306.31,127.54,305.7,128.06,305.09,128.59z"
			/>
		<path class="st1" d="M299.42,420.26c0.12-0.26,0.17-0.67,0.36-0.74c0.19-0.07,0.5,0.19,0.76,0.3c-0.11,0.26-0.17,0.67-0.36,0.74
			C300,420.63,299.68,420.37,299.42,420.26z"/>
		<path class="st1" d="M275.55,393.74c-0.11,0.26-0.23,0.52-0.34,0.78c-0.26-0.11-0.67-0.17-0.74-0.35
			c-0.07-0.19,0.18-0.51,0.3-0.77C275.02,393.51,275.28,393.63,275.55,393.74z"/>
		<path class="st1" d="M89.71,321.98c0.09-0.66,0.18-1.32,0.27-1.98c0.5,0.3,1.01,0.59,1.51,0.89
			C90.9,321.25,90.31,321.61,89.71,321.98z"/>
		<path class="st1" d="M176.59,186.57c0,0,0.02,0.01,0.02,0.01c0.64,0.35,1.27,0.69,1.91,1.04c-0.18,0.23-0.36,0.47-0.53,0.7
			C177.52,187.74,177.06,187.15,176.59,186.57z"/>
		<path class="st1" d="M228.02,147.9c-0.38-0.29-0.76-0.57-1.14-0.86C227.27,147.32,227.65,147.61,228.02,147.9z"/>
		<path class="st1" d="M186,394c-0.13-0.07-0.26-0.14-0.38-0.22C185.74,393.86,185.87,393.93,186,394L186,394z"/>
		<polygon class="st1" points="218.38,161.05 218.47,160.75 218.69,160.92 		"/>
		<path class="st2" d="M160,82c0.8-2.28,1.77-4.51,2.34-6.84c0.41-1.69,0.3-3.51,0.42-5.27c11.93-15.03,25.47-28.38,41.12-39.53
			c0.91-0.65,2.04-0.99,3.06-1.48c2.68,1.14,3.23,6.41,8.14,4.4c-0.69-1.87-1.2-3.28-1.9-5.2C217.2,28.72,219,30.51,219,34
			c-5.34,4-10.67,8.01-16.01,12.01c-2.92,1.28-5.84,2.55-9.41,4.11c-0.2-0.17-1.28-1.13-2.41-2.13c-1.39,2.29-2.53,4.16-3.31,5.43
			c1.2,1.74,2.18,3.16,3.16,4.57c-0.33,0.34-0.67,0.67-1,1.01c-0.67,0.66-1.33,1.32-2,1.98l-0.02,0.02
			c-1.38-0.89-2.77-1.78-5.4-3.48c0.63,3.32,1.02,5.4,1.42,7.48c0,0.33-0.01,0.66-0.01,0.99c-1.49-0.41-2.98-0.83-4.97-1.38
			c0.35,2.29,0.67,4.33,0.98,6.38L180,71.01c-0.66,1-1.32,2-1.98,3c-0.33,0.34-0.67,0.67-1,1.01c-1.81-0.76-3.62-1.51-5.4-2.25
			c0.46,2.7,0.93,5.46,1.4,8.23c0,0-0.02,0.03-0.02,0.03c-1.11,0.19-2.21,0.38-2.79,0.48c-1.32-2.07-2.44-3.83-3.56-5.59
			c-2.08,4.74,4.26,8.46-0.57,12.71c-0.88-0.82-1.59-1.49-2.3-2.15c-0.48,0.24-0.96,0.48-1.44,0.73c0.89,2.28,1.78,4.55,2.68,6.83
			c-0.66,1-1.33,2-1.99,3c-1.8-1.46-3.59-2.91-6.11-4.95c-2.13,2-4.81,4.34-7.21,6.92c-0.43,0.47-0.08,2.2,0.47,2.94
			c1.82,2.46,3.88,4.74,5.85,7.09c0,0.66-0.01,1.33-0.01,1.99c-3.25-3.26-6.67-6.38-9.55-9.93c-0.43-0.53,1.66-3.12,2.58-4.75
			c2.17-3.84,4.16-7.81,6.61-11.46C156.53,83.53,158.51,82.93,160,82c0.62,0.93,1.25,1.86,1.87,2.79c0.37-0.47,0.74-0.94,1.11-1.41
			C161.99,82.91,160.99,82.46,160,82z M175.7,67.18c-0.58,0.25-1.15,0.5-1.73,0.76c0.53,0.97,1.05,1.95,1.58,2.92
			c0.45-0.21,0.9-0.41,1.35-0.62C176.5,69.22,176.1,68.2,175.7,67.18z"/>
		<path class="st4" d="M219,34c0-3.49-1.8-5.28-5.82-5.92c0.7,1.92,1.22,3.32,1.9,5.2c-4.91,2.01-5.46-3.26-8.14-4.4
			c2.73-1.86,5.42-3.79,8.21-5.55c9.04-5.73,18.98-8.33,29.64-8.4c8.25-0.05,15.61,2.72,22.17,7.38
			c9.49,6.74,16.59,15.57,21.2,26.32c-0.22,0.24-0.44,0.48-0.65,0.73c-3.6-4.6-7.06-1.14-9.47,0c-5.17-6.41-9-13.77-15.03-18
			c-7.37-5.17-16.15-9.77-26.11-6.41c-1.18,0.4-1.94,2.01-2.9,3.06C229.01,30,224,32,219,34z M276.16,36.64
			c0.4-0.42,0.81-0.85,1.21-1.27c-2.06-1.81-4.12-3.62-6.34-5.58C268.78,34.32,269.3,34.91,276.16,36.64z M275.38,40.43
			c0.05,0.9,0.1,1.81,0.16,2.71c2.03,0,4.05,0,6.08,0c-0.25-0.98-0.4-2.75-0.77-2.8C279.05,40.12,277.2,40.36,275.38,40.43z"/>
		<path class="st6" d="M433.01,388.06c-1.3-0.52-2.6-1.04-3.31-1.32c0.42-2.13,0.85-4.37,1.29-6.61c3.49,0.98,6.97,1.96,11.73,3.31
			C438.81,385.3,435.91,386.68,433.01,388.06z"/>
		<path class="st1" d="M258.3,449.37c9.83,1.37,18.94,3.16,28.13,3.81c16.64,1.19,33.24,0.83,49.52-3.77
			c2.77-0.78,6.54-0.88,8.93,0.41c7.78,4.2,7.98,8.76,1.38,14.64c-17.7,15.79-46.24,19.51-67.36,8.85
			C268.75,468.19,261.94,460.32,258.3,449.37z"/>
		<path class="st8" d="M434.73,147.74c-8.97,2.4-17.94,4.81-26.93,7.17c-1.66,0.43-3.38,0.63-5.42-0.03
			c23.81-18.22,47.62-36.43,71.43-54.65c0.47,0.11,0.95,0.22,1.42,0.33c-0.51,4.12-0.57,8.36-1.62,12.34
			c-5.54,21.05-19.11,36.44-36.42,48.48c-7.38,5.13-16.29,8.12-24.6,11.85c-1.69,0.76-3.83,0.51-6.27-0.27
			c0.88-0.73,1.75-1.48,2.65-2.19c7.69-6.07,15.43-12.06,23.03-18.24c1.35-1.1,2.12-2.91,3.15-4.39c0.18-0.2,0.35-0.4,0.53-0.6
			C435.37,147.61,435.05,147.67,434.73,147.74z M418.03,167.74c0.42,0.62,0.84,1.25,1.27,1.87c4.96-3.17,9.96-6.28,14.82-9.6
			c0.42-0.29,0.21-2.6-0.32-2.91c-0.84-0.48-2.53-0.5-3.28,0.06c-2.76,2.08-5.28,4.48-7.91,6.74
			C421.1,165.21,419.56,166.47,418.03,167.74z M437.22,157.21c0.57-0.43,1.14-0.87,1.72-1.3c-0.94-1.22-1.87-2.44-2.81-3.66
			c-0.48,0.34-0.96,0.69-1.44,1.03C435.53,154.59,436.38,155.9,437.22,157.21z"/>
		<path class="st5" d="M219,34c5-2,10-4,15-6c6,0.33,11.99,0.67,17.99,1c1,0.66,2,1.32,3.01,1.98c1.33,0.34,2.66,0.68,4,1.02
			c0.67,0.98,1.34,1.97,2,2.95c1,0.68,2,1.37,3,2.05c0.66,1,1.33,1.99,1.99,2.99c5.44,10.17,11.38,20.11,16.19,30.57
			c5.87,12.75,8.43,26.34,7.87,40.5c-0.3,7.63-0.05,15.28-0.05,22.93c-0.34,2.35-0.67,4.7-1.01,7.05c-1.08-0.83-2.17-1.66-3.25-2.48
			c0.64-1.95,1.66-3.86,1.86-5.86c3.03-29.31-1.74-57.03-17.2-82.47c-4-6.57-8.44-12.79-15.43-16.64
			c-11.23-6.18-22.09-4.29-32.88,1.27c-13.35,6.87-23.26,17.63-32.72,28.85c-16.78,19.9-30.18,41.76-38.39,66.64
			c-3.51,10.64-2.41,21.22-0.94,32.24c4.56-14.95,9-29.48,13.43-44.01c0.76,0.14,1.53,0.27,2.29,0.41
			c-3.43,13.17-5.77,26.35-1.02,40.73c1.46-8.07,2.72-15.05,3.99-22.04c0.69-0.01,1.39-0.03,2.08-0.04
			c-0.61,10.8,3.52,20.13,8.05,29.35c-2.57-4.04-5.26-8-7.64-12.15c-0.9-1.58-1.09-3.56-1.6-5.36c-0.49,0.05-0.99,0.1-1.48,0.16
			c0,5.62,0,11.24,0,17.02c-4.71-1.09-6.14-4.1-7.07-14.06c-0.5-5.3-0.69-10.62-2.01-16.27c-2.58,10.85-5.16,21.69-7.75,32.54
			c-0.78-0.08-1.55-0.16-2.33-0.24c-0.66-5.78-1.32-11.56-1.96-17.34c-1.41-12.71,3.24-24.11,7.64-35.57
			c0.58-1.52,0.91-3.14,1.35-4.72c0-0.66,0.01-1.33,0.01-1.99c2.33-4,4.67-8,7-12c0.66-1,1.33-2,1.99-3
			c2.66-4.33,5.33-8.66,7.99-12.99c0,0,0.02-0.03,0.02-0.03c1.33-1.99,2.67-3.98,4-5.97c0.33-0.34,0.67-0.67,1-1.01
			c0.66-1,1.32-2,1.98-3c0,0,0.01-0.01,0.01-0.01c1.33-1.67,2.66-3.33,3.99-5c0.01-0.33,0.01-0.66,0.01-0.99
			c1.33-1.33,2.66-2.67,3.99-4c0,0,0.02-0.02,0.02-0.02c0.67-0.66,1.33-1.32,2-1.98c0.33-0.34,0.67-0.67,1-1.01
			c3.99-4,7.99-7.99,11.98-11.99C208.33,42.01,213.67,38.01,219,34z M165.79,161.09c-0.12-0.25-0.25-0.49-0.37-0.74
			c-0.11,0.1-0.32,0.19-0.32,0.29c0,0.26,0.08,0.52,0.13,0.78C165.41,161.31,165.59,161.2,165.79,161.09z"/>
		<path class="st8" d="M397.83,312.84c0.44-3.83,1.19-7.66,1.22-11.49c0.02-3.08,1.22-4.66,4.01-5.36c0.64-0.16,1.28-0.36,1.94-0.47
			c10.86-1.77,13.51,1.07,11.02,11.76c-2.86,12.3-10.32,18.36-22.97,18.66c-1.16,0.03-2.33,0.03-3.49,0.01
			c-10.39-0.19-11.57-1.93-7.29-11.38c1.36-3,3.17-5.84,5.06-8.56c2.66-3.81,4.6-3.56,6.78,0.69c0.53,1.03,0.82,2.17,1.26,3.24
			c0.41,0.99,0.88,1.96,1.32,2.93C397.06,312.87,397.45,312.86,397.83,312.84z"/>
		<path class="st7" d="M388.34,399.3c0.98,3.64,2.2,7.25,2.82,10.95c0.27,1.59-0.2,3.86-1.24,5c-1.93,2.13-3.63,3.63-1.15,6.6
			c0.46,0.55-0.95,3.34-2.13,4.39c-1.27,1.14-3.41,1.26-4.93,2.21c-2.08,1.29-3.94,2.93-5.89,4.42c1.6,1.34,3.2,2.67,4.82,4.04
			c-3.65,5.24-16.11,10.21-21.61,8.37c-5.05-1.69-5.91-4.51-2.28-8.41c2.02-2.18,4.6-3.84,6.67-5.98c1.57-1.63,3.64-3.54,3.9-5.54
			c0.55-4.17,2.87-6.65,6.09-8.55c6.85-4.04,12.1-9.28,13.51-17.65C387.39,399.19,387.87,399.25,388.34,399.3z"/>
		<path class="st7" d="M387.11,288.42c7.5-7.01,14.99-14.04,22.53-21.01c0.65-0.6,1.66-1.24,2.46-1.19
			c7.44,0.47,18.99,10.05,21.38,17.57c-7.73,0-15.59-0.82-23.19,0.23c-7.45,1.03-14.63,3.97-21.93,6.07
			C387.95,289.54,387.53,288.98,387.11,288.42z"/>
		<path class="st8" d="M342.46,401.04c3.38-0.57,6.79-1.71,10.14-1.58c5.6,0.22,11.18,1.17,16.74,2.03
			c1.53,0.24,3.14,0.98,4.35,1.94c2.47,1.96,2.39,3.64-0.35,5.88c-4.19,3.42-7.92,7.44-11.67,11.37c-2.45,2.56-4.65,5.27-8.78,3.96
			c0-4.67,1.34-9.76-0.38-13.43c-1.69-3.62-6.48-5.78-9.91-8.58C342.55,402.1,342.51,401.57,342.46,401.04z"/>
		<path class="st4" d="M255,30.99c-1-0.66-2-1.32-3.01-1.98C253,29.66,254,30.33,255,30.99z"/>
		<path class="st4" d="M266,40c-0.66-1-1.33-1.99-1.99-2.99C264.67,38,265.33,39,266,40z"/>
		<path class="st4" d="M261,34.95c-0.67-0.98-1.34-1.97-2-2.95C259.67,32.99,260.33,33.97,261,34.95z"/>
		<path class="st6" d="M358.99,164.96c0.09-0.75,0.18-1.5,0.42-3.44c0.88,1.82,1.25,2.6,1.63,3.38
			C360.35,164.92,359.67,164.94,358.99,164.96z"/>
		<path class="st0" d="M358.99,164.96c0.68-0.02,1.36-0.04,2.04-0.06c0,0.55-0.01,1.1-0.01,1.65
			C360.34,166.02,359.66,165.49,358.99,164.96z"/>
		<path class="st5" d="M189.54,177.49c-0.34,0.24-0.68,0.47-1.02,0.71c-1.52-1.69-3.04-3.39-4.56-5.08
			C185.82,174.58,187.68,176.04,189.54,177.49z"/>
		<path class="st5" d="M181.96,171c-0.62-0.7-1.25-1.4-1.87-2.11C180.71,169.59,181.33,170.3,181.96,171z"/>
		<path class="st5" d="M183.87,173.04c-0.63-0.67-1.25-1.33-1.88-2C182.62,171.71,183.25,172.38,183.87,173.04z"/>
		<path class="st5" d="M180.1,168.95c-0.33-0.45-0.65-0.91-0.98-1.36C179.45,168.04,179.77,168.5,180.1,168.95z"/>
		<path class="st3" d="M273.56,298.25c3.4-6.68,6.22-12.21,9.03-17.73c9.02,3.58,16.15,15.99,15.9,27.65
			c-23.75,4.69-38.25,0.57-48.27-16.51c-2.22-3.78-3.53-8.25-4.44-12.57c-0.33-1.55,1.53-4.98,2.8-5.2
			c6.12-1.07,12.37-1.59,18.59-1.77c3.05-0.09,4.13,1.74,3,5.08C267.86,283.97,268.51,290.56,273.56,298.25z"/>
		<path class="st4" d="M163.01,97.01c-2.33,4-4.67,8-7,12c-1.97-2.35-4.04-4.63-5.85-7.09c-0.55-0.74-0.9-2.48-0.47-2.94
			c2.41-2.59,5.08-4.93,7.21-6.92C159.41,94.09,161.21,95.55,163.01,97.01z"/>
		<path class="st4" d="M172.99,81.01c-2.66,4.33-5.33,8.66-7.99,12.99c-0.89-2.28-1.78-4.55-2.68-6.83
			c0.48-0.24,0.96-0.48,1.44-0.73c0.71,0.67,1.42,1.33,2.3,2.15c4.83-4.25-1.51-7.96,0.57-12.71c1.12,1.76,2.24,3.52,3.56,5.59
			C170.78,81.39,171.88,81.2,172.99,81.01z"/>
		<path class="st4" d="M202.99,46.02c-3.99,4-7.99,7.99-11.98,11.99c-0.98-1.42-1.95-2.83-3.16-4.57c0.77-1.27,1.92-3.15,3.31-5.43
			c1.13,1,2.22,1.95,2.41,2.13C197.15,48.57,200.07,47.29,202.99,46.02z"/>
		<path class="st4" d="M187.99,61.01c-1.33,1.33-2.66,2.67-3.99,4c-0.39-2.08-0.79-4.16-1.42-7.48
			C185.23,59.23,186.61,60.12,187.99,61.01z"/>
		<path class="st4" d="M177.01,75.01c-1.33,1.99-2.67,3.98-4,5.97c-0.47-2.77-0.94-5.53-1.4-8.23
			C173.39,73.5,175.2,74.26,177.01,75.01z"/>
		<path class="st4" d="M184,66c-1.33,1.67-2.66,3.33-3.99,5c-0.31-2.05-0.63-4.09-0.98-6.38C181.02,65.17,182.51,65.58,184,66z"/>
		<path class="st4" d="M175.7,67.18c0.4,1.02,0.8,2.04,1.2,3.06c-0.45,0.21-0.9,0.41-1.35,0.62c-0.53-0.97-1.05-1.95-1.58-2.92
			C174.55,67.69,175.12,67.44,175.7,67.18z"/>
		<path class="st4" d="M160,82c0.99,0.46,1.99,0.91,2.98,1.37c-0.37,0.47-0.74,0.94-1.11,1.41C161.25,83.86,160.62,82.93,160,82
			L160,82z"/>
		<path class="st4" d="M180,71.01c-0.66,1-1.32,2-1.98,3C178.68,73.01,179.34,72.01,180,71.01z"/>
		<path class="st4" d="M190.01,59.01c-0.67,0.66-1.33,1.32-2,1.98C188.68,60.33,189.34,59.67,190.01,59.01z"/>
		<path class="st2" d="M276.16,36.64c-6.86-1.73-7.38-2.32-5.13-6.85c2.22,1.95,4.28,3.76,6.34,5.58
			C276.97,35.79,276.56,36.22,276.16,36.64z"/>
		<path class="st2" d="M275.38,40.43c1.83-0.07,3.67-0.31,5.46-0.08c0.37,0.05,0.52,1.82,0.77,2.8c-2.03,0-4.05,0-6.08,0
			C275.48,42.24,275.43,41.34,275.38,40.43z"/>
		<path class="st3" d="M418.03,167.74c1.53-1.28,3.07-2.54,4.58-3.84c2.63-2.26,5.14-4.67,7.91-6.74c0.75-0.56,2.44-0.54,3.28-0.06
			c0.53,0.3,0.74,2.62,0.32,2.91c-4.85,3.32-9.86,6.43-14.82,9.6C418.87,168.99,418.45,168.37,418.03,167.74z"/>
		<path class="st3" d="M437.22,157.21c-0.85-1.31-1.69-2.62-2.54-3.93c0.48-0.34,0.96-0.69,1.44-1.03c0.94,1.22,1.87,2.44,2.81,3.66
			C438.36,156.34,437.79,156.78,437.22,157.21z"/>
		<path class="st2" d="M434.73,147.74c0.32-0.06,0.64-0.13,0.96-0.19c-0.18,0.2-0.35,0.4-0.53,0.6
			C435.02,148.01,434.88,147.87,434.73,147.74z"/>
		<path class="st3" d="M165.79,161.09c-0.2,0.12-0.38,0.22-0.57,0.33c-0.05-0.26-0.13-0.52-0.13-0.78c0-0.1,0.21-0.19,0.32-0.29
			C165.54,160.6,165.67,160.84,165.79,161.09z"/>
	</g>
</g>
</svg>
