<?xml version="1.0" encoding="utf-8"?>
<!-- Generator: Adobe Illustrator 25.4.1, SVG Export Plug-In . SVG Version: 6.00 Build 0)  -->
<svg version="1.1" id="Layer_1" xmlns="http://www.w3.org/2000/svg" xmlns:xlink="http://www.w3.org/1999/xlink" x="0px" y="0px"
	 viewBox="0 0 535 834" style="enable-background:new 0 0 535 834;" xml:space="preserve">
<style type="text/css">
	.st0{fill:#F6F6F7;}
	.st1{fill:#293046;}
	.st2{fill:#F2F2F0;}
	.st3{fill:#F9C737;}
	.st4{fill:#FAFAFA;}
	.st5{fill:#E6E6E6;}
	.st6{fill:#F3C43E;}
	.st7{fill:#E86743;}
	.st8{fill:#C19141;}
</style>
<g>
	<g>
		<path class="st0" d="M469.01,794c-2.61-0.19-4.06,0.42-5.72,3.14c-1.17,1.92-5.71,1.95-8.8,2.5c-6.01,1.07-12.54-0.7-18.03,3.31
			c-0.64,0.47-1.46,0.88-2.23,0.97c-12.15,1.4-24.35,2.51-36.46,4.2c-5.58,0.78-11,2.72-16.52,4.01c-5.55,1.3-11.75,1.35-16.82,0.87
			c-8.21-0.77-15.32,2.19-22.97,2.65c-3.65,0.22-7.34-0.21-11.01-0.3c-1.9-0.05-3.8-0.01-5.94,0.77c0.98,0.56,1.97,1.13,2.95,1.69
			c0,0.41,0,0.82,0,1.23c-1.97,0-4.45,0.76-5.83-0.14c-4.34-2.84-7.9-3.83-13.63-2.32c-9.61,2.54-19.78,3.29-29.95,0.5
			c-4.34-1.19-9.37-0.62-13.96,0.04c-5.47,0.79-10.81,2.53-16.93,4.04c-1.87-2.62-4.44-5.99-9.32-2.59
			c-0.69,0.48-2.45-0.89-3.74-0.94c-5.37-0.24-10.75-0.44-16.13-0.38c-4.71,0.05-9.42,0.54-14.13,0.68
			c-0.91,0.03-2.3-0.38-2.69-1.04c-2.77-4.63-6.88-2.34-10.45-2.76c-0.32,0.44-0.65,0.88-0.97,1.32c1.5,1.58,3.01,3.16,5.21,5.48
			c-8.43,2.66-16.33-0.13-24.82-0.93c1.94-5.08-0.37-5.82-4.37-6.08c-6.72-0.44-13.56-2.94-20.03-2.1
			c-8.01,1.04-14.63-4.15-22.09-3.25c-10.73,1.3-20.67-4.61-31.5-2.77c-2.68,0.46-5.86-2.1-7.75-2.85
			c-4.28-0.75-7.67-1.03-10.86-1.98c-7.25-2.15-14.4-4.62-21.58-6.96c-0.34-2.61-0.68-5.21-1.05-8.07
			c-12.95,1.07-25.97,2.15-39,3.23c0.12,0.43,0.23,0.86,0.35,1.29c-3.61,1.95-7.24,1-9.23-3.04c12.74-1.04,25.23-2.06,37.72-3.08
			c-0.01-0.66-0.03-1.31-0.04-1.97c-2.04-0.28-4.09-0.57-6.13-0.85c-0.06-0.47-0.12-0.94-0.18-1.42c1.39-0.13,2.96-0.73,4.14-0.3
			c6.17,2.25,10.76-0.22,14.97-4.41c0.62-0.62,1.66-0.94,2.56-1.13c3.59-0.78,7.21-1.46,10.82-2.16c5.35-1.03,10.66-2.3,16.05-3.02
			c16.12-2.16,32.27-4.07,48.39-6.16c1.76-0.23,3.46-0.93,6.73-1.84c-2.74-1.41-4.24-2.47-5.91-2.98
			c-7.81-2.43-15.71-4.59-23.51-7.08c-9.12-2.91-18.27-5.8-27.2-9.22c-4.42-1.69-8.48-4.41-12.55-6.91
			c-5.88-3.61-11.87-7.13-17.36-11.28c-6.29-4.75-11.88-10.58-12.2-18.98c-0.21-5.49,0.62-11.2,2-16.56
			c4.5-17.47,9.49-34.82,14.25-52.22c2.31-8.46,4.4-16.98,6.88-25.39c1.05-3.56-1.07-5.96-3.39-6.02
			c-6.29-0.16-7.53-6.14-11.55-8.78c-1.64-1.08-2.92-2.72-4.36-4.11c-1.03-0.99-2.05-2-3.11-2.97c-1.39-1.27-2.78-2.54-4.24-3.73
			c-0.76-0.62-1.97-0.86-2.47-1.61c-4.36-6.51-9.31-12.78-12.6-19.81c-1.57-3.36-0.16-8.26,0.35-12.4
			c0.75-6.05,1.66-12.11,2.94-18.07c3.75-17.45,6.98-35.07,11.82-52.22c4.29-15.24,9.51-30.39,16.05-44.79
			c7.11-15.65,15.62-30.77,24.65-45.43c8.32-13.5,18.13-26.07,27.3-39.04c0.38-0.53,0.79-1.12,1.33-1.45
			c5.1-3.06,5.7-6.75,2.03-11.46c-0.73-0.93-0.44-2.71-0.48-4.1c-0.07-2.27-0.02-4.55-0.02-7.31c-8.8,2.63-9.97-4.39-12.81-9.39
			c-0.42-0.74-1.37-1.18-2.08-1.75c-0.98-0.79-2.26-1.39-2.91-2.4c-4.47-6.94-8.84-13.93-13.12-20.98c-0.52-0.85-0.29-2.16-0.4-3.26
			c-0.17-1.76-0.05-3.6-0.54-5.26c-1.83-6.31-4.37-12.45-5.71-18.85c-3.13-15-4.56-30.14-1.08-45.34c0.73-3.18,1.16-6.51,2.43-9.46
			c1.21-2.79,1.25-4.9-0.61-7.34c-0.52-0.68,0.01-3.27,0.28-3.31c5.16-0.68,4.32-5.48,5.42-8.42c5.53-14.85,12.04-29.16,21.3-42.7
			c-4.02-0.57-3.27-2.84-3.25-5.96c0.04-7.4-1.45-14.79-1.88-22.22c-0.34-5.75-0.15-11.54,0.06-17.3
			c0.27-7.62,0.37-15.29,1.33-22.84c0.78-6.16,2.73-12.18,4.14-18.26c0.86-3.7,1.3-7.55,2.63-11.07c3.88-10.3,8.12-20.47,12.2-30.7
			c2.19-5.48,4.81-10.68,10.5-13.32c7.78-3.61,16.05-2.98,23.82-0.86c16.72,4.56,31.54,13.32,45.76,23.03
			c3.62,2.47,6.34,6.57,10.2,8.26c3.68,1.6,8.43,1.87,12.49,1.25c11.76-1.77,23.33-4.94,35.12-6.27c8.68-0.98,17.61-0.32,26.37,0.33
			c7.9,0.58,15.73,2.07,23.57,3.3c2.27,0.36,4.59,0.9,6.67,1.85c10.16,4.64,11.3,2.57,18-2.88c14.83-12.07,30.61-22.63,49.46-27.42
			c5.57-1.42,11.41-1.82,17.15-2.57c11.15-1.46,16.79,5.68,21.66,13.99c2.88,4.91,6.16,9.62,8.59,14.74c1.96,4.12,3,8.7,4.34,13.1
			c5.88,19.29,9.84,38.96,9.05,59.18c-0.48,12.2-2.43,24.35-3.89,36.51c-0.84,6.99,2.07,12.54,5.93,17.96
			c1.43,2.01,2.16,4.55,3.1,6.89c0.43,1.06,0.48,2.27,0.92,3.32c2.31,5.62,3.95,11.69,7.22,16.69c4.1,6.26,4.36,13.38,6.29,20.08
			c1.65,5.76,1.08,12.15,2.72,17.91c3.91,13.73,0.36,26.94-1.49,40.35c-1.9,13.73-7.08,26.28-14.18,37.91
			c-4.01,6.57-9.41,12.42-14.81,17.99c-4.13,4.27-4.84,9.67-6.42,14.75c-0.43,1.38,1.27,3.82,2.57,5.26
			c1.58,1.74,4.08,2.64,5.63,4.4c4.48,5.06,8.68,10.36,13,15.56c0.11,0.13,0.29,0.27,0.29,0.4c-0.23,5.48,3.35,6.5,7.72,6.28
			c-0.21,8.86,3.05,13.58,8.34,13.22c2.44,5.6,4.79,11,7.3,16.75c0.62-0.25,1.71-0.7,2.89-1.18c0.39,0.59,0.94,1.09,0.85,1.36
			c-2.37,7.16,2.49,11.52,6.37,16.13c2.02,2.41,4.72,4.19,3.08,8.09c-0.26,0.62,1.7,2.19,2.67,3.3c1.01,1.15,2.51,2.1,3,3.43
			c2.5,6.79,4.52,13.77,7.29,20.44c0.48,1.15,3.78,1.12,6.3,1.77c0-0.01-0.06,1.39-0.71,1.77c-4.11,2.37-2.77,5.22-1.34,8.53
			c1.8,4.17,3.05,8.57,4.57,12.85c0.38,1.06,1.03,2.04,1.34,3.12c0.78,2.71,1.46,5.46,2.11,8.21c0.19,0.78,0.02,1.65,0.24,2.41
			c2.73,9.65,5.59,19.26,8.2,28.94c0.94,3.49,1.36,7.13,1.91,10.72c1.64,10.75,3.52,21.49,4.65,32.3c0.36,3.4-1.33,7.04-2.17,10.54
			c-0.18,0.77-1.27,1.76-1.06,2.13c1.38,2.37,3.76,4.42,4.36,6.92c0.7,2.96,0.65,5.7,3.53,5.32c1.05,3.34,1.34,6.58,2.95,8.89
			c2.74,3.93,3.92,8.04,4.52,12.7c0.77,6.05,3.49,12.04,3.29,17.98c-0.32,9.44-1.93,18.91-3.83,28.2c-1.17,5.69-3.55,11.22-6,16.55
			c-7.94,17.26-20.86,30.51-35.63,41.91c-9.01,6.96-18.53,13.38-28.35,19.15c-8.09,4.75-16.86,8.41-25.5,12.15
			c-9.5,4.12-19.11,7.99-28.82,11.56c-4.59,1.69-9.54,2.39-14.3,3.66c-1.8,0.48-3.5,1.33-5.21,3.22c1.46,0.53,2.88,1.31,4.39,1.54
			c15.53,2.38,31.01,5.37,46.63,6.74c10.72,0.94,20.43,4.67,30.48,7.57c1.13,0.33,2.53,1.44,2.87,2.48
			c1.49,4.58,4.91,5.43,9.04,5.33c2.66-0.06,5.36-0.22,7.99,0.09c1.18,0.14,2.24,1.29,3.35,1.99c-7.03,0-14.07,0-21.35,0
			C469.43,789.43,469.22,791.72,469.01,794z M490.13,576.22c1.87-1.34,3.18-2.35,4.57-3.24c9.17-5.9,12.95-13.7,11.27-24.99
			c-6.63-44.54-19.12-87.15-41.19-126.55c-7.76-13.85-16.65-27.16-25.97-40.02c-9.36-12.93-19.85-25.04-29.97-37.41
			c-2.16-2.65-2.91-4.94-0.75-7.92c2.43-3.34,2.45-6.97,1.38-10.96c-0.41-1.51,0.52-4.01,1.7-5.19c3.51-3.51,7.76-6.3,11.17-9.9
			c12.57-13.25,19.19-29.51,22.49-47.15c1.67-8.92,4.03-18.23,3.06-27.03c-3.19-29.13-12.99-56.31-27.42-81.84
			c-1.12-1.98-1.91-4.75-1.51-6.91c4.18-22.41,5.83-44.9,3.05-67.61c-2.53-20.65-9.98-39.6-19.68-57.82
			c-2.95-5.55-7.13-7.58-13.15-6.05c-6.11,1.56-12.44,2.58-18.3,4.82c-18.13,6.94-34.18,17.16-47.24,31.76
			c-1.98,2.21-3.75,4.27-7.58,2.51c-33.53-15.4-67.38-15.02-101.4-1.53c-8.69,3.44-8.63,3.33-15.07-3.24
			c-16.94-17.29-37.86-27.51-60.94-33.55c-9.42-2.47-12.19-1.06-16.48,7.53c-18.97,37.97-24.67,77.78-15.8,119.43
			c0.95,4.46,1.14,8.36-1.54,12.36C93.33,172.98,86.3,192.18,81.5,212.2c-2.28,9.52-5.5,19.47-4.73,28.94
			c2.63,32.41,11.63,62.35,40.08,82.48c2.34,1.66,3,3.45,1.88,6.33c-1.48,3.81-1.05,7.74,2.15,10.6c3.6,3.23,3.16,6.08,0.06,9.22
			c-1.16,1.18-2.03,2.64-3.14,3.89c-28.06,31.64-48.82,67.68-64.34,106.87c-11.74,29.64-17.6,60.67-21.58,92.14
			c-0.76,6.03,0.49,11.58,4.96,15.57c7.28,6.52,15.03,12.52,22.67,18.63c1.85,1.48,4.04,2.54,6.28,3.93
			c-2.68,2.32-4.75,4.11-7.75,6.71c5.23,1.81,9.48,3.31,13.76,4.75c2.85,0.96,3.77,2.5,2.86,5.66
			c-7.28,25.28-14.39,50.6-21.57,75.91c-6.06,21.38-3.81,27.41,15.82,38.02c28.85,15.6,59.72,25.29,92.13,30.19
			c1.36,0.2,3.44,1.15,3.7,2.14c1.31,5.1,2.13,10.32,3.2,15.89c-1.98,0.32-3.57,0.68-5.19,0.81c-13.62,1.08-27.31,1.57-40.85,3.31
			c-16.65,2.14-33.18,5.2-49.72,8.13c-2.33,0.41-4.4,2.32-7.11,3.83c4.8,5.68,10.74,6.86,16.29,7.73
			c21.05,3.28,42.09,7.16,63.29,8.75c89.42,6.72,178.81,6.23,268-3.88c11.54-1.31,22.92-4.16,34.28-6.71
			c3.34-0.75,6.36-2.93,9.52-4.45c-0.01-0.58-0.02-1.16-0.03-1.74c-1.9-1.13-3.67-2.64-5.72-3.31c-4.1-1.34-8.3-2.67-12.56-3.23
			c-14.99-1.96-30.01-3.69-45.03-5.33c-12.43-1.36-24.88-2.46-37.32-3.7c-0.62-0.06-1.22-0.36-1.98-0.6
			c0.87-2.86,1.83-5.52,2.48-8.26c0.64-2.72,0.98-5.51,1.47-8.36c2.4-0.52,4.66-1,6.92-1.51c2.27-0.51,4.53-1.12,6.81-1.57
			c38.55-7.61,74.36-21.46,106.2-45.11c22.18-16.48,38.93-36.29,43.87-64.3C526.6,612.01,515.32,588.78,490.13,576.22z
			 M175.27,814.2c0.21,0.63,0.43,1.25,0.64,1.88c1.28-0.5,2.56-0.99,3.85-1.49c-0.17-0.5-0.34-1-0.52-1.5
			C177.92,813.46,176.59,813.83,175.27,814.2z"/>
		<path class="st1" d="M469.01,794c0.21-2.28,0.42-4.56,0.64-6.91c7.29,0,14.32,0,21.35,0c1.6,0.13,3.2,0.26,4.8,0.38
			c5.42,0.72,10.84,1.45,15.54,2.08c-1.69,0.63-4.04,1.5-6.38,2.37c-1.99,0.09-3.98,0.19-5.96,0.28c-1.4,0.11-2.79,0.22-4.19,0.33
			c-2.27,0.19-4.54,0.38-6.81,0.57c-2.07,0.13-4.14,0.25-6.21,0.38c-2.26,0.2-4.53,0.4-6.79,0.6C473,794.04,471,794.02,469.01,794
			L469.01,794z"/>
		<path class="st1" d="M12.22,790.43c-0.12-0.43-0.23-0.86-0.35-1.29c13.03-1.08,26.05-2.16,39-3.23c0.37,2.85,0.71,5.46,1.05,8.07
			c-9.62-0.73-19.24-1.47-28.86-2.2c-2.36-0.29-4.71-0.57-7.07-0.86C14.73,790.75,13.47,790.59,12.22,790.43z"/>
		<path class="st0" d="M504.96,791.91c2.35-0.87,4.69-1.74,6.38-2.37c-4.7-0.63-10.12-1.35-15.54-2.08
			c0.34-0.35,0.64-0.96,1.03-1.02c8.08-1.26,15.86,0.47,24.14,1.83C517.66,792.33,509.82,793.84,504.96,791.91z"/>
		<path class="st0" d="M469,793.99c2,0.03,4,0.05,6,0.08C472.96,797.01,470.96,797.1,469,793.99z"/>
		<path class="st0" d="M481.79,793.47c2.07-0.13,4.14-0.25,6.21-0.38C486.11,796.3,484,795.62,481.79,793.47z"/>
		<path class="st0" d="M15.99,790.91c2.36,0.29,4.71,0.57,7.07,0.86C20.5,793.2,17.93,794.62,15.99,790.91z"/>
		<path class="st0" d="M494.8,792.53c1.4-0.11,2.79-0.22,4.19-0.33C497.81,794.98,496.36,794.38,494.8,792.53z"/>
		<path class="st1" d="M490.13,576.22c25.2,12.56,36.47,35.79,31.43,64.33c-4.94,28.01-21.69,47.82-43.87,64.3
			c-31.83,23.65-67.65,37.49-106.2,45.11c-2.28,0.45-4.54,1.06-6.81,1.57c-2.26,0.51-4.52,0.99-6.92,1.51
			c-0.49,2.85-0.82,5.64-1.47,8.36c-0.65,2.73-1.6,5.39-2.48,8.26c0.76,0.24,1.36,0.54,1.98,0.6c12.44,1.24,24.9,2.34,37.32,3.7
			c15.03,1.64,30.05,3.37,45.03,5.33c4.26,0.56,8.46,1.88,12.56,3.23c2.05,0.67,3.82,2.18,5.72,3.31c0.01,0.58,0.02,1.16,0.03,1.74
			c-3.17,1.52-6.18,3.7-9.52,4.45c-11.36,2.55-22.74,5.4-34.28,6.71c-89.19,10.11-178.58,10.59-268,3.88
			c-21.2-1.59-42.25-5.47-63.29-8.75c-5.55-0.86-11.49-2.05-16.29-7.73c2.71-1.51,4.78-3.42,7.11-3.83
			c16.54-2.93,33.07-6,49.72-8.13c13.53-1.74,27.23-2.23,40.85-3.31c1.62-0.13,3.21-0.5,5.19-0.81c-1.07-5.57-1.89-10.8-3.2-15.89
			c-0.25-0.99-2.34-1.94-3.7-2.14c-32.41-4.89-63.27-14.59-92.13-30.19c-19.63-10.61-21.88-16.64-15.82-38.02
			c7.18-25.31,14.29-50.63,21.57-75.91c0.91-3.16-0.01-4.7-2.86-5.66c-4.28-1.44-8.53-2.94-13.76-4.75c3-2.59,5.07-4.39,7.75-6.71
			c-2.24-1.38-4.43-2.44-6.28-3.93c-7.64-6.11-15.39-12.11-22.67-18.63c-4.46-3.99-5.72-9.54-4.96-15.57
			c3.98-31.47,9.84-62.49,21.58-92.14c15.52-39.19,36.27-75.23,64.34-106.87c1.1-1.24,1.97-2.71,3.14-3.89
			c3.1-3.14,3.54-5.99-0.06-9.22c-3.2-2.87-3.64-6.79-2.15-10.6c1.12-2.88,0.47-4.67-1.88-6.33
			c-28.45-20.13-37.45-50.07-40.08-82.48c-0.77-9.47,2.44-19.42,4.73-28.94c4.8-20.01,11.84-39.21,23.37-56.47
			c2.67-3.99,2.49-7.9,1.54-12.36c-8.88-41.66-3.17-81.46,15.8-119.43c4.29-8.59,7.06-10,16.48-7.53
			c23.08,6.04,44,16.26,60.94,33.55c6.44,6.57,6.38,6.68,15.07,3.24c34.02-13.49,67.86-13.87,101.4,1.53
			c3.82,1.76,5.6-0.3,7.58-2.51c13.06-14.6,29.11-24.81,47.24-31.76c5.86-2.24,12.18-3.26,18.3-4.82c6.01-1.54,10.19,0.5,13.15,6.05
			c9.69,18.22,17.15,37.17,19.68,57.82c2.78,22.71,1.13,45.2-3.05,67.61c-0.4,2.15,0.39,4.93,1.51,6.91
			c14.43,25.52,24.23,52.71,27.42,81.84c0.97,8.8-1.39,18.11-3.06,27.03c-3.31,17.64-9.93,33.9-22.49,47.15
			c-3.41,3.6-7.66,6.38-11.17,9.9c-1.18,1.18-2.11,3.68-1.7,5.19c1.07,3.99,1.04,7.62-1.38,10.96c-2.16,2.98-1.42,5.27,0.75,7.92
			c10.12,12.37,20.61,24.49,29.97,37.41c9.32,12.87,18.21,26.17,25.97,40.02c22.08,39.39,34.57,82.01,41.19,126.55
			c1.68,11.29-2.1,19.09-11.27,24.99C493.31,573.87,492,574.89,490.13,576.22z M48.95,561.05c0.33,0.34,0.66,0.68,1,1.03l-0.02,0
			c0.67,0.67,1.34,1.33,2.01,2c0,0-0.01-0.02-0.01-0.02c0.36,0.27,0.71,0.53,1.07,0.8c0.25,0.2,0.54,0.27,0.85,0.22
			c1.01,0.7,2.01,1.39,3.02,2.08l0-0.03c1.02,0.65,2.04,1.3,3.06,1.96l0-0.01c1,0.69,1.99,1.37,2.99,2.06l-0.04-0.04
			c0.68,0.39,1.35,0.77,2.03,1.16c0.33,0.26,0.66,0.53,0.99,0.79c0.68,0.34,1.37,0.69,2.05,1.03l-0.02-0.01
			c1.31,0.84,2.62,1.67,3.93,2.51c3.76,2.32,7.52,4.64,11.79,7.27c2.72-9.42,5.18-17.97,7.59-26.33
			c-9.97-4.62-19.41-8.99-28.85-13.36c0.21-0.5,0.43-1,0.64-1.49c9.61,3.6,19.22,7.19,28.95,10.84
			c9.14-31.68,17.62-62.6,32.03-91.45c0.33-0.34,0.66-0.67,0.98-1.01l0.03-0.02c2.67-1.61,2.25,0.59,1.99,1.82
			c-1.31,6.06-2.69,12.1-4.23,18.1c-1.56,6.08-3.33,12.1-5.01,18.15c0,0,0.06,0.31,0.06,0.31c-2.44,7.75-5.03,15.46-7.29,23.26
			c-3.71,12.78-7.22,25.62-10.82,38.44l0.1,0.29c-4.68,17.18-9.36,34.36-14.04,51.54c0,0,0.06-0.04,0.06-0.04
			c-0.41,1.32-0.82,2.63-1.23,3.95l0.09-0.01c-0.7,2.33-1.39,4.66-2.09,6.99l0.11,0.04c-1,3.75-1.99,7.5-2.99,11.26l0.12,0.31
			c-4.48,10.22-3.86,20.44,0.01,30.66l-0.07,0.04c0.68,1.99,1.35,3.99,2.03,5.98l-0.04,0.04c0.69,1.65,1.39,3.3,2.08,4.95
			l-0.02-0.01c0.35,0.67,0.7,1.34,1.04,2l-0.02-0.02c0.35,0.64,0.71,1.29,1.06,1.93l0.04,0.06c0.28,0.38,0.57,0.75,0.85,1.13
			l-0.08-0.04c0.39,0.63,0.78,1.26,1.17,1.89l0.02,0.02c0.31,0.36,0.63,0.71,0.94,1.07l-0.06,0.04c0.58,0.72,1.15,1.45,1.73,2.17
			l0.1,0c0.75,0.9,1.5,1.81,2.25,2.71l0.04,0.02c0.33,0.33,0.65,0.66,0.98,1l0,0c0.33,0.34,0.66,0.67,0.99,1.01l-0.01,0
			c0.33,0.35,0.65,0.7,0.98,1.05l-0.02-0.02c0.34,0.35,0.67,0.69,1.01,1.04l-0.03-0.02c0.35,0.34,0.7,0.68,1.05,1.02
			c0,0-0.04-0.05-0.04-0.05c0.36,0.33,0.72,0.66,1.07,0.99l-0.02-0.02c0.35,0.33,0.69,0.66,1.04,0.98l0.01,0.01
			c0.64,0.5,1.29,1,1.93,1.5c8.56,6.05,17.74,10.76,27.86,13.72c34.43,10.06,69.76,14.01,105.44,15.55c2.25,0.1,4.51,0.01,7.33,0.01
			c0-4.62-0.01-8.92,0-13.21c0.1-65.1,0.18-130.19,0.3-195.29c0.06-31.13,0.17-62.25,0.26-93.38c1.14-11.11-0.74-20.75-10.54-28.11
			c-8.07-6.06-15.56-12.84-25.78-17.21c-0.28,4.17-0.52,7.75-0.76,11.34c-4.6,12.08-8.86,24.31-13.89,36.21
			c-4.93,11.66-10.96,23.11-11.22,35.94c-0.39,19.41,0.41,38.84,0.53,58.26c0.01,2.18-1.49,4.36-1.58,6.56
			c-0.15,3.88-1.14,10.18,0.67,11.23c6.89,3.99,9.09,9.65,9.47,16.81c-3.56,8.1-6.43,9.87-15.42,9.52c-1.43,1.4-3.04,2.66-4.27,4.23
			c-12.29,15.74-27.89,26.5-47.34,31.4c-2.18,0.55-4.53,0.44-6.8,0.63c-0.21-0.61-0.41-1.22-0.62-1.83
			c23.01-4.81,40.62-17.8,55.68-34.79c-9.39-10.83-9.03-15.35,1.52-25.64c0.8-0.78,1.26-2.42,1.11-3.56
			c-0.56-3.99-2.05-7.92-2.12-11.9c-0.36-18.65-0.35-37.31-0.52-55.97c-0.11-12.25,2.95-23.7,8.27-34.66
			c4.51-9.29,9.12-18.54,13.05-28.08c2.51-6.1,3.85-12.69,5.73-19.05c1.02-3.45-0.58-5.13-3.73-6.31
			c-6.08-2.27-12.15-4.63-18.03-7.36c-8.74-4.06-17.3-8.49-25.94-12.76c-0.76-0.4-1.52-0.79-2.28-1.19l-0.22,0.14l0.24-0.1
			c-0.39-0.26-0.78-0.51-1.17-0.77c0,0-0.04-0.02-0.04-0.02c-1.15-0.64-2.3-1.28-3.44-1.92c-0.53-0.36-1.07-0.72-1.6-1.09l0.12,0.05
			c-0.7-0.34-1.4-0.69-2.1-1.03l0.11,0.02c-1.4-1.06-2.79-2.13-4.8-3.66c-10.05,12.96-19.92,25.53-29.58,38.26
			c-2.95,3.89-5.28,8.25-7.89,12.39c0,0,0.13-0.02,0.13-0.02c-0.35,0.53-0.7,1.06-1.05,1.59c-12.58,17.72-21.1,37.51-29.1,57.55
			l0.01,0.34c-1.37,3.49-2.75,6.98-4.12,10.47l0.07-0.04c-0.38,1-0.76,2-1.14,3c0,0,0.07-0.03,0.07-0.03
			c-0.33,0.77-0.66,1.54-0.99,2.31l0.08,0.28c-0.67,1.84-1.35,3.69-2.02,5.53l0.06-0.05c-1.35,4.4-2.71,8.81-4.06,13.21
			c0,0,0.07,0.33,0.07,0.33c-2.73,11.49-5.46,22.98-8.19,34.48l0.11-0.07c-1.02,4.63-2.37,9.22-2.96,13.9
			c-0.47,3.72-0.01,7.57,0.04,11.36l-0.05,0.03c0.37,0.64,0.74,1.29,1.12,1.93l0.03,0.02c0.66,0.66,1.32,1.32,1.98,1.98l0.01,0
			C48.29,560.38,48.62,560.71,48.95,561.05L48.95,561.05z M319.9,338.93l0.03-0.03c-0.34,0.35-0.69,0.69-1.03,1.04l0.04-0.04
			c-0.37,0.34-0.74,0.68-1.11,1.02c-0.31,0.3-0.61,0.59-0.92,0.89c-0.33,0.38-0.66,0.75-0.99,1.13l-0.02-0.01c-0.99,1-1.98,2-2.98,3
			l0,0c-14.71,14.7-25.97,31.77-34.95,50.51c2.1-0.85,3.62-2.19,5.1-3.57c12.38-11.55,24.42-23.5,37.27-34.5
			c7.24-6.2,15.83-10.83,23.81-16.16l0.05,0.03c10.98-5.68,21.96-11.37,32.93-17.05c0,0,0.04,0.04,0.04,0.04
			c9.65-6,19.3-12,28.95-18c0,0,0.1-0.03,0.1-0.03c4.02-3.98,8.04-7.95,12.07-11.93c13-21.8,19.46-45.02,15.3-70.53
			c-3.72-22.77-12.42-43.75-22.99-64.09c-2.11-4.06-3.48-8.5-5.19-12.76c0.36-2.12,0.72-4.24,1.09-6.36
			c3.55-20.54,5.65-41.11,2.44-61.95c-2.42-15.75-7.25-30.68-13.98-45.07c-1.84-3.93-4.43-6.04-9.09-4.49
			c-4.09,1.36-8.38,2.13-12.43,3.6c-19.55,7.12-35.36,18.86-45.51,37.43c-2.25-0.47-4.58-0.69-6.72-1.47
			c-4.21-1.54-8.25-3.53-12.46-5.08c-18.55-6.84-37.53-12.6-57.42-8.35c-13.89,2.97-27.3,8.13-40.94,12.27
			c-3.11,0.94-6.27,1.72-9.41,2.57c-13.41-20.1-31.92-33.1-55.27-38.98c-3.87-0.98-8.35-5.64-12.18-0.78
			c-2.71,3.44-4.41,7.8-6,11.97c-8.78,23.17-12.84,47.16-11.26,71.92c0.62,9.74,2.27,19.4,3.46,29.1c0.48-0.01,0.97-0.01,1.45-0.02
			c1.76-10.92,7.83-19.63,14.68-27.65c9.04-10.58,18.34-21.02,28.3-30.73c7.83-7.63,17.96-11.2,29.01-11.67
			c-3.49,2.83-6.97,5.67-10.46,8.5c0,0,0,0.07,0,0.07c-0.99,0.67-1.98,1.35-2.97,2.02c0,0,0.04-0.01,0.04-0.01
			c-0.64,0.39-1.28,0.79-1.92,1.18c0,0,0.02-0.01,0.02-0.01c-0.39,0.31-0.78,0.61-1.16,0.92c0,0-0.03-0.08-0.03-0.08
			c-1.31,1.01-2.62,2.02-3.93,3.03c0,0-0.04-0.01-0.04-0.01c-0.95,0.72-1.91,1.43-2.86,2.15l0.03-0.02
			c-0.37,0.33-0.74,0.66-1.12,0.99c0,0,0.06-0.07,0.06-0.07c-0.37,0.34-0.73,0.69-1.1,1.03l-0.02-0.08
			c-1.98,1.71-3.95,3.43-5.93,5.14c-0.31,0.28-0.62,0.56-0.93,0.84c-0.36,0.38-0.72,0.76-1.09,1.14l0.07-0.08
			c-0.37,0.35-0.73,0.69-1.1,1.04c0,0,0.06-0.07,0.06-0.07c-0.36,0.36-0.71,0.71-1.07,1.07l0.07-0.07
			c-0.37,0.34-0.74,0.68-1.11,1.01c0,0,0.05-0.07,0.05-0.07c-0.34,0.36-0.69,0.73-1.03,1.09c0,0,0.06-0.06,0.06-0.06
			c-0.36,0.34-0.72,0.69-1.08,1.03l0.08-0.04c-0.42,0.37-0.85,0.75-1.27,1.12c-0.23,0.22-0.45,0.44-0.68,0.66
			c-0.35,0.45-0.7,0.91-1.05,1.36l-0.01-0.08c-4.01,4.65-8.02,9.31-12.02,13.96c0,0-0.07,0-0.07,0c-1.42,1.61-3.08,3.07-4.22,4.86
			c-6.45,10.19-12.93,20.37-19.12,30.72c-10.06,16.84-16.85,34.99-22.07,53.89c-7.12,25.74-5.1,50.36,6.83,74.24
			c4.26,8.52,9.97,15.9,17.86,21.14c10.81,7.16,21.6,14.53,33.13,20.38c33,16.75,64.82,34.96,89.07,63.84
			c0.83,0.99,2.05,1.65,3.09,2.47c-0.69-4.38-2.02-8.15-4.03-11.51c-3-4.98-6.54-9.64-9.76-14.5
			c-17.06-25.69-39.67-44.7-68.42-55.96c-15.67-6.14-29.8-14.63-42.85-25.11c-7.97-6.4-12.82-14.72-15.33-24.55
			c-4.68-18.35-2.67-36.41,2.78-54.17c5.3-17.26,13.42-33.25,23.51-48.23l-0.04-0.11c0.32-0.38,0.63-0.75,0.95-1.13
			c0,0,0,0.02,0,0.02c4.99-5.66,9.98-11.32,14.97-16.98l0.02-0.02c6.34-5.3,12.69-10.61,19.03-15.91c0,0,0.09,0.01,0.09,0.01
			c8.95-5.44,17.53-11.62,26.91-16.18c29.89-14.53,61.48-19.43,94.36-14.12c67.12,10.83,111.74,48.43,132.94,113.16
			c5.37,16.4,6.13,33.22,2.98,50.43c-1.64,8.96-6.1,15.99-10.67,23.27c-0.98,1.02-1.95,2.04-2.93,3.06
			c-14.41,13.22-31.91,21.2-49.39,29.23c-5.53,2.54-11,5.22-16.5,7.84l-0.06-0.02c-4.63,2.69-9.26,5.39-13.89,8.08l-0.02,0.02
			c-0.36,0.32-0.71,0.64-1.07,0.97l0-0.05c-2.32,2.01-4.65,4.01-6.97,6.02l0.03,0C320.58,338.23,320.24,338.58,319.9,338.93z
			 M425.93,697.89c-0.41,0.33-0.81,0.67-1.22,1c-0.28,0.27-0.55,0.54-0.83,0.81c-0.35,0.39-0.71,0.78-1.06,1.17
			c0,0-0.04-0.07-0.04-0.07c-0.71,0.58-1.42,1.17-2.14,1.75l0.03,0.05c-0.6,0.42-1.21,0.85-1.81,1.27c0,0,0.04-0.02,0.04-0.02
			c-0.38,0.33-0.76,0.65-1.15,0.98l0.08-0.11c-0.62,0.41-1.24,0.81-1.86,1.22l-0.04,0.03c-1.03,0.63-2.06,1.26-3.08,1.89l0.05-0.04
			c-0.41,0.3-0.81,0.59-1.22,0.89l0.05-0.12c-0.66,0.35-1.32,0.71-1.98,1.06l-0.04-0.04c-4.99,2.01-9.97,4.02-14.96,6.03l-0.04-0.11
			c-0.33,0-0.68-0.07-0.99,0.02c-34.44,9.95-69.81,13.98-105.42,16.28c-3.67,0.24-5.07,1.74-5.1,5.11c-0.02,2.12,0,4.25,0,6.62
			c1.69,0.19,2.98,0.45,4.26,0.46c41.06,0.12,81.55-4.37,120.61-17.44c13.43-4.49,25.99-11.61,38.95-17.52c0,0,0.02-0.01,0.02-0.01
			c1.08-0.87,2.17-1.73,3.25-2.6c0,0,0.03-0.08,0.03-0.08c0.53-0.46,1.07-0.91,1.6-1.37l0.07-0.09c0.74-2.55,2.48-5.28,2.04-7.61
			c-2.1-11.21-4.75-22.32-7.32-33.43c-0.25-1.08-1.33-1.96-2.43-3.5c-1.6,6.08-2.99,11.31-4.37,16.54l0,0.03
			c-0.75,1.61-1.51,3.21-2.26,4.82l0.12,0.25l-0.09-0.26c-0.38,0.65-0.75,1.29-1.13,1.94l0.02,0.03c-0.34,0.65-0.69,1.29-1.03,1.94
			l0.02,0.29c0,0-0.06-0.29-0.06-0.29c-1.9,2.71-3.8,5.43-5.7,8.14l0,0.02c-0.64,0.69-1.28,1.37-1.93,2.06c0,0,0.03,0,0.03,0
			c-0.34,0.34-0.69,0.69-1.03,1.03l0.03-0.03c-0.34,0.34-0.69,0.69-1.03,1.03L425.93,697.89z M250.99,546.03
			c-0.51-0.51-1.02-1.02-1.53-1.53c-0.69-1.29-1.37-2.58-2.06-3.88c-0.34,0.16-0.68,0.32-1.02,0.47c0,30.5,0,61,0,92.05
			c5.52-8.15,12.89-9.64,21.5-6.99c0.66,0.34,1.31,0.68,1.97,1.03c5.16,3.18,6.65,8.31,7.17,13.86c0.66,6.98-2.09,12.7-7.64,16.61
			c-5.7,4.01-11.76,2.9-17.27-0.84c-2.16-1.46-3.91-3.53-5.92-5.39c0,29.44-0.01,58.72,0.04,88c0,1.22,0.58,2.44,0.89,3.65
			c2.86,2.34,11.71,2.36,15.02,0.05c3.22,0.02,6.45,0.03,9.67,0.05c1.79,2.3,3.59,2.33,5.4,0.02c0.61-0.41,1.23-0.83,1.84-1.24
			c0.1-0.09,0.3-0.2,0.28-0.27c-0.05-0.24-0.17-0.47-0.27-0.71c0.02-41.62,0.04-83.23,0.07-124.85c-0.02-5.73-0.04-11.45-0.06-17.18
			c-0.01-0.97-0.01-1.94-0.02-2.91c0.01-11.03,0.01-22.06,0.02-33.09c0.02-5.61,0.04-11.22,0.06-16.83c0-6.74,0-13.47,0-20.21
			c0.2-22.11,0.45-44.21,0.59-66.32c0.05-7.77-0.13-15.54-0.21-23.31c0-7.67,0-15.35,0-24.65c-2.39,3.73-4.06,6.36-5.75,8.97
			c-5.35,8.29-5.35,8.29,0.99,15.43c3.67,6.95,2.52,13.94,0.15,20.93l0.02-0.03c-0.4,0.65-0.79,1.3-1.19,1.94l0.03-0.11
			c-0.64,0.7-1.28,1.4-1.92,2.1c0,0,0-0.01,0-0.01c-1.69,0.97-3.39,1.93-5.08,2.9l0.05-0.09c-0.61,0.12-1.22,0.23-1.82,0.35
			c-6.04,2.54-10.55-0.64-15.01-4c-0.95-1.03-1.9-2.06-2.85-3.08c-0.1-0.27-0.2-0.54-0.31-0.81c-0.14,0.12-0.29,0.23-0.43,0.35
			c0.2,0.2,0.39,0.39,0.59,0.59c-0.11,5.99-0.32,11.98-0.3,17.97c0.06,15.65,0.22,31.3,0.34,46.96c-0.1,0.29-0.21,0.59-0.31,0.88
			c0.1-0.3,0.19-0.6,0.29-0.9c1.07-1.22,2.13-2.43,3.2-3.65c0,0-0.04-0.06-0.04-0.06c0.62-0.39,1.24-0.79,1.87-1.18l0.03-0.01
			c5.48-2.66,11.05-2.96,16.74-0.73l-0.06-0.04c4,3.54,6.88,7.13,7.84,13.11c0.81,5.11-1.61,8.86-1.89,13.29
			c-0.27,0.4-0.54,0.79-0.81,1.19c-0.63,0.7-1.25,1.41-1.88,2.11c-6.45,4.63-13.15,3.76-19.95,0.94
			C251.7,546.64,251.34,546.33,250.99,546.03z M191,365.99c0.28,0.2,0.55,0.39,0.14,0.1c0.49,0.13,0.15,0.04-0.18-0.05
			c-3.33-1.97-6.65-3.95-9.98-5.92c-0.63-0.39-1.26-0.77-1.89-1.16c-0.38-0.28-0.76-0.56-1.14-0.83
			c-10.01-6.23-19.98-12.52-30.05-18.63c-1.94-1.18-4.39-3.27-6.37,0.16c-2.07,3.59,0.38,5.24,3.1,6.44
			c11.22,4.96,22.48,9.81,33.73,14.71C182.57,362.53,186.78,364.26,191,365.99z M464.19,656.7c-2.49,1.65-6.63,1.78-5.13,6.79
			c3.17,10.55,6.01,21.2,9.08,32.12c11.56-10.08,24.32-19.31,32.44-34.79c-3.21,1.08-5.15,1.96-7.19,2.36
			c-2.42,0.48-4.92,0.57-7.38,0.82c2.7-2.2,5.48-4.32,8.09-6.62c17.5-15.49,20.19-36.58,7.05-55.95
			c-4.98-7.34-11.89-11.65-21.57-12.7c0.82,1.33,1.16,2.06,1.65,2.67c10.16,12.5,10.14,25.97,4.23,40.23
			C481.04,642.33,473.65,650.35,464.19,656.7z M313.61,331.2c8.18-6.38,16.35-12.76,24.53-19.14c2.72-1.23,5.39-2.57,8.17-3.68
			c16.71-6.64,32.31-15.24,44.12-29.01c7.08-8.26,12.33-18.07,19.09-26.64c3.66-4.64,2.49-7.99-0.61-11.63
			c-2.15-2.53-4.6-4.79-6.87-7.22c-3.04-3.26-6.11-6.49-8.98-9.89c-0.89-1.05-1.16-2.62-2.17-5.04c4.84,2.07,8.4,3.59,11.97,5.11
			c2.6,1.48,5.19,2.97,8.47,4.84c-11.07-64.98-71.96-128.96-159.8-122.65c-40.52,2.91-73.38,21.71-101.06,50.03
			c-18.81,19.25-28.5,43.63-35.13,70.38c6.56-2.92,12.15-5.41,17.73-7.9c3.25,3.34,0.95,5.83-1.22,8.44
			c-5.09,6.12-10.19,12.23-15.07,18.51c-0.78,1-1.08,3.2-0.52,4.28c8.1,15.48,17.8,29.85,32.88,39.32
			c12.91,8.1,26.44,15.22,39.69,22.77c7.73,6.62,15.46,13.25,23.19,19.87c16.35,16.18,29.18,34.78,38.58,55.77
			c3.05,6.8,6.24,13.53,9.36,20.29c0.76,1.59,1.51,3.18,2.06,4.33c8.31-16.5,16.58-32.93,24.85-49.36
			C295.79,352.39,304.7,341.8,313.61,331.2z M285.32,664.99c-0.18,20.35-0.36,40.7-0.48,61.05c0,0.63,0.74,1.26,1.14,1.89
			c21.06-1.79,42.17-3.14,63.16-5.49c19.74-2.22,39.14-6.43,57.38-14.68c22.59-10.22,40.01-37.63,36.1-62.46
			c-3.17-20.13-6.01-40.32-9.59-60.38c-3.69-20.65-7.9-41.21-12.22-61.74c-4.66-22.14-9.71-44.19-14.59-66.28
			c18.77,29.72,22.84,64.3,32.43,97.51c11.76-3.94,23.19-7.76,34.61-11.58c0.17,0.43,0.34,0.86,0.51,1.3
			c-1.83,0.96-3.59,2.12-5.51,2.86c-8.61,3.31-17.2,6.72-25.95,9.62c-2.96,0.98-3.72,2.3-3.1,4.99c1.7,7.38,3.41,14.76,5.45,23.62
			c14.32-7.75,28.18-14.99,41.75-22.74c5.31-3.03,7.89-7.61,6.68-14.6c-8.03-46.32-21.4-90.72-45.4-131.53
			c-14.35-24.41-32.4-45.98-50.63-67.44c-0.5-0.59-1.19-1.02-1.38-1.17c-10.37,6.23-20.06,12.79-30.4,18.05
			c-10.51,5.34-21.63,9.52-32.59,13.94c-3.33,1.34-4.45,3.23-3.37,6.46c4.91,14.66,9.61,29.39,14.89,43.92
			c3.59,9.89,7.69,19.59,7.8,30.3c0.18,17.81,0.28,35.63,0.13,53.44c-0.05,5.59-1.02,11.17-1.53,16.76
			c-0.44,4.8-0.45,8.82,4.26,12.59c8.88,7.09,8.13,15.89-0.84,22.88c-10.57,2.33-15.04-0.58-17.38-11.28
			c-0.35-1.61-0.84-3.2-1.27-4.79c2-2.58,3.63-5.6,6.08-7.65c3.55-2.98,5.05-9.52,2.78-13.76c-0.99-1.84-1.65-4.15-1.58-6.21
			c0.46-14.28,1.44-28.55,1.7-42.84c0.32-17.85-3.54-34.89-10.38-51.43c-4.88-11.8-8.72-24.03-13.03-36.06
			c-0.76-4.17-1.53-8.33-2.37-12.95c-12.6,6.03-21.69,15.48-30.64,25.07c-2.95,3.16-4.17,6.92-3.91,11.37
			c0.5,8.42,0.88,16.87,0.89,25.31c0.04,44.43-0.08,88.87-0.06,133.3c0,11.97,0.29,23.93,0.45,35.9
			C285.32,628.33,285.32,646.66,285.32,664.99z M73.48,658.19c-2.98,11.52-6.14,23-8.86,34.58c-1.87,7.95-0.48,11.31,6.96,15.05
			c11.42,5.75,22.88,11.63,34.84,16.07c40.49,15.02,82.76,19.43,125.63,19.81c11.14,0.1,11.42-0.17,9.76-11.46
			c-0.02-0.14-0.16-0.27-0.53-0.86c-7.78-0.5-15.88-0.94-23.98-1.56c-28.59-2.18-56.88-6.04-84.59-13.84
			C102.48,707.48,81.14,690.41,73.48,658.19z M219.05,754.62c-1.29,4.46-2.66,9.2-4,13.82c30.82,0,61.41,0,92.35,0
			c-1.91-5.12-3.57-9.59-5.15-13.82C274.5,754.62,246.94,754.62,219.05,754.62z M457.26,656.1c19.79-8.26,32.26-25.16,22.27-41.66
			c-5.77,8.91-12.95,16.06-23.09,19.85c-1.01,0.38-2.11,2.5-1.97,3.67C455.17,644.02,456.28,650.04,457.26,656.1z M338.28,362.45
			c0.25,0.55,0.5,1.09,0.75,1.64c17.41-6.9,35.55-12.31,50.63-24.95c-1.14-1.44-2.02-2.56-3.13-3.98
			C370.26,344.36,354.27,353.41,338.28,362.45z M451.12,623.91c8.11-2.98,14.58-7.31,18.91-14.34c0.87-1.42,0.65-3.51,0.93-5.29
			c-2.03-0.28-4.37-1.35-6.02-0.69c-5.07,2.04-9.91,4.66-14.72,7.28c-0.88,0.48-1.81,2.1-1.65,3.02
			C449.12,617.1,450.14,620.24,451.12,623.91z M258.2,429.27c-3.84-5.19-7.64-10.33-11.46-15.48c0,7.72,0,15.19,0,22.78
			C250.96,433.88,254.55,431.59,258.2,429.27z M262.07,538.18c4.73-0.77,5.78-3.05,5.75-5.98c-0.04-3.39-2.41-4.44-5.34-4.5
			c-3.25-0.06-4.69,2.17-4.08,4.83C258.87,534.58,260.79,536.31,262.07,538.18z M257.69,446.26c2.42,2.28,3.93,4.81,5.71,5.01
			c1.33,0.15,4.49-3.12,4.2-4.15c-0.58-2.08-2.72-3.99-4.69-5.23C262.43,441.6,260.14,444.16,257.69,446.26z M263.19,637.5
			c-0.65,0.06-1.31,0.11-1.96,0.17c-0.96,1.64-2.61,3.23-2.72,4.93c-0.17,2.65,0.85,5.8,4.28,5.23c1.62-0.27,4.1-2.93,3.98-4.33
			C266.6,641.41,264.48,639.49,263.19,637.5z M353.11,552.54c-2.36-1.52-3.99-3.24-4.75-2.91c-1.38,0.59-2.44,2.3-3.16,3.77
			c-0.14,0.29,1.97,2.43,2.81,2.3C349.46,555.46,350.73,554.11,353.11,552.54z M173.14,552.46c2.3,1.06,3.87,2.27,5.5,2.34
			c0.91,0.04,2.68-1.81,2.67-2.8c-0.01-1.41-1.28-2.82-2-4.22C177.22,549.37,175.82,550.43,173.14,552.46z"/>
		<path class="st2" d="M175.27,814.2c1.32-0.37,2.65-0.74,3.97-1.12c0.17,0.5,0.34,1,0.52,1.5c-1.28,0.5-2.56,0.99-3.85,1.49
			C175.7,815.45,175.48,814.82,175.27,814.2z"/>
		<path class="st3" d="M320.96,392.02c4.31,12.04,8.15,24.26,13.03,36.06c6.84,16.54,10.7,33.58,10.38,51.43
			c-0.26,14.28-1.24,28.55-1.7,42.84c-0.07,2.07,0.6,4.37,1.58,6.21c2.27,4.24,0.76,10.78-2.78,13.76
			c-2.44,2.05-4.08,5.07-6.08,7.65c-4.4,8.36-1.37,17.93,7.44,24.44c3.03,2.24,5.89,2.11,8.68,0.16c2.96-2.07,4.54-4.84,2.53-8.53
			c8.97-6.99,9.72-15.79,0.84-22.88c-4.71-3.77-4.7-7.79-4.26-12.59c0.51-5.59,1.48-11.17,1.53-16.76
			c0.15-17.81,0.05-35.63-0.13-53.44c-0.11-10.71-4.2-20.42-7.8-30.3c-5.28-14.52-9.99-29.26-14.89-43.92
			c-1.08-3.22,0.03-5.12,3.37-6.46c10.96-4.42,22.08-8.59,32.59-13.94c10.35-5.26,20.03-11.82,30.4-18.05
			c0.19,0.16,0.88,0.58,1.38,1.17c18.22,21.47,36.28,43.04,50.63,67.44c23.99,40.81,37.37,85.21,45.4,131.53
			c1.21,6.99-1.37,11.57-6.68,14.6c-13.57,7.75-27.43,14.98-41.75,22.74c-2.04-8.85-3.75-16.23-5.45-23.62
			c-0.62-2.7,0.13-4.01,3.1-4.99c8.75-2.9,17.33-6.31,25.95-9.62c1.92-0.74,3.68-1.9,5.51-2.86c-0.17-0.43-0.34-0.86-0.51-1.3
			c-11.43,3.82-22.85,7.65-34.61,11.58c-9.58-33.21-13.65-67.79-32.43-97.51c4.88,22.09,9.93,44.14,14.59,66.28
			c4.32,20.53,8.54,41.09,12.22,61.74c3.58,20.06,6.43,40.25,9.59,60.38c3.9,24.83-13.52,52.23-36.1,62.46
			c-18.24,8.26-37.64,12.47-57.38,14.68c-21,2.36-42.1,3.7-63.16,5.49c0-19.21,0.02-38.42-0.03-57.62c0-1.77-0.41-3.54-0.63-5.31
			c0-18.33,0-36.65-0.01-54.98c0.23-1.94,0.67-3.89,0.67-5.83c0.04-58.15,0.08-116.31-0.01-174.46c-0.01-4.32,1.13-7.66,4.29-10.65
			c6.05-5.73,11.66-11.92,17.83-17.51C312.04,398,316.65,395.17,320.96,392.02z M415.88,668.92c0.37-0.64,0.74-1.29,1.11-1.93
			c3.32-7.78,4.35-15.92,3.63-24.29c-1.61-18.75-3.19-37.51-5.09-56.24c-0.2-1.97-2.03-4.51-3.81-5.46
			c-9.71-5.17-18.1-11.78-24.92-20.44c-5.46-6.93-11.02-13.8-16.65-20.59c-1.47-1.77-3.38-3.18-5.08-4.76
			c3.61,7.03,8.1,13.17,12.53,19.36c8.63,12.06,18.55,22.68,32.03,29.5c1.18,0.6,2.26,2.4,2.46,3.77
			c0.84,5.76,1.59,11.56,1.91,17.37c0.85,15.63,2.16,31.27,2,46.89c-0.18,16.83-14.21,29.88-30.79,29.97
			c-17.5,0.1-34.99-0.02-52.49,0.02c-6.44,0.01-12.07-2.03-17.03-6.1c-7.59-6.22-10.32-14.83-11.78-24.02
			c-3.36-21.22-6.63-42.45-9.98-63.67c-0.2-1.26-0.76-2.47-1.15-3.71c-0.5,0.13-1,0.27-1.5,0.4c3.21,24.99,6.42,49.97,9.63,74.96
			c0.07,0.33,0.14,0.66,0.21,0.99c0.16,0.21,0.23,0.45,0.19,0.71c0.36,1.05,0.72,2.1,1.08,3.15c0.21,0.19,0.29,0.42,0.25,0.7
			c0.46,1.16,0.93,2.32,1.39,3.49c0.17,0.18,0.26,0.39,0.26,0.64c-0.03,0.82-0.32,1.74-0.05,2.44
			c5.84,15.01,16.32,25.24,34.24,25.81c12.07,0.38,24.15,0.01,36.23,0.11c12.05,0.1,22.38-4.27,31.21-12.15
			c5.05-4.51,9.71-9.51,9.96-16.97L415.88,668.92z M343.03,656.21c0.7,0.09,1.4,0.18,2.09,0.27c0.64,5.29,1.27,10.58,1.98,16.47
			c4.09,0,8.2,0.04,12.32-0.01c6.67-0.09,6.74-0.11,6.69-6.93c-0.03-4.66,0.69-8.83,5.79-11.37c1.04,2.77,1.35,5.87,3.07,7.51
			c1.42,1.36,4.49,1.01,7.06,1.45c0.89-21.84-10-36.73-23.88-50.16c-2.55-2.47-4.65-0.95-6.34,1.05
			c-4.5,5.35-8.45,11.22-13.35,16.16c-7.57,7.63-9.89,16.44-8.62,26.83c0.77,6.27,0.48,6.54,6.64,6c1.25-0.11,2.61-1.32,3.5-2.38
			C341.21,659.64,342.03,657.85,343.03,656.21z M362.16,572.89c6.25,15.02,38.92,34.46,49.48,28.86
			C391.21,597.76,375.85,586.82,362.16,572.89z M476.28,541.14c0.2,0.02,0.4,0.04,0.6,0.06c-0.07,0.58-0.14,1.16-0.21,1.75
			c-0.18-0.02-0.36-0.04-0.53-0.06C476.18,542.31,476.23,541.73,476.28,541.14z"/>
		<path class="st3" d="M79.87,635.41c0,0-0.12-0.31-0.12-0.31c1-3.75,1.99-7.5,2.99-11.26c0,0-0.11-0.04-0.11-0.04
			c0.7-2.33,1.39-4.66,2.09-6.99c0,0-0.09,0.01-0.09,0.01c0.41-1.32,0.82-2.63,1.23-3.95c0,0-0.06,0.04-0.06,0.04
			c0.75-1.39,1.77-2.7,2.2-4.19c1.95-6.62,3.88-13.26,5.53-19.96c2.24-9.1,4.22-18.26,6.31-27.4c0,0-0.1-0.29-0.1-0.29
			c0.72-1.08,1.74-2.06,2.1-3.25c4.04-13.51,8.09-27.03,11.9-40.61c1.65-5.87,2.76-11.89,4.11-17.84c0,0-0.06-0.31-0.06-0.31
			c0.75-1.41,1.76-2.75,2.21-4.25c3.44-11.56,6.81-23.14,10.07-34.75c0.5-1.8,0.34-3.78,0.48-5.67c-1.74,1.39-3.57,2.68-5.17,4.22
			c-0.46,0.44-0.24,1.57-0.34,2.39c0,0-0.03,0.02-0.03,0.02c-0.33,0.34-0.66,0.67-0.98,1.01c-14.41,28.84-22.89,59.77-32.03,91.45
			c-9.73-3.64-19.34-7.24-28.95-10.84c-0.21,0.5-0.43,1-0.64,1.49c9.44,4.37,18.88,8.75,28.85,13.36
			c-2.41,8.36-4.87,16.91-7.59,26.33c-4.27-2.63-8.03-4.95-11.79-7.27c-1.31-0.84-2.62-1.67-3.93-2.51c0,0,0.02,0.01,0.02,0.01
			c-0.69-0.34-1.37-0.69-2.05-1.03c-0.33-0.26-0.66-0.53-0.99-0.79c-0.68-0.39-1.35-0.77-2.03-1.16c0,0,0.04,0.04,0.04,0.04
			c-1-0.69-1.99-1.37-2.99-2.06c0,0,0,0.01,0,0.01c-1.02-0.65-2.04-1.3-3.06-1.96c0,0,0,0.03,0,0.03c-1.01-0.7-2.01-1.39-3.02-2.08
			c-0.32,0.05-0.6-0.02-0.85-0.22c-0.36-0.27-0.71-0.53-1.07-0.8c0,0,0.01,0.02,0.01,0.02c-0.67-0.67-1.34-1.33-2.01-2
			c0,0,0.02,0,0.02,0c-0.33-0.34-0.66-0.68-1-1.03c0,0,0,0,0,0c-0.33-0.34-0.66-0.67-0.99-1.01c0,0-0.01,0-0.01,0
			c-0.66-0.66-1.32-1.32-1.98-1.98c0,0-0.03-0.02-0.03-0.02c-0.37-0.64-0.74-1.29-1.12-1.93c0,0,0.05-0.03,0.05-0.03
			c0.29-2.27,0.61-4.53,0.87-6.8c0.7-6.15,1.37-12.3,2.05-18.46c0,0-0.11,0.07-0.11,0.07c2.73-11.49,5.46-22.98,8.19-34.48
			c0,0-0.07-0.33-0.07-0.33c1.35-4.41,2.7-8.81,4.06-13.21c0,0-0.06,0.05-0.06,0.05c0.67-1.84,1.35-3.69,2.02-5.53
			c0,0-0.08-0.28-0.08-0.28c0.33-0.77,0.66-1.54,0.99-2.31c0,0-0.07,0.03-0.07,0.03c0.38-1,0.76-2,1.14-3c0,0-0.07,0.04-0.07,0.04
			c1.37-3.49,2.75-6.98,4.12-10.47c0,0-0.01-0.34-0.01-0.34c3.61-5.38,7.42-10.57,12.5-14.72c1.38-1.13,2.52-2.66,3.46-4.2
			c6.56-10.66,13.06-21.35,19.52-32.06c1.68-2.79,3.14-5.72,4.7-8.59c1.24-1.53,2.49-3.06,3.73-4.59
			c5.9-7.3,11.79-14.61,17.68-21.91c2.23-2.06,4.45-4.13,6.69-6.17c3.63-3.31,7.28-6.61,10.92-9.91c0,0,0.04,0.02,0.04,0.02
			c0.39,0.26,0.78,0.51,1.17,0.77l-0.24,0.1c0,0,0.22-0.14,0.22-0.14c0.76,0.4,1.52,0.79,2.28,1.19
			c8.64,4.27,17.21,8.69,25.94,12.76c5.88,2.74,11.95,5.09,18.03,7.36c3.15,1.18,4.75,2.86,3.73,6.31
			c-1.87,6.37-3.21,12.95-5.73,19.05c-3.93,9.53-8.54,18.79-13.05,28.08c-5.32,10.96-8.38,22.41-8.27,34.66
			c0.17,18.66,0.16,37.32,0.52,55.97c0.08,3.98,1.57,7.91,2.12,11.9c0.16,1.13-0.31,2.78-1.11,3.56
			c-10.54,10.29-10.91,14.81-1.52,25.64c-15.06,16.99-32.68,29.98-55.68,34.79c0.21,0.61,0.41,1.22,0.62,1.83
			c2.27-0.2,4.62-0.08,6.8-0.63c19.45-4.9,35.05-15.66,47.34-31.4c1.22-1.56,2.84-2.82,4.26-4.22c-1.39,3.37,0.27,5.33,3.11,6.75
			c4.13,2.07,7.94,1.98,11.16-1.72c3.67-4.23,4.11-9.97,1.16-14.55c-0.38-7.15-2.58-12.82-9.47-16.81
			c-1.81-1.05-0.82-7.36-0.67-11.23c0.09-2.21,1.59-4.38,1.58-6.56c-0.12-19.42-0.92-38.85-0.53-58.26
			c0.26-12.84,6.3-24.28,11.22-35.94c5.03-11.9,9.29-24.13,13.89-36.21c2.56,1.72,5.44,3.12,7.64,5.22
			c9.92,9.48,19.65,19.16,29.45,28.76c-0.09,31.13-0.2,62.25-0.26,93.38c-0.12,65.1-0.2,130.19-0.3,195.29
			c-0.01,4.29,0,8.59,0,13.21c-2.82,0-5.08,0.08-7.33-0.01c-35.68-1.54-71-5.49-105.44-15.55c-10.12-2.96-19.3-7.67-27.86-13.72
			c-0.64-0.5-1.29-1-1.93-1.5c0,0-0.01-0.01-0.01-0.01c-0.35-0.33-0.69-0.66-1.04-0.98c0,0,0.02,0.02,0.02,0.02
			c-0.36-0.33-0.72-0.66-1.07-0.99c0,0,0.04,0.05,0.04,0.05c-0.35-0.34-0.7-0.68-1.05-1.02c0,0,0.03,0.02,0.03,0.02
			c-0.34-0.35-0.67-0.69-1.01-1.04c0,0,0.02,0.02,0.02,0.02c-0.33-0.35-0.65-0.7-0.98-1.05c0,0,0.01,0,0.01,0
			c-0.33-0.34-0.66-0.67-0.99-1.01c0,0,0,0,0,0c-0.33-0.33-0.65-0.66-0.98-1c0,0-0.04-0.02-0.04-0.02c-0.75-0.9-1.5-1.81-2.25-2.71
			c0,0-0.1,0-0.1,0c-0.57-0.72-1.15-1.45-1.73-2.17c0,0,0.06-0.04,0.06-0.04c-0.31-0.36-0.63-0.71-0.94-1.07
			c0,0-0.02-0.02-0.02-0.02c-0.39-0.63-0.78-1.26-1.17-1.89c0,0,0.08,0.04,0.08,0.04c-0.28-0.38-0.57-0.75-0.85-1.13
			c0,0-0.04-0.06-0.04-0.06c-0.35-0.64-0.71-1.29-1.06-1.93c0,0,0.02,0.02,0.02,0.02c-0.35-0.67-0.7-1.34-1.04-2
			c0,0,0.02,0.01,0.02,0.01c-0.69-1.65-1.39-3.3-2.08-4.95c0,0,0.04-0.04,0.04-0.04c-0.68-1.99-1.35-3.99-2.03-5.98
			c0,0,0.07-0.04,0.07-0.04C78.72,655.86,77.68,645.64,79.87,635.41z M109.17,671.85l0.01,0c0.07,2.9,0.25,5.72,4.35,5.34
			c0,0,0.27,0.28,0.27,0.28c0.12,1.35-0.29,3.16,0.43,3.96c6.33,7.07,13.77,12.6,23.29,14.5c13.89,2.77,27.89,2.95,42.05,2.3
			c10.09-0.46,18.95-3.07,26.64-9.43c6.07-5.01,11.07-10.87,12.58-18.97c0,0,0.01,0,0.01,0c0.26-0.43,0.52-0.86,0.78-1.29
			c1.04-3.15,2.48-6.23,3.07-9.47c4.28-23.43,8.4-46.89,12.53-70.35c0.2-1.16,0.03-2.39,0.03-3.59c-0.46-0.09-0.92-0.18-1.38-0.27
			c-0.45,1.4-1.01,2.77-1.32,4.19c-1.9,8.96-3.76,17.93-5.59,26.9c-2.73,13.38-5.03,26.87-8.24,40.13
			c-4.03,16.7-16.33,25.93-33.26,25.93c-15.16,0-30.33-0.14-45.49,0.03c-11.61,0.13-20.49-4.62-27.35-13.83
			c-5.72-7.68-7.27-16.35-6.49-25.55c1.51-17.76,3.13-35.51,4.98-53.23c0.2-1.94,1.77-4.62,3.43-5.37
			c14.01-6.35,24.28-16.73,32.59-29.31c2.88-4.36,5.46-8.91,8.17-13.37c-0.38-0.26-0.77-0.51-1.15-0.77
			c-0.92,0.86-1.99,1.61-2.74,2.59c-4.54,5.92-8.9,11.98-13.53,17.84c-7.24,9.16-15.86,16.57-27.07,20.59
			c-1.11,0.4-2.47,1.88-2.58,2.97c-2.24,21.68-4.61,43.36-6.26,65.09c-0.56,7.43,1.95,14.65,6.29,20.97
			C108.54,671.07,108.86,671.46,109.17,671.85z"/>
		<path class="st4" d="M188.83,312.08c-13.26-7.55-26.79-14.67-39.69-22.77c-15.07-9.46-24.78-23.84-32.88-39.32
			c-0.56-1.08-0.26-3.28,0.52-4.28c4.88-6.28,9.99-12.39,15.07-18.51c2.17-2.6,4.46-5.1,1.22-8.44c5.98-5.38,11.78-11,18.04-16.05
			c3.06-2.46,3.69-4.13,1.08-7.25c-0.96-1.14-1.4-3.73-0.77-5.02c5.39-11.14,11.78-21.4,22.71-28.34
			c10.25-6.51,22.05-6.47,31.45,0.95c10.07,7.96,15.98,18.51,19.31,30.61c1.42,5.16,2,10.54,3.09,16.52c1.57-1.1,3.5-1.71,3.94-2.89
			c3.75-10.03,8.81-19.72,8.14-30.96c-0.52-8.61-0.86-17.24-1.02-25.87c-0.18-9.52,3.23-13.61,12.66-15.84
			c1.39,1,2.79,2.01,4.18,3.01c1.69,0.45,3.37,0.91,5.06,1.36c0.1,2.18,0.19,4.37,0.29,6.55c0.63,0.08,1.26,0.16,1.88,0.24
			c1.12-6,2.25-11.99,3.57-19.04c1.95,2.73,3.26,4.76,4.78,6.62c1.39,1.69,3.02,3.18,4.55,4.77c0.9,1.34,1.81,2.68,2.71,4.02
			c-0.21,1.44-0.42,2.88-0.63,4.33c0.31,0.22,0.63,0.45,0.94,0.67c3.44-3.71,6.88-7.42,10.32-11.12c3.03,0.23,6.06,0.45,10.24,0.77
			c-9.24,22.54-12.85,45.27-2.39,68.17c3.77-15.62,8.18-30.71,22.02-40.53c10.39-7.37,21.57-10.24,34.17-4.94
			c9.48,3.99,15.98,11.09,22.06,18.77c2.12,2.67,4.46,5.88,4.81,9.06c0.37,3.32-1.53,6.9-2.44,10.37c-0.72,0.2-1.44,0.4-2.15,0.61
			c10.66,8.62,21.31,17.23,31.97,25.85c-0.16,0.23-0.32,0.45-0.48,0.68c-1.42-0.25-2.85-0.5-4.27-0.75
			c-3.57-1.52-7.13-3.05-11.97-5.11c1.01,2.42,1.28,3.99,2.17,5.04c2.87,3.4,5.94,6.63,8.98,9.89c2.27,2.43,4.72,4.7,6.87,7.22
			c3.1,3.64,4.27,6.99,0.61,11.63c-6.76,8.57-12,18.38-19.09,26.64c-11.81,13.77-27.41,22.37-44.12,29.01
			c-2.77,1.1-5.45,2.44-8.17,3.68c-2.81,0.18-5.69-0.01-8.4,0.6c-10.81,2.43-21.51,5.36-32.35,7.61
			c-9.22,1.92-18.53,4.01-27.89,4.56c-23.51,1.37-46.03-4.58-68.48-10.64C197.05,313.13,192.89,312.77,188.83,312.08z
			 M209.01,290.98c-0.33-0.33-0.66-0.67-0.99-1c-0.33-0.67-0.66-1.34-0.99-2.01c-2.56-7.15-5.19-14.27-7.63-21.46
			c-0.68-2.01-0.85-4.21-1.14-6.33c-0.28-2.1-0.41-4.22-0.61-6.33c-2.32,9.73-2.43,19.22,2.81,27.84c1.52,2.51,4.3,4.25,6.5,6.34
			c0.34,0.66,0.68,1.32,1.02,1.98c0.33,0.33,0.66,0.66,1,0.99c0.14,0.07,0.29,0.14,0.43,0.21
			C209.28,291.14,209.15,291.06,209.01,290.98z M212,295c-0.13-0.07-0.27-0.15-0.4-0.22C211.73,294.85,211.86,294.93,212,295
			c0.12,0.08,0.26,0.15,0.39,0.22C212.26,295.14,212.13,295.07,212,295z M305.3,211.32c0.94-0.47,2.01-0.69,2.57-1.35
			c3-3.57,4.81-4.31,9.45-0.61c14.18,11.3,30.39,9.46,39.62-3.42c0.55-0.77,1.25-1.44,1.09-1.26c4.14,0.68,7.43,1.23,11.27,1.86
			c-7.87-22.41-22.7-30.44-38.31-27.67C317.56,181.26,304.27,198.06,305.3,211.32z M220.64,211.08
			c1.39-12.82-12.53-29.93-26.16-32.19c-16-2.65-31.01,8.79-35.26,27.36c3.56-0.33,6.93-0.65,10.45-0.98
			c12.78,12.71,22.97,14.76,36.66,7.04c2.43-1.37,4.44-4.42,6.84-4.65C215.53,207.45,218.13,209.83,220.64,211.08z M302.91,256.6
			c-2.56,1.41-4.14,2.06-5.47,3.05c-2.5,1.87-4.56,4.6-7.32,5.8c-10.02,4.38-20.45-2.97-21.23-14.5c-0.29-4.23,0-7.49,4.9-9.45
			c2.93-1.17,5.6-4.15,7.29-6.97c3.33-5.56,1.44-10.66-4.81-11.7c-7.1-1.18-14.48-1.28-21.68-0.86c-2.54,0.15-6.65,2.95-6.97,5.02
			c-0.51,3.3,0.85,7.45,2.74,10.39c1.56,2.44,5.07,3.58,7.61,5.45c1.11,0.82,2.56,1.89,2.79,3.06c1.49,7.67-3.05,16.12-10.16,19.42
			c-7.09,3.29-12.33,1.78-18.59-4.86c-1.24-1.31-3.52-1.64-5.33-2.43c0.09,2.14-0.51,4.63,0.38,6.35c3.26,6.26,8.81,9.23,15.82,9.67
			c8.81,0.55,15.55-3.72,21.69-9.38c7.93,7.77,16.8,12.15,27.63,7.46C297.97,269.62,302.36,265.34,302.91,256.6z M167.01,243.34
			c-7.75-0.06-15.95,1.76-23.33,6.4c-2.92,1.83-5.34,4.17-2.1,7.45C150.47,252.35,159.02,247.69,167.01,243.34z M329.21,252.1
			c1.33,13.6-3.62,25.6-10.59,37.82C328.91,285.21,334.53,264.39,329.21,252.1z M388.46,257.36c-0.16-1.42,0.2-3.29-0.56-4.06
			c-6.75-6.84-15.3-9-24.38-9.39C371.61,248.28,379.69,252.64,388.46,257.36z"/>
		<path class="st5" d="M251.68,134.64c-9.43,2.23-12.84,6.32-12.66,15.84c0.16,8.63,0.51,17.25,1.02,25.87
			c0.67,11.24-4.39,20.93-8.14,30.96c-0.44,1.17-2.37,1.79-3.94,2.89c-1.09-5.98-1.67-11.37-3.09-16.52
			c-3.33-12.1-9.24-22.65-19.31-30.61c-9.4-7.43-21.2-7.46-31.45-0.95c-10.93,6.94-17.31,17.2-22.71,28.34
			c-0.63,1.3-0.19,3.88,0.77,5.02c2.61,3.11,1.97,4.79-1.08,7.25c-6.26,5.05-12.05,10.67-18.04,16.05
			c-5.59,2.49-11.17,4.98-17.73,7.9c6.63-26.75,16.32-51.14,35.13-70.38c27.68-28.32,60.54-47.12,101.06-50.03
			c87.85-6.31,148.73,57.67,159.8,122.65c-3.27-1.87-5.87-3.35-8.47-4.84c1.42,0.25,2.85,0.5,4.27,0.75
			c0.16-0.23,0.32-0.45,0.48-0.68c-10.66-8.62-21.31-17.23-31.97-25.85c0.72-0.2,1.44-0.4,2.15-0.61c0.91-3.47,2.81-7.04,2.44-10.37
			c-0.35-3.17-2.69-6.38-4.81-9.06c-6.09-7.68-12.59-14.78-22.06-18.77c-12.6-5.3-23.78-2.44-34.17,4.94
			c-13.84,9.82-18.25,24.92-22.02,40.53c-10.46-22.9-6.85-45.63,2.39-68.17c-4.18-0.31-7.21-0.54-10.24-0.77
			c-0.97-0.23-2.33-0.99-2.83-0.61c-2.72,2.09-5.22,4.46-7.79,6.74c-0.9-1.34-1.81-2.68-2.71-4.02c0.46-9.55-8.24-10.69-13.81-15.83
			c-0.47,6.2-0.87,11.44-1.27,16.69c-1.69-0.45-3.37-0.91-5.06-1.36c-1.86-7.84-4.02-9.97-8.88-9.33
			C248.44,130.29,250.06,132.46,251.68,134.64z"/>
		<path class="st6" d="M182.77,82.67c3.49-2.83,6.97-5.67,10.46-8.5c2.6-1.06,5.2-2.11,7.8-3.17c3.14-0.85,6.3-1.63,9.41-2.57
			c13.64-4.14,27.05-9.3,40.94-12.27c19.89-4.26,38.86,1.51,57.42,8.35c4.2,1.55,8.25,3.54,12.46,5.08c2.13,0.78,4.47,1,6.72,1.47
			c2,1.01,4.01,2.01,6.01,3.02c1.8,1.81,3.35,3.99,5.44,5.36c18.9,12.46,35.29,27.61,49.15,45.51c4.76,6.15,9.6,12.24,14.4,18.35
			c0.82,1.53,1.65,3.07,2.47,4.6c1.71,4.26,3.09,8.71,5.2,12.76c10.56,20.34,19.27,41.32,22.99,64.09
			c4.17,25.5-2.3,48.73-15.3,70.53c-0.14-0.12-0.29-0.25-0.42-0.38c0.9-2.1,2.01-4.15,2.65-6.33c0.69-2.34,2.98-5.01-0.76-7.6
			c-0.92,2.88-1.69,5.28-2.48,7.74c-3.46-0.68,0.55-7.51-5.2-5.6c-0.12-0.12-0.24-0.24-0.37-0.36c4.58-7.28,9.04-14.31,10.67-23.27
			c3.15-17.21,2.39-34.03-2.98-50.43c-21.2-64.73-65.81-102.33-132.94-113.16c-32.88-5.3-64.47-0.41-94.36,14.12
			c-9.38,4.56-17.96,10.74-26.91,16.18c1.56-2.88,3.13-5.77,4.7-8.67c5.28,0.77,11.28-3.21,11.75-7.75c1.3,0.21,2.79,0.93,3.88,0.54
			c2.9-1.03,5.65-2.48,8.4-3.88c0.63-0.32,1.34-1.07,1.44-1.71c1-6.43,3.08-8.24,10.05-8.28c0,1.35,0,2.72,0,5.03
			c5.23-1.57,9.91-2.98,14.58-4.38c-0.1-0.39-0.19-0.79-0.29-1.18c-3.35,0-6.7,0-10.06,0c-0.03-0.46-0.06-0.91-0.09-1.37
			c1.68-0.31,3.48-0.35,5.01-1.01c1.24-0.53,2.33-1.7,3.11-2.84c0.23-0.34-0.67-2.08-1.3-2.25c-1.43-0.4-3.23-0.71-4.51-0.17
			c-3.84,1.62-7.51,3.66-11.45,5.64c-0.52-0.89-1.43-1.89-1.24-2.21c1.8-2.93,3.79-5.75,5.16-7.76c-0.75-3.27-1.3-5.71-2.04-8.96
			c-1.2,0.41-2.77,0.88-4.28,1.48C192.94,78.51,187.86,80.6,182.77,82.67z M291.72,77.37c-22.26-8.21-44.21-6.29-65.99,1.29
			C247.64,74.64,269.62,73.45,291.72,77.37z"/>
		<path class="st7" d="M333.97,74.07c-2-1.01-4.01-2.01-6.01-3.02c10.15-18.58,25.96-30.32,45.51-37.43
			c4.04-1.47,8.34-2.24,12.43-3.6c4.65-1.55,7.25,0.56,9.09,4.49c6.73,14.38,11.56,29.31,13.98,45.07
			c3.21,20.85,1.1,41.41-2.44,61.95c-0.37,2.12-0.73,4.24-1.09,6.36c-0.82-1.54-1.65-3.07-2.47-4.6c-2.26-4.75-4.48-9.52-6.8-14.23
			c-8.37-16.95-19.83-31.47-34.92-42.9C353.17,80.04,344.83,74.1,333.97,74.07z"/>
		<path class="st7" d="M201.03,71c-2.6,1.06-5.2,2.11-7.8,3.17c-11.05,0.48-21.18,4.05-29.01,11.68
			c-9.96,9.71-19.26,20.14-28.3,30.73c-6.85,8.02-12.92,16.73-14.68,27.65c-0.48,0.01-0.97,0.01-1.45,0.02
			c-1.18-9.7-2.83-19.37-3.46-29.1c-1.58-24.76,2.47-48.75,11.26-71.92c1.58-4.17,3.28-8.54,6-11.97c3.83-4.86,8.31-0.19,12.18,0.78
			C169.11,37.9,187.61,50.9,201.03,71z"/>
		<path class="st6" d="M130.19,160.3c-10.09,14.98-18.21,30.97-23.51,48.23c-5.45,17.76-7.46,35.82-2.78,54.17
			c2.51,9.83,7.36,18.15,15.33,24.55c13.05,10.48,27.18,18.97,42.85,25.11c28.75,11.26,51.36,30.27,68.42,55.96
			c3.22,4.85,6.76,9.51,9.76,14.5c2.02,3.36,3.35,7.13,4.03,11.51c-1.04-0.82-2.26-1.48-3.09-2.47
			c-24.26-28.88-56.07-47.09-89.07-63.84c-11.52-5.85-22.32-13.22-33.13-20.38c-7.9-5.23-13.61-12.62-17.86-21.14
			c-11.93-23.88-13.95-48.5-6.83-74.24c5.23-18.9,12.01-37.05,22.07-53.89c6.19-10.35,12.66-20.53,19.12-30.72
			c1.13-1.79,2.8-3.25,4.22-4.86c-1.27,3.39-1.65,7.86-4.07,9.89c-2.49,2.08-2.37,6-4.05,6.5c-4.2,1.25-3.58,3.95-3.59,6.81L128,146
			c-1.25,0.58-3.07,0.81-3.65,1.79c-2.74,4.61-5.16,9.4-7.66,14.15c-1.32,2.5-0.14,3.66,2.3,4.07c-0.17,1.82-0.35,3.63-0.52,5.45
			c0.69,0.16,1.37,0.31,2.06,0.47c0.83-1.97,1.66-3.94,2.48-5.91c0.99-0.99,1.9-2.08,3-2.94
			C127.33,162.05,128.79,161.22,130.19,160.3z"/>
		<path class="st6" d="M73.48,658.19c7.66,32.22,29,49.29,59.22,57.8c27.71,7.8,56,11.66,84.59,13.84
			c8.09,0.62,16.2,1.06,23.98,1.56c0.37,0.59,0.51,0.72,0.53,0.86c1.66,11.29,1.39,11.56-9.76,11.46
			c-42.86-0.38-85.14-4.79-125.63-19.81c-11.96-4.44-23.42-10.32-34.84-16.07c-7.44-3.75-8.83-7.11-6.96-15.05
			C67.33,681.19,70.5,669.71,73.48,658.19z"/>
		<path class="st4" d="M259.97,408.02c-3.13-6.76-6.32-13.49-9.36-20.29c-9.41-20.99-22.23-39.59-38.58-55.77
			c4.95,0.5,9.89,1.05,14.85,1.49c13.47,1.2,26.97,3.55,40.4,3.2c14.22-0.37,28.77-0.56,42.48-5.83c1.08-0.41,2.56,0.23,3.86,0.39
			c-8.91,10.59-17.82,21.19-26.73,31.78c-3.14,2.07-6.79,3.67-9.29,6.34c-2.79,2.98-4.84,6.78-6.69,10.49
			c-3.38,6.77-6.52,13.67-9.46,20.64C260.47,402.77,260.43,405.48,259.97,408.02z"/>
		<path class="st3" d="M423.89,699.71c0.28-0.27,0.55-0.54,0.83-0.81c0.41-0.33,0.81-0.67,1.22-1c0,0-0.03,0.04-0.03,0.04
			c0.34-0.34,0.69-0.69,1.03-1.03c0,0-0.03,0.03-0.03,0.03c0.34-0.34,0.69-0.69,1.03-1.03c0,0-0.03,0-0.03,0
			c0.64-0.69,1.28-1.37,1.93-2.06c0,0,0-0.02,0-0.02c4.59-0.83,5.41-4.3,5.7-8.14l0.06,0.29c0,0-0.02-0.29-0.02-0.29
			c0.34-0.64,0.69-1.29,1.03-1.94c0,0-0.02-0.03-0.02-0.03c0.38-0.64,0.75-1.29,1.13-1.94l0.09,0.26c0,0-0.12-0.25-0.11-0.25
			c0.75-1.61,1.51-3.21,2.26-4.82c0,0,0-0.03,0-0.03c1.78-3.05,3.57-6.09,5.6-9.57c0.92,3.05,2.01,5.94,2.63,8.92
			c1.96,9.45,6.45,18.58,3.83,28.64c0,0-0.07,0.09-0.07,0.08c-0.53,0.46-1.07,0.91-1.6,1.37c0,0-0.03,0.08-0.03,0.07
			c-1.08,0.86-2.17,1.73-3.25,2.6c0,0-0.02,0.01-0.02,0.01c-1.58,0.43-3.32,0.55-4.7,1.32c-20.06,11.22-41.71,18.09-64.09,22.43
			c-17.66,3.43-35.54,5.89-53.41,8.06c-11.49,1.39-23.14,1.37-34.7,2.16c-3.97,0.27-4.26-1.89-4.17-4.92
			c0.09-2.78-0.21-4.92,3.93-5.22c13.68-0.98,27.31-2.64,40.98-3.79c20.2-1.7,39.97-5.63,59.46-11.06c1.57-0.44,2.93-1.65,4.39-2.5
			c0,0,0.04,0.11,0.04,0.11c4.99-2.01,9.97-4.02,14.96-6.03c0,0,0.04,0.04,0.04,0.04c0.66-0.35,1.32-0.71,1.98-1.06
			c0,0-0.05,0.12-0.05,0.12c0.41-0.3,0.81-0.59,1.22-0.89c0,0-0.05,0.04-0.05,0.04c1.03-0.63,2.06-1.26,3.08-1.89
			c0,0,0.04-0.03,0.04-0.03c0.62-0.41,1.24-0.81,1.86-1.22c0,0-0.08,0.11-0.08,0.11c0.38-0.33,0.76-0.65,1.14-0.98
			c0,0-0.04,0.02-0.04,0.02c0.6-0.42,1.21-0.85,1.81-1.27c0,0-0.03-0.05-0.03-0.04c0.71-0.58,1.42-1.17,2.13-1.75
			c0,0,0.04,0.07,0.04,0.07C423.18,700.49,423.53,700.1,423.89,699.71z"/>
		<path class="st3" d="M130.19,160.3c-1.4,0.92-2.87,1.75-4.18,2.78c-1.09,0.86-2.01,1.95-3,2.94l-0.03-0.03
			c0.19-2.23,0.38-4.45,0.57-6.68c-0.54-0.14-1.08-0.28-1.61-0.43c-0.98,2.37-1.96,4.74-2.94,7.11l-0.02,0.01
			c-2.45-0.4-3.62-1.56-2.3-4.07c2.5-4.75,4.92-9.55,7.66-14.15c0.58-0.97,2.4-1.21,3.65-1.79c0.32,0.52,0.65,1.05,0.97,1.57
			c0.2-0.2,0.4-0.4,0.6-0.6c-0.52-0.32-1.05-0.65-1.57-0.97c0.01-2.86-0.6-5.56,3.59-6.81c1.67-0.5,1.56-4.42,4.05-6.5
			c2.42-2.03,2.8-6.49,4.07-9.89c0,0,0.07,0,0.07,0c2.73-1.95,5.5-3.86,8.19-5.88c1.38-1.04,2.63-2.26,4.42-3.83
			c-0.1-0.74-0.35-2.5-0.59-4.26c0,0,0.01,0.08,0.01,0.07c0.35-0.45,0.7-0.91,1.05-1.36c0.23-0.22,0.45-0.44,0.68-0.66
			c0.42-0.37,0.85-0.75,1.27-1.12c0,0-0.08,0.04-0.08,0.04c0.36-0.34,0.72-0.69,1.08-1.03c0,0-0.06,0.06-0.05,0.06
			c0.34-0.36,0.69-0.73,1.03-1.09c0,0-0.05,0.07-0.05,0.07c0.37-0.34,0.74-0.68,1.11-1.01c0,0-0.07,0.07-0.07,0.07
			c0.36-0.36,0.71-0.71,1.07-1.07c0,0-0.06,0.07-0.06,0.07c0.37-0.35,0.73-0.69,1.1-1.04c0,0-0.07,0.08-0.07,0.08
			c0.36-0.38,0.72-0.76,1.09-1.14c0.31-0.28,0.62-0.56,0.93-0.84c3.25-0.25,6.09-0.97,5.93-5.14c0,0,0.02,0.08,0.02,0.08
			c0.37-0.34,0.73-0.69,1.09-1.03c0,0-0.06,0.07-0.06,0.07c0.37-0.33,0.74-0.66,1.11-0.99c0,0-0.03,0.02-0.03,0.02
			c0.95-0.72,1.91-1.43,2.86-2.15c0,0,0.04,0.01,0.04,0.01c2.36,0.35,4.15-0.04,3.93-3.03c0,0,0.03,0.08,0.03,0.08
			c0.39-0.31,0.78-0.61,1.16-0.92c0,0-0.02,0.01-0.02,0.01c0.64-0.39,1.28-0.79,1.92-1.18c0,0-0.04,0.01-0.04,0.02
			c0.99-0.67,1.98-1.35,2.97-2.02c0,0,0-0.07,0-0.07c5.09-2.07,10.17-4.16,15.27-6.2c1.51-0.61,3.08-1.07,4.28-1.48
			c0.74,3.24,1.3,5.69,2.04,8.96c-1.36,2.01-3.36,4.82-5.16,7.76c-0.19,0.32,0.72,1.31,1.24,2.21c3.94-1.98,7.61-4.02,11.45-5.64
			c1.28-0.54,3.08-0.22,4.51,0.17c0.64,0.18,1.54,1.92,1.3,2.25c-0.78,1.14-1.87,2.3-3.11,2.84c-1.53,0.66-3.33,0.7-5.01,1.01
			c0.03,0.46,0.06,0.91,0.09,1.37c3.35,0,6.7,0,10.06,0c0.1,0.39,0.19,0.79,0.29,1.18c-4.67,1.4-9.35,2.81-14.58,4.38
			c0-2.31,0-3.68,0-5.03c-6.97,0.04-9.05,1.86-10.05,8.28c-0.1,0.64-0.82,1.39-1.44,1.71c-2.75,1.4-5.5,2.85-8.4,3.88
			c-1.09,0.39-2.58-0.33-3.88-0.54c-0.47,4.54-6.47,8.52-11.75,7.75c-1.58,2.9-3.14,5.79-4.7,8.67c0,0-0.09-0.01-0.09-0.01
			c-2.45,0-4.9,0-6.47,0c-1.46,2.09-2.84,3.86-4,5.77c-2.33,3.83-8.21,4.66-8.56,10.14c0,0-0.02,0.02-0.02,0.02
			c-1.36,0.35-3.19,0.27-3.99,1.13c-3.31,3.63-6.41,7.46-9.36,11.39c-0.91,1.21-1.1,2.96-1.62,4.46c0,0,0-0.02,0-0.02
			c-0.32,0.38-0.63,0.75-0.95,1.13C130.16,160.19,130.19,160.3,130.19,160.3z M130.99,149.99c-1.05,0.87-2.1,1.74-3.15,2.61
			c0.56,0.42,1.11,0.83,1.67,1.25c0.5-1.28,1-2.57,1.5-3.85c0.87-0.26,1.74-0.52,2.61-0.78c-0.26-0.39-0.52-0.78-0.78-1.16
			C132.22,148.7,131.61,149.35,130.99,149.99z M167.01,118.79c-0.34-0.55-0.57-0.92-0.8-1.29c-0.33,0.26-0.89,0.48-0.94,0.79
			c-0.06,0.35,0.33,0.78,0.52,1.18C166.16,119.27,166.52,119.06,167.01,118.79z M125.41,157.26c0.26,0.11,0.58,0.38,0.77,0.3
			c0.19-0.07,0.25-0.48,0.36-0.74c-0.26-0.11-0.58-0.38-0.77-0.3C125.59,156.59,125.53,156.99,125.41,157.26z"/>
		<path class="st5" d="M313.61,331.2c-1.3-0.15-2.78-0.8-3.86-0.39c-13.71,5.27-28.26,5.46-42.48,5.83c-13.43,0.35-26.93-2-40.4-3.2
			c-4.95-0.44-9.9-0.99-14.85-1.49c-7.73-6.62-15.46-13.25-23.19-19.87c4.06,0.69,8.22,1.05,12.18,2.12
			c22.45,6.06,44.97,12,68.48,10.64c9.36-0.54,18.67-2.64,27.89-4.56c10.84-2.26,21.54-5.19,32.35-7.61c2.71-0.61,5.6-0.42,8.4-0.6
			C329.96,318.44,321.79,324.82,313.61,331.2z"/>
		<path class="st3" d="M250,460.01c4.46,3.36,8.98,6.54,15.01,4c0.61-0.12,1.22-0.23,1.82-0.35c0,0-0.05,0.09-0.05,0.09
			c1.7-0.97,3.39-1.93,5.08-2.9c0,0,0,0.01,0,0.01c0.64-0.7,1.28-1.4,1.92-2.1c0,0-0.03,0.11-0.03,0.11c0.4-0.65,0.79-1.3,1.18-1.95
			c0,0-0.02,0.03-0.02,0.03c0.86-0.39,1.71-0.79,3.07-1.41c0,18.3,0.12,36.19-0.08,54.07c-0.06,4.83-4,7.35-9.14,6.68
			c0,0,0.06,0.04,0.06,0.04c-5.17-4.83-12.74-4.5-16.74,0.73c0,0-0.03,0.01-0.03,0.01c-0.62,0.39-1.24,0.79-1.87,1.18
			c0,0,0.04,0.06,0.04,0.06c-0.74-1.47-2.1-2.94-2.12-4.42c-0.15-16.66-0.14-33.32-0.01-49.98
			C248.11,462.62,249.33,461.32,250,460.01z"/>
		<path class="st0" d="M464.19,656.7c9.46-6.35,16.85-14.37,21.28-25.07c5.91-14.26,5.93-27.73-4.23-40.23
			c-0.49-0.61-0.83-1.34-1.65-2.67c9.67,1.05,16.58,5.36,21.57,12.7c13.14,19.37,10.45,40.46-7.05,55.95
			c-2.61,2.31-5.39,4.42-8.09,6.62c-2.25,1.26-4.49,2.53-6.85,3.86C474.19,664.16,469.19,660.43,464.19,656.7z"/>
		<path class="st3" d="M316.92,341.81c0.31-0.3,0.61-0.59,0.92-0.89c0.37-0.34,0.74-0.68,1.11-1.02c0,0-0.04,0.04-0.04,0.03
			c0.34-0.35,0.69-0.69,1.03-1.04c0,0-0.03,0.03-0.03,0.03c0.34-0.35,0.68-0.7,1.02-1.05c0,0-0.03,0-0.03,0
			c4.11,0.06,6-2.45,6.97-6.02c0,0,0,0.05,0,0.05c0.36-0.32,0.71-0.64,1.07-0.97c0,0,0.02-0.02,0.02-0.02
			c4.63-2.69,9.26-5.39,13.89-8.08c0,0,0.06,0.02,0.06,0.03c2.24-0.39,4.71-0.32,6.69-1.26c12.11-5.7,24.07-11.72,36.18-17.42
			c3.24-1.53,6.81-2.34,10.08-3.42c0.86-1.09,1.72-3.25,2.88-3.42c2.49-0.38,7.76,6.97,7.51,9.86c0,0-0.1,0.03-0.1,0.03
			c-1.23,0.28-2.63,0.28-3.66,0.9c-7.61,4.59-15.17,9.25-22.66,14.02c-1.09,0.69-1.76,2.04-2.63,3.09c0,0-0.04-0.04-0.04-0.04
			c-1.91,0.37-4.02,0.33-5.7,1.17c-8.28,4.12-16.47,8.41-24.62,12.8c-1.11,0.6-1.75,2.04-2.61,3.09c0,0-0.05-0.03-0.05-0.03
			c-1.8,0.07-4.04-0.53-5.31,0.33c-6.94,4.64-13.66,9.6-20.4,14.53c-3.52,2.58-6.92,5.32-10.37,7.99c-0.4-0.37-0.81-0.73-1.21-1.1
			c1.14-1.69,2.28-3.38,3.45-5.11c-0.98-0.83-2.12-1.79-3.26-2.75c0.23-0.57,0.45-1.14,0.68-1.7c1.97,0.55,3.95,1.1,7.03,1.96
			c-1.53-2.15-2.53-3.55-3.41-4.78c0.54-1.92,1.07-3.78,1.59-5.64c0,0,0,0,0,0c0.99-1,1.98-2,2.98-3c0,0,0.02,0.01,0.02,0
			C316.26,342.56,316.59,342.19,316.92,341.81z M397,306c2.41-0.02,5.03,0.2,4.68-3.08c-0.47-0.44-0.94-0.87-1.41-1.31
			C399.18,303.08,398.09,304.54,397,306c-0.87,0.44-1.73,0.87-2.6,1.31c0.43,0.43,0.85,0.85,1.28,1.28
			C396.13,307.73,396.56,306.87,397,306z M349.59,325.26c-0.1-0.27-0.14-0.67-0.33-0.76c-0.18-0.08-0.51,0.16-0.78,0.27
			c0.1,0.27,0.14,0.67,0.33,0.76C348.99,325.61,349.32,325.37,349.59,325.26z M393.42,311.26c0.26,0.11,0.58,0.38,0.77,0.3
			c0.19-0.07,0.25-0.48,0.36-0.74c-0.26-0.11-0.58-0.38-0.77-0.3C393.59,310.59,393.53,310.99,393.42,311.26z"/>
		<path class="st2" d="M219.05,754.62c27.89,0,55.45,0,83.2,0c1.58,4.23,3.24,8.7,5.15,13.82c-30.93,0-61.53,0-92.35,0
			C216.39,763.82,217.76,759.08,219.05,754.62z"/>
		<path class="st6" d="M268.76,516.3c5.14,0.67,9.09-1.85,9.14-6.68c0.21-17.88,0.08-35.77,0.08-54.07
			c-1.35,0.62-2.21,1.02-3.07,1.41c2.37-6.99,3.52-13.98-0.15-20.93c1.59,0.09,3.17,0.17,4.76,0.26c0.08,7.77,0.26,15.54,0.21,23.31
			c-0.15,22.11-0.39,44.21-0.59,66.32c0,6.73,0,13.47,0,20.21c-0.02,5.61-0.04,11.22-0.06,16.83c-0.01,11.03-0.01,22.06-0.02,33.09
			c0.01,0.97,0.01,1.94,0.02,2.91c0.02,5.73,0.04,11.45,0.06,17.18c-0.02,41.62-0.04,83.23-0.07,124.85c0,0.33-0.01,0.65-0.01,0.98
			c-0.61,0.41-1.23,0.83-1.84,1.24c-1.8-0.01-3.6-0.02-5.4-0.02c-3.22-0.02-6.45-0.03-9.67-0.05c-5.01-0.02-10.01-0.03-15.02-0.05
			c-0.31-1.22-0.89-2.44-0.89-3.65c-0.05-29.28-0.04-58.55-0.04-88c2.01,1.86,3.76,3.92,5.92,5.39c5.52,3.74,11.58,4.85,17.27,0.84
			c5.55-3.91,8.29-9.63,7.64-16.61c-0.52-5.56-2-10.68-7.17-13.86c0,0,0.22-0.28,0.22-0.28c2.5,1.34,5,2.68,7.43,3.99
			c0-29.6,0-59.33,0-89.35c-1.05,0.65-1.75,1.08-2.44,1.52l-0.35-0.35c0.28-4.43,2.71-8.18,1.89-13.29
			C275.64,523.43,272.75,519.83,268.76,516.3z M248.44,657.45c-0.14,2.93-0.32,4.85-0.32,6.77c-0.05,24.81-0.12,49.62,0.03,74.42
			c0.01,1.12,1.92,3.15,3.01,3.2c7.31,0.29,14.65,0.3,21.97,0.02c1.31-0.05,3.61-1.79,3.66-2.84c0.39-7.95,0.33-15.93,0.44-23.9
			c0.16-11.62,0.38-23.23,0.51-34.85c0.09-8.32,1.47-16.74-1.67-26C267.75,664.49,258.41,663.08,248.44,657.45z"/>
		<path class="st8" d="M320.96,392.02c-4.31,3.16-8.93,5.98-12.87,9.55c-6.17,5.59-11.78,11.78-17.83,17.51
			c-3.16,2.99-4.29,6.33-4.29,10.65c0.09,58.15,0.06,116.31,0.01,174.46c0,1.94-0.44,3.89-0.67,5.83
			c-0.16-11.97-0.45-23.93-0.45-35.9c-0.02-44.43,0.11-88.87,0.06-133.3c-0.01-8.44-0.39-16.88-0.89-25.31
			c-0.26-4.45,0.97-8.21,3.91-11.37c8.94-9.6,18.03-19.04,30.64-25.07C319.44,383.68,320.2,387.85,320.96,392.02z"/>
		<path class="st5" d="M464.19,656.7c5,3.73,10,7.46,14.97,11.16c2.36-1.33,4.61-2.59,6.85-3.86c2.46-0.26,4.96-0.34,7.38-0.82
			c2.04-0.41,3.98-1.28,7.19-2.36c-8.12,15.48-20.88,24.71-32.44,34.79c-3.07-10.92-5.91-21.57-9.08-32.12
			C457.56,658.49,461.7,658.35,464.19,656.7z"/>
		<path class="st2" d="M457.26,656.1c-0.98-6.06-2.08-12.08-2.8-18.14c-0.14-1.17,0.96-3.29,1.97-3.67
			c10.15-3.78,17.33-10.94,23.09-19.85C489.52,630.94,477.05,647.84,457.26,656.1z"/>
		<path class="st8" d="M243.07,425.97c-9.8-9.61-19.53-19.29-29.45-28.76c-2.2-2.1-5.07-3.5-7.64-5.22
			c0.24-3.59,0.48-7.17,0.76-11.34c10.22,4.37,17.71,11.15,25.78,17.21C242.33,405.22,244.21,414.86,243.07,425.97z"/>
		<path class="st5" d="M129.42,374.99c-5.89,7.3-11.79,14.61-17.68,21.91c-1.24,1.53-2.49,3.06-3.73,4.59
			c-1.48,0.74-2.96,1.49-4.82,2.43c-0.44-0.31-1.15-1.02-2-1.34c-1.05-0.39-2.22-0.45-3.34-0.65c2.61-4.14,4.95-8.5,7.89-12.39
			c9.65-12.74,19.53-25.3,29.58-38.26c2.01,1.53,3.4,2.6,4.8,3.66c-1.19,0.25-2.38,0.5-3.65,0.77c3.12,5.98-1.52,9.2-3.84,13.17
			C131.47,370.87,130.49,372.95,129.42,374.99z"/>
		<path class="st6" d="M394.73,715.54c-1.46,0.85-2.82,2.07-4.39,2.5c-19.49,5.42-39.26,9.36-59.46,11.06
			c-13.67,1.15-27.3,2.81-40.98,3.79c-4.14,0.3-3.84,2.44-3.93,5.22c-0.1,3.04,0.19,5.19,4.17,4.92c11.57-0.79,23.22-0.77,34.7-2.16
			c17.87-2.16,35.75-4.63,53.41-8.06c22.38-4.34,44.03-11.21,64.09-22.43c1.38-0.77,3.13-0.9,4.7-1.32
			c-12.96,5.92-25.51,13.03-38.95,17.52c-39.06,13.06-79.55,17.56-120.61,17.44c-1.29,0-2.57-0.27-4.26-0.46
			c0-2.37-0.01-4.49,0-6.62c0.03-3.37,1.43-4.87,5.1-5.11c35.62-2.3,70.98-6.33,105.42-16.28
			C394.05,715.47,394.4,715.54,394.73,715.54z"/>
		<path class="st6" d="M97.85,401.94c1.12,0.2,2.29,0.26,3.34,0.65c0.85,0.31,1.56,1.03,2,1.34c1.86-0.94,3.34-1.69,4.82-2.43
			c-1.56,2.87-3.02,5.8-4.7,8.6c-6.46,10.72-12.96,21.41-19.52,32.06c-0.94,1.54-2.08,3.07-3.46,4.2
			c-5.08,4.15-8.88,9.34-12.5,14.72c7.99-20.04,16.51-39.83,29.09-57.55c0.35-0.53,0.7-1.06,1.06-1.59L97.85,401.94z"/>
		<path class="st6" d="M312.94,345.94c-0.52,1.86-1.05,3.71-1.59,5.64c0.88,1.23,1.88,2.63,3.41,4.78
			c-3.08-0.86-5.05-1.41-7.03-1.96c-0.23,0.57-0.45,1.14-0.68,1.7c1.14,0.96,2.29,1.93,3.26,2.75c-1.17,1.73-2.31,3.42-3.45,5.11
			c0.4,0.37,0.81,0.73,1.21,1.1c3.45-2.67,6.85-5.41,10.37-7.99c6.74-4.93,13.47-9.89,20.4-14.53c1.27-0.85,3.52-0.26,5.31-0.33
			c-7.98,5.34-16.57,9.97-23.81,16.17c-12.85,11-24.88,22.95-37.27,34.5c-1.48,1.38-3.01,2.71-5.1,3.57
			C286.97,377.7,298.23,360.63,312.94,345.94z M292.53,375.77c0.56,0.45,1.11,0.91,1.67,1.36c3.21-2.61,6.41-5.23,9.9-8.07
			c-2.66-0.66-4.45-1.11-6.51-1.63C295.93,370.18,294.23,372.97,292.53,375.77z"/>
		<path class="st5" d="M259.97,408.02c0.46-2.53,0.5-5.25,1.47-7.56c2.93-6.97,6.08-13.88,9.46-20.64c1.85-3.7,3.9-7.51,6.69-10.49
			c2.5-2.67,6.15-4.27,9.29-6.34c-8.27,16.43-16.55,32.86-24.85,49.36C261.48,411.19,260.73,409.6,259.97,408.02z"/>
		<path class="st8" d="M338.28,362.45c15.99-9.05,31.99-18.09,48.24-27.28c1.11,1.41,2,2.53,3.13,3.98
			c-15.07,12.64-33.21,18.04-50.63,24.95C338.78,363.55,338.53,363,338.28,362.45z"/>
		<path class="st2" d="M451.12,623.91c-0.98-3.68-2-6.81-2.55-10.03c-0.16-0.91,0.77-2.54,1.65-3.02c4.81-2.62,9.66-5.23,14.72-7.28
			c1.65-0.66,3.99,0.41,6.02,0.69c-0.28,1.78-0.05,3.87-0.93,5.29C465.7,616.61,459.23,620.93,451.12,623.91z"/>
		<path class="st6" d="M179.09,358.96c0.63,0.39,1.26,0.77,1.89,1.16c-0.87,0.23-1.75,0.46-2.62,0.68
			c-11.25-4.89-22.51-9.75-33.73-14.7c-2.72-1.2-5.17-2.85-3.1-6.44c1.98-3.43,4.43-1.34,6.37-0.16
			c10.08,6.11,20.05,12.4,30.05,18.63C178.33,358.4,178.71,358.68,179.09,358.96z"/>
		<path class="st6" d="M406.25,307.2c0.25-2.88-5.02-10.24-7.51-9.86c-1.16,0.18-2.02,2.34-2.88,3.42
			c-3.27,1.09-6.84,1.9-10.08,3.42c-12.11,5.71-24.07,11.72-36.18,17.42c-1.99,0.94-4.45,0.87-6.69,1.26
			c5.5-2.62,10.97-5.3,16.5-7.84c17.48-8.03,34.99-16.01,49.39-29.23l0.32,0.32c-1.2,2.53-2.1,5.25-3.66,7.54
			c-2.22,3.26-0.46,5.7,1.79,7.08c1.04,0.64,3.75-1.09,5.51-2.08c1.83-1.04,3.42-2.49,5.12-3.76c0.14,0.13,0.28,0.25,0.42,0.38
			C414.29,299.25,410.27,303.22,406.25,307.2z"/>
		<path class="st6" d="M267.87,626.15c-8.61-2.65-15.98-1.16-21.5,6.99c0-31.05,0-61.55,0-92.05c0.34-0.16,0.68-0.32,1.02-0.47
			c0.69,1.29,1.37,2.58,2.06,3.88c-0.19,0.19-0.35,0.41-0.49,0.63c-0.32,1.73-0.91,3.46-0.91,5.19
			c-0.07,21.45-0.05,42.91-0.05,64.36c0,4.11,0,8.22,0,12.5c12.56-5.22,14.89-5.35,20.07-1.28L267.87,626.15z"/>
		<path class="st8" d="M354.04,566.04c2.01,3.69,0.43,6.46-2.53,8.53c-2.79,1.95-5.64,2.08-8.68-0.16
			c-8.82-6.51-11.84-16.08-7.44-24.44c0.43,1.6,0.92,3.18,1.27,4.79C339,565.46,343.47,568.37,354.04,566.04z"/>
		<path class="st8" d="M279.52,436.28c-1.59-0.09-3.17-0.17-4.76-0.26c-6.35-7.14-6.34-7.14-0.99-15.43
			c1.69-2.61,3.36-5.24,5.75-8.97C279.52,420.93,279.52,428.61,279.52,436.28z"/>
		<path class="st8" d="M189.95,556.99c2.95,4.58,2.51,10.32-1.16,14.55c-3.22,3.7-7.03,3.79-11.16,1.72
			c-2.83-1.42-4.5-3.38-3.11-6.75C183.52,566.86,186.39,565.09,189.95,556.99z"/>
		<path class="st8" d="M258.2,429.27c-3.65,2.32-7.24,4.61-11.46,7.3c0-7.59,0-15.06,0-22.78
			C250.56,418.95,254.36,424.08,258.2,429.27z"/>
		<path class="st6" d="M117.84,499.39c-1.36,5.95-2.47,11.97-4.11,17.84c-3.81,13.58-7.86,27.1-11.9,40.61
			c-0.35,1.19-1.38,2.17-2.1,3.25c3.59-12.82,7.1-25.66,10.82-38.44C112.82,514.85,115.4,507.14,117.84,499.39z"/>
		<path class="st6" d="M452,704.92c2.62-10.06-1.88-19.19-3.83-28.64c-0.62-2.99-1.72-5.87-2.63-8.92c-2.03,3.47-3.82,6.52-5.6,9.57
			c1.38-5.23,2.76-10.46,4.37-16.54c1.1,1.54,2.18,2.42,2.43,3.5c2.57,11.11,5.22,22.22,7.32,33.43
			C454.48,699.64,452.74,702.38,452,704.92z"/>
		<path class="st6" d="M125.03,461.01c0.09-0.81-0.12-1.95,0.34-2.39c1.6-1.54,3.43-2.83,5.17-4.22c-0.14,1.9,0.02,3.88-0.48,5.67
			c-3.26,11.61-6.64,23.19-10.07,34.75c-0.45,1.5-1.46,2.83-2.21,4.25c1.68-6.05,3.45-12.07,5.01-18.15c1.54-6,2.92-12.05,4.23-18.1
			C127.29,461.6,127.71,459.4,125.03,461.01z"/>
		<path class="st6" d="M129.42,374.99c1.06-2.04,2.05-4.12,3.21-6.1c2.32-3.97,6.96-7.19,3.84-13.17c1.26-0.27,2.45-0.52,3.65-0.77
			c0,0-0.11-0.02-0.11-0.02c0.7,0.34,1.4,0.69,2.1,1.03c0,0-0.12-0.05-0.12-0.05c0.53,0.36,1.07,0.72,1.6,1.09
			c1.15,0.64,2.3,1.28,3.44,1.92c-3.64,3.3-7.29,6.6-10.92,9.91C133.87,370.87,131.65,372.93,129.42,374.99z"/>
		<path class="st6" d="M99.83,561.38c-2.09,9.14-4.07,18.3-6.31,27.4c-1.65,6.7-3.58,13.33-5.53,19.96
			c-0.44,1.48-1.45,2.79-2.2,4.19C90.47,595.74,95.15,578.56,99.83,561.38z"/>
		<path class="st5" d="M262.07,538.18c-1.28-1.87-3.2-3.59-3.67-5.65c-0.61-2.66,0.83-4.89,4.08-4.83c2.93,0.05,5.3,1.11,5.34,4.5
			C267.85,535.13,266.8,537.41,262.07,538.18z"/>
		<path class="st5" d="M257.69,446.26c2.45-2.1,4.74-4.66,5.22-4.36c1.97,1.24,4.12,3.15,4.69,5.23c0.28,1.02-2.88,4.3-4.2,4.15
			C261.62,451.07,260.1,448.54,257.69,446.26z"/>
		<path class="st5" d="M263.19,637.5c1.29,1.99,3.41,3.92,3.58,6c0.11,1.4-2.36,4.06-3.98,4.33c-3.43,0.57-4.45-2.58-4.28-5.23
			c0.11-1.69,1.76-3.29,2.72-4.93C261.88,637.61,262.54,637.55,263.19,637.5z"/>
		<path class="st6" d="M250,460.01c-0.66,1.3-1.89,2.6-1.9,3.91c-0.13,16.66-0.14,33.32,0.01,49.98c0.01,1.48,1.38,2.95,2.12,4.42
			c-1.07,1.22-2.13,2.43-3.2,3.65c0,0,0.02,0.02,0.02,0.02c-0.12-15.65-0.28-31.3-0.34-46.96c-0.02-5.99,0.19-11.98,0.3-17.97
			l0.15-0.13C248.1,457.95,249.05,458.98,250,460.01z"/>
		<path class="st6" d="M344.22,342.24c0.86-1.05,1.51-2.49,2.61-3.09c8.14-4.38,16.34-8.68,24.62-12.8c1.68-0.84,3.79-0.8,5.7-1.17
			C366.18,330.87,355.2,336.56,344.22,342.24z"/>
		<path class="st6" d="M377.2,325.23c0.87-1.04,1.54-2.39,2.63-3.09c7.5-4.76,15.06-9.43,22.66-14.02c1.03-0.62,2.43-0.61,3.66-0.9
			C396.5,313.23,386.85,319.23,377.2,325.23z"/>
		<path class="st8" d="M285.32,664.99c0.22,1.77,0.63,3.54,0.63,5.31c0.05,19.21,0.03,38.42,0.03,57.62
			c-0.4-0.63-1.14-1.26-1.14-1.89C284.96,705.69,285.15,685.34,285.32,664.99z"/>
		<path class="st6" d="M146.1,142.08c0.35-5.49,6.23-6.31,8.56-10.14c1.16-1.9,2.54-3.67,4-5.77c1.57,0,4.02,0,6.47,0
			C158.79,131.47,152.44,136.78,146.1,142.08z"/>
		<path class="st6" d="M55.86,496.41c-2.73,11.49-5.46,22.98-8.19,34.48C50.4,519.4,53.13,507.91,55.86,496.41z"/>
		<path class="st6" d="M151.81,108.83c0.24,1.76,0.49,3.52,0.59,4.26c-1.8,1.57-3.04,2.79-4.42,3.83c-2.69,2.01-5.45,3.92-8.19,5.88
			C143.8,118.14,147.8,113.48,151.81,108.83z"/>
		<path class="st6" d="M131.1,159.08c0.52-1.5,0.71-3.25,1.62-4.46c2.95-3.93,6.05-7.77,9.36-11.39c0.79-0.87,2.63-0.78,3.99-1.13
			C141.09,147.76,136.1,153.42,131.1,159.08z"/>
		<path class="st6" d="M79.87,635.41c-2.19,10.22-1.15,20.44,0.01,30.66C76.01,655.86,75.39,645.64,79.87,635.41z"/>
		<path class="st5" d="M353.11,552.54c-2.38,1.56-3.65,2.92-5.11,3.15c-0.84,0.14-2.95-2-2.81-2.3c0.72-1.47,1.78-3.18,3.16-3.77
			C349.12,549.31,350.75,551.03,353.11,552.54z"/>
		<path class="st5" d="M173.14,552.46c2.68-2.03,4.08-3.09,6.17-4.67c0.72,1.39,2,2.8,2,4.22c0,0.99-1.76,2.84-2.67,2.8
			C177.01,554.73,175.44,553.52,173.14,552.46z"/>
		<path class="st6" d="M252.05,546.94c6.8,2.82,13.5,3.69,19.95-0.94c0,0,0.15,0.15,0.15,0.15c-3.82,6.03-15.69,6.57-20.26,0.93
			L252.05,546.94z"/>
		<path class="st6" d="M47.79,530.82c-0.68,6.15-1.35,12.31-2.05,18.46c-0.26,2.27-0.58,4.54-0.87,6.8
			c-0.05-3.79-0.51-7.63-0.04-11.36C45.42,540.04,46.77,535.45,47.79,530.82z"/>
		<path class="st8" d="M279.06,596.03c0.01-11.03,0.01-22.06,0.02-33.09C279.07,573.97,279.06,585,279.06,596.03z"/>
		<path class="st6" d="M252.08,517.06c4-5.23,11.57-5.56,16.74-0.73C263.13,514.11,257.55,514.4,252.08,517.06z"/>
		<path class="st6" d="M342.85,322.85c-4.63,2.69-9.26,5.39-13.89,8.08C333.6,328.24,338.23,325.54,342.85,322.85z"/>
		<path class="st8" d="M247.12,743.07c5.01,0.02,10.01,0.03,15.02,0.05C258.83,745.44,249.98,745.41,247.12,743.07z"/>
		<path class="st8" d="M178.35,360.81c0.87-0.23,1.75-0.46,2.62-0.68c3.33,1.97,6.65,3.95,9.98,5.92l0.04-0.05
			C186.78,364.26,182.57,362.53,178.35,360.81z"/>
		<path class="st6" d="M409.73,709.62c-4.98,2.01-9.97,4.02-14.96,6.03C399.76,713.64,404.74,711.63,409.73,709.62z"/>
		<path class="st6" d="M59.85,482.87c-1.35,4.4-2.7,8.81-4.06,13.21C57.15,491.68,58.5,487.28,59.85,482.87z"/>
		<path class="st8" d="M279.14,546.12c0-6.74,0-13.47,0-20.21C279.14,532.65,279.14,539.38,279.14,546.12z"/>
		<path class="st6" d="M435.52,685.67c-0.28,3.84-1.1,7.31-5.7,8.14C431.72,691.1,433.62,688.39,435.52,685.67z"/>
		<path class="st6" d="M327.87,331.86c-0.98,3.57-2.86,6.08-6.97,6.02C323.22,335.88,325.55,333.87,327.87,331.86z"/>
		<path class="st8" d="M279.13,616.12c-0.02-5.73-0.04-11.45-0.06-17.18C279.09,604.67,279.11,610.4,279.13,616.12z"/>
		<path class="st6" d="M67.84,461.41c-1.37,3.49-2.75,6.98-4.12,10.47C65.09,468.38,66.47,464.89,67.84,461.41z"/>
		<path class="st6" d="M167.79,93.79c0.16,4.18-2.68,4.9-5.93,5.14C163.83,97.22,165.81,95.5,167.79,93.79z"/>
		<path class="st6" d="M82.74,623.84c-1,3.75-1.99,7.5-2.99,11.26C80.74,631.35,81.74,627.6,82.74,623.84z"/>
		<path class="st8" d="M271.8,743.17c1.8,0.01,3.6,0.02,5.4,0.02C275.4,745.5,273.6,745.47,271.8,743.17z"/>
		<path class="st6" d="M271.87,460.86c-1.69,0.97-3.39,1.93-5.08,2.9C268.48,462.79,270.17,461.83,271.87,460.86z"/>
		<path class="st6" d="M79.81,666.12c0.68,1.99,1.35,3.99,2.03,5.98C81.16,670.1,80.49,668.11,79.81,666.12z"/>
		<path class="st6" d="M84.72,616.82c-0.7,2.33-1.39,4.66-2.09,6.99C83.32,621.48,84.02,619.15,84.72,616.82z"/>
		<path class="st6" d="M176.75,86.75c0.22,3-1.57,3.38-3.93,3.03C174.13,88.77,175.44,87.76,176.75,86.75z"/>
		<path class="st6" d="M439.93,676.96c-0.75,1.61-1.51,3.21-2.26,4.82C438.42,680.17,439.17,678.57,439.93,676.96z"/>
		<path class="st6" d="M81.8,672.14c0.69,1.65,1.39,3.3,2.08,4.95C83.19,675.44,82.49,673.79,81.8,672.14z"/>
		<path class="st6" d="M61.81,477.39c-0.67,1.84-1.35,3.69-2.02,5.53C60.47,481.08,61.14,479.23,61.81,477.39z"/>
		<path class="st6" d="M447.06,709.05c1.08-0.87,2.17-1.73,3.25-2.6C449.22,707.32,448.14,708.18,447.06,709.05z"/>
		<path class="st6" d="M315.91,342.94c-0.99,1-1.98,2-2.98,3C313.93,344.94,314.92,343.94,315.91,342.94z"/>
		<path class="st6" d="M67.94,574.07c1.31,0.84,2.62,1.67,3.93,2.51C70.56,575.75,69.25,574.91,67.94,574.07z"/>
		<path class="st6" d="M408.81,285.8c0.98-1.02,1.95-2.04,2.93-3.06c0.12,0.12,0.24,0.24,0.37,0.36c-0.99,1.01-1.99,2.01-2.98,3.02
			C409.12,286.12,408.81,285.8,408.81,285.8z"/>
		<path class="st6" d="M90.66,687.34c0.75,0.9,1.5,1.81,2.25,2.71C92.16,689.14,91.41,688.24,90.66,687.34z"/>
		<path class="st6" d="M53.85,565.08c1.01,0.69,2.01,1.39,3.02,2.08C55.86,566.47,54.85,565.77,53.85,565.08z"/>
		<path class="st6" d="M415.94,705.97c-1.03,0.63-2.06,1.26-3.08,1.89C413.88,707.23,414.91,706.6,415.94,705.97z"/>
		<path class="st6" d="M172.78,89.78c-0.95,0.72-1.91,1.43-2.86,2.15C170.88,91.21,171.83,90.49,172.78,89.78z"/>
		<path class="st6" d="M182.77,82.74c-0.99,0.67-1.98,1.35-2.97,2.02C180.8,84.08,181.79,83.41,182.77,82.74z"/>
		<path class="st6" d="M56.87,567.13c1.02,0.65,2.04,1.3,3.06,1.96C58.92,568.44,57.89,567.79,56.87,567.13z"/>
		<path class="st6" d="M88.83,685.17c0.58,0.72,1.15,1.45,1.73,2.17C89.98,686.62,89.41,685.89,88.83,685.17z"/>
		<path class="st6" d="M59.94,569.08c1,0.69,1.99,1.37,2.99,2.06C61.93,570.46,60.94,569.77,59.94,569.08z"/>
		<path class="st6" d="M273.78,458.77c-0.64,0.7-1.28,1.4-1.92,2.1C272.5,460.17,273.14,459.47,273.78,458.77z"/>
		<path class="st6" d="M85.86,612.88c-0.41,1.32-0.82,2.63-1.23,3.95C85.03,615.51,85.45,614.2,85.86,612.88z"/>
		<path class="st6" d="M422.79,700.8c-0.71,0.58-1.42,1.17-2.13,1.75C421.36,701.97,422.08,701.39,422.79,700.8z"/>
		<path class="st6" d="M45.97,558.06c0.66,0.66,1.32,1.32,1.98,1.98C47.29,559.38,46.63,558.72,45.97,558.06z"/>
		<path class="st6" d="M49.92,562.07c0.67,0.67,1.34,1.33,2.01,2C51.26,563.41,50.59,562.74,49.92,562.07z"/>
		<path class="st6" d="M272,546c0.63-0.7,1.25-1.41,1.88-2.11c0,0,0.21,0.18,0.21,0.18c-0.65,0.69-1.29,1.39-1.94,2.08L272,546z"/>
		<path class="st6" d="M63.79,471.83c-0.38,1-0.76,2-1.14,3C63.03,473.83,63.41,472.83,63.79,471.83z"/>
		<path class="st6" d="M429.82,693.84c-0.64,0.69-1.28,1.37-1.93,2.06C428.54,695.21,429.18,694.52,429.82,693.84z"/>
		<path class="st6" d="M62.72,474.8c-0.33,0.77-0.66,1.54-0.99,2.31C62.06,476.34,62.39,475.57,62.72,474.8z"/>
		<path class="st8" d="M190.95,366.04c0.34,0.09,0.67,0.18,0.18,0.05c0.41,0.29,0.14,0.1-0.14-0.1
			C191,365.99,190.95,366.04,190.95,366.04z"/>
		<path class="st8" d="M247.02,521.97c-0.1,0.3-0.19,0.6-0.29,0.9c0.1-0.29,0.21-0.59,0.31-0.88
			C247.04,521.98,247.02,521.97,247.02,521.97z"/>
		<path class="st6" d="M99.96,697.06c0.64,0.5,1.29,1,1.93,1.5C101.24,698.06,100.6,697.56,99.96,697.06z"/>
		<path class="st6" d="M249.46,544.5c0.51,0.51,1.02,1.02,1.53,1.53l-0.07,0.1c-0.65-0.33-1.3-0.66-1.95-0.99
			C249.11,544.9,249.27,544.69,249.46,544.5z"/>
		<path class="st6" d="M420.68,702.6c-0.6,0.42-1.21,0.85-1.81,1.27C419.47,703.45,420.08,703.02,420.68,702.6z"/>
		<path class="st6" d="M417.85,704.72c-0.62,0.41-1.24,0.81-1.86,1.22C416.6,705.53,417.22,705.13,417.85,704.72z"/>
		<path class="st6" d="M450.34,706.38c0.53-0.46,1.07-0.91,1.6-1.37C451.4,705.46,450.87,705.92,450.34,706.38z"/>
		<path class="st6" d="M44.82,556.11c0.37,0.64,0.74,1.29,1.12,1.93C45.57,557.39,45.2,556.75,44.82,556.11z"/>
		<path class="st6" d="M250.18,518.26c0.62-0.39,1.24-0.79,1.87-1.18C251.43,517.47,250.8,517.87,250.18,518.26z"/>
		<path class="st6" d="M411.74,708.6c-0.66,0.35-1.32,0.71-1.98,1.06C410.42,709.3,411.08,708.95,411.74,708.6z"/>
		<path class="st6" d="M62.89,571.11c0.68,0.39,1.35,0.77,2.03,1.16C64.24,571.88,63.56,571.49,62.89,571.11z"/>
		<path class="st6" d="M65.9,573.05c0.68,0.34,1.37,0.69,2.05,1.03C67.27,573.74,66.59,573.4,65.9,573.05z"/>
		<path class="st6" d="M179.85,84.74c-0.64,0.39-1.28,0.79-1.92,1.18C178.57,85.53,179.21,85.14,179.85,84.74z"/>
		<path class="st5" d="M142.11,355.95c-0.7-0.34-1.4-0.69-2.1-1.03C140.71,355.26,141.41,355.61,142.11,355.95z"/>
		<path class="st6" d="M269.85,627.18c-0.66-0.34-1.31-0.68-1.97-1.03c0,0,0.2-0.26,0.2-0.26c0.66,0.33,1.33,0.67,1.99,1
			L269.85,627.18z"/>
		<path class="st6" d="M150.5,360.86c-0.76-0.4-1.52-0.79-2.28-1.19C148.98,360.07,149.74,360.46,150.5,360.86z"/>
		<path class="st8" d="M247,457.06c-0.2-0.2-0.39-0.39-0.59-0.59c0.14-0.12,0.29-0.23,0.43-0.35c0.1,0.27,0.2,0.54,0.31,0.81
			C247.15,456.93,247,457.06,247,457.06z"/>
		<path class="st6" d="M83.86,677.08c0.35,0.67,0.7,1.34,1.04,2C84.56,678.41,84.21,677.74,83.86,677.08z"/>
		<path class="st6" d="M274.93,456.93c-0.39,0.65-0.79,1.3-1.18,1.95C274.14,458.22,274.54,457.58,274.93,456.93z"/>
		<path class="st6" d="M84.88,679.06c0.35,0.64,0.71,1.29,1.06,1.93C85.59,680.35,85.24,679.71,84.88,679.06z"/>
		<path class="st6" d="M86.76,682.15c0.39,0.63,0.78,1.26,1.17,1.89C87.54,683.4,87.15,682.78,86.76,682.15z"/>
		<path class="st6" d="M437.69,681.77c-0.38,0.65-0.75,1.29-1.13,1.94C436.94,683.06,437.32,682.42,437.69,681.77z"/>
		<path class="st6" d="M436.58,683.73c-0.34,0.65-0.68,1.29-1.03,1.94C435.89,685.02,436.24,684.38,436.58,683.73z"/>
		<path class="st6" d="M266.83,463.67c-0.61,0.12-1.22,0.23-1.82,0.35C265.62,463.9,266.22,463.78,266.83,463.67z"/>
		<path class="st8" d="M179.09,358.96c-0.38-0.28-0.76-0.56-1.14-0.84C178.33,358.4,178.71,358.68,179.09,358.96z"/>
		<path class="st5" d="M143.59,356.99c-0.53-0.36-1.07-0.72-1.6-1.09C142.52,356.27,143.05,356.63,143.59,356.99z"/>
		<path class="st6" d="M155.82,104.77c-0.36,0.34-0.72,0.69-1.08,1.03C155.1,105.45,155.46,105.11,155.82,104.77z"/>
		<path class="st6" d="M156.8,103.74c-0.34,0.36-0.68,0.73-1.03,1.09C156.11,104.47,156.45,104.1,156.8,103.74z"/>
		<path class="st6" d="M85.99,681.05c0.28,0.38,0.57,0.75,0.85,1.13C86.56,681.81,86.27,681.43,85.99,681.05z"/>
		<path class="st6" d="M157.86,102.79c-0.37,0.34-0.74,0.68-1.11,1.01C157.12,103.47,157.49,103.13,157.86,102.79z"/>
		<path class="st6" d="M158.87,101.8c-0.36,0.36-0.71,0.71-1.07,1.07C158.15,102.51,158.51,102.16,158.87,101.8z"/>
		<path class="st6" d="M87.95,684.06c0.31,0.36,0.63,0.71,0.94,1.07C88.58,684.77,88.27,684.41,87.95,684.06z"/>
		<path class="st6" d="M159.91,100.83c-0.36,0.35-0.73,0.69-1.1,1.04C159.18,101.53,159.54,101.18,159.91,100.83z"/>
		<path class="st6" d="M160.93,99.78c-0.36,0.38-0.72,0.76-1.09,1.14C160.2,100.54,160.56,100.16,160.93,99.78z"/>
		<path class="st6" d="M168.9,92.83c-0.36,0.34-0.73,0.69-1.09,1.03C168.17,93.52,168.53,93.18,168.9,92.83z"/>
		<path class="st6" d="M169.95,91.91c-0.37,0.33-0.74,0.66-1.11,0.99C169.21,92.57,169.58,92.24,169.95,91.91z"/>
		<path class="st6" d="M92.95,690.07c0.33,0.33,0.65,0.66,0.98,1C93.61,690.73,93.28,690.4,92.95,690.07z"/>
		<path class="st6" d="M93.93,691.07c0.33,0.34,0.66,0.67,0.99,1.01C94.6,691.74,94.26,691.4,93.93,691.07z"/>
		<path class="st6" d="M94.92,692.08c0.32,0.35,0.65,0.7,0.98,1.05C95.57,692.78,95.24,692.43,94.92,692.08z"/>
		<path class="st6" d="M95.87,693.11c0.34,0.35,0.67,0.69,1.01,1.04C96.54,693.8,96.21,693.45,95.87,693.11z"/>
		<path class="st6" d="M96.85,694.12c0.35,0.34,0.7,0.68,1.05,1.02C97.55,694.81,97.2,694.47,96.85,694.12z"/>
		<path class="st6" d="M177.95,85.91c-0.39,0.31-0.78,0.61-1.16,0.92C177.17,86.52,177.56,86.22,177.95,85.91z"/>
		<path class="st6" d="M97.86,695.1c0.36,0.33,0.72,0.66,1.07,0.99C98.58,695.76,98.22,695.43,97.86,695.1z"/>
		<path class="st6" d="M98.91,696.07c0.35,0.33,0.69,0.66,1.04,0.98C99.6,696.73,99.26,696.4,98.91,696.07z"/>
		<path class="st6" d="M427.93,695.89c-0.34,0.34-0.69,0.69-1.03,1.03C427.24,696.58,427.58,696.24,427.93,695.89z"/>
		<path class="st6" d="M316.92,341.81c-0.33,0.38-0.66,0.75-0.99,1.13C316.26,342.57,316.59,342.19,316.92,341.81z"/>
		<path class="st6" d="M426.93,696.9c-0.34,0.34-0.69,0.69-1.03,1.03C426.24,697.59,426.59,697.24,426.93,696.9z"/>
		<path class="st6" d="M423.89,699.71c-0.35,0.39-0.71,0.78-1.06,1.17C423.18,700.49,423.53,700.1,423.89,699.71z"/>
		<path class="st6" d="M273.89,543.89c0.27-0.4,0.54-0.79,0.81-1.19c0,0,0.35,0.35,0.35,0.35c-0.32,0.34-0.64,0.68-0.96,1.02
			L273.89,543.89z"/>
		<path class="st6" d="M418.91,703.85c-0.38,0.33-0.76,0.66-1.14,0.98C418.15,704.5,418.53,704.18,418.91,703.85z"/>
		<path class="st6" d="M318.94,339.9c-0.37,0.34-0.74,0.68-1.11,1.02C318.2,340.58,318.57,340.24,318.94,339.9z"/>
		<path class="st6" d="M124.02,462.04c0.33-0.34,0.66-0.68,0.98-1.01C124.68,461.37,124.35,461.71,124.02,462.04z"/>
		<path class="st6" d="M250.99,546.03c0.36,0.3,0.71,0.61,1.07,0.91c0,0-0.16,0.14-0.16,0.14c-0.33-0.32-0.65-0.64-0.98-0.96
			L250.99,546.03z"/>
		<path class="st6" d="M319.93,338.9c-0.34,0.35-0.69,0.69-1.03,1.04C319.25,339.59,319.59,339.25,319.93,338.9z"/>
		<path class="st6" d="M412.91,707.82c-0.4,0.3-0.81,0.6-1.22,0.89C412.1,708.42,412.5,708.12,412.91,707.82z"/>
		<path class="st6" d="M320.92,337.88c-0.34,0.35-0.68,0.7-1.02,1.05C320.24,338.58,320.58,338.23,320.92,337.88z"/>
		<path class="st6" d="M328.94,330.95c-0.36,0.32-0.71,0.64-1.07,0.97C328.23,331.59,328.59,331.27,328.94,330.95z"/>
		<path class="st5" d="M97.98,401.92c-0.35,0.53-0.71,1.06-1.06,1.59C97.28,402.98,97.63,402.45,97.98,401.92z"/>
		<path class="st8" d="M279.05,741.95c0-0.33,0.01-0.65,0.01-0.98c0.09,0.24,0.22,0.47,0.27,0.71
			C279.35,741.75,279.15,741.86,279.05,741.95z"/>
		<path class="st6" d="M47.96,560.04c0.33,0.34,0.66,0.67,0.99,1.01C48.62,560.71,48.29,560.38,47.96,560.04z"/>
		<path class="st6" d="M48.95,561.05c0.33,0.34,0.66,0.68,1,1.03C49.62,561.74,49.28,561.39,48.95,561.05z"/>
		<path class="st6" d="M51.92,564.05c0.36,0.27,0.71,0.53,1.07,0.8C52.64,564.59,52.28,564.32,51.92,564.05z"/>
		<path class="st6" d="M130.16,160.19c0.32-0.37,0.63-0.75,0.95-1.13C130.79,159.44,130.47,159.82,130.16,160.19z"/>
		<path class="st6" d="M152.88,107.54c-0.35,0.45-0.7,0.91-1.05,1.36C152.17,108.45,152.52,108,152.88,107.54z"/>
		<path class="st6" d="M154.83,105.76c-0.42,0.37-0.85,0.75-1.27,1.12C153.98,106.51,154.4,106.13,154.83,105.76z"/>
		<path class="st6" d="M148.24,359.71c-0.39-0.26-0.78-0.51-1.17-0.77C147.46,359.19,147.85,359.45,148.24,359.71z"/>
		<path class="st6" d="M425.93,697.89c-0.41,0.33-0.81,0.67-1.22,1C425.12,698.56,425.53,698.23,425.93,697.89z"/>
		<path class="st1" d="M343.03,656.21c-1,1.64-1.83,3.43-3.05,4.88c-0.89,1.06-2.26,2.27-3.5,2.38c-6.16,0.55-5.87,0.28-6.64-6
			c-1.27-10.4,1.05-19.2,8.62-26.83c4.9-4.94,8.85-10.81,13.35-16.16c1.69-2,3.79-3.52,6.34-1.05
			c13.88,13.43,24.77,28.31,23.88,50.16c-2.57-0.44-5.64-0.09-7.06-1.45c-1.71-1.64-2.03-4.74-3.07-7.51
			c-5.1,2.55-5.82,6.71-5.79,11.37c0.05,6.82-0.02,6.84-6.69,6.93c-4.11,0.05-8.22,0.01-12.32,0.01
			c-0.71-5.89-1.35-11.18-1.98-16.47C344.43,656.39,343.73,656.3,343.03,656.21z M371.07,643.97c-5.3-7.13-9.98-13.41-15.33-20.6
			c-4.67,6.59-8.9,12.55-13.07,18.42c4.75,4.67,5.75,4.56,9.43,0.06c2.19-2.67,4.17-2.65,6.22,0.54c0.84,1.3,2.84,2.46,4.39,2.57
			C365.27,645.14,367.88,644.4,371.07,643.97z"/>
		<path class="st1" d="M301.31,661.67c0.03-0.26-0.03-0.5-0.19-0.71c-0.07-0.33-0.14-0.66-0.21-0.99
			c-3.21-24.99-6.42-49.97-9.63-74.96c0.5-0.13,1-0.27,1.5-0.4c0.39,1.23,0.95,2.44,1.15,3.71c3.35,21.22,6.62,42.45,9.98,63.67
			c1.46,9.19,4.19,17.8,11.78,24.02c4.96,4.07,10.59,6.11,17.03,6.1c17.5-0.04,34.99,0.08,52.49-0.02
			c16.58-0.09,30.61-13.14,30.79-29.97c0.16-15.62-1.14-31.27-2-46.89c-0.32-5.81-1.06-11.61-1.91-17.37
			c-0.2-1.38-1.28-3.18-2.46-3.77c-13.49-6.82-23.4-17.44-32.03-29.5c-4.43-6.19-8.92-12.33-12.53-19.36
			c1.71,1.58,3.61,2.99,5.08,4.76c5.63,6.8,11.19,13.66,16.65,20.59c6.82,8.65,15.21,15.27,24.92,20.44
			c1.78,0.95,3.61,3.49,3.81,5.46c1.9,18.73,3.48,37.48,5.09,56.24c0.72,8.37-0.3,16.51-3.63,24.29c-0.37,0.64-0.74,1.29-1.11,1.93
			c0,0,0-0.03,0.01-0.03c-0.62,0.47-1.43,0.81-1.84,1.42c-7.41,10.84-17.26,16.84-30.78,16.64c-16.29-0.23-32.59-0.12-48.88,0.17
			c-7.37,0.13-13.89-2.04-19.45-6.45c-3.96-3.15-7.13-7.31-10.65-11.01c0-0.25-0.09-0.46-0.26-0.64c-0.46-1.16-0.93-2.32-1.39-3.49
			c0.04-0.28-0.04-0.51-0.25-0.7C302.03,663.77,301.67,662.72,301.31,661.67z"/>
		<path class="st8" d="M304.29,669.65c3.52,3.71,6.69,7.86,10.65,11.01c5.56,4.42,12.07,6.58,19.45,6.45
			c16.29-0.29,32.59-0.4,48.88-0.17c13.52,0.19,23.37-5.8,30.78-16.64c0.42-0.61,1.22-0.95,1.84-1.42
			c-0.25,7.45-4.91,12.46-9.96,16.97c-8.83,7.88-19.16,12.25-31.21,12.15c-12.08-0.1-24.16,0.28-36.23-0.11
			c-17.92-0.57-28.4-10.8-34.24-25.81C303.97,671.39,304.26,670.47,304.29,669.65z"/>
		<path class="st1" d="M362.16,572.89c13.69,13.93,29.05,24.87,49.48,28.86C401.08,607.35,368.41,587.91,362.16,572.89z"/>
		<path class="st8" d="M302.64,665.52c0.46,1.16,0.93,2.32,1.39,3.49C303.57,667.84,303.11,666.68,302.64,665.52z"/>
		<path class="st1" d="M476.28,541.14c-0.05,0.59-0.1,1.17-0.15,1.76c0.18,0.02,0.36,0.04,0.53,0.06c0.07-0.58,0.14-1.16,0.21-1.75
			C476.68,541.18,476.48,541.16,476.28,541.14z"/>
		<path class="st8" d="M301.31,661.67c0.36,1.05,0.72,2.1,1.08,3.15C302.03,663.77,301.67,662.72,301.31,661.67z"/>
		<path class="st8" d="M415.88,668.92c0.37-0.64,0.74-1.29,1.11-1.93C416.62,667.64,416.25,668.28,415.88,668.92z"/>
		<path class="st8" d="M300.91,659.97c0.07,0.33,0.14,0.66,0.21,0.99C301.05,660.63,300.98,660.3,300.91,659.97z"/>
		<path class="st1" d="M108.23,670.68c-4.34-6.32-6.85-13.54-6.29-20.97c1.64-21.73,4.02-43.41,6.26-65.09
			c0.11-1.09,1.48-2.57,2.58-2.97c11.22-4.02,19.83-11.43,27.07-20.59c4.63-5.85,8.99-11.92,13.53-17.84
			c0.76-0.98,1.82-1.73,2.74-2.59c0.38,0.26,0.77,0.51,1.15,0.77c-2.72,4.46-5.3,9.01-8.17,13.37
			c-8.31,12.58-18.58,22.96-32.59,29.31c-1.66,0.75-3.23,3.44-3.43,5.37c-1.85,17.72-3.47,35.47-4.98,53.23
			c-0.78,9.2,0.77,17.87,6.49,25.55c6.86,9.21,15.74,13.96,27.35,13.83c15.16-0.17,30.33-0.03,45.49-0.03
			c16.93,0,29.23-9.23,33.26-25.93c3.2-13.27,5.51-26.75,8.24-40.13c1.83-8.97,3.69-17.94,5.59-26.9c0.3-1.43,0.87-2.8,1.32-4.19
			c0.46,0.09,0.92,0.18,1.38,0.27c0,1.2,0.18,2.43-0.03,3.59c-4.13,23.46-8.25,46.92-12.53,70.35c-0.59,3.24-2.02,6.32-3.07,9.47
			c-0.26,0.43-0.52,0.86-0.78,1.29c0,0-0.01,0-0.01,0c-0.5,0.41-1.11,0.74-1.48,1.25c-7.64,10.64-17.9,15.89-31.08,15.72
			c-12.47-0.16-24.94,0.02-37.41,0.05c-1.66,0-3.33-0.11-4.99,0.02c-11.28,0.86-21.26-2.35-30.04-9.42c0,0-0.27-0.28-0.27-0.27
			c-1.45-1.78-2.9-3.57-4.34-5.35c0,0-0.01,0-0.01,0C108.86,671.46,108.54,671.07,108.23,670.68z"/>
		<path class="st8" d="M113.8,677.48c8.78,7.07,18.76,10.28,30.04,9.42c1.65-0.13,3.32-0.02,4.99-0.02
			c12.47-0.03,24.94-0.21,37.41-0.05c13.18,0.17,23.44-5.08,31.08-15.72c0.37-0.51,0.98-0.84,1.48-1.25
			c-1.5,8.1-6.51,13.96-12.58,18.97c-7.69,6.36-16.55,8.97-26.64,9.43c-14.16,0.65-28.16,0.46-42.05-2.3
			c-9.52-1.9-16.96-7.43-23.29-14.5C113.51,680.64,113.92,678.82,113.8,677.48z"/>
		<path class="st8" d="M109.19,671.86c1.45,1.79,2.89,3.57,4.34,5.35C109.44,677.57,109.26,674.76,109.19,671.86z"/>
		<path class="st8" d="M218.81,669.84c0.26-0.43,0.52-0.86,0.78-1.29C219.33,668.98,219.07,669.41,218.81,669.84z"/>
		<path class="st8" d="M108.23,670.68c0.31,0.39,0.63,0.78,0.94,1.17C108.86,671.46,108.54,671.07,108.23,670.68z"/>
		<path class="st1" d="M305.3,211.32c-1.02-13.26,12.26-30.06,25.69-32.44c15.61-2.77,30.44,5.26,38.31,27.67
			c-3.85-0.64-7.14-1.18-11.27-1.86c0.16-0.19-0.54,0.48-1.09,1.26c-9.23,12.87-25.44,14.71-39.62,3.42
			c-4.63-3.69-6.44-2.96-9.45,0.61C307.31,210.63,306.23,210.85,305.3,211.32z"/>
		<path class="st1" d="M220.64,211.08c-2.5-1.24-5.11-3.63-7.47-3.41c-2.4,0.22-4.41,3.28-6.84,4.65
			c-13.69,7.71-23.88,5.67-36.66-7.04c-3.51,0.33-6.89,0.64-10.45,0.98c4.25-18.57,19.26-30.01,35.26-27.36
			C208.11,181.15,222.03,198.26,220.64,211.08z"/>
		<path class="st1" d="M302.91,256.6c-0.55,8.74-4.94,13.02-10.7,15.51c-10.83,4.7-19.69,0.31-27.63-7.46
			c-6.14,5.66-12.88,9.93-21.69,9.38c-7-0.44-12.56-3.41-15.82-9.67c-0.89-1.72-0.29-4.21-0.38-6.35c1.8,0.78,4.09,1.11,5.33,2.43
			c6.26,6.64,11.49,8.15,18.59,4.86c7.11-3.3,11.66-11.74,10.16-19.42c-0.23-1.17-1.68-2.24-2.79-3.06
			c-2.54-1.87-6.05-3.01-7.61-5.45c-1.89-2.95-3.25-7.09-2.74-10.39c0.32-2.06,4.42-4.87,6.97-5.02c7.2-0.42,14.58-0.32,21.68,0.86
			c6.25,1.04,8.13,6.13,4.81,11.7c-1.69,2.82-4.37,5.8-7.29,6.97c-4.9,1.96-5.19,5.22-4.9,9.45c0.78,11.53,11.22,18.88,21.23,14.5
			c2.75-1.2,4.82-3.93,7.32-5.8C298.77,258.66,300.35,258.01,302.91,256.6z"/>
		<path class="st1" d="M260.92,139.01c0.4-5.25,0.8-10.5,1.27-16.69c5.57,5.14,14.27,6.27,13.81,15.83
			c-1.53-1.58-3.16-3.07-4.55-4.77c-1.52-1.85-2.83-3.89-4.78-6.62c-1.32,7.04-2.45,13.04-3.57,19.04
			c-0.63-0.08-1.26-0.16-1.88-0.24C261.11,143.38,261.02,141.19,260.92,139.01z"/>
		<path class="st1" d="M167.01,243.34c-7.99,4.35-16.54,9.01-25.43,13.85c-3.24-3.28-0.82-5.62,2.1-7.45
			C151.06,245.11,159.26,243.29,167.01,243.34z"/>
		<path class="st5" d="M329.21,252.1c5.32,12.29-0.29,33.11-10.59,37.82C325.59,277.7,330.54,265.71,329.21,252.1z"/>
		<path class="st1" d="M388.46,257.36c-8.77-4.73-16.84-9.08-24.94-13.45c9.08,0.38,17.63,2.55,24.38,9.39
			C388.66,254.07,388.29,255.94,388.46,257.36z"/>
		<path class="st5" d="M206.96,288.04c-2.2-2.09-4.98-3.83-6.5-6.34c-5.24-8.63-5.13-18.11-2.81-27.84c0.2,2.11,0.33,4.23,0.61,6.33
			c0.29,2.13,0.46,4.32,1.14,6.33c2.44,7.19,5.07,14.31,7.63,21.46C207.03,287.98,206.96,288.04,206.96,288.04z"/>
		<path class="st1" d="M278.7,142.16c2.58-2.27,5.08-4.64,7.79-6.74c0.49-0.38,1.86,0.38,2.83,0.61
			c-3.44,3.71-6.88,7.42-10.32,11.12c-0.31-0.22-0.63-0.45-0.94-0.67C278.28,145.04,278.49,143.6,278.7,142.16z"/>
		<path class="st1" d="M251.68,134.64c-1.62-2.17-3.23-4.35-4.7-6.32c4.86-0.64,7.02,1.49,8.88,9.33
			C254.46,136.65,253.07,135.64,251.68,134.64z"/>
		<path class="st5" d="M207.98,290.02c-0.34-0.66-0.68-1.32-1.02-1.98c0,0,0.07-0.06,0.07-0.06c0.33,0.67,0.66,1.34,0.99,2.01
			L207.98,290.02z"/>
		<path class="st5" d="M212,295c0.13,0.07,0.26,0.15,0.39,0.22C212.26,295.14,212.13,295.07,212,295L212,295z"/>
		<path class="st5" d="M212,295c-0.13-0.08-0.26-0.15-0.39-0.23C211.74,294.85,211.87,294.92,212,295C212,295,212,295,212,295z"/>
		<path class="st5" d="M209.01,290.98c0.13,0.08,0.27,0.16,0.4,0.24c-0.14-0.07-0.29-0.14-0.43-0.21
			C208.98,291.01,209.01,290.98,209.01,290.98z"/>
		<path class="st5" d="M208.02,289.98c0.33,0.33,0.66,0.67,0.99,1c0,0-0.03,0.03-0.03,0.03c-0.33-0.33-0.66-0.66-1-0.99
			C207.98,290.02,208.02,289.98,208.02,289.98z"/>
		<path class="st1" d="M333.97,74.07c10.86,0.03,19.2,5.97,27.27,12.08c15.08,11.43,26.54,25.95,34.92,42.9
			c2.33,4.71,4.54,9.49,6.8,14.23c-4.8-6.12-9.64-12.21-14.4-18.35c-13.86-17.89-30.25-33.04-49.15-45.51
			C337.33,78.06,335.77,75.88,333.97,74.07z"/>
		<path class="st1" d="M291.72,77.37c-22.1-3.92-44.08-2.73-65.99,1.29C247.51,71.08,269.47,69.15,291.72,77.37z"/>
		<path class="st3" d="M409.12,286.12c0.99-1.01,1.99-2.01,2.98-3.02c5.75-1.91,1.74,4.93,5.2,5.6c0.79-2.45,1.56-4.86,2.48-7.74
			c3.74,2.59,1.46,5.26,0.76,7.6c-0.65,2.18-1.75,4.23-2.65,6.33c-1.7,1.27-3.29,2.72-5.12,3.76c-1.76,1-4.47,2.72-5.51,2.08
			c-2.25-1.38-4.01-3.82-1.79-7.08C407.02,291.37,407.93,288.65,409.12,286.12z M409.25,298.54c0.61-0.62,1.22-1.24,1.82-1.86
			c-0.95-0.91-1.9-1.83-2.85-2.74c-0.54,0.55-1.08,1.1-1.62,1.65C407.49,296.57,408.37,297.56,409.25,298.54z M413.79,291.99
			c-0.55,0.34-0.92,0.57-1.29,0.8c0.26,0.33,0.48,0.89,0.79,0.94c0.35,0.06,0.78-0.33,1.18-0.52
			C414.27,292.84,414.06,292.48,413.79,291.99z"/>
		<path class="st3" d="M123.02,166.02c-0.83,1.97-1.66,3.94-2.48,5.91c-0.69-0.16-1.37-0.31-2.06-0.47
			c0.17-1.82,0.35-3.63,0.52-5.45c0,0,0.02-0.01,0.02-0.01c1.33,0,2.65-0.01,3.98-0.01C122.98,165.98,123.02,166.02,123.02,166.02z"
			/>
		<path class="st6" d="M122.98,165.98c-1.33,0-2.65,0.01-3.98,0.01c0.98-2.37,1.96-4.74,2.94-7.11c0.54,0.14,1.08,0.28,1.61,0.43
			C123.37,161.53,123.18,163.76,122.98,165.98z"/>
		<path class="st6" d="M131.01,150.01c-0.5,1.28-1,2.57-1.5,3.85c-0.56-0.42-1.11-0.83-1.67-1.25c1.05-0.87,2.1-1.74,3.15-2.61
			L131.01,150.01z"/>
		<path class="st6" d="M130.99,149.99c0.61-0.64,1.23-1.29,1.84-1.93c0.26,0.39,0.52,0.78,0.78,1.16c-0.87,0.26-1.74,0.52-2.61,0.78
			C131.01,150.01,130.99,149.99,130.99,149.99z"/>
		<path class="st6" d="M167.01,118.79c-0.49,0.27-0.85,0.48-1.22,0.68c-0.19-0.4-0.58-0.82-0.52-1.18c0.05-0.31,0.61-0.53,0.94-0.79
			C166.44,117.87,166.67,118.24,167.01,118.79z"/>
		<path class="st6" d="M128,146c0.52,0.32,1.05,0.65,1.57,0.97c-0.2,0.2-0.4,0.4-0.6,0.6C128.65,147.05,128.32,146.53,128,146
			C128,146,128,146,128,146z"/>
		<path class="st6" d="M125.41,157.26c0.12-0.26,0.18-0.67,0.37-0.74c0.19-0.07,0.51,0.19,0.77,0.3c-0.12,0.26-0.17,0.67-0.36,0.74
			C126,157.63,125.68,157.37,125.41,157.26z"/>
		<path class="st6" d="M397,306c1.09-1.46,2.18-2.92,3.28-4.38c0.47,0.44,0.94,0.87,1.41,1.31C402.03,306.2,399.41,305.98,397,306
			L397,306z"/>
		<path class="st6" d="M397,306c-0.44,0.86-0.88,1.73-1.32,2.59c-0.43-0.43-0.85-0.85-1.28-1.28
			C395.27,306.88,396.13,306.44,397,306C397,306,397,306,397,306z"/>
		<path class="st6" d="M349.59,325.26c-0.27,0.1-0.6,0.35-0.78,0.27c-0.19-0.08-0.23-0.49-0.33-0.76c0.27-0.1,0.6-0.35,0.78-0.27
			C349.45,324.59,349.49,325,349.59,325.26z"/>
		<path class="st6" d="M393.41,311.26c0.12-0.26,0.18-0.67,0.37-0.74c0.19-0.07,0.51,0.19,0.77,0.3c-0.12,0.26-0.17,0.67-0.36,0.74
			C394,311.63,393.68,311.37,393.41,311.26z"/>
		<path class="st3" d="M250.91,546.13c0.33,0.32,0.65,0.64,0.98,0.96c4.57,5.64,16.44,5.1,20.26-0.93c0.65-0.69,1.29-1.39,1.94-2.08
			c0.32-0.34,0.64-0.68,0.96-1.02c0.7-0.43,1.4-0.87,2.44-1.52c0,30.02,0,59.75,0,89.35c-2.43-1.3-4.93-2.65-7.43-3.99
			c-0.66-0.33-1.33-0.67-1.99-1c-5.18-4.08-7.51-3.95-20.07,1.28c0-4.27,0-8.39,0-12.5c0-21.45-0.02-42.91,0.05-64.36
			c0.01-1.73,0.6-3.46,0.91-5.19C249.61,545.46,250.26,545.79,250.91,546.13z"/>
		<path class="st3" d="M248.44,657.45c9.97,5.63,19.3,7.05,27.62-3.18c3.14,9.26,1.76,17.68,1.67,26
			c-0.13,11.62-0.35,23.23-0.51,34.85c-0.11,7.97-0.04,15.95-0.44,23.9c-0.05,1.05-2.35,2.79-3.66,2.84
			c-7.32,0.28-14.65,0.27-21.97-0.02c-1.09-0.04-3.01-2.07-3.01-3.2c-0.14-24.81-0.08-49.61-0.03-74.42
			C248.13,662.3,248.3,660.38,248.44,657.45z M268.86,727.97c-0.43-5.06-1.95-7.57-5.62-7.54c-3.42,0.02-5.66,1.94-5.8,5.57
			c-0.15,3.95,2.61,6.31,5.79,6.11C265.44,731.96,267.47,729.07,268.86,727.97z"/>
		<path class="st3" d="M292.53,375.77c1.7-2.8,3.4-5.6,5.07-8.33c2.05,0.51,3.85,0.96,6.51,1.63c-3.49,2.84-6.69,5.46-9.9,8.07
			C293.64,376.68,293.08,376.23,292.53,375.77z"/>
		<path class="st6" d="M371.07,643.97c-3.19,0.43-5.8,1.17-8.36,0.99c-1.55-0.11-3.55-1.27-4.39-2.57
			c-2.05-3.19-4.04-3.21-6.22-0.54c-3.68,4.5-4.68,4.61-9.43-0.06c4.17-5.87,8.4-11.83,13.07-18.42
			C361.09,630.56,365.77,636.84,371.07,643.97z"/>
		<path class="st6" d="M409.25,298.54c-0.88-0.98-1.76-1.97-2.64-2.95c0.54-0.55,1.08-1.1,1.62-1.65c0.95,0.91,1.9,1.83,2.85,2.74
			C410.47,297.3,409.86,297.92,409.25,298.54z"/>
		<path class="st6" d="M413.79,291.99c0.27,0.49,0.48,0.85,0.68,1.22c-0.4,0.19-0.82,0.58-1.18,0.52c-0.31-0.05-0.53-0.61-0.79-0.94
			C412.87,292.56,413.24,292.33,413.79,291.99z"/>
		<path class="st1" d="M268.86,727.97c-1.4,1.1-3.43,4-5.63,4.13c-3.18,0.2-5.94-2.17-5.79-6.11c0.14-3.63,2.38-5.54,5.8-5.57
			C266.91,720.4,268.43,722.91,268.86,727.97z"/>
	</g>
</g>
</svg>
