<?xml version="1.0" encoding="utf-8"?>
<!-- Generator: Adobe Illustrator 25.4.1, SVG Export Plug-In . SVG Version: 6.00 Build 0)  -->
<svg version="1.1" id="Layer_1" xmlns="http://www.w3.org/2000/svg" xmlns:xlink="http://www.w3.org/1999/xlink" x="0px" y="0px"
	 viewBox="0 0 599 767" style="enable-background:new 0 0 599 767;" xml:space="preserve">
<style type="text/css">
	.st0{fill:#2B2E43;}
	.st1{fill:#F97661;}
	.st2{fill:#2A2C3F;}
	.st3{fill:#F77661;}
	.st4{fill:#FCFCFC;}
	.st5{fill:#ECEDEF;}
	.st6{fill:#6C7880;}
	.st7{fill:#DCDEDB;}
</style>
<g>
	<g>
		<path class="st0" d="M72.85,697.89c-2.97,12.76-5.96,25.52-8.89,38.3c-0.4,1.76-0.54,3.58-0.82,5.56c-3.22,0-6.15,0-9.54,0
			c1.73-25.65,8.47-49.83,20.29-72.18c11.74-22.18,25.23-43.43,38.06-65.26c-6.59-13.52-14.11-27.77-20.56-42.5
			c-6.11-13.95-10.28-28.53-8.25-44.17c0.22-1.67-0.64-3.52-1.14-5.25c-2.94-10.13-5.96-20.45-2.8-30.89
			c1.7-5.64,2.32-10.96,2.39-16.79c0.06-5.27,2.08-10.71,4.14-15.7c1.34-3.24,1.48-5.26-0.93-7.95c-6.42-7.18-6.62-7.71-14.52-1.77
			c-11.83,8.9-23.15,18.46-34.68,27.76c-1.26,1.02-2.44,2.13-4,3.51c0.74-5.16,8.52-17.11,17.37-25.19
			c7.46-6.82,15.73-12.74,24.28-19.56c-4.54-6.86-9.42-14.23-14.46-21.86c-19.49,7.34-37.13,18.05-54.05,30.11
			c11.81-18.77,29.17-30.39,48.93-38.35c-22.2-51.05-22.1-102.1-2.81-153.51c0.23-0.62,0.43-1.27,0.74-1.86
			c3.11-5.95,2.75-11.39,0.15-17.9c-11.38-28.52-16.69-58.5-19.66-88.95c-3.22-33.07,0.14-65.52,8.9-97.49
			c1.88-6.87,4.14-8.83,11.36-8.03c16.57,1.83,31.99,7.68,47.04,14.49c30.98,14.02,57.47,34.14,79.69,59.82
			c3.32,3.84,6,4.48,10.94,2.84c47.81-15.88,96.17-18.66,144.95-4.62c3.62,1.04,4.73-0.71,6.35-2.9
			C372.34,55.6,412.94,27.1,462.8,11.81c5.87-1.8,11.93-3.07,17.98-4.17c8.47-1.55,10.84-0.22,14.38,7.78
			c7.86,17.77,12.66,36.45,15.92,55.54c9.95,58.33,3.48,115.14-15.74,170.81c-0.94,2.72-0.24,6.13,0.16,9.15
			c2.1,15.98,5.41,31.88,6.28,47.92c1.35,24.94-4.52,48.96-13.14,72.26c-1.21,3.27-1.02,5.45,1.24,8c3.42,3.86,6.28,8.24,9.83,11.97
			c14.82,15.59,19.56,34.34,17.95,55.23c-0.14,1.75-0.16,3.75,0.52,5.3c9.03,20.58,6.54,40.94-0.7,61.33
			c-5.43,15.29-14.49,28.41-24.33,41.61c7.1,9.08,14.16,18.29,21.42,27.33c22.25,27.72,43.2,56.28,58.16,88.78
			c10.43,22.65,18.27,46.05,21.15,71.29c-3.16,0-6.19,0-8.17,0c-5.03-16.71-8.65-33.44-15.1-49c-7.74-18.69-17.87-36.39-27.05-54.47
			c-0.71-1.4-2.14-2.43-3.24-3.64c-1.48-2.75-2.68-5.71-4.49-8.21c-9.76-13.48-19.6-26.9-29.58-40.22
			c-6.27-8.36-12.84-16.49-19.81-25.4c-38.83,46.17-88.24,75.7-143.5,97.15c1.28,2.54,2.32,4.58,3.35,6.62
			c9.51,18.67,19.21,37.25,28.4,56.07c2.52,5.15,3.84,10.97,5.17,16.61c1.77,7.53-2.26,13.85-5.13,20.34
			c-3.78,2.52-7.25,5.86-11.4,7.4c-8.44,3.13-14.16,0.42-20.34-8.29c-0.06-2.8-0.59-5.68-0.06-8.36c0.59-2.98-0.49-4.2-2.94-5.29
			c-6.38-2.83-12.69-5.83-19.01-8.78c-10.65-4.96-13-10.37-7.98-21.12c3.99-8.56,9.02-16.63,13.51-24.95
			c0.75-1.4,1.96-3.34,1.52-4.46c-2.62-6.55-5.66-12.93-8.61-19.47c-1.52,0.53-2.27,0.85-3.05,1.05
			c-9.61,2.53-19.22,5.05-28.82,7.57c-2.86,0.68-5.73,1.35-8.59,2.03l-0.24,0.14l-0.22-0.17c-5.49,1.06-10.97,2.13-16.46,3.19
			c-0.68,0.13-1.35,0.25-2.03,0.38c-5.5,0.56-10.85-1.75-16.61-0.11c-2.56,0.73-6.02-2.05-9.16-2.91c-2.83-0.78-3.67-2.42-3.08-5.1
			c7.32-0.37,14.64-0.74,22.17-1.13c-1.32-3.85-2.29-6.64-3.25-9.44c0.74-0.37,1.48-0.74,2.22-1.11c1.5,3.29,3,6.58,5.06,11.09
			c19.29-4.52,38.75-9.08,58.55-13.72c-2.2-6.58-3.73-11.85-5.77-16.92c-0.69-1.7-2.4-3.53-4.08-4.2
			c-6.21-2.46-10.11-6.94-12.32-12.98c-2.83-7.73-0.27-16.17,6.14-21.11c6.32-4.87,14.22-4.78,21.31,0.25
			c7,4.96,9.01,12.98,5.78,22.34c-0.55,1.58-1.12,3.8-0.44,5.05c3.25,6,6.81,11.84,10.57,17.53c0.68,1.03,3.26,1.93,4.27,1.45
			c21.2-10.22,42.86-19.66,63.22-31.36c14.95-8.59,28.29-20.04,42.13-30.5c19.14-14.46,35.4-31.8,49.02-51.49
			c12.52-18.1,20.32-37.85,18.36-60.42c-0.28-3.27-1.16-6.53-2.09-9.69c-0.57-1.94-1.89-3.34-3.98-1.21
			c0.02,0.37,0.04,0.74,0.06,1.1l0.03-0.07c-0.34,1.03-0.67,2.06-1.01,3.09l0.06-0.08c-0.37,1-0.74,2.01-1.11,3.01
			c0,0,0.02-0.03,0.02-0.03c-0.33,0.72-0.66,1.45-0.98,2.17c0.07,0.32-0.01,0.59-0.25,0.81c-0.67-0.72-1.33-1.44-2-2.17l-0.05,0.1
			c0.7-2.02,1.41-4.04,2.11-6.06l-0.08,0.09c0.51-2.28,1.02-4.57,1.53-6.85c0.61-9.27,1.91-18.55,1.62-27.79
			c-0.29-9.36-3.89-18.01-9.88-26.56c-0.17,1.82-0.3,2.71-0.34,3.61c-0.43,10.94-2.9,21.4-7.27,31.43
			c-11.45,26.29-29.65,47.11-51.9,64.81c-23.79,18.93-50.45,32.82-77.94,45.31c-30.3,13.77-61.75,23.79-94.7,28.88
			c-2.3,0.37-4.6,0.74-6.9,1.11c-1.38,0.25-2.77,0.49-4.15,0.74c-0.96-1.03-1.92-2.06-2.87-3.09c0.69-0.11,1.37-0.21,2.06-0.32
			c2.97-0.52,5.94-1.04,8.91-1.56c1.01-0.19,2.03-0.39,3.04-0.58c0.33-0.06,0.67-0.12,1-0.18l0.26-0.17l0.28,0.13
			c1.15-0.29,2.29-0.58,3.44-0.88c1.01-0.27,2.02-0.54,3.03-0.81c0.32-0.05,0.64-0.11,0.96-0.16c0.48-0.05,0.96-0.1,1.44-0.15
			c0.85-0.29,1.71-0.59,2.56-0.88c0.27-0.19,0.51-0.48,0.81-0.56c38.48-10.29,74.92-25.53,109.6-45.07
			c26.1-14.7,50.97-31.05,70.54-54.16c17.24-20.35,30.64-42.4,29.27-70.61c-0.34-6.89-2.73-12.52-7.61-17.47
			c-4.62,7.07-9.14,13.97-13.65,20.87c-0.27,0.4-0.54,0.81-0.81,1.21l0.1-0.08c-0.41,0.64-0.81,1.28-1.22,1.92c0,0,0.01,0,0.01,0
			c-2.24,1-4.43,2.15-6.73,2.97c-3.07,1.09-4.52,7.35-9.32,2.98c10.55-11.43,20-23.62,26.16-38.06
			c17.07-40.03,19.76-81.11,9.3-123.27c-1.07-4.3-1.5-9.53-0.05-13.55c12.26-34.22,18.31-69.47,19.02-105.73
			c0.73-37-4.22-73.08-17.47-107.81c-2.48-6.51-2.78-6.78-9.5-4.96c-54.26,14.66-99.57,42.31-130.65,90.45
			c-1.9,2.94-3.52,3.91-7.17,2.59c-31.9-11.5-64.84-12.68-98.13-8.95c-19.27,2.16-37.95,7.01-56.15,13.7
			c-2.71,1-5.17,2.26-7.79-1.18C151.5,82.02,117.03,59.59,76.87,45.44c-8.08-2.85-16.5-4.73-25.34-7.22
			c-17.35,62.2-9.48,121.83,9.47,182.16c4.31-5.95,7.78-10.75,11.26-15.55c1.25,1.56,2.49,3.12,3.74,4.68
			c-0.98,2.44-1.72,5.01-2.96,7.31c-21.44,39.72-29.78,81.95-23.9,126.77c2.28,17.37,6.26,34.32,15.81,49.43
			c2.35,4.32,4.7,8.65,7.05,12.97c4.69,9.29,11.61,16.4,22.25,20.72c-2.81,1.41-4.21,2.11-5.98,3c1.06,1.46,1.75,2.83,2.81,3.79
			c7.76,7.04,15.2,14.53,23.5,20.88c17.17,13.12,36.61,22.33,56.43,30.72c1.53,1.29,3.06,2.59,3.46,2.92
			c0.41,3.05-0.05,5.91,1.05,6.74c8.26,6.34,16.86,12.25,25.28,18.38c2.35,1.71,3.41,3.76,0.24,5.83c-2.02-1.96-4.03-3.93-6.05-5.89
			c-0.37-0.35-0.74-0.69-1.12-1.04l0.08,0.09c-0.38-0.34-0.76-0.69-1.15-1.03l0.1,0.12c-0.64-0.41-1.28-0.82-1.92-1.23l0.01,0.01
			c-0.38-0.32-0.76-0.63-1.14-0.95l0.1,0.08c-0.5-0.35-1-0.7-1.5-1.06c-0.5-0.3-1-0.6-1.5-0.9c-0.62-0.41-1.24-0.81-1.86-1.22
			c-0.38-0.25-0.76-0.5-1.15-0.76c-0.39-0.36-0.77-0.72-1.16-1.08l0.09,0.14c-0.67-0.38-1.35-0.77-2.02-1.15l0.09,0.07
			c-0.67-0.38-1.35-0.75-2.02-1.13l0.05,0.04c-0.4-0.31-0.79-0.62-1.19-0.93l0.06,0.13c-1.31-0.74-2.62-1.48-3.93-2.22l0.07,0.04
			c-0.67-0.36-1.34-0.72-2.01-1.08l0.03,0.02c-0.51-0.32-1.02-0.63-1.53-0.95l-0.27,0.08c0,0-0.19-0.2-0.19-0.2
			c-0.49-0.29-0.98-0.58-1.47-0.87c-26.66-11.62-51.6-26-74.08-47.25c-1.44,5.47-3.28,9.64-3.52,13.9
			c-0.8,14.23,5.1,26.69,11.99,38.52c20.66,35.46,51.18,59.42,88.77,74.87c3.43,1.41,7.15,2.15,11.16,3.33
			c0.34-10.7-2.61-19.74-6.83-28.48l-0.04,0.04c2.3,2.59,5.62,4.82,6.71,7.84c2.28,6.35,3.26,13.15,5.05,19.69
			c0.53,1.95,1.98,3.65,2.59,4.73c-0.74,1.2-2.14,2.44-2.12,3.64c0.09,4.38,0.82,8.74,0.99,13.12c0.13,3.52-0.1,7.07-0.36,10.6
			c-0.14,1.94-0.97,3.85-0.97,5.77c-0.02,14.47,0.12,28.93,0.17,43.4c0.03,10.83,0.01,10.83,10.96,13.14
			c-0.35,1.67-0.69,3.35-1.04,5.02c-1.47-5.23-6.08-2.71-9.62-4.62c0,7.22,0,13.58,0,19.94c-3.79-2.59-4.87-6.09-4.79-10.7
			c0.33-17.96,0.11-35.94,0.35-53.9c0.1-7.75,1.07-15.48,1.17-23.23c0.04-3.01-0.62-6.38-2.05-9c-3.69-6.78-11.97-7.67-16-1.76
			c-2.65,3.9-3.72,8.44-1.37,13.17c0.78,1.57,1.48,3.39,1.48,5.09c-0.05,23.46-0.13,46.92-0.51,70.37
			c-0.05,2.86-1.35,5.99-2.88,8.49c-3.25,5.29-5.08,10.56-1.85,16.39c3.23,5.82,8.12,8.99,14.97,7.92c2.91-0.46,5.7-1.61,8.55-2.44
			c3.67,0.46,6.44,1.89,6.58,6.14c0,0-0.12,0.1-0.12,0.1c-0.62,0.36-1.24,0.72-1.86,1.08c-2.27,2.13-6.14,4-6.54,6.44
			c-1.67,10.33-2.31,20.83-3.33,31.26c-1.42-0.04-2.84-0.08-4.26-0.12c0.9-10.23,1.81-20.47,2.7-30.58
			c-14.47-5.7-17.36-7.17-21.08-12.01c-5.7-7.41-4.92-15.23-0.92-23.1c0.46-0.66,0.92-1.33,1.38-1.99l-0.04,0.06
			c0.32-0.4,0.63-0.79,0.95-1.19l-0.12,0.1c0.42-0.65,0.83-1.29,1.25-1.94c0.24-0.33,0.48-0.66,0.72-0.99
			c0.4-0.49,1.06-0.94,1.16-1.48c0.77-4.3,1.86-8.61,1.96-12.94c0.06-2.48-1.54-5-2.39-7.5c-7.38-4.04-14.75-8.08-22.38-12.26
			c-2.9,9.3-5.5,18.2-8.49,26.96c-1.35,3.96-0.77,7.27,0.94,10.93c3.44,7.36,6.87,14.78,9.56,22.43
			c5.19,14.75,4.12,16.63-10.41,22.82c-5.62,2.4-11.16,4.98-15.76,7.03c-0.33,5.43-0.59,9.68-0.85,13.92
			c-8.46,9.91-20.3,10.39-28.97,0.44c-3.82-4.39-6.13-10.09-9.12-15.2c1.2-6.3,1.47-12.97,3.81-18.83
			c3.5-8.78,8.42-16.99,12.76-25.42c8.98-17.45,17.92-34.92,27.03-52.3c1.73-3.31,0.68-5.14-1.65-7.63
			c-4.08-4.35-7.7-9.15-11.24-13.96c-2.63-3.57-4.83-7.45-7.61-11.8c-1.74,2.3-3.23,4.02-4.45,5.91
			c-5.52,8.53-11.21,16.96-16.37,25.7C88.03,660.99,78.47,678.53,72.85,697.89z M203.62,583.46
			c-54.98-10.47-91.5-43.58-115.96-92.64c0.34,3.04,0.53,5.69,0.94,8.3c1.44,9.2,4.06,18.37,4.17,27.58
			c0.15,11.49,3.13,22.03,7.37,32.32c9.18,22.31,22.23,42.41,36.3,61.88c2.18,3.02,4.68,5.81,7.13,8.83
			c2.69-3.97,0.63-6.58-1.2-9.46c-6.32-9.96-3.02-21.67,7.48-27.1c7.7-3.98,21.31,2,25.01,11.02c1.52,3.72,2.04,7.54-0.72,10.88
			c-2.81,3.41-5.96,6.53-8.91,9.82c-0.83,0.92-1.94,1.95-2.11,3.05c-0.56,3.78-0.89,7.61-1.02,11.43c-0.04,1.14,0.57,2.88,1.43,3.38
			c5.82,3.39,11.78,6.51,19.1,10.48c0-13.81,0.01-25.93-0.03-38.05c0-0.62-0.48-1.23-0.61-1.87c-1.01-4.94-2.61-9.86-2.79-14.83
			c-0.19-5.25,3.35-8.79,8.01-11.08c4.68-2.3,8.72-0.73,12.57,2.01c1.14,0.81,2.22,1.7,3.83,2.93
			C203.62,589.03,203.62,586.44,203.62,583.46z M335.6,694.18c-0.82-0.02-1.65-0.05-2.47-0.07c-4.03,8.68-8.12,17.34-11.99,26.09
			c-0.34,0.77,0.47,2.79,1.27,3.19c9.13,4.52,18.35,8.84,27.56,13.22c0.35-0.4,0.71-0.8,1.06-1.2
			C345.88,721.67,340.74,707.93,335.6,694.18z M125.47,732.95c0.43,0.42,0.86,0.84,1.3,1.26c8.99-3.6,17.99-7.2,27.69-11.08
			c-3.69-9.95-7.13-19.25-10.58-28.55c-0.66,0.04-1.33,0.08-1.99,0.12C136.41,707.44,130.94,720.19,125.47,732.95z M123.39,752.45
			c-1.75-1.45-3.1-2.39-4.24-3.54c-3.85-3.86-6.3-8.48-4.65-13.94c1.97-6.5,4.36-12.91,7.07-19.14c3.92-8.98,8.36-17.74,12.41-26.67
			c0.57-1.25,0.14-2.95,0.17-4.44c-1.34,0.64-3.38,0.92-3.93,1.97c-7.72,14.87-15.7,29.63-22.59,44.88
			c-3.33,7.37,0.24,16.47,6.12,20.56C116.55,754.08,119.54,755.4,123.39,752.45z M344.25,686.42c-0.38,0.55-0.75,1.09-1.13,1.64
			c1.03,2.43,2.12,4.83,3.08,7.28c4.7,12.04,9.5,24.05,14.01,36.17c2.99,8.06,3.27,15.7-5.21,21.06c-0.34,0.22-0.45,0.81-0.66,1.22
			c4.83,3.32,11.54,1.22,13.61-5.38c1.45-4.63,2.13-10.63,0.41-14.92c-6.05-15.06-13.23-29.67-20.17-44.37
			C347.61,687.88,345.6,687.31,344.25,686.42z M156.93,620.11c7.12-0.02,11.12-4.21,11.11-11.63c-0.01-5.52-5.69-10.48-11.78-10.29
			c-6.02,0.2-10.49,5.47-10.41,12.28C145.92,616.93,149.6,620.13,156.93,620.11z M320.16,614.96c0.13-6.14-3.97-10.72-9.8-10.97
			c-6.11-0.26-11.21,4.67-11.26,10.9c-0.04,5.38,5.03,11.66,9.61,11.88C313.84,627.03,320.05,620.62,320.16,614.96z M140.88,678.06
			c3.76-9.84,6.83-19.54,8.14-29.79c-1.55,0.93-2.4,2.1-2.93,3.41c-2.76,6.78-5.3,13.65-8.22,20.36
			C136.57,675.03,137.22,676.7,140.88,678.06z M341.08,677.58c-2.35-5.14-4.34-9.87-6.73-14.38c-0.48-0.91-2.51-1-4.78-1.81
			C335.27,675.91,336.38,677.51,341.08,677.58z"/>
		<path class="st1" d="M374.72,757.79c2.88-6.49,6.9-12.81,5.13-20.34c-1.32-5.64-2.65-11.46-5.17-16.61
			c-9.2-18.82-18.9-37.4-28.4-56.07c-1.04-2.04-2.07-4.09-3.35-6.62c55.26-21.45,104.67-50.98,143.5-97.15
			c6.96,8.91,13.54,17.04,19.81,25.4c9.98,13.31,19.81,26.74,29.58,40.22c1.82,2.51,3.01,5.47,4.49,8.21
			c-6.42,8.04-12.5,16.38-19.33,24.05c-23.19,26.05-48.07,50.28-77.61,69.21c-20.3,13-42.01,22.93-65.28,29.35
			C377.01,757.74,375.84,757.69,374.72,757.79z"/>
		<path class="st2" d="M201.02,518.99c3.17-2.07,2.12-4.12-0.24-5.83c-8.43-6.13-17.02-12.04-25.28-18.38
			c-1.09-0.84-0.63-3.7-1.05-6.74c-0.4-0.34-1.93-1.63-3.46-2.92c21.73,7.2,43.81,12.51,66.89,12.73
			c52.79,0.49,101.33-15.49,147.89-38.59C409.64,447.4,430.73,431.38,450,413c4.8,4.36,6.25-1.89,9.32-2.98
			c2.3-0.82,4.49-1.97,6.73-2.97c-4.19,4.93-8.02,10.23-12.63,14.74c-29.66,29.04-64.7,49.44-103.71,63.02
			c-23.56,8.2-47.6,15.06-71.19,23.19c-30.55,10.53-49.39,31.11-52.66,64.23l-0.3,0.26l0.25,0.3c-0.18,2.44-0.36,4.88-0.54,7.32
			c-0.05,2.88-0.09,5.76-0.14,8.64c-0.48,24.84,0.63,49.59,4.54,74.16c0.41,2.56,0.97,5.09,1.46,7.64c-0.59,2.68,0.25,4.32,3.08,5.1
			c3.14,0.87,6.6,3.65,9.16,2.91c5.76-1.64,11.11,0.67,16.61,0.11c-2.39,0.95-5.9-0.51-6.82,3.56c-5.69,25.18-9.62,50.58-9.59,76.47
			c-1.78,0.07-3.56,0.15-5.35,0.22c1.3-26.45,5.05-52.59,10.68-78.9c-4.85,0-9.35,0.25-13.81-0.08c-3.61-0.26-5.01,0.91-5.37,4.56
			c-2.5,24.81-5.18,49.6-7.8,74.39c-2.35-0.07-4.7-0.15-7.05-0.22c0.72-14,1.45-28,2.22-42.94c-2.35,1.88-3.74,2.99-5.13,4.11
			c-0.14-4.25-2.91-5.68-6.58-6.14c2.16-3.9,4.31-7.8,6.47-11.71c4.3-0.62,6.12-2.76,4.61-7.19c-0.46-1.37-0.41-2.91-0.6-4.37
			c0,0-0.27-0.02-0.27-0.02l-0.04-0.27c0.43-1.57,0.86-3.15,1.3-4.72l-0.25-0.29c0.42-1.9,0.84-3.8,1.27-5.71
			c0.02-0.48,0.04-0.96,0.07-1.44c0.35-1.67,0.69-3.35,1.04-5.02c0,0-0.01,0.01-0.01,0.01c2.8-1.08,2.85-2.41,0.37-3.98
			c0-1.04,0-2.08,0.01-3.12c-0.19-2.94-0.38-5.89-0.57-8.83c-0.16-2.38-0.33-4.77-0.49-7.15c-0.13-6.31-0.27-12.63-0.4-18.94
			c0.06-16.68-0.44-33.38,0.32-50.02C219.24,558.27,215.53,537.21,201.02,518.99z"/>
		<path class="st3" d="M243.59,758.71c-0.04-25.9,3.89-51.29,9.59-76.47c0.92-4.07,4.43-2.61,6.82-3.56
			c0.68-0.13,1.35-0.25,2.03-0.38c5.49-1.06,10.97-2.13,16.46-3.19l0.22,0.17c0,0,0.24-0.14,0.24-0.14
			c2.86-0.68,5.73-1.35,8.59-2.03c9.61-2.52,19.22-5.04,28.82-7.57c0.78-0.21,1.53-0.53,3.05-1.05c2.95,6.54,5.99,12.92,8.61,19.47
			c0.45,1.11-0.77,3.06-1.52,4.46c-4.49,8.33-9.52,16.4-13.51,24.95c-5.02,10.75-2.67,16.15,7.98,21.12
			c6.33,2.95,12.63,5.95,19.01,8.78c2.45,1.09,3.53,2.31,2.94,5.29c-0.53,2.68,0,5.57,0.06,8.36c-30.9,0.94-61.8,1.9-92.71,2.77
			C248.06,759.73,245.82,759.05,243.59,758.71z"/>
		<path class="st3" d="M72.85,697.89c5.63-19.36,15.19-36.89,25.36-54.1c5.17-8.74,10.86-17.17,16.37-25.7
			c1.22-1.89,2.71-3.61,4.45-5.91c2.78,4.35,4.98,8.23,7.61,11.8c3.54,4.81,7.16,9.61,11.24,13.96c2.33,2.49,3.39,4.32,1.65,7.63
			c-9.11,17.38-18.04,34.85-27.03,52.3c-4.34,8.44-9.26,16.65-12.76,25.42c-2.33,5.85-2.61,12.52-3.81,18.83
			c-11.61-10.74-17.35-24.73-21.79-39.43C73.68,701.09,73.28,699.48,72.85,697.89z"/>
		<path class="st3" d="M176.57,692.9c-4,7.87-4.78,15.69,0.92,23.1c3.72,4.83,6.61,6.3,21.08,12.01
			c-0.89,10.12-1.79,20.35-2.7,30.58c-20.61-0.58-41.22-1.16-61.83-1.73c0.26-4.25,0.52-8.5,0.85-13.92
			c4.6-2.06,10.14-4.64,15.76-7.03c14.53-6.19,15.6-8.07,10.41-22.82c-2.69-7.65-6.12-15.07-9.56-22.43
			c-1.72-3.67-2.3-6.98-0.94-10.93c3-8.76,5.59-17.66,8.49-26.96c7.63,4.18,15,8.22,22.38,12.26c-0.24,7.31-0.49,14.62-0.73,21.93
			c-0.24,0.33-0.48,0.66-0.72,0.99c-0.42,0.65-0.83,1.29-1.25,1.94c0,0,0.13-0.1,0.13-0.09c-0.32,0.4-0.63,0.79-0.95,1.19
			c0,0,0.04-0.06,0.04-0.06C177.48,691.57,177.03,692.24,176.57,692.9z"/>
		<path class="st3" d="M221.95,758.89c2.62-24.8,5.3-49.58,7.8-74.39c0.37-3.64,1.77-4.82,5.37-4.56c4.45,0.32,8.95,0.08,13.81,0.08
			c-5.64,26.32-9.39,52.45-10.68,78.9C232.81,758.92,227.38,758.9,221.95,758.89z"/>
		<path class="st3" d="M211.98,719.84c1.39-1.12,2.79-2.23,5.13-4.11c-0.77,14.94-1.49,28.94-2.22,42.94
			c-4.92,0.01-9.85,0.03-14.77,0.04c1.02-10.44,1.66-20.93,3.33-31.26c0.39-2.43,4.26-4.31,6.54-6.44c0.62-0.36,1.24-0.72,1.86-1.08
			L211.98,719.84z"/>
		<path class="st4" d="M450,413c-19.27,18.38-40.36,34.4-64.22,46.24c-46.56,23.1-95.1,39.08-147.89,38.59
			c-23.08-0.21-45.16-5.52-66.89-12.73c-19.82-8.39-39.26-17.59-56.43-30.72c-8.3-6.35-15.74-13.84-23.5-20.88
			c-1.06-0.96-1.75-2.33-2.81-3.79c1.77-0.89,3.17-1.59,5.98-3C83.6,422.4,76.68,415.28,71.99,406c2.52-0.47,5.05-0.94,8.65-1.62
			c-5.3-4.76-9.31-9.59-15.7-11.35c-9.55-15.11-13.54-32.07-15.81-49.43c-5.88-44.82,2.46-87.04,23.9-126.77
			c1.24-2.3,1.99-4.87,2.96-7.31c0.97-1.1,2.08-2.11,2.9-3.32c17.76-26.01,37.44-50.17,64.62-67.1c2.44-1.52,2.64-3.25,1.87-5.89
			c-3.73-12.71-11.27-22.9-20.76-31.79c-16.03-15.01-34.85-25.41-55.2-33.34c-4.44-1.73-6.73-0.87-7.15,3.79
			c-1.38,15.21-3.74,30.43-3.66,45.63c0.13,27.24,5.42,53.86,12.81,80.06c0.65,2.32,0.57,4.84,0.84,7.27
			c-3.47,4.8-6.95,9.59-11.26,15.55c-18.94-60.33-26.82-119.96-9.47-182.16c8.84,2.49,17.26,4.37,25.34,7.22
			c40.17,14.15,74.63,36.57,100.68,70.79c2.62,3.45,5.08,2.18,7.79,1.18c18.2-6.69,36.88-11.55,56.15-13.7
			c33.29-3.72,66.22-2.55,98.13,8.95c3.65,1.32,5.28,0.35,7.17-2.59c31.08-48.14,76.39-75.79,130.65-90.45
			c6.73-1.82,7.02-1.55,9.5,4.96c13.25,34.73,18.2,70.81,17.47,107.81c-0.71,36.25-6.76,71.51-19.02,105.73
			c-1.44,4.02-1.01,9.26,0.05,13.55c10.46,42.16,7.77,83.23-9.3,123.27C470,389.38,460.55,401.57,450,413z M297.97,345.04
			c-0.33-0.34-0.67-0.68-1-1.02c-0.43-0.39-0.87-0.79-1.3-1.18c-0.11,0.23-0.22,0.45-0.34,0.68c0.57,0.14,1.15,0.28,1.72,0.43
			c0.33,0.34,0.66,0.67,0.99,1.01c0.2,0.17,0.41,0.34,0.61,0.51C298.42,345.33,298.2,345.18,297.97,345.04z M178,330
			c-0.12,0.05-0.25,0.08-0.34,0.16c-0.06,0.05-0.05,0.17-0.07,0.26C177.72,330.28,177.86,330.14,178,330
			c0.12-0.05,0.26-0.08,0.35-0.16c0.06-0.05,0.05-0.17,0.07-0.26C178.27,329.71,178.13,329.85,178,330z M293.51,341.52
			c0.44,0.1,0.88,0.19,1.32,0.29c-0.23-0.32-0.45-0.63-0.68-0.95c-1.54-2.97-3.08-5.94-4.62-8.91l0.01-0.02
			c-0.36-13.47,7.06-26.36,18.01-31.32c11.76,20.4,27.55,29.29,46.09,25.94c11.34-2.05,25.66-13.86,27.1-22.7
			c-5.53,5.07-9.81,11.39-17.3,13.6c3.59-5.24,7.84-9.76,10.04-15.11c2.22-5.42,2.41-11.66,3.49-17.56
			c2.34,0.74,5.01,1.66,7.72,2.41c2.55,0.71,5.16,1.23,8.58,2.03c-11.97-15.29-26.32-24.09-44.85-25.97
			c-37.51-3.8-68.91,28.78-62.02,64.6c0.35,0.87,0.7,1.74,1.05,2.61c0.06,0.26,0.19,0.49,0.38,0.68c0.12,0.43,0.23,0.86,0.35,1.29
			C289.95,335.46,291.73,338.49,293.51,341.52z M407.13,418.15c4.47-3.39,9.19-6.5,13.37-10.21c19.51-17.32,31.55-39.22,38.31-64.15
			c1.93-7.12,3.11-14.45,4.64-21.69c-16.98,42.11-44.19,74.58-85.12,94.84c0.11,0.44,0.23,0.88,0.34,1.32
			c11.64-3.86,23.29-7.72,36.05-11.94c-1.58,2.57-2.57,4.37-3.74,6.05c-1.31,1.88-2.76,3.65-4.15,5.48
			c-0.12,0.21-0.23,0.42-0.35,0.63C406.7,418.38,406.92,418.27,407.13,418.15z M115.78,317.24c-4.15-2.94-8.27-5.92-12.46-8.8
			c-0.69-0.47-1.67-0.51-2.52-0.75c0.08,0.85-0.12,1.89,0.3,2.5c5.56,8.11,12.75,13.89,22.62,15.96
			c14.06,2.95,25.42-2.41,35.67-11.32c2.32-2.01,4.53-4.14,7.2-6.58c1.98,4.44,4.17,8.08,5.2,12.03c0.98,3.75,0.75,7.82,1.05,11.87
			c9.12-15.09,1.52-45.19-18.27-59.44c-22.21-15.99-54.45-8.47-69.9,16.78c7.21-2.09,13.76-3.98,20.63-5.97
			c-0.97,12.69,2.25,23.86,11.49,32.86C116.46,316.65,116.12,316.94,115.78,317.24z M464.46,226.89c0.55-0.74,0.9-1.11,1.13-1.54
			c19.48-37.48,23.24-77.77,21.03-119.06c-0.94-17.53-4.07-34.71-9.64-51.4c-2.57-7.7-2.72-7.87-10.4-5.2
			c-28.42,9.86-51.54,27.49-71.58,49.46c-8.11,8.89-13.85,19.08-15.57,31.29c-0.81,5.78,0.2,9.78,5.8,13.25
			c22.77,14.11,41.56,32.73,57.97,53.74C450.55,206.86,457.22,216.82,464.46,226.89z M277.31,325.59c0.3-0.58,0.6-0.89,0.55-1.12
			c-0.31-1.29-0.66-2.57-1.08-3.82c-3.42-10.18-3.87-20.5-1.16-30.87c3.8-14.56,12.28-26.01,24.17-34.98
			c13.98-10.55,29.52-17.39,47.25-17.68c9.07-0.14,18.16,0.98,28.09,1.58c-0.91-0.48-1.67-0.84-2.38-1.27
			c-21.19-12.93-43.79-18.57-68.53-13.31c-20.16,4.29-34.1,15.95-37.49,36.4c-2.08,12.53-0.91,25.75,0.03,38.57
			C267.45,308.66,271.25,317.62,277.31,325.59z M310.74,430.49c-14.22,7.76-29.15,11.45-45.23,9.4
			c-14.5-1.84-27.36-7.18-36.97-18.71c-5.56-6.67-4.55-16.89,0.98-23.3c2.75-3.18,4.25-7.69,5.47-11.85
			c0.72-2.44,1.59-3.6,3.75-5.02c4.21-2.77,8.45-6,11.44-9.98c4.64-6.17,2.73-11.7-4.69-13.85c-16.68-4.84-33.57-4.7-50.33-0.29
			c-5.18,1.36-6.9,5.34-5.59,10.58c1.47,5.9,5.51,9.65,10.28,13c1.55,1.09,2.9,2.99,3.51,4.8c2.32,6.94,6.3,12.38,12.85,15.85
			c0.94,0.5,2.37,1.4,2.37,2.13c0.03,6.66,1.82,13.35-3.27,19.51c-12.29,14.88-36.57,20.85-54.64,12.87
			c-1.64-0.73-3.38-1.22-5.08-1.83c10,8.68,21.05,14.05,34.6,12.49c13.48-1.55,23.49-9.26,32.87-18.54
			c12.31,12.48,26.64,19.67,43.78,20.2C283.92,448.49,298.7,442.67,310.74,430.49z M179.02,327.35c0.49,0.23,0.97,0.46,1.46,0.7
			c1.75-2.49,3.75-4.85,5.2-7.51c5.16-9.52,6.83-19.81,7.59-30.58c0.93-13.08,0.47-25.85-4.24-38.1
			c-5.28-13.74-13.33-25.19-29.31-27.28c-6.14-0.8-12.63-0.45-18.76,0.56c-11.88,1.95-22.43,7.38-32.34,14.46
			c25.73-5.72,46.91,3.01,63.59,21.64C189.86,280.97,191.21,303.71,179.02,327.35z M479.72,326.61
			c-4.33,26.03-15.27,49.32-29.57,71.23C468.7,377.65,477.5,353.44,479.72,326.61z M198.65,155.32
			c10.22-8.8,20.28-17.46,30.63-26.37C215.62,129.97,199.27,144.03,198.65,155.32z M272.89,127.02
			c-14.79,2.13-26.66,12.51-31.26,27.33C252.11,145.19,262.36,136.23,272.89,127.02z M320.71,410.2c-4.47,0-8.48,0-12.66,0
			c0,1.76,0,3.24,0,4.7C318.23,415.63,319.43,415.23,320.71,410.2z M317.65,393.99c-3.85-0.52-7.08-0.96-10.31-1.4
			c-0.32,0.5-0.64,1-0.95,1.5c0.74,1.39,1.35,3.86,2.24,3.96C311.66,398.41,315.26,399.18,317.65,393.99z M157.87,418.09
			c1.89-2.21,4.02-3.88,3.75-4.54c-0.71-1.69-2.49-2.93-3.84-4.35c-1.23,1.27-3.28,2.45-3.43,3.84
			C154.21,414.29,156.15,415.77,157.87,418.09z M295.77,418.19c1.76-2.4,3.69-3.89,3.6-5.25c-0.08-1.34-2.2-2.55-3.43-3.82
			c-1.27,1.42-3.09,2.68-3.59,4.34C292.09,414.37,294.07,415.94,295.77,418.19z M138.52,409.93c-0.04,6.49,4.32,4.76,7.27,4.9
			c0.93,0.04,1.92-1.21,2.88-1.87c-0.89-1.01-1.65-2.69-2.7-2.89C143.65,409.63,141.19,409.93,138.52,409.93z M300.36,397.53
			c0.03-0.59,0.06-1.18,0.08-1.77c-1.31-0.92-2.88-2.8-3.89-2.54c-1.68,0.43-3,2.24-4.46,3.48c1.02,1.07,2.09,3.07,3.04,3.02
			C296.91,399.62,298.62,398.33,300.36,397.53z M158.18,391.3c-1.97,2.44-3.73,3.7-3.89,5.14c-0.11,0.95,2.15,3.09,3.23,3.01
			c1.36-0.1,3.22-1.71,3.66-3.07C161.48,395.44,159.76,393.84,158.18,391.3z M139.38,395.92c0.14,0.69,0.27,1.37,0.41,2.06
			c2.79-0.44,5.58-0.88,8.38-1.32c-0.25-1.19-0.27-3.28-0.79-3.41C144.2,392.46,141.19,392.8,139.38,395.92z M286.25,412.5
			c-2.06-1.51-3.42-3.24-4.33-3.02c-1.44,0.34-2.57,1.98-3.83,3.06c1.11,1.16,2.17,3.19,3.34,3.26
			C282.69,415.87,284.06,414.1,286.25,412.5z M171.42,408.17c-1.53,2.27-3.07,3.56-3.08,4.87c-0.01,1.06,1.81,2.14,2.82,3.21
			c1.19-1.12,2.96-2.07,3.36-3.43C174.78,411.94,173.03,410.47,171.42,408.17z M280.98,392.07c-1.58,2.47-2.86,3.86-3.29,5.48
			c-0.14,0.53,2.51,2.57,2.88,2.33c1.41-0.89,2.72-2.29,3.41-3.81C284.22,395.53,282.59,394.14,280.98,392.07z M175.51,396.99
			c-2.27-1.51-3.59-3.05-4.65-2.89c-1.07,0.16-2.42,1.91-2.64,3.14c-0.15,0.83,1.64,2.89,2.26,2.78
			C171.91,399.75,173.17,398.49,175.51,396.99z"/>
		<path class="st3" d="M504.82,472.99c0.23-0.22,0.32-0.49,0.25-0.81c0.33-0.72,0.66-1.45,0.98-2.17c0,0-0.02,0.03-0.02,0.03
			c0.37-1,0.74-2.01,1.11-3.01c0,0-0.06,0.08-0.06,0.08c0.34-1.03,0.67-2.06,1.01-3.09c0,0-0.03,0.07-0.03,0.07
			c0.1-0.11,0.31-0.25,0.29-0.33c-0.07-0.27-0.23-0.52-0.35-0.78c2.09-2.13,3.4-0.74,3.98,1.21c0.93,3.17,1.81,6.42,2.09,9.69
			c1.96,22.56-5.84,42.32-18.36,60.42c-13.62,19.69-29.88,37.03-49.02,51.49c-13.84,10.46-27.18,21.91-42.13,30.5
			c-20.36,11.7-42.02,21.14-63.22,31.36c-1.01,0.49-3.59-0.42-4.27-1.45c-3.76-5.69-7.32-11.53-10.57-17.53
			c-0.68-1.25-0.11-3.47,0.44-5.05c3.23-9.36,1.22-17.38-5.78-22.34c-7.09-5.02-14.98-5.11-21.31-0.25
			c-6.41,4.93-8.97,13.38-6.14,21.11c2.21,6.04,6.11,10.53,12.32,12.98c1.68,0.67,3.4,2.49,4.08,4.2
			c2.04,5.07,3.57,10.34,5.77,16.92c-19.8,4.64-39.25,9.2-58.55,13.72c-2.06-4.51-3.56-7.8-5.06-11.09
			c-0.81-2.64-1.63-5.27-2.44-7.91c0.12-0.33,0.06-0.63-0.17-0.9c-0.63-2.71-1.26-5.41-1.9-8.12c0.13-0.31,0.09-0.61-0.12-0.87
			c-0.53-4.16-1.17-8.31-1.58-12.49c-1.59-15.95-1.12-31.83,1.86-47.61c0.7-0.23,1.39-0.45,2.09-0.68c1.62-0.22,3.24-0.44,4.85-0.67
			c1.38-0.25,2.77-0.49,4.15-0.74c2.3-0.37,4.6-0.74,6.9-1.11c32.95-5.09,64.4-15.11,94.7-28.88
			c27.49-12.49,54.15-26.38,77.94-45.31c22.24-17.7,40.45-38.52,51.9-64.81c4.37-10.03,6.84-20.49,7.27-31.43
			c0.04-0.9,0.16-1.79,0.34-3.61c5.99,8.56,9.59,17.2,9.88,26.56c0.29,9.24-1.02,18.53-1.62,27.79c-0.51,2.28-1.02,4.57-1.53,6.85
			c0,0,0.08-0.09,0.08-0.09c-0.7,2.02-1.41,4.04-2.11,6.06c0,0,0.05-0.1,0.05-0.1c-7.05,11.42-13.35,23.41-21.31,34.15
			c-18.81,25.37-42.7,45.58-68.18,63.96c-1.24,0.9-2.39,1.93-3.59,2.9c0.23,0.42,0.47,0.85,0.7,1.27c1.36-0.48,2.9-0.71,4.06-1.5
			c4.24-2.85,8.35-5.87,12.51-8.85c19.86-14.22,37.67-30.63,53.1-49.61C490.11,500.85,499.12,487.95,504.82,472.99z M264.86,622.78
			c0.1,0.78,0.21,1.55,0.31,2.33c5.36-0.52,10.73-1.02,16.09-1.64c0.32-0.04,0.87-1.4,0.72-1.55c-0.59-0.59-1.44-1.35-2.16-1.33
			c-2.81,0.1-5.63,0.37-8.41,0.77C269.21,621.7,267.05,622.31,264.86,622.78z M339.04,607.04c0.27,0.87,0.53,1.74,0.8,2.62
			c4.5-1.64,9.02-3.21,13.45-5.02c0.59-0.24,0.7-1.68,1.5-3.83C348.67,603.23,343.85,605.14,339.04,607.04z"/>
		<path class="st3" d="M225.87,572.23c3.27-33.12,22.12-53.7,52.66-64.23c23.59-8.13,47.62-14.99,71.19-23.19
			c39.01-13.58,74.05-33.98,103.71-63.02c4.6-4.51,8.44-9.81,12.63-14.74c0,0-0.01,0-0.01,0c0.41-0.64,0.81-1.28,1.22-1.92
			c0,0-0.1,0.08-0.1,0.08c0.27-0.4,0.54-0.8,0.81-1.21c4.51-6.9,9.02-13.8,13.65-20.87c4.88,4.94,7.27,10.57,7.61,17.47
			c1.37,28.2-12.03,50.26-29.27,70.61c-19.57,23.11-44.44,39.46-70.54,54.16c-34.69,19.53-71.12,34.77-109.6,45.07
			c-0.3,0.08-0.54,0.37-0.81,0.56c-0.85,0.29-1.71,0.59-2.56,0.88c-0.48,0.05-0.96,0.1-1.44,0.15c-0.34-0.1-0.66-0.04-0.96,0.16
			c-1.01,0.27-2.02,0.54-3.03,0.81c-1.15,0.29-2.29,0.58-3.44,0.88c0,0-0.28-0.13-0.28-0.13s-0.26,0.17-0.26,0.17
			c-0.33,0.06-0.67,0.12-1,0.18c-1.01,0.19-2.03,0.39-3.04,0.58c-2.97,0.52-5.94,1.04-8.91,1.56c-0.69,0.11-1.37,0.21-2.06,0.32
			c-0.66,0.17-1.33,0.34-1.99,0.51c-0.4-0.35-0.81-0.71-1.21-1.07c2.67-9.57,5.11-19.27,14.11-25.54
			c-5.13-0.19-8.48,2.56-10.24,6.23c-2.99,6.21-5.08,12.86-7.55,19.32c-0.11,0.53-0.21,1.06-0.32,1.59c-0.67,0.9-1.34,1.8-2,2.7
			c-2.3,0.14-4.6,0.42-6.89,0.37c-3.55-0.07-7.09-0.36-10.64-0.55c0.18-2.44,0.36-4.88,0.54-7.32
			C225.97,572.62,225.99,572.43,225.87,572.23z M380.97,520.49c0.49-0.35,0.97-0.71,1.46-1.06c11.12-6.85,22.51-13.3,33.32-20.62
			c22.28-15.1,41.14-33.71,55.32-56.76c2.79-4.54,4.99-9.45,8.1-15.42c-1.85,0.9-2.21,0.97-2.42,1.19
			c-0.34,0.36-0.62,0.78-0.86,1.22c-17.35,31.96-42.58,56.31-72.93,75.76c-7.11,4.56-14.09,9.33-21.12,14.01
			c-0.41,0.11-0.81,0.23-1.22,0.34c-3.05,1.62-6.1,3.24-9.15,4.85c0.25,0.46,0.51,0.92,0.76,1.38
			C375.14,523.75,378.05,522.12,380.97,520.49z"/>
		<path class="st3" d="M219.34,665.88c0,1.04,0,2.08-0.01,3.12c-0.12,1.33-0.24,2.65-0.37,3.98c0,0,0.01-0.01,0.01-0.01
			c-10.95-2.31-10.92-2.31-10.96-13.14c-0.05-14.47-0.18-28.93-0.17-43.4c0-1.92,0.83-3.83,0.97-5.77c0.26-3.52,0.49-7.07,0.36-10.6
			c-0.17-4.38-0.9-8.74-0.99-13.12c-0.02-1.21,1.38-2.44,2.12-3.64c-0.61-1.08-2.06-2.78-2.59-4.73
			c-1.79-6.54-2.77-13.34-5.05-19.69c-1.09-3.03-4.4-5.25-6.7-7.84c-0.11-0.08-0.21-0.17-0.32-0.25c0.12,0.07,0.24,0.14,0.36,0.21
			c4.22,8.74,7.17,17.78,6.83,28.48c-4.01-1.18-7.72-1.92-11.16-3.33c-37.59-15.45-68.12-39.41-88.77-74.87
			c-6.89-11.83-12.79-24.29-11.99-38.52c0.24-4.26,2.08-8.43,3.52-13.9c22.48,21.26,47.42,35.63,74.08,47.25
			c0.49,0.29,0.98,0.58,1.47,0.87l0.19,0.2c0,0,0.27-0.08,0.27-0.08c0.51,0.32,1.02,0.63,1.53,0.95c0,0-0.03-0.02-0.03-0.02
			c0.67,0.36,1.34,0.72,2.01,1.08c0,0-0.07-0.04-0.07-0.04c1.31,0.74,2.62,1.48,3.93,2.22c0,0-0.06-0.13-0.06-0.13
			c0.4,0.31,0.79,0.62,1.19,0.93c0,0-0.05-0.04-0.05-0.04c0.67,0.38,1.35,0.75,2.02,1.13c0,0-0.09-0.07-0.09-0.07
			c0.67,0.38,1.35,0.77,2.02,1.15c0,0-0.09-0.14-0.08-0.14c0.39,0.36,0.77,0.72,1.16,1.08c0.38,0.25,0.76,0.5,1.15,0.76
			c0.62,0.41,1.24,0.81,1.86,1.22c0.5,0.3,1,0.6,1.5,0.91c0.5,0.35,1,0.7,1.5,1.05c0,0-0.1-0.08-0.1-0.08
			c0.38,0.32,0.76,0.63,1.14,0.95c0,0-0.01-0.01-0.01-0.01c0.64,0.41,1.28,0.82,1.91,1.23c0,0-0.1-0.12-0.1-0.12
			c0.38,0.34,0.76,0.69,1.14,1.03c0,0-0.08-0.09-0.08-0.09c0.37,0.35,0.74,0.69,1.12,1.04c2.02,1.96,4.03,3.93,6.05,5.89
			c14.51,18.22,18.22,39.27,17.18,61.95c-0.76,16.65-0.26,33.35-0.32,50.02c0.13,6.31,0.27,12.63,0.4,18.94
			c0.16,2.38,0.33,4.77,0.49,7.15C218.96,660,219.15,662.94,219.34,665.88z M102.98,481.03c-0.37-1.08-0.75-2.16-1.12-3.24
			c-0.45,0.59-0.53,1.11-0.32,1.44c0.41,0.64,0.99,1.17,1.5,1.74c2.31,4.66,4.61,9.32,6.92,13.98c1.36,2.46,2.56,5.03,4.11,7.36
			c8.56,12.86,19.17,23.88,31.18,33.47c8.41,6.71,17.28,12.85,25.94,19.24c0.37-0.48,0.74-0.96,1.11-1.44
			c-1.44-1.2-2.79-2.53-4.33-3.58c-22.84-15.4-42.97-33.54-57.98-56.92C107.65,489.07,105.32,485.05,102.98,481.03z"/>
		<path class="st1" d="M72.25,204.84c-0.26-2.43-0.18-4.95-0.84-7.27c-7.38-26.2-12.68-52.82-12.81-80.06
			c-0.07-15.21,2.29-30.43,3.66-45.63c0.42-4.66,2.72-5.52,7.15-3.79c20.35,7.93,39.17,18.32,55.2,33.34
			c9.49,8.89,17.03,19.08,20.76,31.79c0.78,2.64,0.57,4.37-1.87,5.89c-27.18,16.93-46.86,41.09-64.62,67.1
			c-0.82,1.2-1.93,2.21-2.9,3.32C74.74,207.96,73.5,206.4,72.25,204.84z"/>
		<path class="st3" d="M203.62,583.46c0,2.98,0,5.57,0,8.9c-1.61-1.24-2.69-2.12-3.83-2.93c-3.85-2.74-7.88-4.31-12.57-2.01
			c-4.66,2.29-8.2,5.82-8.01,11.08c0.18,4.97,1.79,9.89,2.79,14.83c0.13,0.64,0.61,1.24,0.61,1.87c0.04,12.12,0.03,24.24,0.03,38.05
			c-7.32-3.97-13.29-7.1-19.1-10.48c-0.87-0.5-1.47-2.24-1.43-3.38c0.12-3.82,0.46-7.65,1.02-11.43c0.16-1.1,1.28-2.12,2.11-3.05
			c2.95-3.29,6.1-6.42,8.91-9.82c2.76-3.34,2.24-7.17,0.72-10.88c-3.69-9.03-17.31-15-25.01-11.02c-10.5,5.43-13.8,17.14-7.48,27.1
			c1.83,2.88,3.89,5.49,1.2,9.46c-2.45-3.02-4.95-5.81-7.13-8.83c-14.07-19.47-27.12-39.57-36.3-61.88
			c-4.23-10.29-7.22-20.82-7.37-32.32c-0.12-9.21-2.73-18.38-4.17-27.58c-0.41-2.61-0.6-5.25-0.94-8.3
			C112.12,539.88,148.64,572.99,203.62,583.46z M114.95,566.06c-0.11-0.2-0.21-0.39-0.18-0.34c-0.04-0.05,0.1,0.12,0.25,0.28
			c0.1,0.44,0.21,0.88,0.05,0.21C115.46,566.73,115.21,566.4,114.95,566.06z M102.92,548.02c-0.42,0.31-0.85,0.62-1.27,0.93
			c3.66,5,7.33,10,10.99,15c0.34-0.25,0.69-0.5,1.03-0.75C110.09,558.14,106.51,553.08,102.92,548.02z M101.64,546.63
			c-0.27-0.14-0.53-0.31-0.82-0.39c-0.09-0.02-0.24,0.2-0.37,0.31c0.28,0.15,0.56,0.32,0.85,0.43
			C101.38,547,101.53,546.75,101.64,546.63z"/>
		<path class="st5" d="M211.86,702c-2.16,3.9-4.31,7.8-6.47,11.71c-2.85,0.84-5.65,1.99-8.55,2.44c-6.85,1.08-11.73-2.09-14.97-7.92
			c-3.24-5.84-1.4-11.1,1.85-16.39c1.54-2.5,2.84-5.63,2.88-8.49c0.37-23.45,0.46-46.91,0.51-70.37c0-1.7-0.7-3.52-1.48-5.09
			c-2.34-4.73-1.28-9.28,1.37-13.17c4.02-5.91,12.31-5.01,16,1.76c1.42,2.62,2.09,5.99,2.05,9c-0.1,7.75-1.06,15.48-1.17,23.23
			c-0.24,17.97-0.03,35.94-0.35,53.9c-0.08,4.61,1,8.11,4.78,10.69c0.37,0.22,0.75,0.45,1.13,0.68
			C210.25,696.65,211.06,699.33,211.86,702z M193.97,691.69c0.63,0.27,1.25,0.53,1.88,0.8c0.42-1.4,1.21-2.8,1.22-4.2
			c0.13-24.64,0.08-49.27,0.33-73.91c0.03-2.9,1.84-5.74,2.43-8.68c0.37-1.81,0.52-4.01-0.21-5.57c-0.52-1.1-3.01-2.32-4.04-1.94
			c-2.56,0.95-4.8,2.78-7.16,4.26c-0.03,0.47-0.06,0.94-0.1,1.41c5.56,0.24,5.62,3.88,5.63,7.51c0.02,18.48,0.02,36.96,0.02,55.44
			C193.98,675.1,193.97,683.39,193.97,691.69z M187.99,696.87c-0.59,4.75,1.9,10.11,5.6,10.39c2.62,0.2,6.02-1.27,7.95-3.15
			c2.03-1.97,2.35-5.25-0.75-7.54C196.72,701.75,196.72,701.75,187.99,696.87z"/>
		<path class="st3" d="M231.14,670.55c-0.49-2.55-1.05-5.08-1.46-7.64c-3.91-24.57-5.01-49.32-4.54-74.16
			c0.4-1.84,0.79-3.69,1.29-6.03c5.63,0,11.04,0,16.45,0c-0.15,1.47-0.27,2.95-0.46,4.42c-2.63,20.55-1.97,40.9,3.82,60.92
			c0.21,0.48,0.41,0.96,0.62,1.43c1.07,3.5,2.13,6.99,3.2,10.49c0.96,2.79,1.92,5.59,3.25,9.44
			C245.78,669.81,238.46,670.18,231.14,670.55z"/>
		<path class="st3" d="M335.6,694.18c5.14,13.74,10.28,27.49,15.42,41.23c-0.35,0.4-0.71,0.8-1.06,1.2
			c-9.2-4.37-18.43-8.69-27.56-13.22c-0.8-0.39-1.61-2.42-1.27-3.19c3.87-8.75,7.96-17.41,11.99-26.09
			C333.95,694.14,334.78,694.16,335.6,694.18z"/>
		<path class="st2" d="M504.82,472.99c-5.69,14.95-14.71,27.85-24.71,40.16c-15.43,18.98-33.24,35.38-53.1,49.61
			c-4.15,2.97-8.27,6-12.51,8.85c-1.16,0.78-2.7,1.01-4.06,1.5c-0.23-0.42-0.47-0.85-0.7-1.27c1.19-0.97,2.34-2,3.59-2.9
			c25.49-18.39,49.37-38.59,68.18-63.96c7.97-10.74,14.26-22.73,21.31-34.15C503.48,471.55,504.15,472.27,504.82,472.99z"/>
		<path class="st3" d="M125.47,732.95c5.47-12.75,10.94-25.51,16.41-38.26c0.66-0.04,1.33-0.08,1.99-0.12
			c3.45,9.3,6.89,18.61,10.58,28.55c-9.7,3.88-18.69,7.48-27.69,11.08C126.33,733.79,125.9,733.37,125.47,732.95z"/>
		<path class="st3" d="M123.39,752.45c-3.85,2.94-6.84,1.63-9.63-0.32c-5.89-4.09-9.45-13.2-6.12-20.56
			c6.89-15.25,14.88-30.01,22.59-44.88c0.55-1.05,2.58-1.33,3.93-1.97c-0.03,1.49,0.4,3.19-0.17,4.44
			c-4.04,8.93-8.49,17.69-12.41,26.67c-2.72,6.23-5.11,12.64-7.07,19.14c-1.65,5.46,0.8,10.07,4.65,13.94
			C120.29,750.06,121.63,751,123.39,752.45z"/>
		<path class="st3" d="M344.25,686.42c1.35,0.88,3.36,1.46,3.95,2.7c6.94,14.69,14.12,29.3,20.17,44.37
			c1.72,4.29,1.05,10.29-0.41,14.92c-2.07,6.61-8.78,8.7-13.61,5.38c0.21-0.41,0.31-1,0.66-1.22c8.48-5.36,8.2-13,5.21-21.06
			c-4.5-12.12-9.3-24.13-14.01-36.17c-0.96-2.45-2.05-4.86-3.08-7.28C343.5,687.52,343.88,686.97,344.25,686.42z"/>
		<path class="st6" d="M156.93,620.11c-7.33,0.02-11.01-3.18-11.08-9.63c-0.08-6.81,4.39-12.08,10.41-12.28
			c6.09-0.2,11.77,4.76,11.78,10.29C168.05,615.9,164.05,620.09,156.93,620.11z"/>
		<path class="st6" d="M320.16,614.96c-0.12,5.66-6.32,12.07-11.44,11.81c-4.58-0.23-9.66-6.5-9.61-11.88
			c0.05-6.23,5.14-11.15,11.26-10.9C316.19,604.24,320.29,608.83,320.16,614.96z"/>
		<path class="st2" d="M250.06,659.99c-1.07-3.5-2.13-6.99-3.2-10.49c-0.21-0.48-0.41-0.96-0.62-1.43
			c-5.8-20.02-6.45-40.37-3.82-60.92c0.19-1.47,0.31-2.95,0.46-4.42c-0.03-0.81-0.05-1.63-0.08-2.44c0.67-0.9,1.34-1.8,2-2.7
			c1.04,1.13,2.08,2.26,3.12,3.39c-2.98,15.78-3.45,31.66-1.86,47.61c0.42,4.17,1.05,8.32,1.58,12.49c-0.08,0.1-0.25,0.23-0.23,0.28
			c0.08,0.21,0.23,0.39,0.35,0.59c0.63,2.71,1.26,5.41,1.9,8.12c-0.08,0.1-0.25,0.25-0.23,0.31c0.1,0.21,0.26,0.4,0.4,0.59
			c0.81,2.64,1.63,5.27,2.44,7.91C251.55,659.25,250.81,659.62,250.06,659.99z"/>
		<path class="st3" d="M209.44,693.98c-0.38-0.23-0.75-0.46-1.13-0.68c0-6.35,0-12.71,0-19.93c3.54,1.9,8.15-0.61,9.62,4.62
			c-0.02,0.48-0.04,0.96-0.07,1.44c-0.42,1.9-0.84,3.8-1.27,5.7c0,0,0.25,0.29,0.25,0.29c-0.43,1.57-0.86,3.15-1.3,4.72
			c0,0,0.04,0.27,0.04,0.27s0.27,0.02,0.27,0.02c-0.44,2.16-0.88,4.32-1.21,5.95C213.09,695.66,211.27,694.82,209.44,693.98z"/>
		<path class="st3" d="M140.88,678.06c-3.66-1.36-4.31-3.03-3.01-6.02c2.91-6.71,5.45-13.58,8.22-20.36
			c0.53-1.3,1.39-2.48,2.93-3.41C147.71,658.52,144.64,668.22,140.88,678.06z"/>
		<path class="st7" d="M64.94,393.03c6.39,1.76,10.4,6.59,15.7,11.35c-3.6,0.67-6.12,1.15-8.65,1.62
			C69.64,401.68,67.29,397.35,64.94,393.03z"/>
		<path class="st3" d="M341.08,677.58c-4.69-0.08-5.8-1.68-11.51-16.19c2.27,0.81,4.29,0.9,4.78,1.81
			C336.74,667.72,338.72,672.45,341.08,677.58z"/>
		<path class="st2" d="M180.7,686.94c0.24-7.31,0.49-14.62,0.73-21.93c0.85,2.5,2.45,5.02,2.39,7.5c-0.1,4.33-1.19,8.64-1.96,12.94
			C181.76,686,181.1,686.45,180.7,686.94z"/>
		<path class="st2" d="M278.49,675.11c-5.49,1.07-10.98,2.13-16.46,3.19C267.51,677.23,273,676.17,278.49,675.11z"/>
		<path class="st2" d="M250.02,577.06c0.66-0.17,1.33-0.34,1.99-0.51c0.96,1.03,1.92,2.06,2.87,3.09c-1.62,0.22-3.24,0.44-4.85,0.67
			C250.02,579.23,250.02,578.14,250.02,577.06z"/>
		<path class="st2" d="M254.07,576.23c2.97-0.52,5.94-1.04,8.91-1.56C260.01,575.2,257.04,575.71,254.07,576.23z"/>
		<path class="st2" d="M287.54,673.1c-2.86,0.68-5.73,1.35-8.59,2.03C281.81,674.45,284.68,673.78,287.54,673.1z"/>
		<path class="st2" d="M265.94,577.79c-2.3,0.37-4.6,0.74-6.9,1.11C261.34,578.53,263.64,578.16,265.94,577.79z"/>
		<path class="st2" d="M504.81,464.95c0.51-2.28,1.02-4.57,1.53-6.85C505.82,460.39,505.32,462.67,504.81,464.95z"/>
		<path class="st2" d="M502.77,470.93c0.7-2.02,1.41-4.04,2.11-6.06C504.18,466.89,503.47,468.91,502.77,470.93z"/>
		<path class="st2" d="M177.83,501.3c-1.31-0.74-2.62-1.48-3.93-2.22C175.21,499.81,176.52,500.55,177.83,501.3z"/>
		<path class="st2" d="M267.56,573.88c1.15-0.29,2.29-0.58,3.44-0.88C269.85,573.3,268.71,573.59,267.56,573.88z"/>
		<path class="st2" d="M508.09,464.02c-0.34,1.03-0.67,2.06-1.01,3.09C507.42,466.08,507.76,465.05,508.09,464.02z"/>
		<path class="st2" d="M507.14,467.03c-0.37,1-0.74,2.01-1.11,3.01C506.4,469.04,506.77,468.04,507.14,467.03z"/>
		<path class="st2" d="M182.86,504.28c-0.67-0.38-1.35-0.77-2.02-1.15C181.52,503.52,182.19,503.9,182.86,504.28z"/>
		<path class="st2" d="M276.44,571.88c0.85-0.29,1.71-0.59,2.56-0.88C278.15,571.3,277.29,571.59,276.44,571.88z"/>
		<path class="st2" d="M186.95,507.19c-0.62-0.41-1.24-0.81-1.86-1.22C185.71,506.38,186.33,506.78,186.95,507.19z"/>
		<path class="st2" d="M192.89,511.24c-0.64-0.41-1.28-0.82-1.91-1.23C191.62,510.42,192.26,510.83,192.89,511.24z"/>
		<path class="st2" d="M178.73,689.87c0.42-0.65,0.83-1.29,1.25-1.94C179.56,688.58,179.14,689.22,178.73,689.87z"/>
		<path class="st2" d="M176.57,692.9c0.46-0.66,0.92-1.33,1.38-1.99C177.48,691.57,177.03,692.24,176.57,692.9z"/>
		<path class="st2" d="M467.26,405.13c-0.41,0.64-0.81,1.28-1.22,1.92C466.45,406.41,466.85,405.77,467.26,405.13z"/>
		<path class="st2" d="M506.05,470.01c-0.33,0.72-0.66,1.45-0.98,2.17C505.39,471.46,505.72,470.74,506.05,470.01z"/>
		<path class="st2" d="M173.97,499.12c-0.67-0.36-1.34-0.72-2.01-1.08C172.62,498.39,173.29,498.75,173.97,499.12z"/>
		<path class="st2" d="M211.85,719.94c-0.62,0.36-1.24,0.72-1.86,1.08C210.61,720.66,211.23,720.3,211.85,719.94z"/>
		<path class="st2" d="M180.93,503.2c-0.67-0.38-1.35-0.75-2.02-1.13C179.58,502.44,180.26,502.82,180.93,503.2z"/>
		<path class="st2" d="M189.95,509.15c-0.5-0.35-1-0.7-1.5-1.05C188.95,508.45,189.45,508.8,189.95,509.15z"/>
		<path class="st2" d="M183.94,505.22c-0.39-0.36-0.77-0.72-1.16-1.08C183.17,504.5,183.55,504.86,183.94,505.22z"/>
		<path class="st2" d="M274.04,572.2c0.3-0.2,0.62-0.26,0.96-0.16C274.68,572.09,274.36,572.14,274.04,572.2z"/>
		<path class="st2" d="M266.02,574.1c0.33-0.06,0.67-0.12,1-0.18C266.68,573.98,266.35,574.04,266.02,574.1z"/>
		<path class="st2" d="M467.97,404.01c-0.27,0.4-0.54,0.8-0.81,1.21C467.43,404.81,467.7,404.41,467.97,404.01z"/>
		<path class="st2" d="M193.94,512.15c-0.38-0.34-0.76-0.69-1.14-1.03C193.18,511.46,193.56,511.81,193.94,512.15z"/>
		<path class="st2" d="M177.9,690.97c0.32-0.4,0.63-0.79,0.95-1.19C178.54,690.17,178.22,690.57,177.9,690.97z"/>
		<path class="st2" d="M194.97,513.1c-0.37-0.35-0.74-0.69-1.12-1.04C194.23,512.41,194.6,512.76,194.97,513.1z"/>
		<path class="st2" d="M178.96,502.1c-0.4-0.31-0.79-0.62-1.19-0.93C178.17,501.48,178.56,501.79,178.96,502.1z"/>
		<path class="st2" d="M190.99,510.02c-0.38-0.32-0.76-0.63-1.14-0.95C190.23,509.39,190.61,509.7,190.99,510.02z"/>
		<path class="st2" d="M171.98,498.05c-0.51-0.32-1.02-0.63-1.53-0.95C170.96,497.42,171.47,497.73,171.98,498.05z"/>
		<path class="st2" d="M170,496.98c-0.49-0.29-0.98-0.58-1.47-0.87C169.01,496.4,169.51,496.69,170,496.98z"/>
		<path class="st2" d="M508.01,462.98c0.12,0.26,0.28,0.51,0.35,0.78c0.02,0.08-0.19,0.22-0.29,0.33
			C508.05,463.72,508.03,463.35,508.01,462.98z"/>
		<path class="st6" d="M242.81,580.29c0.03,0.81,0.05,1.63,0.08,2.44c-5.41,0-10.82,0-16.45,0c-0.5,2.34-0.9,4.18-1.29,6.03
			c0.05-2.88,0.09-5.76,0.14-8.64c3.55,0.2,7.09,0.49,10.64,0.55C238.21,580.71,240.51,580.43,242.81,580.29z"/>
		<path class="st0" d="M209.44,693.98c1.82,0.84,3.65,1.68,5.22,2.4c0.33-1.63,0.77-3.79,1.21-5.95c0.18,1.46,0.13,3.01,0.6,4.37
			c1.5,4.43-0.31,6.57-4.61,7.19C211.06,699.33,210.25,696.65,209.44,693.98z"/>
		<path class="st0" d="M218.28,649.91c-0.13-6.31-0.26-12.63-0.4-18.94C218.02,637.28,218.15,643.59,218.28,649.91z"/>
		<path class="st0" d="M219.34,665.88c-0.19-2.94-0.38-5.89-0.57-8.83C218.96,660,219.15,662.94,219.34,665.88z"/>
		<path class="st0" d="M218.97,672.98c0.12-1.33,0.24-2.65,0.37-3.98C221.82,670.57,221.77,671.9,218.97,672.98z"/>
		<path class="st0" d="M216.61,685.14c0.42-1.9,0.84-3.8,1.27-5.7C217.45,681.33,217.03,683.23,216.61,685.14z"/>
		<path class="st0" d="M215.56,690.14c0.43-1.57,0.86-3.15,1.3-4.72C216.43,687,216,688.57,215.56,690.14z"/>
		<path class="st6" d="M225.87,572.23c0.12,0.2,0.11,0.39-0.04,0.57c0,0-0.25-0.3-0.25-0.3L225.87,572.23z"/>
		<path class="st1" d="M464.46,226.89c-7.24-10.08-13.91-20.04-21.27-29.46c-16.41-21.01-35.2-39.64-57.97-53.74
			c-5.6-3.47-6.61-7.47-5.8-13.25c1.72-12.2,7.46-22.4,15.57-31.29c20.04-21.97,43.17-39.6,71.58-49.46c7.68-2.67,7.83-2.5,10.4,5.2
			c5.57,16.68,8.7,33.87,9.64,51.4c2.21,41.29-1.55,81.58-21.03,119.06C465.36,225.79,465.01,226.15,464.46,226.89z"/>
		<path class="st2" d="M287.82,331.13c-0.19-0.19-0.32-0.42-0.38-0.68c-0.35-0.87-0.7-1.74-1.05-2.61
			c-6.88-35.82,24.51-68.4,62.02-64.6c18.53,1.88,32.88,10.68,44.85,25.97c-3.42-0.8-6.02-1.32-8.58-2.03
			c-2.71-0.75-5.38-1.67-7.72-2.41c-1.08,5.89-1.27,12.14-3.49,17.56c-2.2,5.36-6.44,9.87-10.04,15.11
			c7.49-2.21,11.77-8.52,17.3-13.6c-1.44,8.84-15.76,20.65-27.1,22.7c-18.53,3.35-34.32-5.53-46.09-25.94
			c-10.95,4.95-18.36,17.85-18.01,31.32C288.98,331.66,288.4,331.4,287.82,331.13z M348.6,288.95c0.13-4.03-2.88-7.66-6.32-7.62
			c-3.28,0.04-6.15,3.38-6.05,7.29c0.1,3.7,1.54,6.52,5.68,6.9C345.4,295.84,348.49,292.72,348.6,288.95z"/>
		<path class="st2" d="M116.8,316.36c-9.24-9-12.46-20.17-11.49-32.86c-6.87,1.99-13.43,3.89-20.63,5.97
			c15.45-25.24,47.69-32.77,69.9-16.78c19.79,14.25,27.39,44.35,18.27,59.44c-0.31-4.05-0.07-8.12-1.05-11.87
			c-1.03-3.95-3.22-7.59-5.2-12.03c-2.66,2.44-4.88,4.57-7.2,6.58c-10.25,8.91-21.61,14.27-35.67,11.32
			c-9.88-2.07-17.07-7.86-22.62-15.96c-0.42-0.61-0.21-1.66-0.3-2.5c0.85,0.24,1.83,0.28,2.52,0.75c4.19,2.88,8.32,5.86,12.46,8.8
			c0.66,0.24,1.32,0.48,1.98,0.72C117.44,317.42,117.12,316.89,116.8,316.36z M146.77,290.35c-0.03-4.72-2.94-8.23-6.34-8.24
			c-3.11-0.01-6.14,3.5-6.23,7.23c-0.1,4.17,2.67,7.05,6.69,6.9C145.03,296.07,146.7,293.63,146.77,290.35z"/>
		<path class="st7" d="M277.31,325.59c-6.06-7.97-9.85-16.93-10.56-26.5c-0.94-12.82-2.11-26.04-0.03-38.57
			c3.39-20.46,17.33-32.12,37.49-36.4c24.74-5.26,47.33,0.38,68.53,13.31c0.71,0.43,1.47,0.79,2.38,1.27
			c-9.93-0.6-19.02-1.73-28.09-1.58c-17.73,0.28-33.27,7.13-47.25,17.68c-11.89,8.97-20.36,20.41-24.17,34.98
			c-2.71,10.38-2.26,20.69,1.16,30.87c0.42,1.25,0.77,2.54,1.08,3.82C277.91,324.69,277.61,325,277.31,325.59z"/>
		<path class="st0" d="M310.74,430.49c-12.04,12.18-26.82,18-43.9,17.47c-17.13-0.53-31.47-7.73-43.78-20.2
			c-9.38,9.28-19.4,16.99-32.87,18.54c-13.54,1.56-24.6-3.81-34.6-12.49c1.7,0.6,3.44,1.1,5.08,1.83
			c18.07,7.99,42.35,2.01,54.64-12.87c5.09-6.17,3.3-12.86,3.27-19.51c0-0.72-1.43-1.63-2.37-2.13c-6.55-3.47-10.53-8.9-12.85-15.85
			c-0.61-1.81-1.96-3.71-3.51-4.8c-4.77-3.35-8.81-7.1-10.28-13c-1.31-5.23,0.42-9.21,5.59-10.58c16.76-4.42,33.66-4.55,50.33,0.29
			c7.42,2.15,9.33,7.68,4.69,13.85c-2.99,3.98-7.23,7.21-11.44,9.98c-2.16,1.42-3.03,2.58-3.75,5.02
			c-1.22,4.16-2.72,8.67-5.47,11.85c-5.54,6.4-6.54,16.63-0.98,23.3c9.61,11.52,22.47,16.86,36.97,18.71
			C281.59,441.94,296.52,438.25,310.74,430.49z M246.36,368.02c0-0.59,0.01-1.18,0.01-1.77c-2.38-1.34-4.6-3.28-7.16-3.93
			c-13.59-3.46-27.32-3.49-40.98-0.46c-1.94,0.43-3.5,2.57-5.23,3.92c1.39,1.42,2.55,3.21,4.2,4.21c6.03,3.68,12.36,6.4,12.5,15.47
			c0.08,5.6,6.58,9.7,11.83,9.37c4.32-0.27,7.4-4.1,7.59-10.66c0.16-5.63,3.02-8.86,7.68-11.16
			C240.02,371.4,243.17,369.68,246.36,368.02z"/>
		<path class="st7" d="M179.02,327.35c12.19-23.64,10.84-46.38-6.82-66.11c-16.67-18.63-37.86-27.36-63.59-21.64
			c9.91-7.08,20.46-12.51,32.34-14.46c6.14-1.01,12.62-1.36,18.76-0.56c15.98,2.09,24.03,13.54,29.31,27.28
			c4.71,12.25,5.18,25.02,4.24,38.1c-0.77,10.77-2.43,21.06-7.59,30.58c-1.44,2.66-3.45,5.01-5.2,7.51
			C179.99,327.81,179.51,327.58,179.02,327.35z"/>
		<path class="st7" d="M406.83,417.85c1.39-1.82,2.85-3.59,4.16-5.47c1.17-1.68,2.16-3.48,3.74-6.05
			c-12.76,4.23-24.4,8.08-36.05,11.94c-0.11-0.44-0.23-0.88-0.34-1.32c40.93-20.26,68.14-52.73,85.12-94.84
			c-1.53,7.23-2.7,14.56-4.64,21.69c-6.77,24.93-18.81,46.83-38.31,64.15c-4.18,3.71-8.9,6.82-13.37,10.21L406.83,417.85z"/>
		<path class="st0" d="M479.72,326.61c-2.22,26.83-11.02,51.03-29.57,71.23C464.45,375.93,475.39,352.65,479.72,326.61z"/>
		<path class="st0" d="M198.65,155.32c0.62-11.3,16.97-25.36,30.63-26.37C218.93,137.86,208.87,146.52,198.65,155.32z"/>
		<path class="st0" d="M272.89,127.02c-10.53,9.21-20.78,18.17-31.26,27.33C246.23,139.52,258.1,129.15,272.89,127.02z"/>
		<path class="st0" d="M320.71,410.2c-1.28,5.03-2.47,5.43-12.66,4.7c0-1.45,0-2.94,0-4.7C312.23,410.2,316.24,410.2,320.71,410.2z"
			/>
		<path class="st0" d="M317.65,393.99c-2.4,5.19-6,4.42-9.02,4.07c-0.89-0.1-1.5-2.58-2.24-3.96c0.32-0.5,0.64-1,0.95-1.5
			C310.58,393.03,313.81,393.47,317.65,393.99z"/>
		<path class="st0" d="M157.87,418.09c-1.72-2.32-3.66-3.8-3.52-5.05c0.15-1.39,2.21-2.57,3.43-3.84c1.35,1.42,3.13,2.66,3.84,4.35
			C161.89,414.22,159.76,415.88,157.87,418.09z"/>
		<path class="st0" d="M295.77,418.19c-1.71-2.25-3.69-3.83-3.42-4.73c0.5-1.66,2.32-2.92,3.59-4.34c1.23,1.27,3.35,2.48,3.43,3.82
			C299.46,414.31,297.53,415.79,295.77,418.19z"/>
		<path class="st0" d="M138.52,409.93c2.67,0,5.13-0.3,7.45,0.14c1.04,0.2,1.81,1.88,2.7,2.89c-0.96,0.66-1.95,1.92-2.88,1.87
			C142.84,414.69,138.49,416.42,138.52,409.93z"/>
		<path class="st0" d="M300.36,397.53c-1.74,0.8-3.45,2.09-5.22,2.19c-0.96,0.05-2.02-1.95-3.04-3.02c1.47-1.23,2.79-3.04,4.46-3.48
			c1.01-0.26,2.57,1.62,3.89,2.54C300.41,396.35,300.38,396.94,300.36,397.53z"/>
		<path class="st0" d="M158.18,391.3c1.58,2.54,3.3,4.13,2.99,5.08c-0.44,1.35-2.3,2.96-3.66,3.07c-1.08,0.08-3.34-2.06-3.23-3.01
			C154.45,395,156.21,393.74,158.18,391.3z"/>
		<path class="st0" d="M139.38,395.92c1.81-3.12,4.82-3.46,8-2.66c0.52,0.13,0.54,2.22,0.79,3.41c-2.79,0.44-5.58,0.88-8.38,1.32
			C139.66,397.29,139.52,396.61,139.38,395.92z"/>
		<path class="st0" d="M286.25,412.5c-2.2,1.6-3.56,3.37-4.82,3.3c-1.17-0.07-2.23-2.09-3.34-3.26c1.26-1.09,2.39-2.72,3.83-3.06
			C282.83,409.26,284.2,410.98,286.25,412.5z"/>
		<path class="st0" d="M171.42,408.17c1.62,2.3,3.36,3.77,3.1,4.65c-0.4,1.35-2.17,2.31-3.36,3.43c-1.01-1.07-2.83-2.15-2.82-3.21
			C168.35,411.73,169.89,410.44,171.42,408.17z"/>
		<path class="st0" d="M280.98,392.07c1.61,2.07,3.24,3.47,3,4.01c-0.69,1.51-2,2.91-3.41,3.81c-0.37,0.23-3.02-1.8-2.88-2.33
			C278.12,395.93,279.4,394.53,280.98,392.07z"/>
		<path class="st0" d="M175.51,396.99c-2.34,1.5-3.59,2.76-5.03,3.02c-0.62,0.11-2.4-1.95-2.26-2.78c0.22-1.23,1.57-2.98,2.64-3.14
			C171.92,393.94,173.23,395.48,175.51,396.99z"/>
		<path class="st6" d="M293.51,341.52c-1.78-3.03-3.56-6.07-5.33-9.1c0.46-0.16,0.91-0.32,1.37-0.48c1.54,2.97,3.08,5.94,4.62,8.91
			C293.93,341.06,293.71,341.29,293.51,341.52z"/>
		<path class="st6" d="M286.4,327.84c0.35,0.87,0.7,1.74,1.05,2.61C287.1,329.58,286.75,328.71,286.4,327.84z"/>
		<path class="st6" d="M297.05,343.95c-0.57-0.14-1.15-0.28-1.72-0.43c0.11-0.23,0.22-0.45,0.34-0.68c0.43,0.39,0.87,0.79,1.3,1.18
			L297.05,343.95z"/>
		<path class="st7" d="M407.13,418.15c-0.22,0.11-0.43,0.22-0.65,0.33c0.12-0.21,0.23-0.42,0.35-0.64
			C406.83,417.85,407.13,418.15,407.13,418.15z"/>
		<path class="st7" d="M178,330c-0.14,0.14-0.28,0.27-0.42,0.41c0.02-0.09,0.02-0.21,0.07-0.26C177.75,330.07,177.88,330.04,178,330
			L178,330z"/>
		<path class="st6" d="M297.97,345.04c0.23,0.14,0.45,0.29,0.68,0.43c-0.2-0.17-0.41-0.34-0.61-0.51
			C298.04,344.96,297.97,345.04,297.97,345.04z"/>
		<path class="st6" d="M296.97,344.02c0.33,0.34,0.67,0.68,1,1.02c0,0,0.07-0.08,0.07-0.08c-0.33-0.34-0.66-0.67-0.99-1.01
			C297.05,343.95,296.97,344.02,296.97,344.02z"/>
		<path class="st6" d="M294.16,340.85c0.23,0.32,0.45,0.63,0.68,0.95c-0.44-0.1-0.88-0.19-1.32-0.28
			C293.71,341.29,293.93,341.06,294.16,340.85z"/>
		<path class="st6" d="M287.82,331.13c0.58,0.26,1.15,0.53,1.73,0.79c0,0-0.01,0.02-0.01,0.02c-0.45,0.16-0.91,0.32-1.37,0.48
			C288.06,331.99,287.94,331.56,287.82,331.13z"/>
		<path class="st7" d="M178,330c0.14-0.14,0.28-0.28,0.41-0.42c-0.02,0.09-0.01,0.21-0.07,0.26C178.25,329.92,178.12,329.95,178,330
			C178,330,178,330,178,330z"/>
		<path class="st2" d="M264.86,622.78c2.18-0.48,4.34-1.09,6.55-1.41c2.78-0.4,5.6-0.68,8.41-0.77c0.73-0.03,1.57,0.73,2.16,1.33
			c0.15,0.15-0.4,1.51-0.72,1.55c-5.35,0.62-10.72,1.11-16.09,1.64C265.07,624.34,264.97,623.56,264.86,622.78z"/>
		<path class="st2" d="M339.04,607.04c4.81-1.9,9.62-3.81,15.76-6.24c-0.8,2.15-0.91,3.59-1.5,3.83c-4.43,1.81-8.96,3.38-13.45,5.02
			C339.58,608.79,339.31,607.91,339.04,607.04z"/>
		<path class="st0" d="M250.02,577.06c0,1.08,0.01,2.16,0.01,3.25c-0.7,0.23-1.39,0.45-2.09,0.68c-1.04-1.13-2.08-2.26-3.12-3.39
			c0.1-0.53,0.21-1.06,0.32-1.59c1.23,0,2.45,0,3.68-0.01C249.21,576.35,249.62,576.71,250.02,577.06z"/>
		<path class="st0" d="M249.84,650.97c-0.14-0.2-0.3-0.38-0.4-0.59c-0.03-0.06,0.15-0.2,0.23-0.31
			C249.9,650.34,249.96,650.64,249.84,650.97z"/>
		<path class="st0" d="M247.77,641.95c-0.12-0.19-0.27-0.38-0.35-0.59c-0.02-0.06,0.15-0.19,0.23-0.28
			C247.87,641.35,247.91,641.64,247.77,641.95z"/>
		<path class="st2" d="M381.83,518.81c7.04-4.68,14.01-9.45,21.12-14.01c30.35-19.45,55.58-43.8,72.93-75.76
			c0.24-0.43,0.52-0.86,0.86-1.22c0.21-0.22,0.56-0.29,2.42-1.19c-3.11,5.96-5.3,10.87-8.1,15.42
			c-14.18,23.05-33.03,41.66-55.32,56.76c-10.8,7.32-22.19,13.77-33.32,20.62C382.22,519.22,382.03,519.02,381.83,518.81z"/>
		<path class="st2" d="M248.81,576c-1.23,0-2.45,0-3.68,0.01c2.47-6.46,4.55-13.11,7.55-19.32c1.77-3.67,5.12-6.42,10.24-6.23
			C253.92,556.73,251.48,566.42,248.81,576z"/>
		<path class="st6" d="M380.97,520.49c-2.91,1.63-5.83,3.26-8.74,4.89c-0.25-0.46-0.51-0.92-0.76-1.38c3.05-1.62,6.1-3.24,9.15-4.85
			C380.74,519.6,380.85,520.04,380.97,520.49z"/>
		<path class="st2" d="M380.97,520.49c-0.12-0.45-0.23-0.9-0.35-1.34c0.4-0.11,0.81-0.23,1.22-0.34c0.19,0.2,0.39,0.41,0.59,0.61
			C381.94,519.78,381.46,520.14,380.97,520.49z"/>
		<path class="st2" d="M109.99,493.09c15,23.38,35.14,41.52,57.98,56.92c1.55,1.04,2.89,2.38,4.33,3.58
			c-0.37,0.48-0.74,0.96-1.11,1.44c-8.66-6.39-17.53-12.53-25.94-19.24c-12.02-9.6-22.63-20.61-31.18-33.47
			c-1.55-2.33-2.75-4.9-4.11-7.36C109.97,494.33,109.98,493.71,109.99,493.09z"/>
		<path class="st0" d="M109.99,493.09c-0.01,0.62-0.02,1.24-0.03,1.86c-2.31-4.66-4.61-9.32-6.92-13.98l-0.06,0.06
			C105.32,485.05,107.65,489.07,109.99,493.09z"/>
		<path class="st0" d="M103.04,480.98c-0.51-0.57-1.09-1.1-1.5-1.74c-0.21-0.33-0.14-0.85,0.32-1.44c0.37,1.08,0.75,2.16,1.12,3.24
			C102.98,481.03,103.04,480.98,103.04,480.98z"/>
		<path class="st0" d="M196.02,550.99c-0.12-0.07-0.24-0.14-0.36-0.21c0.11,0.08,0.21,0.17,0.32,0.25
			C195.98,551.03,196.02,550.99,196.02,550.99z"/>
		<path class="st0" d="M102.92,548.02c3.58,5.06,7.17,10.12,10.75,15.18c-0.34,0.25-0.69,0.5-1.03,0.75c-3.66-5-7.33-10-10.99-15
			C102.07,548.64,102.5,548.33,102.92,548.02z"/>
		<path class="st0" d="M101.64,546.63c-0.11,0.12-0.27,0.37-0.33,0.35c-0.3-0.1-0.57-0.28-0.85-0.43c0.12-0.11,0.28-0.33,0.37-0.31
			C101.11,546.32,101.37,546.49,101.64,546.63z"/>
		<path class="st0" d="M114.95,566.06c0.26,0.33,0.51,0.67,0.12,0.15c0.16,0.67,0.05,0.23-0.05-0.21L114.95,566.06z"/>
		<path class="st0" d="M115.02,566c-0.14-0.17-0.29-0.33-0.25-0.28c-0.03-0.05,0.08,0.14,0.18,0.34
			C114.95,566.06,115.02,566,115.02,566z"/>
		<path class="st0" d="M193.97,691.69c0-8.3,0-16.59,0-24.89c0-18.48,0-36.96-0.02-55.44c0-3.63-0.07-7.26-5.63-7.51
			c0.03-0.47,0.06-0.94,0.1-1.41c2.37-1.48,4.6-3.32,7.16-4.26c1.04-0.38,3.53,0.84,4.04,1.94c0.73,1.57,0.58,3.76,0.21,5.57
			c-0.6,2.95-2.4,5.79-2.43,8.68c-0.25,24.63-0.2,49.27-0.33,73.91c-0.01,1.4-0.8,2.8-1.22,4.2
			C195.23,692.22,194.6,691.96,193.97,691.69z"/>
		<path class="st0" d="M187.99,696.87c8.73,4.87,8.73,4.87,12.8-0.3c3.1,2.3,2.78,5.58,0.75,7.54c-1.94,1.88-5.34,3.35-7.95,3.15
			C189.9,706.98,187.4,701.62,187.99,696.87z"/>
		<path class="st0" d="M246.25,648.07c0.21,0.48,0.41,0.95,0.62,1.43C246.66,649.02,246.46,648.55,246.25,648.07z"/>
		<path class="st5" d="M348.6,288.95c-0.12,3.77-3.2,6.89-6.69,6.56c-4.13-0.38-5.58-3.2-5.68-6.9c-0.1-3.9,2.77-7.25,6.05-7.29
			C345.72,281.29,348.73,284.92,348.6,288.95z"/>
		<path class="st5" d="M146.77,290.35c-0.07,3.28-1.74,5.73-5.88,5.89c-4.02,0.16-6.79-2.73-6.69-6.9c0.09-3.73,3.12-7.24,6.23-7.23
			C143.83,282.12,146.74,285.62,146.77,290.35z"/>
		<path class="st4" d="M116.8,316.36c0.32,0.53,0.64,1.06,0.97,1.59c-0.66-0.24-1.32-0.48-1.98-0.72
			C116.12,316.94,116.46,316.65,116.8,316.36z"/>
		<path class="st3" d="M246.36,368.02c-3.18,1.66-6.34,3.38-9.56,4.97c-4.66,2.3-7.52,5.53-7.68,11.16
			c-0.19,6.57-3.27,10.4-7.59,10.66c-5.25,0.33-11.75-3.78-11.83-9.37c-0.13-9.07-6.47-11.79-12.5-15.47c-1.64-1-2.81-2.78-4.2-4.21
			c1.73-1.35,3.29-3.5,5.23-3.92c13.66-3.03,27.39-2.99,40.98,0.46c2.55,0.65,4.78,2.59,7.16,3.93
			C246.36,366.83,246.36,367.43,246.36,368.02z"/>
	</g>
</g>
</svg>
