<?xml version="1.0" encoding="utf-8"?>
<!-- Generator: Adobe Illustrator 25.4.1, SVG Export Plug-In . SVG Version: 6.00 Build 0)  -->
<svg version="1.1" id="Layer_1" xmlns="http://www.w3.org/2000/svg" xmlns:xlink="http://www.w3.org/1999/xlink" x="0px" y="0px"
	 viewBox="0 0 518 739" style="enable-background:new 0 0 518 739;" xml:space="preserve">
<style type="text/css">
	.st0{fill:#CE3030;}
	.st1{fill:#FAF9F8;}
	.st2{fill:#992A2A;}
	.st3{fill:#F0F0F0;}
	.st4{fill:#E8E8E7;}
	.st5{fill:#C5C1BF;}
	.st6{fill:#96999D;}
	.st7{fill:#66666A;}
	.st8{fill:#1E202D;}
</style>
<g>
	<g>
		<path class="st0" d="M310.99,732.07c-12.67,0.08-25.35,0.17-38.02,0.25c-0.49-0.44-0.99-0.88-1.48-1.32
			c-0.02-1.05-0.03-2.11-0.05-3.16c0.16-1.3,0.47-2.61,0.47-3.91c0.02-31.77,0.02-63.55,0-95.32c0-1.15-0.25-2.29-0.38-3.44
			c0-1.11,0-2.23,0-3.34c0.12-2.87,0.23-5.74,0.35-8.61c-0.2-0.71-0.4-1.43-0.6-2.14c0.03-17.09,0.02-34.18,0.12-51.27
			c0.04-6.61,0.32-13.22,0.49-19.83c0.36-4.71,0.54-9.45,1.17-14.13c0.23-1.66,1.33-4.32,2.45-4.55c3.89-0.81,3.56-3.4,3.42-6.08
			c-0.63-11.91-1.21-23.82-2.01-35.71c-0.25-3.69,1.3-6.08,3.66-8.74c10.17-11.5,23.38-19.03,35.64-27.77
			c2.49-1.78,5.59-2.7,8.41-4.02c0.06,19.8,0.17,39.6,0.06,59.41c-0.01,1.18-1.69,2.35-2.59,3.53c-2.03,2.67-4.86,5.07-5.91,8.08
			c-2.15,6.16,1.11,11.24,4.86,15.92c0.52,0.34,1.03,0.69,1.55,1.03l0.19-0.17c0,0,0.2,0.15,0.2,0.15c1.77,1.21,3.42,2.66,5.33,3.55
			c2.18,1.01,5.03,2.69,6.83,2.03c5.78-2.13,9.35-7.01,10.56-12.88c1.02-4.94-1.43-8.99-5.98-11.5l0.17,0.06
			c-0.31-0.38-0.62-0.76-0.92-1.14l-0.02-0.03c-0.46-0.64-0.93-1.29-1.39-1.93c-1.52-0.99-3.04-1.97-4.56-2.96
			c-0.34-1.77-0.98-3.54-0.99-5.31c-0.07-20.11,0.03-40.22-0.12-60.33c-0.02-3.21,1.3-4.67,3.97-6c9.62-4.79,19.44-9.29,28.56-14.9
			c8.41-5.17,16.28-11.33,23.9-17.64c5.44-4.51,10.06-10,15.05-15.06c14.67,18.64,27.33,38.59,38.12,59.67
			c19.18,37.49,31.8,77.62,46.67,116.86c1.15,3.03-0.46,4.28-2.5,5.61c-13.43,8.7-28.06,14.46-43.67,17.82
			c-1.06-1.29-2.68-2.42-3.1-3.9c-3.11-11.01-6.04-22.07-8.93-33.14c-5.68-21.74-12.76-42.97-23.08-63.01
			c-0.78-1.52-1.64-2.99-2.47-4.48c-0.57,0.17-1.14,0.35-1.72,0.52c0.74,4.25,1.49,8.5,2.22,12.75
			c5.11,29.84,10.17,59.69,15.39,89.51c0.37,2.12,1.85,4.04,2.81,6.06c-0.14,0.64-0.28,1.29-0.42,1.93
			c0.23,1.28,0.46,2.56,0.69,3.83l-0.21-0.12c0.69,3.06,1.38,6.12,2.07,9.18c0,0-0.12-0.16-0.12-0.16c0.35,1.06,0.7,2.12,1.04,3.17
			l-0.09-0.15c0.32,7.11,0.7,14.23,0.93,21.34c0.09,2.77,1.41,4.01,4.05,3.78c3.65-0.32,5.15,1.22,5.08,4.89
			c-0.04,2.11,0.54,4.25,0.92,6.36c1.06,5.91,2.17,11.82,3.25,17.73c0.12,0.71,0.24,1.42,0.36,2.13c-0.21,1.28-0.72,2.59-0.58,3.84
			c1,9.14,2.05,18.28,3.26,27.4c0.4,3,1.32,5.93,2.01,8.89l-0.3,0.23c0.48,2.85,0.96,5.71,1.45,8.56c0.07,0.7,0.14,1.39,0.21,2.09
			c0.27,2.64,0.53,5.27,0.8,7.91c0.05,0.7,0.1,1.4,0.14,2.1c-0.4,2.74,0.13,6.65-1.45,7.93c-1.91,1.54-5.63,0.8-8.55,1.16
			c-0.59,0.07-1.13,0.61-1.69,0.93c-0.98,0-1.96,0-2.94-0.01c-1.72-0.35-3.45-1-5.17-1c-37.23-0.06-74.46-0.06-111.69,0
			C314.44,731.1,312.71,731.73,310.99,732.07z M322.28,690.91l-0.15-0.21c0.4,0.38,0.8,0.76,1.2,1.14c0,0-0.07-0.2-0.07-0.2
			c1,0.73,1.99,1.45,2.99,2.18l0.06-0.07c0.42,1.72,0.32,3.89,1.36,5.08c6.38,7.29,13.95,12.84,23.87,14.1
			c26.91,3.43,54.44-21.91,54.46-49.57c0.02-23.77-2.17-47.35-4.67-70.96c-1.34-12.61-5.53-22.97-14.81-31.39
			c-0.59-2.19,0.28-5.15-3.77-5.12c-25.45,0.19-50.9,0.24-76.35,0.33c-0.79,5.1-2.23,10.19-2.26,15.29
			c-0.22,28.97-0.42,57.94,0.15,86.9c0.13,6.7,2.58,13.66,5.38,19.87c1.36,3.02,3.06,8.24,8.71,7.3l-0.09,0.13
			c0.76,1.06,1.51,2.13,2.27,3.19c0.39,0.02,0.58,0.22,0.56,0.61C321.49,689.97,321.88,690.44,322.28,690.91z"/>
		<path class="st1" d="M422.69,589.08c0.14-0.64,0.28-1.29,0.42-1.93c6.29-1.44,12.58-2.87,18.88-4.31
			c15.61-3.36,30.24-9.11,43.67-17.82c2.04-1.32,3.65-2.58,2.5-5.61c-14.86-39.23-27.48-79.37-46.67-116.86
			c-10.79-21.08-23.45-41.04-38.12-59.67c-1.28-1.96-2.56-3.92-3.84-5.88c2.81-2.98,5.4-6.22,8.47-8.91
			c41.07-35.86,57.28-80.29,45.87-133.99c-6.22-29.29-20.72-54.6-39.08-77.91c-1.55-1.97-2.29-4.59-3.4-6.91
			c9.09-19.16,14.26-39.35,15.24-60.5c0.95-20.4-2.81-40.03-10.57-58.94c-1.69-4.12-3.89-5.32-8.37-4.3
			c-12.2,2.79-23.32,7.79-33.41,15.07c-12.68,9.14-23.65,19.87-30.63,34.15c-2.25,2.06-2.85,0.07-4.03-1.41
			c-3.51-4.38-6.78-9.13-10.98-12.76c-11.93-10.3-25.58-17.94-40.11-23.96c-15.45-6.4-31.3-7.31-47.43-2.99
			c-19.11,5.11-35.8,14.97-51.68,26.45c-5.83,4.21-10.12,9.08-10.48,16.6c-3.66-4.57-7.45-9.05-10.96-13.73
			c-14.36-19.12-33.29-31.24-56.3-37.36c-4.11-1.09-6.03,0.05-7.42,3.96c-5.94,16.61-9.19,33.68-9.73,51.3
			c-0.76,25.05,4.76,48.53,17.23,70.32c-1.55,2.51-2.94,5.13-4.66,7.53c-16.92,23.58-30.97,48.45-36.76,77.37
			c-7.83,39.15-1.58,75.54,21.32,108.44c6.03,8.67,14.05,15.94,21.1,23.9c2.16,2.44,4.14,5.03,6.2,7.56
			c-1.12,1.64-2.24,3.27-3.36,4.91c-10.27,15.52-21.2,30.66-30.65,46.66c-15.88,26.9-26.09,56.4-37.15,85.47
			c-5.61,14.76-10.58,29.77-15.77,44.69c-0.81,2.33-1.65,4.59,1.38,6.46c16.01,9.84,32.96,17.25,51.56,20.56
			c5.8,1.09,11.61,2.18,17.75,3.33c-1.22,6.15-2.3,11.61-3.38,17.04c-1.6,0-2.44,0.12-3.24-0.02c-7.37-1.27-14.74-2.58-22.11-3.88
			c-17.24-5.72-34.45-11.48-49.24-23.08c-1.78,6.42-2.53,11.84,2,16.67c10.61,11.32,23.19,19.7,37.53,25.49
			c1.95,0.9,3.88,1.86,5.86,2.68c4.58,1.89,11.33,2.53,13.2,5.89c2.06,3.7-0.25,9.91-0.87,15c-3.56,29.39-7.19,58.78-10.79,88.16
			c-5.63,0-11.26,0-17.67,0c0.88-7.08,1.64-13.56,2.5-20.02c1.8-13.61,3.55-27.23,5.53-40.82c1.33-9.17,2.92-18.3,4.61-27.41
			c0.5-2.69,0.32-4.34-2.63-5.33c-11.1-3.7-21.67-8.65-30.84-15.95c-8.16-6.5-15.91-13.52-23.57-20.61
			c-5.71-5.29-3.89-12.21-2.16-18.3c4.8-16.89,9.98-33.69,15.53-50.35c5.39-16.19,10.93-32.37,17.31-48.19
			c7.24-17.99,14.47-36.11,23.57-53.18c9.17-17.21,20.56-33.24,31.1-49.71c3.56-5.56,3.2-4.93-1.45-9.63
			c-6.62-6.7-12.84-13.92-18.39-21.53c-12.49-17.11-19.32-36.71-21.94-57.51c-1.71-13.62-2.88-27.58-1.83-41.2
			c1.67-21.7,6.76-42.89,17.24-62.31c5.74-10.64,11.91-21.05,18.18-31.39c2.39-3.94,3.2-7.36,1.7-12.06
			c-4.13-12.94-8.52-25.93-10.93-39.24c-2.55-14.1-3.03-28.45-0.86-42.98c2.33-15.56,6.05-30.55,12.12-45
			c1.4-3.34,2.76-6.77,4.68-9.82c1.61-2.56,3.36-4.36,7.59-3.83c28.04,3.51,50.98,16.71,70.98,35.92c5.35,5.14,6.04,5.06,13.1,0.76
			c8.93-5.43,17.79-11.04,27.07-15.81c17.82-9.18,37.07-12.99,56.93-11.29c16.2,1.39,31.39,7.09,45.24,15.77
			c7.44,4.67,14.51,9.93,21.94,14.61c1.13,0.71,3.78,0.36,4.93-0.53c8.77-6.81,16.87-14.59,26.1-20.66
			c8.09-5.32,17.11-9.56,26.23-12.87c8.47-3.08,17.64-4.24,26.46-6.38c4.22-1.02,6.1,1.5,7.7,4.61
			c9.01,17.56,14.73,36.12,17.14,55.72c2.63,21.41,0.47,42.36-5.89,62.91c-1.77,5.71-3.79,11.34-5.64,17.02
			c-0.94,2.88-0.71,5.17,1.14,8.15c8.84,14.21,18.18,28.26,25.26,43.35c8.03,17.11,12.26,35.47,13.51,54.69
			c1.48,22.93-0.78,44.96-9.13,66.39c-7.27,18.67-17.15,35.6-32,49.32c-3.53,3.26-7.19,6.39-10.87,9.65
			c7.18,10.69,13.89,20.13,20,29.95c5.33,8.57,10.18,17.44,14.86,26.39c4.6,8.8,9.12,17.67,12.93,26.83
			c6.43,15.44,12.5,31.03,18.29,46.72c7.23,19.58,14.41,39.19,20.84,59.03c3.15,9.71,4.71,19.97,6.57,30.05
			c0.32,1.74-0.9,4.47-2.31,5.71c-8.59,7.54-17.24,15.04-26.29,22c-4.4,3.39-9.72,5.59-14.64,8.31c-2.48,1.37-4.92,2.81-7.49,3.98
			c-8.57,3.93-8.97,3.93-7.96,13.01c1.45,12.98,3.62,25.89,5.29,38.85c1.35,10.5,2.42,21.04,3.6,31.56
			c0.35,3.12,0.98,6.27,0.83,9.37c-0.05,1.14-1.92,3.03-3.07,3.12c-4.64,0.34-9.32,0.11-13.98,0.09c-0.37-3.28-0.74-6.57-1.11-9.85
			c-0.05-0.7-0.1-1.4-0.14-2.1c-0.27-2.64-0.53-5.27-0.8-7.91c-0.07-0.7-0.14-1.39-0.21-2.09c-0.48-2.85-0.96-5.71-1.45-8.56
			c0,0,0.3-0.23,0.3-0.23c-1.56-13.37-3.12-26.75-4.68-40.12c-0.12-0.71-0.24-1.42-0.36-2.13c-1.28-10.59-2.56-21.18-3.8-31.47
			c6.64-2.58,13.08-5.08,19.52-7.57c12.9-4.76,24.64-11.48,34.84-20.75c6.69-6.08,7.62-11.59,3.86-19.98
			c-5.61,3.12-11.07,6.63-16.91,9.29c-9.5,4.32-19.25,8.09-28.9,12.09c-7.62,1.43-15.23,2.86-22.85,4.28c0,0,0.09,0.15,0.09,0.15
			c-0.35-1.06-0.7-2.12-1.04-3.17c0,0,0.12,0.16,0.12,0.16c-0.69-3.06-1.38-6.12-2.07-9.18c0,0,0.21,0.12,0.2,0.12
			C423.15,591.63,422.92,590.36,422.69,589.08z"/>
		<path class="st1" d="M271.44,727.84c0.02,1.05,0.03,2.11,0.05,3.16c0,0.59,0,1.18,0,1.77c-5.36-0.02-10.71-0.03-16.07-0.05
			c0.06-2.53,0.13-5.05,0.19-7.58c0.09-0.99,0.26-1.98,0.27-2.97c0.01-49.29,0.01-98.58-0.01-147.87c0-1.49-0.19-2.98-0.29-4.46
			c0-0.9,0-1.79,0-2.69c0-2.77,0-5.54,0.01-8.32c0-2.22-0.01-4.44-0.01-6.66c-0.14-10.39-0.29-20.79-0.43-31.18
			c0.57-0.03,1.14-0.06,1.71-0.09c0.4,0.02,0.8,0.04,1.2,0.06c4.72,0.51,9.45,1.14,13.6-2.07c0.07,7.02,0.15,14.04,0.22,21.07
			c-0.17,6.61-0.45,13.22-0.49,19.83c-0.1,17.09-0.08,34.18-0.12,51.26c0.02,0.61,0.03,1.22,0.05,1.82c0.07,2.98,0.13,5.95,0.2,8.93
			c0,1.11,0,2.23,0,3.34c-0.11,18.28-0.3,36.55-0.32,54.83C271.18,695.95,271.35,711.89,271.44,727.84z"/>
		<path class="st2" d="M255.61,725.15c-0.06,2.53-0.13,5.05-0.19,7.58c0,0-0.33,0.08-0.33,0.08c-2.38,0.02-4.76,0.05-7.15,0.07
			c-3.96-0.03-7.92-0.06-11.88-0.09c-0.38,0-0.75,0-1.13,0c-3.94-0.01-7.89-0.01-11.83-0.02c-3.07,0-6.14,0-9.2,0
			c-1.93-0.01-3.86-0.02-5.79-0.02c-13.09-0.01-26.17-0.02-39.26-0.02c-3.25,0.02-6.5,0.04-9.75,0.05c-8.06,0-16.13,0.01-24.19,0.01
			c-4.94,0-9.87-0.01-14.81-0.01c-2.73,0.01-5.46,0.01-8.19,0.02c-10.93-0.12-21.87-0.21-32.8-0.36c-2.48-0.03-4.95-0.27-7.42-0.42
			c3.6-29.39,7.23-58.77,10.79-88.16c0.62-5.09,2.92-11.3,0.87-15c-1.87-3.37-8.62-4-13.2-5.89c-1.98-0.82-3.91-1.79-5.86-2.68
			c1.37-0.69,3.56-1.06,3.97-2.12c2.16-5.56,3.87-11.29,5.74-16.96c7.37,1.3,14.73,2.61,22.11,3.88c0.8,0.14,1.64,0.02,3.24,0.02
			c1.08-5.44,2.16-10.89,3.38-17.04c-6.14-1.15-11.94-2.24-17.75-3.33c1.25-3.43,2.62-6.83,3.73-10.31
			c5.79-18.2,10.99-36.6,17.42-54.56c4.3-12.01,10.27-23.42,15.57-35.06c0.45-0.99,1.45-1.73,3.12-3.66
			c-0.11,2.52-0.02,3.5-0.22,4.41c-4.16,18.4-8.96,36.68-12.4,55.21c-5.25,28.31-9.53,56.8-14.28,85.2
			c-1.01,6.05-2.06,6.81-7.97,5.44c-3.61-0.84-4.77,0.39-5.06,3.89c-0.49,5.93-1.34,11.83-2.14,17.73
			c-1.9,14.09-3.94,28.15-5.77,42.25c-1.28,9.84-2.13,19.73-3.53,29.55c-0.84,5.89-0.85,6.22,5.24,6.22
			c56.96,0.01,113.92,0.02,170.88,0.01c1.62,0,3.25-0.13,4.94-0.21C254.93,728.67,255.27,726.91,255.61,725.15z"/>
		<path class="st2" d="M310.99,732.07c1.73-0.34,3.45-0.98,5.18-0.98c37.23-0.06,74.46-0.06,111.69,0c1.72,0,3.45,0.65,5.17,1
			c-1.15,0.11-2.3,0.33-3.44,0.33c-38.39,0.01-76.77,0-115.16-0.03C313.28,732.39,312.14,732.19,310.99,732.07z"/>
		<path class="st1" d="M168.85,732.72c13.09,0.01,26.17,0.02,39.26,0.02c-1.18,0.42-2.36,1.19-3.54,1.2
			c-10.73,0.09-21.45,0.09-32.18,0C171.21,733.93,170.03,733.14,168.85,732.72z"/>
		<path class="st2" d="M447.66,722.08c0.37,3.28,0.74,6.57,1.11,9.85c-4.26,0.05-8.53,0.11-12.79,0.16c0.56-0.32,1.1-0.86,1.69-0.93
			c2.92-0.35,6.64,0.39,8.55-1.16C447.79,728.74,447.25,724.83,447.66,722.08z"/>
		<path class="st1" d="M134.91,732.78c8.06,0,16.13-0.01,24.19-0.01c-2.03,0.41-4.08,1.21-6.09,1.15
			C146.97,733.72,140.94,733.19,134.91,732.78z"/>
		<path class="st1" d="M213.9,732.77c3.07,0,6.14,0,9.2,0C220.03,732.76,216.97,732.76,213.9,732.77z"/>
		<path class="st1" d="M111.91,732.79c2.73-0.01,5.46-0.01,8.19-0.02C117.37,732.78,114.64,732.78,111.91,732.79z"/>
		<path class="st1" d="M247.94,732.87c2.38-0.02,4.76-0.05,7.15-0.07C252.71,732.82,250.32,732.85,247.94,732.87z"/>
		<path class="st2" d="M271.48,732.77c0-0.59,0-1.18,0-1.77c0.49,0.44,0.99,0.88,1.48,1.32
			C272.47,732.47,271.98,732.62,271.48,732.77z"/>
		<path class="st1" d="M234.94,732.78c0.38,0,0.75,0,1.13,0C235.69,732.78,235.31,732.78,234.94,732.78z"/>
		<path class="st2" d="M386.52,561c9.28,8.42,13.48,18.78,14.81,31.39c2.5,23.62,4.69,47.19,4.67,70.96
			c-0.02,27.66-27.56,53-54.46,49.57c-9.93-1.26-17.5-6.81-23.87-14.1c-1.04-1.18-0.93-3.36-1.36-5.08
			c31.81,16.83,59.88-7.72,61.17-31.92c0.78-14.54-0.07-29.17-0.18-43.76c0.04-5.99,0.08-11.98,0.12-17.97
			c-0.03-3.69-0.07-7.37-0.1-11.06c-0.12-1.7-0.23-3.41-0.44-6.44c-3.05,6.05-5.34,10.6-7.63,15.14c-1.11,1.12-2.29,2.19-3.32,3.38
			c-2.72,3.12-5.09,6.6-8.11,9.38c-7.32,6.73-13.35,7.8-19.63,3.96c-3.25-1.99-6.66-3.83-9.59-6.23
			c-8.29-6.77-16.64-13.51-24.39-20.87c-2.71-2.57-3.73-6.92-5.52-10.46c-0.48,3.39,0.16,6.48,0.23,9.59
			c0.42,18.93,0.75,37.87,1.04,56.8c0.1,6.65-0.53,13.37,0.21,19.95c0.57,5.1,0,10.95,4.81,14.83c1.13,2.5,2.27,5,3.4,7.51
			c-5.65,0.94-7.35-4.29-8.71-7.3c-2.8-6.2-5.25-13.17-5.38-19.87c-0.57-28.96-0.36-57.93-0.15-86.9c0.04-5.1,1.47-10.19,2.26-15.29
			c-0.84,10.15,2.09,19.22,9.24,26.31c6.34,6.29,13.57,11.67,20.41,17.46c6.33,4.89,13.72,5,21.47,0.31
			c1.19-0.67,2.39-1.35,3.58-2.02c0.66-0.41,1.33-0.82,1.99-1.24C376.73,588.82,388.35,579.29,386.52,561z"/>
		<path class="st1" d="M386.52,561c1.83,18.28-9.79,27.82-23.43,36.03c-0.66,0.41-1.33,0.82-1.99,1.24
			c-1.19,0.67-2.39,1.35-3.58,2.02c-0.54-2.15-1.08-4.3-1.62-6.45c0.08-1.65,0.16-3.29,0.23-4.94c0.2-4.51-2.68-7.4-6.23-8.54
			c-2.56-0.82-6.38-0.34-8.63,1.12c-3.41,2.21-3.92,6.25-2.53,10.22c0.38,1.08,0.88,2.12,1.33,3.18c-1.34,1.7-2.67,3.4-4.01,5.09
			c-6.84-5.78-14.07-11.17-20.41-17.46c-7.15-7.09-10.08-16.16-9.24-26.31c25.45-0.09,50.9-0.14,76.35-0.33
			C386.8,555.86,385.93,558.82,386.52,561z"/>
		<path class="st3" d="M318.36,685.58c-1.13-2.5-2.27-5-3.4-7.51c0.61-4.06,2.89-4.37,5.87-2.42c3.05,2,5.88,4.36,8.95,6.33
			c18.07,11.61,39.17,4.12,45.65-16.32c1.14-3.59,1.72-7.47,1.85-11.24c0.45-12.46,0.57-24.94,0.82-37.4
			c0.45,0.18,1.05,0.24,1.32,0.57c1.46,1.74,2.85,3.55,4.26,5.33c1.2-1.61,2.41-3.22,3.61-4.84c0.12,14.59,0.96,29.22,0.18,43.76
			c-1.3,24.19-29.37,48.74-61.17,31.92c0,0-0.06,0.07-0.06,0.07c-1-0.73-1.99-1.45-2.99-2.18c0,0,0.07,0.2,0.07,0.2
			c-0.4-0.38-0.8-0.76-1.2-1.14c0,0,0.15,0.21,0.15,0.21c-0.39-0.47-0.79-0.94-1.18-1.41c0.02-0.39-0.17-0.59-0.56-0.61
			c-0.76-1.06-1.51-2.13-2.27-3.19L318.36,685.58z"/>
		<path class="st2" d="M441.99,582.84c-6.29,1.44-12.58,2.87-18.88,4.31c-0.96-2.01-2.44-3.94-2.81-6.06
			c-5.22-29.82-10.28-59.67-15.39-89.51c-0.73-4.25-1.48-8.5-2.22-12.75c0.57-0.17,1.14-0.35,1.72-0.52
			c0.82,1.49,1.69,2.96,2.47,4.48c10.32,20.04,17.4,41.27,23.08,63.01c2.89,11.07,5.82,22.13,8.93,33.14
			C439.31,580.41,440.93,581.54,441.99,582.84z"/>
		<path class="st2" d="M271.88,539.98c-0.07-7.02-0.15-14.04-0.22-21.06c0.13-1.58,0.26-3.17,0.39-4.75c0-0.4,0.01-0.8,0.01-1.2
			l-0.05,0.11c0.55-1.64,1.55-3.28,1.56-4.93c0.11-13.47,0.16-26.94-0.06-40.4c-0.1-6.08-0.91-6.53-7.25-6.42
			c-0.71-0.74-1.42-1.48-2.13-2.23c0.69-2.03,1.38-4.06,2.07-6.09c1.23-0.46,2.59-0.71,3.65-1.41c2.05-1.35,3.75-3.31,5.9-4.41
			c14.23-7.24,28.48-14.47,42.9-21.31c2.88-1.36,4.4-3,5.1-5.81c0.28,6.31,0.57,12.62,0.85,18.92c-2.82,1.32-5.92,2.24-8.41,4.02
			c-12.27,8.75-25.47,16.27-35.64,27.77c-2.35,2.66-3.9,5.05-3.66,8.74c0.8,11.9,1.38,23.81,2.01,35.71
			c0.14,2.67,0.48,5.27-3.42,6.08c-1.11,0.23-2.22,2.89-2.45,4.55C272.42,530.52,272.24,535.26,271.88,539.98z"/>
		<path class="st2" d="M399.54,377c1.28,1.96,2.56,3.92,3.84,5.88c-4.99,5.06-9.61,10.55-15.05,15.06
			c-7.62,6.32-15.49,12.47-23.9,17.64c-9.13,5.61-18.95,10.11-28.56,14.9c-2.67,1.33-4,2.78-3.97,6
			c0.15,20.11,0.05,40.22,0.12,60.33c0.01,1.77,0.64,3.54,0.99,5.31c-0.81-1.73-1.61-3.46-2.42-5.2
			c-0.06-5.01-0.13-10.01-0.19-15.02c-0.04-14.76-0.07-29.51-0.11-44.27c0-0.77,0-1.54,0-2.3c0-0.56-0.01-1.12-0.01-1.67
			c0.7-6.89-1.68-14.07,2-20.67c2.22-0.49,4.59-0.64,6.65-1.52c7.78-3.32,15.55-6.68,23.14-10.39
			C375.48,394.53,389.48,388.8,399.54,377z"/>
		<path class="st4" d="M330.29,435.34c0,0.77,0,1.54,0,2.3c0.04,14.76,0.07,29.51,0.11,44.27c0.06,5.01,0.13,10.01,0.19,15.01
			c-2.36-0.1-3.48,0.7-3.67,3.38c-0.28,4.05-0.61,8.28-2.03,12.01c-1.17,3.07-0.01,4.13,1.98,5.63c2.46,1.86,4.75,3.95,7.11,5.93
			c-3.66,1.02-7.33,2.04-10.99,3.06l-0.2-0.15c0,0-0.19,0.17-0.19,0.17c-0.52-0.34-1.03-0.69-1.55-1.03
			c-3.75-4.67-7.01-9.76-4.86-15.92c1.05-3.02,3.88-5.41,5.91-8.08c0.9-1.18,2.58-2.35,2.59-3.53c0.1-19.8,0-39.6-0.06-59.41
			c-0.28-6.31-0.57-12.62-0.85-18.92c-1.62-2.06-4.18-3.96-4.56-6.23c-0.29-1.73,1.79-5.19,3.46-5.68c5.94-1.76,8.03-0.36,9.61,4.85
			c-3.68,6.6-1.3,13.78-2,20.67C330.28,434.22,330.29,434.78,330.29,435.34z"/>
		<path class="st2" d="M426.08,604.84c7.62-1.43,15.23-2.86,22.85-4.28c1.35,5.01,2.57,10.07,4.14,15.01
			c0.51,1.6,1.95,2.9,2.96,4.34c-6.44,2.5-12.87,5-19.52,7.57c1.24,10.29,2.52,20.88,3.8,31.47c-1.09-5.91-2.19-11.82-3.25-17.73
			c-0.38-2.11-0.96-4.25-0.92-6.36c0.07-3.66-1.43-5.21-5.08-4.89c-2.64,0.23-3.96-1.01-4.05-3.78
			C426.78,619.07,426.4,611.95,426.08,604.84z"/>
		<path class="st5" d="M333.97,523.88c-2.36-1.99-4.65-4.07-7.11-5.93c-1.99-1.5-3.15-2.56-1.98-5.63
			c1.42-3.73,1.75-7.96,2.03-12.01c0.19-2.68,1.31-3.48,3.67-3.38c0.81,1.73,1.61,3.46,2.42,5.2c1.52,0.99,3.04,1.97,4.56,2.96
			c0.46,0.64,0.93,1.29,1.39,1.93c0,0,0.02,0.03,0.02,0.03c0.31,0.38,0.62,0.76,0.92,1.14c0,0-0.17-0.06-0.17-0.06
			C340.68,514.43,340.6,520.35,333.97,523.88z"/>
		<path class="st2" d="M333.97,523.88c6.63-3.53,6.71-9.45,5.75-15.75c4.55,2.51,7,6.57,5.98,11.5
			c-1.21,5.87-4.77,10.76-10.56,12.88c-1.8,0.66-4.65-1.02-6.83-2.03c-1.91-0.89-3.57-2.34-5.33-3.55
			C326.65,525.92,330.31,524.9,333.97,523.88z"/>
		<path class="st2" d="M271.44,727.84c-0.09-15.95-0.26-31.9-0.24-47.84c0.02-18.28,0.21-36.55,0.32-54.83
			c0.13,1.15,0.38,2.29,0.39,3.44c0.02,31.77,0.03,63.55,0,95.32C271.9,725.23,271.6,726.54,271.44,727.84z"/>
		<path class="st2" d="M440.68,661.07c1.56,13.37,3.12,26.74,4.68,40.12c-0.68-2.96-1.61-5.89-2-8.89
			c-1.21-9.12-2.26-18.25-3.26-27.4C439.96,663.67,440.47,662.35,440.68,661.07z"/>
		<path class="st2" d="M423.18,592.79c0.69,3.06,1.38,6.12,2.07,9.18C424.56,598.91,423.87,595.85,423.18,592.79z"/>
		<path class="st2" d="M446.72,712.07c0.27,2.64,0.53,5.27,0.8,7.91C447.25,717.34,446.98,714.71,446.72,712.07z"/>
		<path class="st2" d="M445.06,701.42c0.48,2.85,0.96,5.71,1.45,8.56C446.02,707.13,445.54,704.28,445.06,701.42z"/>
		<path class="st2" d="M271.52,621.83c-0.07-2.98-0.13-5.95-0.2-8.93c0.15,0.17,0.33,0.28,0.55,0.31
			C271.75,616.09,271.64,618.96,271.52,621.83z"/>
		<path class="st2" d="M318.27,685.7c0.76,1.06,1.51,2.13,2.27,3.19C319.78,687.83,319.03,686.77,318.27,685.7z"/>
		<path class="st2" d="M323.26,691.64c0.99,0.73,1.99,1.45,2.99,2.18C325.25,693.09,324.25,692.37,323.26,691.64z"/>
		<path class="st2" d="M422.69,589.08c0.23,1.28,0.46,2.56,0.69,3.83C423.15,591.63,422.92,590.36,422.69,589.08z"/>
		<path class="st2" d="M425.13,601.81c0.35,1.06,0.69,2.12,1.04,3.17C425.83,603.93,425.48,602.87,425.13,601.81z"/>
		<path class="st6" d="M271.87,613.22c-0.22-0.04-0.4-0.14-0.55-0.31c-0.02-0.61-0.03-1.22-0.05-1.83
			C271.47,611.79,271.67,612.5,271.87,613.22z"/>
		<path class="st2" d="M338.95,507.02c-0.46-0.64-0.93-1.29-1.39-1.93C338.03,505.73,338.49,506.37,338.95,507.02z"/>
		<path class="st2" d="M322.13,690.7c0.4,0.38,0.8,0.76,1.2,1.14C322.93,691.46,322.53,691.08,322.13,690.7z"/>
		<path class="st2" d="M339.89,508.19c-0.31-0.38-0.62-0.76-0.92-1.14C339.28,507.43,339.59,507.81,339.89,508.19z"/>
		<path class="st2" d="M321.04,525.92c0.52,0.34,1.03,0.69,1.55,1.03C322.08,526.61,321.56,526.27,321.04,525.92z"/>
		<path class="st2" d="M321.1,689.5c0.39,0.47,0.78,0.94,1.18,1.41C321.88,690.44,321.49,689.97,321.1,689.5z"/>
		<path class="st0" d="M255.61,725.15c-0.34,1.76-0.67,3.53-1.09,5.69c-1.69,0.07-3.32,0.21-4.94,0.21
			c-56.96,0.01-113.92,0-170.88-0.01c-6.1,0-6.08-0.33-5.24-6.22c1.4-9.82,2.25-19.71,3.53-29.55c1.83-14.09,3.87-28.16,5.77-42.25
			c0.8-5.9,1.64-11.8,2.14-17.73c0.29-3.49,1.45-4.72,5.06-3.89c5.91,1.37,6.96,0.61,7.97-5.44c4.75-28.4,9.03-56.89,14.28-85.2
			c3.43-18.53,8.24-36.81,12.4-55.21c0.21-0.91,0.11-1.89,0.22-4.41c-1.67,1.93-2.67,2.67-3.12,3.66
			c-5.3,11.64-11.27,23.05-15.57,35.06c-6.43,17.96-11.64,36.36-17.42,54.56c-1.11,3.48-2.48,6.87-3.73,10.31
			c-18.6-3.31-35.54-10.72-51.56-20.56c-3.04-1.86-2.19-4.13-1.38-6.46c5.2-14.92,10.16-29.93,15.77-44.69
			c11.05-29.06,21.27-58.57,37.15-85.47c9.45-16.01,20.38-31.14,30.65-46.66c1.4,1.1,3.02,2,4.16,3.32
			c19.82,22.86,44.94,37.84,72.65,48.98c-0.02,21.28,0.02,42.57-0.17,63.85c-0.01,1.54-1.3,3.58-2.61,4.5
			c-6.33,4.44-8.12,12.15-3.91,18.88c1.22,1.95,2.87,3.63,4.32,5.43c0.52,0.36,1.05,0.73,1.58,1.09c0,0,0.3-0.18,0.3-0.18
			c5.75,7.33,13.04,6.66,19.04-1.76c4.92-6.9,3.54-14.84-3.11-17.94l0.09,0.04c-0.34-0.69-0.69-1.38-1.03-2.08l0.06,0.06
			c-0.32-0.36-0.63-0.71-0.95-1.07l-0.04-0.04c-0.36-0.31-0.72-0.63-1.08-0.94l0.06,0.05c-0.5-0.34-0.99-0.67-1.49-1.01l-0.28,0.08
			l-0.21-0.2c-1.99-4.9-2.45-9.83-2.22-15.23c0.58-13.95,0.21-27.93,0.21-41.9c0-1.77,0-3.54,0-6.79c3.68,1.74,6.32,2.82,8.78,4.2
			c10.55,5.91,20.75,12.57,31.69,17.64c6.46,2.99,11.34,5.56,9.92,13.59c0.19,2.16,0.39,4.33,0.59,6.49
			c-0.05,7.35-0.1,14.7-0.15,22.05c-1.15,5.86-2.2,11.68,2.99,16.44c0.49,0.45,0.25,1.69,0.35,2.56
			c0.14,10.39,0.29,20.79,0.43,31.18c0,2.22,0.01,4.44,0.01,6.66c0,2.77,0,5.54-0.01,8.32c0,0.9,0,1.79,0,2.69
			c0.1,1.49,0.29,2.98,0.29,4.46c0.02,49.29,0.02,98.58,0.01,147.87C255.87,723.17,255.7,724.16,255.61,725.15z M168.3,697.84
			l-0.06-0.19c-0.52,5.06,3.64,6.47,6.73,8.82c7.15,5.43,15.49,7.12,23.98,6.19c20.31-2.23,35.37-21.33,34.97-41.73
			c-0.35-18.23-1.4-36.44-1.9-54.66c-0.28-10.14-0.26-20.29-0.01-30.43c0.27-10.86-4.09-19.82-10.67-27.96
			c-0.4-0.49-2.04,0.02-3.1,0.06c-1.73-0.73-3.46-2.09-5.19-2.1c-19.15-0.17-38.3-0.14-57.45-0.16
			c-10.49-0.01-12.28,2.39-9.37,12.68c0.41,1.43,1.07,2.79,1.66,4.17c3.72,8.55,11.27,12.74,18.95,16.93
			c10.55,5.75,20.44,4.27,29.68-2.54c4.78-3.53,8.98-7.84,13.45-11.8c0.01,1.62,0.01,3.24,0.02,4.86c-0.87,0.73-1.82,1.39-2.59,2.21
			c-11.5,12.16-24.72,17.26-40.97,10.06c-5.46-3.76-10.93-7.53-16.89-11.64c-0.28,1.64-0.48,2.26-0.48,2.88
			c-0.02,25.3-0.02,50.6-0.02,75.9c0,15.38,5.24,28.28,17.94,37.61C167.42,697.27,167.86,697.55,168.3,697.84z"/>
		<path class="st0" d="M332.28,413c-1.58-5.21-3.67-6.61-9.61-4.85c-1.67,0.49-3.76,3.96-3.46,5.68c0.39,2.27,2.94,4.17,4.56,6.23
			c-0.7,2.82-2.22,4.45-5.1,5.81c-14.43,6.84-28.67,14.07-42.9,21.31c-2.16,1.1-3.86,3.05-5.9,4.41c-1.06,0.7-2.43,0.96-3.65,1.41
			c6.33-20,15.8-38.28,29.84-54.02c0.31-0.36,0.62-0.72,0.94-1.08l-0.08,0.08c0.36-0.35,0.72-0.71,1.08-1.06c0,0-0.09,0-0.09,0
			c1.1-0.24,2.46-0.14,3.26-0.76c13.38-10.27,29.25-15.54,44.44-22.13c15.85-6.87,31.82-13.6,45.57-24.25
			c7.13-5.53,13.3-12.3,19.9-18.51l0.2-0.21c0.27-0.27,0.55-0.54,0.82-0.81c15.91-17.41,23.24-38.27,23.55-61.49
			c0.49-37.25-15.19-67.58-41.77-92.66c-5.34-5.04-12-8.68-18.06-12.96c-0.43-0.37-0.86-0.74-1.29-1.11
			c-0.26-0.25-0.51-0.49-0.77-0.74l0.07-0.03c-0.45-0.29-0.89-0.59-1.34-0.88c-12.89-6.77-25.36-14.58-38.78-20.08
			c-23.64-9.68-48.87-11.61-74.19-12.03c-6.28,0.19-12.6-0.01-18.84,0.65c-32.83,3.46-62.99,14.42-89.99,33.45
			c-7.1,5.01-13.22,11.42-19.78,17.19c-0.46,0.38-0.91,0.77-1.37,1.15c-0.2,0.39-0.41,0.78-0.61,1.18
			c-1.17,0.91-2.49,1.68-3.49,2.76c-24.17,25.94-36.71,56.43-35.07,92.09c1.03,22.31,9.17,41.75,25.65,57.31
			c0.33,0.33,0.65,0.65,0.98,0.98c0.75,0.88,1.49,1.76,2.24,2.64c3.12,3.37,5.82,7.3,9.43,10.01
			c15.49,11.63,32.79,20.04,50.57,27.57c18.05,7.64,36.15,15.29,50.29,29.62c0.61,0.62,1.77,0.7,2.67,1.04l-0.13-0.02
			c0.35,0.37,0.71,0.74,1.06,1.1l-0.05-0.08c0.39,0.67,0.78,1.35,1.18,2.02l-0.14-0.11c0.36,0.38,0.71,0.76,1.07,1.14l-0.11-0.09
			c0.37,0.37,0.74,0.74,1.1,1.1c9.6,11.91,17.33,24.85,21.99,39.51c0.34,0.83,0.67,1.66,1.01,2.49l-0.06-0.09
			c-0.02,2.06-0.04,4.12-0.06,6.17c-1.5-0.91-3.2-1.61-4.44-2.79c-3.09-2.94-5.48-6.95-9.04-9.02
			c-13.45-7.82-27.21-15.11-40.95-22.43c-2.89-1.54-5.14-3.06-4.59-6.73c0.63-2.5,2.2-5.25,1.6-7.41c-0.47-1.7-3.47-3.34-5.6-3.79
			c-4.8-1.01-6.79,0.89-8.71,7.08c-2.11-0.36-4.44-0.26-6.29-1.16c-13.72-6.68-27.64-13.04-40.87-20.59
			c-7.66-4.37-14.15-10.76-21.17-16.25c-2.06-2.52-4.04-5.12-6.2-7.56c-7.05-7.96-15.07-15.24-21.1-23.9
			c-22.9-32.9-29.15-69.29-21.32-108.44c5.79-28.92,19.83-53.8,36.76-77.37c1.72-2.39,3.11-5.01,4.66-7.53
			c4.03-6.99,7.8-14.14,12.15-20.92c14.19-22.09,30.36-42.22,55.03-53.57c0.36-7.51,4.65-12.39,10.48-16.6
			c15.89-11.48,32.57-21.34,51.68-26.45c16.12-4.31,31.98-3.41,47.43,2.99c14.54,6.02,28.18,13.66,40.11,23.96
			c4.2,3.63,7.47,8.38,10.98,12.76c1.18,1.48,1.78,3.47,4.03,1.41c1.25,1.06,2.36,2.35,3.76,3.16
			c21.37,12.34,37.45,29.93,50.54,50.54c4.43,6.97,8.96,13.88,13.44,20.82c1.11,2.32,1.85,4.94,3.4,6.91
			c18.36,23.31,32.85,48.62,39.08,77.91c11.41,53.7-4.8,98.13-45.87,133.99c-3.07,2.68-5.66,5.92-8.47,8.91
			c-10.06,11.8-24.06,17.53-37.48,24.09c-7.59,3.71-15.37,7.07-23.14,10.39C336.87,412.36,334.5,412.51,332.28,413z M218.04,104.06
			c1.61-0.38,3.29-0.57,4.81-1.17c21.44-8.6,43.23-9.42,65.35-3.01c4.61,1.34,9.21,2.7,13.82,4.05c-10.45-8.01-21-15.7-33.65-19.08
			c-5.06-1.35-10.95-1.69-16.01-0.52c-12.5,2.88-22.82,10.53-33.38,17.45c-0.57,0.38-0.71,1.42-1.04,2.15
			c-0.41,0.15-0.82,0.3-1.23,0.45c0.09,0.12,0.24,0.35,0.25,0.34C217.33,104.51,217.69,104.28,218.04,104.06z"/>
		<path class="st2" d="M178.95,76.69c-24.68,11.35-40.85,31.48-55.03,53.57c-4.35,6.78-8.12,13.94-12.15,20.92
			c-12.47-21.79-17.99-45.27-17.23-70.32c0.54-17.62,3.79-34.69,9.73-51.3c1.4-3.91,3.32-5.05,7.42-3.96
			c23.01,6.12,41.94,18.23,56.3,37.36C171.5,67.64,175.29,72.11,178.95,76.69z"/>
		<path class="st2" d="M411.4,149.28c-4.48-6.94-9.02-13.85-13.44-20.82c-13.09-20.61-29.17-38.2-50.54-50.54
			c-1.39-0.81-2.51-2.09-3.76-3.16c6.98-14.28,17.95-25.01,30.63-34.15c10.09-7.27,21.21-12.28,33.41-15.07
			c4.49-1.03,6.68,0.18,8.37,4.3c7.76,18.91,11.52,38.54,10.57,58.94C425.66,109.93,420.49,130.12,411.4,149.28z"/>
		<path class="st0" d="M74,601.19c-1.87,5.67-3.58,11.4-5.74,16.96c-0.41,1.06-2.6,1.43-3.97,2.12
			c-14.35-5.8-26.93-14.17-37.53-25.49c-4.53-4.83-3.78-10.24-2-16.67C39.54,589.71,56.76,595.47,74,601.19z"/>
		<path class="st2" d="M118.96,375.98c7.02,5.48,13.52,11.88,21.17,16.25c13.23,7.55,27.16,13.91,40.87,20.59
			c1.85,0.9,4.18,0.8,6.29,1.16c5.93,5.28,6.12,12.09,5.13,19.21c-27.71-11.14-52.83-26.12-72.65-48.98
			c-1.14-1.32-2.76-2.22-4.16-3.32C116.73,379.25,117.84,377.61,118.96,375.98z"/>
		<path class="st0" d="M456.03,619.9c-1.01-1.44-2.45-2.74-2.96-4.34c-1.57-4.94-2.79-10-4.14-15.01c9.65-4,19.4-7.77,28.9-12.09
			c5.84-2.66,11.3-6.17,16.91-9.29c3.76,8.39,2.83,13.9-3.86,19.98C480.68,608.42,468.93,615.14,456.03,619.9z"/>
		<path class="st6" d="M272.05,514.16c-0.13,1.58-0.26,3.17-0.39,4.75c-4.15,3.2-8.89,2.57-13.6,2.06
			c-0.34-0.42-0.69-0.84-1.03-1.26c1.05-1,2.09-2,3.14-3c0.56,0.01,1.12,0.01,1.69,0.02c1.07-0.55,2.15-1.09,3.22-1.64
			c0.23-0.54,0.78-1.21,0.63-1.61c-1.32-3.58-3.56-3.37-7.51,0.65c-0.74-1.33-2.1-2.66-2.09-3.99c0.03-4.04,0.58-8.08,0.93-12.12
			c0,0,0.01-0.01,0.01-0.01c0.59-0.72,1.18-1.45,1.77-2.17c2.32-3.65,3.54-7.51,2.27-11.85c-0.27-0.72-0.54-1.43-0.81-2.15
			c-0.58-1.52-1.17-3.03-1.75-4.55c-0.41-0.82-0.82-1.64-1.24-2.46c-0.09-0.95-0.18-1.9-0.27-2.85c1.6-1.32,4.37-2.51,4.54-4
			c0.31-2.75-0.9-5.68-1.48-8.54c0.36-0.18,0.71-0.35,1.07-0.53c1,0.06,2,0.12,3,0.18c0.71,0.74,1.42,1.48,2.13,2.23
			c0.41,4.31,1.05,8.6,1.17,12.92c0.17,6.14-1.74,12.95,0.33,18.27c2.66,6.82,3.61,13.55,4.24,20.55c0,0,0.05-0.11,0.05-0.11
			c-0.1,0.12-0.3,0.26-0.28,0.37C271.82,513.62,271.95,513.89,272.05,514.16z"/>
		<path class="st5" d="M260.16,516.72c-1.05,1-2.09,2-3.14,3c-0.05,0.4-0.11,0.8-0.16,1.19c-0.57,0.03-1.14,0.06-1.71,0.09
			c-0.1-0.87,0.14-2.11-0.35-2.56c-5.2-4.76-4.14-10.58-2.99-16.44c1.74-1.32,3.47-2.65,5.21-3.97c-0.35,4.04-0.9,8.08-0.93,12.12
			c-0.01,1.32,1.35,2.66,2.09,3.99C258.83,515,259.5,515.86,260.16,516.72z"/>
		<path class="st2" d="M255.59,558.84c0-2.22-0.01-4.44-0.01-6.66C255.58,554.4,255.58,556.62,255.59,558.84z"/>
		<path class="st2" d="M255.58,569.85c0-0.9,0-1.79,0-2.69C255.58,568.06,255.58,568.95,255.58,569.85z"/>
		<path class="st3" d="M256.86,520.91c0.05-0.4,0.11-0.8,0.16-1.19c0.34,0.42,0.69,0.84,1.03,1.26
			C257.66,520.95,257.26,520.93,256.86,520.91z"/>
		<path class="st0" d="M378.1,617.01c-0.25,12.47-0.37,24.94-0.82,37.4c-0.14,3.77-0.71,7.65-1.85,11.24
			c-6.48,20.44-27.58,27.93-45.65,16.32c-3.07-1.97-5.9-4.33-8.95-6.33c-2.97-1.95-5.25-1.64-5.87,2.42
			c-4.81-3.88-4.24-9.73-4.81-14.83c-0.74-6.57-0.11-13.29-0.21-19.95c-0.29-18.93-0.62-37.87-1.04-56.8
			c-0.07-3.11-0.71-6.2-0.23-9.59c1.79,3.54,2.81,7.89,5.52,10.46c7.75,7.36,16.1,14.1,24.39,20.87c2.94,2.4,6.34,4.24,9.59,6.23
			c6.28,3.85,12.31,2.78,19.63-3.96c3.02-2.78,5.39-6.26,8.11-9.38c1.04-1.19,2.21-2.25,3.32-3.37c-0.06,0.99-0.12,1.98-0.18,2.97
			c-0.23,0.86-0.46,1.72-0.7,2.58c-0.21,0.15-0.24,0.33-0.09,0.54C378.21,608.22,378.16,612.62,378.1,617.01z"/>
		<path class="st4" d="M378.1,617.01c0.05-4.39,0.11-8.79,0.16-13.18c0,0,0.28,0.08,0.28,0.08l0.28-0.07
			c2.86-1.25,5.73-2.49,8.59-3.74c-0.04,5.99-0.08,11.98-0.12,17.97c-1.2,1.61-2.41,3.22-3.61,4.84c-1.41-1.78-2.8-3.59-4.26-5.33
			C379.15,617.25,378.55,617.2,378.1,617.01z"/>
		<path class="st3" d="M355.9,593.85c0.54,2.15,1.08,4.3,1.62,6.45c-7.75,4.69-15.13,4.58-21.47-0.31c1.34-1.7,2.67-3.4,4.01-5.09
			C347.26,598.96,349.47,598.82,355.9,593.85z"/>
		<path class="st5" d="M387.41,600.1c-2.86,1.25-5.73,2.49-8.59,3.74c-0.06-0.28-0.21-0.47-0.47-0.55c0.23-0.86,0.46-1.72,0.7-2.57
			c1.24-1.13,2.76-2.08,3.66-3.45c1.72-2.62,3.09-5.47,4.6-8.23C387.35,592.73,387.38,596.42,387.41,600.1z"/>
		<path class="st6" d="M387.31,589.04c-1.51,2.76-2.88,5.61-4.6,8.23c-0.9,1.36-2.42,2.31-3.66,3.45c0.06-0.99,0.12-1.98,0.19-2.97
			c2.29-4.55,4.58-9.09,7.63-15.14C387.08,585.63,387.2,587.34,387.31,589.04z"/>
		<path class="st3" d="M361.1,598.27c0.66-0.41,1.33-0.82,1.99-1.24C362.42,597.45,361.76,597.86,361.1,598.27z"/>
		<path class="st5" d="M355.9,593.85c-6.43,4.97-8.64,5.11-15.84,1.04c-0.45-1.06-0.95-2.1-1.33-3.19
			c-1.39-3.97-0.88-8.01,2.53-10.22c2.25-1.46,6.08-1.94,8.63-1.12c3.56,1.15,6.43,4.04,6.23,8.54
			C356.06,590.56,355.98,592.21,355.9,593.85z"/>
		<path class="st5" d="M264.14,459.1c-1-0.06-2-0.12-3-0.17c-0.68-2.01-1.37-4.02-2.05-6.04c0,0,0.06,0.09,0.06,0.09
			c-0.34-0.83-0.67-1.66-1.01-2.49c-4.66-14.65-12.39-27.6-21.99-39.51c-0.37-0.37-0.74-0.74-1.1-1.1c0,0,0.11,0.09,0.11,0.09
			c-0.36-0.38-0.71-0.76-1.07-1.14c0,0,0.14,0.11,0.14,0.11c-0.39-0.67-0.78-1.35-1.18-2.02c0,0,0.05,0.08,0.05,0.08
			c-0.35-0.37-0.71-0.74-1.06-1.1c0,0,0.13,0.02,0.13,0.02c-1.49-1.97-2.76-4.16-4.49-5.88c-9.67-9.56-19.45-19.01-29.2-28.5
			c2.75,0.4,5.51,0.79,8.26,1.21c15.7,2.4,31.33,5.62,47.12,7.02c19.19,1.7,37.97-2.18,56.53-6.98c4.41-1.14,9.11-1.13,13.67-1.65
			c-1.25,1.24-2.5,2.49-3.76,3.73c-7.47,7.36-14.94,14.71-22.41,22.07c0,0,0.09,0,0.09,0c-0.36,0.35-0.72,0.71-1.08,1.06
			c0,0,0.08-0.08,0.08-0.08c-0.31,0.36-0.62,0.72-0.94,1.08C282,414.73,272.54,433,266.21,453
			C265.52,455.04,264.83,457.07,264.14,459.1z"/>
		<path class="st4" d="M272.01,513.07c-0.62-7.01-1.58-13.73-4.24-20.55c-2.07-5.32-0.16-12.13-0.33-18.27
			c-0.12-4.31-0.76-8.61-1.17-12.92c6.34-0.11,7.15,0.33,7.25,6.42c0.22,13.47,0.16,26.94,0.06,40.4
			C273.56,509.79,272.55,511.43,272.01,513.07z"/>
		<path class="st4" d="M272.05,514.16c-0.09-0.28-0.23-0.55-0.27-0.83c-0.02-0.11,0.18-0.25,0.28-0.37
			C272.05,513.36,272.05,513.76,272.05,514.16z"/>
		<path class="st5" d="M330.4,481.91c-0.04-14.76-0.08-29.51-0.11-44.27C330.33,452.4,330.36,467.16,330.4,481.91z"/>
		<path class="st5" d="M330.29,435.34c0-0.56-0.01-1.11-0.01-1.67C330.28,434.22,330.29,434.78,330.29,435.34z"/>
		<path class="st1" d="M166.98,696.98c-12.71-9.33-17.94-22.23-17.94-37.61c-0.01-25.3,0-50.6,0.02-75.9c0-0.62,0.2-1.24,0.48-2.88
			c5.96,4.11,11.43,7.87,16.89,11.64c0.71,5.89,5.15,8.81,9.83,10.55c10.16,3.78,18.88-0.98,27.36-5.94
			c3.53-2.06,6.53-4.47,5.56-9.3c-0.09-0.45,0.63-1.07,0.98-1.61c0.14,0.81,0.4,1.63,0.41,2.44c0.13,24.14,0.38,48.28,0.26,72.42
			c-0.05,9.23-3.52,17.55-8.84,25.06c-9.84,13.9-17.51,16.58-33.73,11.79c0,0,0.06,0.19,0.06,0.19
			C167.86,697.55,167.42,697.27,166.98,696.98z"/>
		<path class="st2" d="M168.24,697.65c16.23,4.79,23.89,2.11,33.73-11.79c5.32-7.52,8.8-15.83,8.84-25.06
			c0.12-24.14-0.13-48.28-0.26-72.42c0-0.81-0.27-1.63-0.41-2.44c0.09-1.37,0.19-2.75,0.28-4.12c-0.13-0.59-0.26-1.19-0.39-1.78
			l-0.05-0.08c-0.01-1.62-0.01-3.24-0.02-4.86c2.71-5.48,5.41-10.96,8.12-16.44l0.03-0.12c-0.15-0.24-0.12-0.44,0.11-0.6
			c1.06-0.04,2.7-0.55,3.1-0.06c6.58,8.13,10.94,17.1,10.67,27.96c-0.25,10.14-0.27,20.29,0.01,30.43
			c0.5,18.23,1.55,36.44,1.9,54.66c0.4,20.39-14.67,39.5-34.97,41.73c-8.49,0.93-16.83-0.76-23.98-6.19
			C171.88,704.12,167.72,702.7,168.24,697.65z"/>
		<path class="st1" d="M218.09,558.66c-2.71,5.48-5.41,10.96-8.12,16.44c-4.46,3.96-8.66,8.28-13.45,11.8
			c-9.24,6.82-19.14,8.29-29.68,2.54c-7.68-4.19-15.23-8.38-18.95-16.93c-0.6-1.37-1.26-2.73-1.66-4.17
			c-2.91-10.28-1.13-12.68,9.37-12.68c19.15,0.02,38.3-0.02,57.45,0.16c1.74,0.02,3.46,1.37,5.19,2.1c-0.23,0.16-0.27,0.36-0.11,0.6
			c0,0-0.29,0.02-0.29,0.02L218.09,558.66z M191.05,578.85c-0.09-4.05-3.75-7.68-7.7-7.64c-4.21,0.05-7.53,3.46-7.44,7.65
			c0.1,4.41,3.39,8.09,7.19,8.03C187.16,586.82,191.13,582.8,191.05,578.85z"/>
		<path class="st2" d="M200.01,418.09c-0.55,3.67,1.7,5.19,4.59,6.73c13.74,7.32,27.5,14.61,40.95,22.43
			c3.55,2.07,5.94,6.08,9.04,9.02c1.24,1.18,2.95,1.87,4.44,2.79c0,0,0.09,0.12,0.09,0.12c-1.04,0.58-2.08,1.16-3.12,1.74
			c-0.67,0.35-1.34,0.7-2.01,1.05c-0.67,3.74-1.34,7.48-2.01,11.22c-0.24,0-0.44,0.1-0.61,0.28c1.42-8.03-3.46-10.6-9.92-13.59
			c-10.94-5.06-21.13-11.73-31.69-17.64c-2.47-1.38-5.11-2.45-8.78-4.2c0,3.24,0,5.02,0,6.79c-0.01,13.97,0.37,27.96-0.21,41.9
			c-0.23,5.4,0.23,10.33,2.22,15.23c-3.21-0.29-4.58-1.95-4.28-5.24c0.14-1.59-0.32-3.23-0.52-4.85
			c-0.01-5.55-0.02-11.09-0.03-16.64c0-0.82,0.01-1.64,0.01-2.45c0-3.85,0-7.7,0-11.55c0-0.82,0-1.63,0-2.45c0-1.18,0-2.36,0-3.53
			c0.01-4.85,0.03-9.7,0.04-14.55c0.02-1.78,0.03-3.56,0.05-5.35c0.1-0.13,0.28-0.27,0.27-0.4c-0.02-0.31-0.13-0.61-0.2-0.92
			c0.13-2.1,0.17-4.2,0.4-6.29C199.1,424.51,199.58,421.3,200.01,418.09z"/>
		<path class="st4" d="M198.18,461.23c0,3.85,0,7.7,0,11.55c0,0.82-0.01,1.64-0.01,2.45c0.01,5.55,0.02,11.09,0.03,16.64
			c-0.71,1.78-1.73,3.5-2.07,5.35c-1.1,5.98-1.98,11.99-2.84,18.01c-0.09,0.67,0.35,1.64,0.87,2.13c2.48,2.35,5.07,4.59,7.62,6.86
			c-3.29,0.85-6.57,1.69-9.85,2.54c0,0-0.3,0.18-0.3,0.18c-0.53-0.36-1.05-0.73-1.57-1.09c-1.45-1.8-3.1-3.48-4.32-5.43
			c-4.21-6.72-2.42-14.43,3.91-18.88c1.31-0.92,2.59-2.96,2.61-4.5c0.19-21.28,0.15-42.57,0.17-63.85c1-7.12,0.8-13.93-5.13-19.21
			c1.92-6.19,3.91-8.09,8.71-7.08c2.13,0.45,5.13,2.09,5.6,3.79c0.6,2.15-0.97,4.91-1.6,7.41c-0.43,3.22-0.91,6.43-1.27,9.65
			c-0.23,2.09-0.27,4.19-0.4,6.29c-0.02,0.44-0.05,0.88-0.07,1.31c-0.02,1.78-0.03,3.56-0.05,5.35c-0.01,4.85-0.03,9.7-0.04,14.55
			c0,1.18,0,2.36,0,3.54C198.18,459.59,198.18,460.41,198.18,461.23z"/>
		<path class="st4" d="M210.43,581.81c-0.09,1.37-0.19,2.75-0.28,4.12c-0.35,0.54-1.07,1.16-0.98,1.61c0.97,4.83-2.03,7.23-5.56,9.3
			c-8.48,4.96-17.19,9.72-27.36,5.94c-4.68-1.74-9.12-4.65-9.83-10.55c16.25,7.19,29.47,2.09,40.97-10.06
			c0.78-0.82,1.73-1.48,2.59-2.21c0,0,0.05,0.08,0.05,0.08C210.17,580.63,210.3,581.22,210.43,581.81z"/>
		<path class="st5" d="M201.78,524.22c-2.55-2.28-5.14-4.51-7.62-6.86c-0.52-0.49-0.96-1.46-0.87-2.13
			c0.85-6.02,1.74-12.03,2.84-18.01c0.34-1.85,1.36-3.57,2.07-5.35c0.19,1.62,0.66,3.26,0.52,4.85c-0.3,3.29,1.07,4.95,4.28,5.24
			c0,0,0.21,0.2,0.21,0.2s0.28-0.08,0.28-0.08c0.5,0.34,0.99,0.67,1.48,1.01c0,0-0.06-0.05-0.06-0.05c0.36,0.31,0.72,0.63,1.07,0.94
			c0,0,0.04,0.04,0.04,0.04c0.32,0.36,0.63,0.71,0.95,1.07c0,0-0.06-0.06-0.06-0.06c0.34,0.69,0.69,1.38,1.03,2.08
			c0,0-0.09-0.04-0.08-0.04C208.79,513.83,208.88,520.3,201.78,524.22z"/>
		<path class="st3" d="M251.98,473.18c0.67-3.74,1.34-7.48,2.01-11.22c0.89,3.02,1.77,6.04,2.66,9.07c0.12,0.32,0.24,0.64,0.35,0.96
			c0.09,0.95,0.18,1.9,0.27,2.85c0.41,0.82,0.82,1.64,1.24,2.46c0.58,1.52,1.17,3.03,1.75,4.55c0.27,0.72,0.54,1.43,0.81,2.15
			c1.27,4.34,0.06,8.2-2.26,11.85c-0.59,0.73-1.18,1.45-1.77,2.17c0,0-0.01,0.01-0.01,0.01c-1.74,1.32-3.47,2.65-5.21,3.97
			c0.05-7.35,0.1-14.7,0.15-22.05C251.97,477.69,251.97,475.44,251.98,473.18z"/>
		<path class="st2" d="M201.78,524.22c7.1-3.92,7-10.39,6.08-17.15c6.65,3.1,8.03,11.04,3.11,17.94c-6,8.41-13.29,9.09-19.04,1.76
			C195.21,525.91,198.5,525.06,201.78,524.22z"/>
		<path class="st5" d="M251.98,473.18c-0.01,2.26-0.01,4.51-0.02,6.77c-0.2-2.17-0.39-4.33-0.59-6.49
			C251.54,473.28,251.74,473.19,251.98,473.18z"/>
		<path class="st2" d="M207.95,507.1c-0.34-0.69-0.69-1.38-1.03-2.08C207.26,505.71,207.6,506.4,207.95,507.1z"/>
		<path class="st2" d="M204.97,503.09c-0.49-0.34-0.99-0.67-1.48-1.01C203.98,502.41,204.47,502.75,204.97,503.09z"/>
		<path class="st2" d="M205.99,503.97c-0.36-0.31-0.72-0.63-1.07-0.94C205.27,503.35,205.63,503.66,205.99,503.97z"/>
		<path class="st2" d="M206.97,505.08c-0.32-0.36-0.63-0.71-0.95-1.07C206.34,504.37,206.66,504.73,206.97,505.08z"/>
		<path class="st2" d="M166.98,696.98c0.44,0.29,0.88,0.57,1.32,0.86C167.86,697.55,167.42,697.27,166.98,696.98z"/>
		<path class="st2" d="M190.06,525.84c0.52,0.36,1.05,0.73,1.57,1.09C191.11,526.57,190.58,526.21,190.06,525.84z"/>
		<path class="st4" d="M374.49,162.03c0.43,0.37,0.86,0.74,1.29,1.1c4.51,5.29,9.26,10.4,13.5,15.9
			c23.63,30.71,38.09,64.53,34.59,104.24c-0.5,5.62-1.65,11.18-2.49,16.77c-0.43-0.01-0.87-0.02-1.3-0.04
			c-1.35-3.33-2.7-6.67-4.04-10c-4.02-11.37-8.33-22.56-15.66-32.35c-6.28-8.39-12.32-16.95-22.89-18.3
			c-2.41-4.6-4.32-8.81-6.71-12.72c-9.59-15.7-27.58-19.36-38.04-17.05c-17.71,3.9-30.73,18.11-30.73,38.78c0,5.51,0,11.02,0,17.84
			c-10.23-15.77-11.8-31.76-6.66-47.56c6.21-19.11,20.63-30.58,40.24-35.71c-18.12-6.45-36.06-9.05-54.28-1.19
			c-1.23,0.53-4.15,0.17-4.41-0.5c-3.26-8.44-11.04-7.79-17.78-9.24c0.13-14.58,0.26-29.16,0.39-43.74
			c25.32,0.42,50.55,2.34,74.19,12.03c13.42,5.5,25.88,13.31,38.78,20.08c0.45,0.29,0.9,0.59,1.34,0.88c0,0-0.07,0.03-0.07,0.03
			C373.98,161.53,374.24,161.78,374.49,162.03z"/>
		<path class="st7" d="M259.49,128.27c-0.13,14.58-0.26,29.16-0.39,43.74c-0.11,23.72-0.25,47.45-0.32,71.17
			c-0.03,10.28,0.11,20.56,0.17,30.84c-0.65-0.01-1.3-0.02-1.95-0.03c-1.28,0.24-2.55,0.48-3.83,0.72c-3.97,1.5-7.93,3.01-11.9,4.51
			c0.34-7.27-6.5-9.79-9.84-14.48c1.79-2.31,3.66-4.25,4.99-6.52c11.1-18.88,13.35-38.93,7.47-59.93
			c-2.91-10.39-9.77-16.7-20.35-18.92c-9.32-1.96-22.63,2.32-25.33,9.23c1.06,1.01,2.37,2.03,3.39,3.27
			c4.61,5.61,9.79,10.88,13.57,17.01c6.3,10.24,7.13,21.97,6.54,33.7c-0.16,3.17-1.77,6.27-2.72,9.41
			c-0.42-9.34-3.14-17.97-8.07-25.91c-0.25-2.12,0.45-4.95-3.33-4.4l-0.29-0.31c-1.68-3.21-3.46-6.37-5-9.64
			c-2.35-5-9.86-6.91-7.51-14.9c2.33-7.93,1.2-8.81-7.35-10.81c-1.93-0.45-3.91-0.84-5.88-0.89c-12.9-0.33-22.15,7.13-31.03,15.02
			c-14.22,12.63-23.02,29.57-34.66,44.26c-4.49,5.67-8.38,11.82-12.54,17.76c-0.12-1.65-0.44-3.31-0.34-4.94
			c1.09-17.05,4.82-33.52,11.94-49.04c4.13-9.01,9.28-17.56,13.96-26.31c0.2-0.39,0.41-0.78,0.61-1.17
			c0.46-0.38,0.92-0.77,1.38-1.16c6.57-5.77,12.68-12.18,19.78-17.19c27-19.03,57.16-29.99,89.99-33.45
			C246.88,128.26,253.21,128.46,259.49,128.27z"/>
		<path class="st8" d="M416.03,290.01c1.35,3.33,2.7,6.67,4.04,10c0.43,0.01,0.87,0.02,1.3,0.04c0.85-5.59,2-11.15,2.49-16.77
			c3.5-39.71-10.95-73.53-34.59-104.24c-4.24-5.5-8.98-10.61-13.5-15.9c6.05,4.29,12.72,7.92,18.06,12.96
			c26.58,25.09,42.26,55.42,41.77,92.66c-0.31,23.22-7.63,44.08-23.55,61.49c-0.27,0.27-0.55,0.54-0.82,0.81c0,0-0.2,0.21-0.2,0.21
			c-0.87-0.97-2.16-1.81-2.52-2.94c-0.51-1.58-0.32-3.39-0.44-5.1c0.93-1.09,2.03-2.08,2.76-3.29
			C416.44,310.65,416.41,300.36,416.03,290.01z"/>
		<path class="st8" d="M128.89,181.88c-4.69,8.76-9.83,17.3-13.96,26.31c-7.12,15.52-10.86,31.99-11.94,49.04
			c-0.1,1.63,0.21,3.29,0.34,4.94c-2.12,11.76-1.72,23.5,0.04,35.14c1.9-4.44,3.8-8.88,5.71-13.32c-0.87,13.63-0.94,27.1,7.88,40.08
			c0.35-2.87,0.57-4.62,0.67-5.43c3.67,6.06,7.65,12.62,11.63,19.19c-3.35-0.05-6.7-0.11-10.05-0.16c-0.75-0.88-1.49-1.76-2.24-2.64
			c-0.33-0.33-0.65-0.65-0.98-0.98c-16.47-15.55-24.62-35-25.65-57.31c-1.64-35.66,10.89-66.16,35.07-92.09
			C126.4,183.57,127.72,182.79,128.89,181.88z"/>
		<path class="st2" d="M408.09,323.23c0.11,1.71-0.07,3.52,0.44,5.1c0.36,1.13,1.65,1.97,2.52,2.94
			c-6.6,6.21-12.76,12.98-19.9,18.51c-13.74,10.65-29.72,17.38-45.57,24.25c-15.19,6.59-31.06,11.86-44.44,22.13
			c-0.81,0.62-2.16,0.52-3.26,0.76c7.47-7.36,14.94-14.71,22.41-22.07c1.26-1.24,2.51-2.49,3.76-3.73c3.02-1.61,5.93-3.46,9.07-4.78
			c12.1-5.1,24.54-9.47,36.33-15.18c14.12-6.83,26.2-16.41,33.98-30.54c0.57-1.03,1.57-1.82,2.97-3.39
			C407.13,319.8,407.61,321.51,408.09,323.23z"/>
		<path class="st2" d="M119.2,337.66c3.35,0.05,6.7,0.11,10.05,0.16c0.82,0.62,1.65,1.24,2.86,2.16c-0.24-2.04-0.42-3.5-0.6-5.03
			c0.62,0.1,1.01,0.06,1.24,0.23c0.65,0.49,1.31,1.01,1.84,1.63c8.92,10.26,20.18,17.04,32.63,22.07
			c10.41,4.21,20.83,8.43,31.24,12.64c9.74,9.49,19.53,18.94,29.2,28.5c1.74,1.72,3.01,3.91,4.49,5.88
			c-0.9-0.33-2.06-0.42-2.67-1.04c-14.14-14.34-32.23-21.98-50.29-29.62c-17.78-7.53-35.08-15.94-50.57-27.57
			C125.02,344.96,122.32,341.03,119.2,337.66z"/>
		<path class="st2" d="M217.93,103.93c0.34-0.73,0.47-1.78,1.05-2.15c10.56-6.92,20.88-14.57,33.38-17.45
			c5.06-1.17,10.95-0.83,16.01,0.52c12.65,3.38,23.21,11.06,33.65,19.08c-4.6-1.35-9.21-2.71-13.82-4.05
			c-22.12-6.42-43.91-5.59-65.35,3.01c-1.52,0.61-3.2,0.79-4.81,1.17C218.04,104.06,217.93,103.93,217.93,103.93z"/>
		<path class="st2" d="M259.08,452.89c0.68,2.01,1.37,4.03,2.05,6.04c-0.35,0.18-0.71,0.35-1.07,0.53c-0.31-0.1-0.63-0.19-0.95-0.27
			c0,0-0.09-0.12-0.09-0.12C259.05,457,259.06,454.94,259.08,452.89z"/>
		<path class="st8" d="M130.88,179.55c-0.46,0.39-0.92,0.77-1.38,1.16C129.96,180.32,130.42,179.94,130.88,179.55z"/>
		<path class="st8" d="M374.49,162.03c-0.26-0.25-0.51-0.5-0.77-0.74C373.98,161.54,374.24,161.78,374.49,162.03z"/>
		<path class="st2" d="M258.13,450.48c0.34,0.83,0.67,1.66,1.01,2.49C258.81,452.14,258.47,451.31,258.13,450.48z"/>
		<path class="st2" d="M233.04,406.91c0.39,0.67,0.78,1.35,1.18,2.02C233.82,408.26,233.43,407.58,233.04,406.91z"/>
		<path class="st2" d="M218.04,104.06c-0.36,0.23-0.71,0.46-1.08,0.66c-0.02,0.01-0.17-0.22-0.25-0.34c0.41-0.15,0.82-0.3,1.23-0.45
			C217.93,103.93,218.04,104.06,218.04,104.06z"/>
		<path class="st8" d="M373.79,161.26c-0.45-0.3-0.9-0.59-1.34-0.88C372.9,160.67,373.35,160.97,373.79,161.26z"/>
		<path class="st2" d="M235.04,409.87c0.37,0.37,0.74,0.74,1.1,1.1C235.77,410.61,235.4,410.24,235.04,409.87z"/>
		<path class="st2" d="M234.08,408.82c0.36,0.38,0.71,0.76,1.07,1.14C234.79,409.58,234.44,409.2,234.08,408.82z"/>
		<path class="st2" d="M232.03,405.88c0.35,0.37,0.71,0.74,1.06,1.1C232.74,406.62,232.39,406.25,232.03,405.88z"/>
		<path class="st2" d="M296.04,398.98c0.31-0.36,0.62-0.72,0.94-1.08C296.67,398.26,296.35,398.62,296.04,398.98z"/>
		<path class="st2" d="M296.9,397.98c0.36-0.35,0.72-0.71,1.08-1.06C297.62,397.27,297.26,397.62,296.9,397.98z"/>
		<path class="st2" d="M115.98,334.04c0.33,0.33,0.65,0.65,0.98,0.98C116.64,334.69,116.31,334.36,115.98,334.04z"/>
		<path class="st2" d="M411.24,331.06c0.27-0.27,0.54-0.54,0.82-0.81C411.79,330.52,411.52,330.79,411.24,331.06z"/>
		<path class="st5" d="M259.12,459.18c0.32,0.08,0.63,0.17,0.95,0.27c0.58,2.86,1.79,5.78,1.48,8.54c-0.17,1.49-2.94,2.68-4.54,4
			c-0.12-0.32-0.24-0.64-0.35-0.96c-0.22-3.37-0.44-6.74-0.65-10.12C257.04,460.34,258.08,459.76,259.12,459.18z"/>
		<path class="st4" d="M260.16,516.72c-0.66-0.86-1.32-1.72-1.99-2.58c3.95-4.02,6.19-4.23,7.52-0.65c0.15,0.4-0.4,1.07-0.63,1.61
			c-1.07,0.55-2.15,1.09-3.22,1.64C261.28,516.73,260.72,516.73,260.16,516.72z"/>
		<path class="st5" d="M261.85,516.74c1.07-0.55,2.14-1.09,3.22-1.64C263.99,515.64,262.92,516.19,261.85,516.74z"/>
		<path class="st5" d="M261.06,483.99c-0.27-0.72-0.54-1.43-0.81-2.15C260.52,482.56,260.79,483.28,261.06,483.99z"/>
		<path class="st5" d="M258.5,477.3c-0.41-0.82-0.83-1.64-1.24-2.46C257.68,475.66,258.09,476.48,258.5,477.3z"/>
		<path class="st5" d="M257.03,498.01c0.59-0.72,1.18-1.45,1.77-2.17C258.21,496.56,257.62,497.29,257.03,498.01z"/>
		<path class="st6" d="M378.36,603.29c0.26,0.08,0.41,0.27,0.47,0.55c0,0-0.28,0.07-0.28,0.07s-0.28-0.07-0.28-0.08
			C378.12,603.62,378.15,603.44,378.36,603.29z"/>
		<path class="st1" d="M198.47,371.52c-10.41-4.21-20.83-8.43-31.24-12.64c-12.45-5.03-23.71-11.81-32.63-22.07
			c-0.53-0.62-1.19-1.14-1.84-1.63c-0.23-0.17-0.63-0.13-1.24-0.23c0.18,1.53,0.36,2.99,0.6,5.03c-1.22-0.92-2.04-1.54-2.86-2.16
			c-3.98-6.56-7.96-13.13-11.63-19.19c-0.1,0.81-0.32,2.57-0.67,5.43c-8.82-12.98-8.75-26.45-7.88-40.08
			c3.41-8.58,6.01-17.61,10.43-25.63c5.12-9.3,11.52-18.06,23.61-19.53c1.02-0.12,2.05-1.85,2.69-3.05
			c1.92-3.6,3.18-7.63,5.51-10.92c12.07-17.03,32.67-20.78,49.07-9.12c2.42,1.72,4.62,3.76,6.93,5.65c0,0,0.29,0.31,0.29,0.31
			c1.11,1.47,2.22,2.93,3.33,4.4c4.93,7.94,7.65,16.57,8.07,25.91c0,0.66,0,1.33,0,1.99c-0.03,2-0.07,4.01-0.1,6.01
			c-1.38,4.44-2.76,8.89-4.32,13.92c1.45-0.2,2.34-0.08,2.93-0.45c4.14-2.53,7.64-1.68,11.31,1.3c3.03,2.46,6.6,4.25,9.93,6.33
			c-2.21,11.14,1.72,19.47,12.72,25.57c3.09,1.71,4.79,3.92,4.19,6.96c-0.8,4.07-1.6,8.73-4.08,11.76
			c-9.17,11.18-23.64,11.94-35.09,2.58c-1.52-1.25-3.14-2.39-4.71-3.57c-0.34,0.43-0.68,0.87-1.03,1.3
			c2.4,6.96,8.07,10.91,14.78,12.96c14.66,4.48,24.98-2.4,33.13-14.34c1.24,1.67,2.23,2.98,3.2,4.3
			c7.89,10.83,26.08,17.12,41.55,4.59c2.4-1.94,4.82-4.44,3.23-9.07c-1.68,1.38-2.8,2.54-4.13,3.35c-3.38,2.06-6.68,4.45-10.33,5.85
			c-12.12,4.65-31.63-5.01-30.6-20.12c0.22-3.28,1.05-5.25,4.5-6.62c7.8-3.11,13.21-8.81,15.4-17.16c1.5-5.68,0.68-8.79-4.79-10.95
			c-5.62-2.22-11.8-3.04-17.74-4.48c-0.06-10.28-0.19-20.56-0.17-30.84c0.06-23.72,0.21-47.45,0.32-71.17
			c6.74,1.45,14.52,0.8,17.78,9.24c0.26,0.67,3.18,1.04,4.41,0.5c18.22-7.86,36.16-5.25,54.28,1.19
			c-19.61,5.13-34.03,16.6-40.24,35.71c-5.14,15.8-3.57,31.79,6.66,47.56c0-6.82,0-12.33,0-17.84c0-20.67,13.02-34.89,30.73-38.78
			c10.46-2.3,28.45,1.35,38.04,17.05c2.39,3.91,4.3,8.12,6.71,12.72c10.57,1.34,16.6,9.91,22.89,18.3
			c7.33,9.79,11.65,20.98,15.66,32.35c0.38,10.34,0.41,20.63-5.19,29.92c-0.73,1.21-1.83,2.2-2.76,3.29c-0.48-1.71-0.96-3.43-1.67-6
			c-1.4,1.57-2.4,2.36-2.97,3.39c-7.78,14.14-19.87,23.71-33.98,30.54c-11.8,5.71-24.24,10.08-36.33,15.18
			c-3.14,1.32-6.05,3.17-9.07,4.78c-4.57,0.52-9.27,0.51-13.67,1.65c-18.56,4.81-37.35,8.69-56.53,6.98
			c-15.79-1.4-31.42-4.62-47.12-7.02C203.98,372.31,201.22,371.93,198.47,371.52z M367.33,241.56
			c-8.42-16.27-21.31-23.2-35.57-19.28c-11.6,3.19-22.46,19.15-21.43,32.11c4.84-4.08,9.17-1.85,13.43,0.78
			c11.98,7.38,26.52,5.27,35.82-5.19C362.06,247.2,364.62,244.51,367.33,241.56z M209.82,254.57c-0.28-15.96-11.47-30.45-24.55-32.6
			c-13.66-2.25-25.95,5.71-31.44,20.36c1.46,1.57,3.1,2.99,4.32,4.71c8.91,12.49,23.92,16.13,37.35,8.54
			C200.15,252.95,204.42,251.2,209.82,254.57z M205.3,281.84c-15,8.96-27.36,35.35-14.97,54.16c1.17-4.54,3.52-8.67,2.95-12.35
			c-2.06-13.47,0.73-25.43,8.67-36.35C203.21,285.58,204.19,283.67,205.3,281.84z M319.25,286.7c7.58,11.42,9.19,24.38,9.47,37.69
			C334.5,309.98,328.27,292.96,319.25,286.7z M214.33,275.4c-0.45-0.57-0.89-1.14-1.34-1.71c-2.3,1.85-4.61,3.69-6.91,5.54
			c0.4,0.52,0.81,1.04,1.21,1.57C209.63,279,211.98,277.2,214.33,275.4z"/>
		<path class="st0" d="M210.43,581.81c-0.13-0.59-0.26-1.19-0.39-1.78C210.17,580.63,210.3,581.22,210.43,581.81z"/>
		<polygon class="st0" points="218.09,558.66 217.83,558.56 218.12,558.53 		"/>
		<path class="st5" d="M191.05,578.85c0.09,3.95-3.89,7.97-7.94,8.04c-3.8,0.06-7.1-3.61-7.19-8.03c-0.09-4.19,3.23-7.61,7.44-7.65
			C187.29,571.16,190.96,574.8,191.05,578.85z"/>
		<path class="st4" d="M256,460.91c0.22,3.37,0.44,6.74,0.65,10.12c-0.89-3.02-1.77-6.04-2.66-9.07
			C254.66,461.61,255.33,461.26,256,460.91z"/>
		<path class="st5" d="M198.18,455.24c0.01-4.85,0.03-9.7,0.04-14.55C198.21,445.54,198.2,450.39,198.18,455.24z"/>
		<path class="st5" d="M198.18,461.23c0-0.82,0-1.63,0-2.45C198.18,459.59,198.18,460.41,198.18,461.23z"/>
		<path class="st5" d="M198.16,475.23c0-0.82,0.01-1.63,0.01-2.45C198.17,473.59,198.17,474.41,198.16,475.23z"/>
		<path class="st5" d="M198.27,435.34c0.02-0.44,0.05-0.88,0.07-1.31c0.07,0.31,0.18,0.61,0.2,0.92
			C198.55,435.07,198.37,435.21,198.27,435.34z"/>
		<path class="st6" d="M219,254c0-0.66,0-1.33,0-1.99c0.95-3.13,2.56-6.23,2.72-9.41c0.59-11.72-0.24-23.45-6.54-33.7
			c-3.77-6.13-8.95-11.41-13.57-17.01c-1.03-1.25-2.33-2.26-3.39-3.27c2.7-6.92,16.01-11.2,25.33-9.23
			c10.58,2.23,17.44,8.53,20.35,18.92c5.88,21,3.64,41.05-7.47,59.93c-1.33,2.26-3.2,4.21-4.99,6.52
			c3.34,4.69,10.18,7.21,9.84,14.48c-0.84,0.63-1.68,1.25-2.52,1.88c-3.33-2.09-6.9-3.88-9.93-6.33c-3.66-2.98-7.16-3.82-11.31-1.3
			c-0.59,0.36-1.48,0.24-2.93,0.45c1.56-5.03,2.94-9.47,4.32-13.92C218.93,258,218.96,256,219,254z"/>
		<path class="st6" d="M207.3,221.39c-2.3-1.89-4.51-3.92-6.93-5.65c-16.4-11.66-37-7.91-49.07,9.12
			c-2.33,3.29-3.59,7.32-5.51,10.92c-0.63,1.19-1.67,2.92-2.69,3.05c-12.09,1.48-18.49,10.23-23.61,19.53
			c-4.42,8.03-7.02,17.05-10.43,25.63c-1.9,4.44-3.8,8.88-5.71,13.32c-1.76-11.65-2.17-23.38-0.04-35.14
			c4.16-5.93,8.05-12.09,12.55-17.76c11.64-14.69,20.44-31.63,34.66-44.26c8.88-7.89,18.13-15.35,31.03-15.02
			c1.97,0.05,3.95,0.44,5.88,0.89c8.55,2.01,9.68,2.88,7.35,10.81c-2.35,7.99,5.16,9.91,7.51,14.9
			C203.84,215.02,205.63,218.18,207.3,221.39z"/>
		<path class="st8" d="M238.75,281.11c0.84-0.63,1.68-1.25,2.52-1.88c3.97-1.5,7.93-3.01,11.9-4.51c1.28-0.24,2.55-0.48,3.83-0.73
			c0.65,0.01,1.3,0.02,1.95,0.03c5.94,1.43,12.11,2.25,17.74,4.48c5.46,2.16,6.29,5.27,4.79,10.95c-2.2,8.34-7.6,14.05-15.4,17.16
			c-3.45,1.37-4.27,3.35-4.5,6.62c-1.03,15.11,18.47,24.77,30.6,20.12c3.66-1.4,6.95-3.79,10.33-5.85c1.33-0.81,2.45-1.97,4.13-3.35
			c1.59,4.63-0.83,7.13-3.23,9.07c-15.47,12.53-33.65,6.23-41.55-4.59c-0.97-1.33-1.96-2.64-3.2-4.3
			c-8.16,11.94-18.48,18.81-33.13,14.34c-6.71-2.05-12.38-5.99-14.78-12.96c0.34-0.43,0.68-0.87,1.03-1.3
			c1.57,1.19,3.18,2.33,4.71,3.57c11.46,9.36,25.92,8.6,35.09-2.58c2.48-3.03,3.28-7.69,4.08-11.76c0.6-3.04-1.1-5.25-4.19-6.96
			C240.47,300.58,236.54,292.25,238.75,281.11z"/>
		<path class="st6" d="M210.92,226.1c-1.11-1.47-2.22-2.93-3.33-4.4C211.36,221.14,210.67,223.98,210.92,226.1z"/>
		<path class="st6" d="M257,274c-1.28,0.24-2.55,0.48-3.83,0.73C254.44,274.48,255.72,274.24,257,274z"/>
		<path class="st8" d="M367.33,241.56c-2.72,2.95-5.27,5.65-7.74,8.42c-9.3,10.46-23.84,12.58-35.82,5.19
			c-4.26-2.63-8.59-4.86-13.43-0.78c-1.04-12.96,9.82-28.92,21.43-32.11C346.02,218.36,358.91,225.28,367.33,241.56z"/>
		<path class="st8" d="M209.82,254.57c-5.4-3.37-9.67-1.61-14.31,1.01c-13.43,7.59-28.44,3.95-37.35-8.54
			c-1.23-1.72-2.87-3.14-4.32-4.71c5.49-14.65,17.77-22.61,31.44-20.36C198.35,224.12,209.55,238.6,209.82,254.57z"/>
		<path class="st6" d="M205.3,281.84c-1.11,1.83-2.09,3.74-3.34,5.47c-7.94,10.93-10.73,22.88-8.67,36.35
			c0.56,3.68-1.78,7.8-2.95,12.35C177.95,317.19,190.3,290.8,205.3,281.84z"/>
		<path class="st4" d="M319.25,286.7c9.02,6.26,15.26,23.28,9.47,37.69C328.44,311.08,326.83,298.12,319.25,286.7z"/>
		<path class="st5" d="M214.33,275.4c-2.35,1.8-4.7,3.6-7.04,5.39c-0.4-0.52-0.81-1.04-1.21-1.57c2.3-1.85,4.61-3.69,6.91-5.54
			C213.43,274.26,213.88,274.83,214.33,275.4z"/>
		<path class="st7" d="M219,254c-0.03,2-0.07,4.01-0.1,6.01C218.93,258,218.96,256,219,254z"/>
	</g>
</g>
</svg>
