<?xml version="1.0" encoding="utf-8"?>
<!-- Generator: Adobe Illustrator 25.4.1, SVG Export Plug-In . SVG Version: 6.00 Build 0)  -->
<svg version="1.1" id="Layer_1" xmlns="http://www.w3.org/2000/svg" xmlns:xlink="http://www.w3.org/1999/xlink" x="0px" y="0px"
	 viewBox="0 0 470 460" style="enable-background:new 0 0 470 460;" xml:space="preserve">
<style type="text/css">
	.st0{fill:#2F2F38;}
	.st1{fill:#FBFAFA;}
	.st2{fill:#E96748;}
</style>
<g>
	<path class="st0" d="M28.63,434.91c4.43-1.99,8.86-3.99,13.29-5.98c-12.74-0.1-24.15,3.6-35.23,11.39
		c2.39-9.42,5.93-17,11.59-23.48c5.46-6.23,11.1-12.31,17.46-19.35c-8.4,0-15.75,0-24.07,0c14.75-12.52,27.96-24.45,38.93-39.76
		c-6.3,0-11.36,0-17.02,0c4.39-5.79,8.54-10.95,12.35-16.35c15.05-21.29,21.7-45.79,27.2-70.82c4.5-20.46,9.3-40.89,15.04-61.03
		c2.57-9,7.45-17.42,11.89-25.78c1.94-3.66,2.33-6.89,1.75-10.86c-4.78-32.52-5.9-65.03,1.3-97.38
		c4.57-20.52,12.52-39.66,24.15-57.2c2.2-3.32,4.75-6.43,7.27-9.52c5.49-6.71,12.5-8.92,20.99-7.11
		c12.58,2.69,23.01,9.44,32.92,17.18c18.09,14.14,33.25,30.73,42.75,51.95c1.69,3.77,2.99,7.72,4.59,11.89
		c5.67-0.83,11.36-1.92,17.11-2.45c14.38-1.33,28.64-0.39,42.65,3.22c2.76,0.71,4.44,0.39,6.31-2.02
		c14.82-19.1,32.62-34.59,54.71-44.9c4.5-2.1,9.04-4.51,12.84-7.64c3.88-3.19,6.62-1.92,8.55,1.29c3.92,6.5,8.33,13.01,10.62,20.13
		c6.24,19.36,8.34,39.47,6.65,59.73c-0.72,8.67,0.93,15.2,7.01,21.91c5.5,6.07,8.6,14.32,12.53,21.21c-3.6,2.18-6.19,3.75-9.75,5.91
		c2.33,1.5,3.62,2.37,4.95,3.17c11.22,6.71,19.69,16.14,21.82,28.99c1.48,8.9,7.09,11.81,13.58,15.07
		c5.56,2.79,11.02,5.78,16.53,8.68c-0.15,0.4-0.29,0.8-0.44,1.19c-6.28,0.56-12.55,1.11-18.83,1.67c-0.28,0.47-0.56,0.95-0.84,1.42
		c9.85,6.81,20.28,13.11,24.25,25.83c-7.62-5.63-15.83-9.03-26-9.48c5.96,7.95,10.98,15.55,11.39,25.25
		c-3.98-3.75-7.88-7.43-11.78-11.11c-0.5,0.34-0.99,0.68-1.49,1.02c0.39,6.18,0.78,12.35,1.25,19.84c-2.74-3.56-4.32-6.28-6.53-8.34
		c-2.88-2.68-5.54-1.93-6.15,1.52c-3.23,18.34-14.92,30.64-29.67,40.2c-9.32,6.04-19.5,10.78-29.47,15.76
		c-12.04,6.02-23.15,13.37-31.86,23.64c-11.91,14.02-14.14,30.31-9.37,47.79c0.21,0.77,0.5,1.51,0.89,2.66
		c-7.61-0.82-8.28-7.38-11.28-12.94c-6.04,23.09-2.19,43.82,9.09,63.68c-11.96-3.92-19.09-12.89-25.79-23.04
		c-87.88,46.12-178.26,48.13-270.41,15.21C28.79,436.16,28.71,435.54,28.63,434.91z M154.62,22.17c-2.41,0.37-5.56-0.08-7.08,1.29
		c-3.03,2.71-5.5,6.21-7.61,9.74c-18.6,31.04-23.12,64.76-18.48,100.09c0.7,5.36,2.35,10.59,3.56,15.88
		c0.49-0.1,0.98-0.19,1.47-0.29c-0.62-11.56-1.24-23.12-1.86-34.67c2.35,12.32,5.68,23.95,13.84,33.53
		c0.48-0.14,0.97-0.28,1.45-0.43c-1.37-9.54-2.74-19.09-4.11-28.63c0.5-0.09,1.01-0.19,1.51-0.28c3.75,5.8,5.16,13.45,12.51,16.39
		c2.32-2.72,4.54-5.31,6.81-7.97c-8.68-12.32-11.89-25.8-8.89-40.61c3.44,7.7,5.54,16.49,10.69,22.79
		c5.2,6.37,13.42,10.26,22.04,16.49c-2.46,1.67-4.56,3.37-6.88,4.63c-8.95,4.84-12.94,13.8-18.35,21.61
		c-1.67,2.41-3.26,5.1-5.52,6.83c-12.98,9.91-22.28,22.71-29.78,36.99c-0.76,1.45-1.05,3.15-1.75,5.34
		c6.55-2.65,12.15-4.91,17.75-7.17c0,0,0.09,0.07,0.09,0.07c-0.26,0.75-0.38,1.6-0.8,2.24c-7.84,11.99-12.81,25.21-16.37,38.96
		c-1.45,5.6-2,11.43-2.96,17.16c4.78-6.01,8.28-12.42,12.51-18.31c4.16-5.8,9.05-11.09,13.63-16.6
		c-11.83,26.33-15.34,53.51-14.31,81.66c6.79-11.39,9.56-24.9,19.32-35.57c-0.25,3.32-0.41,5.79-0.64,8.26
		c-0.95,10.39-0.38,20.65,2.97,30.61c2.82,8.36,5.55,16.76,8.76,24.96c6.26,15.99,14.1,31.14,24.89,44.62
		c0.2,0.16,0.4,0.32,0.6,0.48c0.01-0.15,0.01-0.3,0.02-0.45c-0.23,0.03-0.46,0.07-0.69,0.1c-0.04-1.36,0.25-2.83-0.16-4.06
		c-4.81-14.53-5.29-29.48-3.74-44.47c0.69-6.7,2.81-13.25,4.29-19.86c4.12,33.77,20.04,61.05,40.57,84.67
		c-0.31-9.43-1.02-19.96-0.92-30.48c0.1-10.77,2.43-21.15,8.03-31.75c0.75,36.47,21.67,63.04,38.06,91.57
		c-0.77-12.83-0.34-25.14,5.84-36.56c4.1,9.13,7.99,17.77,11.87,26.42c0.45-0.14,0.91-0.28,1.36-0.43
		c-1.8-21.58-2.12-42.95,7.54-62.94c0.47,0.01,0.94,0.01,1.41,0.02c1.34,9.8,2.68,19.59,4.03,29.39c1.46-2.22,2.29-4.51,2.8-6.87
		c2.88-13.23,9.59-24.36,18.85-34.01c9.94-10.37,22.1-17.56,34.84-23.89c9.53-4.74,19.27-9.13,28.47-14.45
		c10.85-6.28,19.84-14.66,24.18-26.95c3.41-9.64,1.8-13.85-6.81-19.21c-3.56-2.22-7-2.68-10.85-0.85c-2.54,1.21-5.26,2.06-7.88,3.11
		c-16.82,6.74-33.67,13.42-50.42,20.33c-1.6,0.66-2.62,2.73-4.45,4.72c-15.1,0.45-31.45-0.12-45.62,9.73l0.07,0.13
		c1.23-2.94,1.95-6.25,3.78-8.74c10.21-13.96,23.64-22.09,41.38-22.41c20.86-0.37,39.75-7.5,57.6-17.72
		c2.84-1.63,5.62-3.76,7.68-6.27c3.1-3.78,5.61-8.42,2.94-13.27c-2.46-4.47-5.64-8.69-9.18-12.36c-1.79-1.86-5.01-2.52-7.71-3.26
		c-3.3-0.9-6.87-0.93-10.07-2.06c-2.49-0.88-2.65-2.93-0.76-5.17c6.99-8.27,15.54-13.44,26.6-13.83c2.03-0.07,4.07-0.01,7.22-0.01
		c-8.99-7.79-16.83-15.07-27.62-18.21c-14.74-4.29-17.28-12.3-18.43-25.82c3.46,5.8,6.91,11.6,10.25,17.21
		c7.88-3.32,15.8-6.67,23.85-10.07c-0.39-0.53-0.83-1.22-1.36-1.82c-12.14-13.71-27.3-23.29-43.71-30.79
		c-6.47-2.96-13.85-3.91-20.82-5.77c-0.21-0.26-0.41-0.52-0.62-0.78c-0.18,0.14-0.36,0.29-0.54,0.43c0.42,0.09,0.83,0.17,1.25,0.26
		c0.94,0.81,1.9,1.59,2.81,2.43c3.76,3.5,7.64,6.89,11.17,10.62c1.01,1.07,0.96,3.13,1.66,5.69
		c-38.03-31.44-79.02-33.55-122.92-20.06c-0.12-1.78-0.01-3.6-0.41-5.31c-1.87-7.86-3.02-16.05-6.03-23.46
		c-5.33-13.13-14.37-23.95-24.83-33.41C177.91,32.59,167.62,24.98,154.62,22.17z M379.92,114.95c0.47-1.13,0.89-1.7,0.93-2.29
		c1.04-19.38,0.62-38.66-5.35-57.36c-0.91-2.85-2.83-5.37-4.36-8.18c-1.33,0.81-1.99,1.06-2.44,1.51
		c-11.56,11.56-19.05,25.56-24.07,40.93c-0.35,1.07,1.22,3.43,2.5,4.25c8.8,5.64,17.79,11,26.66,16.53
		C375.84,111.62,377.68,113.25,379.92,114.95z M414.25,190.91c0.28,10.06-1.47,18.8-6,26.74c-5.43,9.52-0.82,21.64,9.68,24.78
		c3.38,1.01,5.2,0.18,5.91-3.64c0.39-2.06,2.5-3.74,3.34-5.79c0.64-1.56,1.21-3.77,0.58-5.1c-1.98-4.2-2.56-7.83,1.52-10.33
		c-1.86-4.38-4.1-8.27-5.15-12.46C422.69,199.31,419.41,195.14,414.25,190.91z M411.92,188.08c-4.88,0-10.3-0.33-15.64,0.12
		c-3.43,0.29-5.6,4.66-3.47,5.91c5.61,3.3,5.74,7.94,4.64,13.36c-0.21,1.04,0.1,2.49,0.72,3.33c0.81,1.08,2.19,2.41,3.3,2.38
		c1.1-0.03,2.75-1.39,3.15-2.53C407.09,203.55,409.29,196.34,411.92,188.08z M381.16,157.7c-0.07,0.6-0.15,1.19-0.22,1.79
		c3.68,2.12,7.35,4.23,11.03,6.35c0.59-0.79,1.19-1.57,1.78-2.36c-2.54-2.51-4.88-5.3-7.75-7.34
		C385.18,155.54,382.82,157.12,381.16,157.7z M126.54,151.11c-0.24,0.47-0.5,0.75-0.46,0.97c0.04,0.2,0.4,0.34,0.62,0.5
		C126.66,152.16,126.61,151.74,126.54,151.11z"/>
	<path class="st1" d="M183.01,371.78c-10.78-13.49-18.63-28.64-24.88-44.62c-3.21-8.21-5.95-16.61-8.76-24.96
		c-3.36-9.96-3.93-20.22-2.97-30.61c0.23-2.47,0.38-4.94,0.64-8.26c-9.77,10.67-12.53,24.17-19.32,35.57
		c-1.03-28.14,2.48-55.33,14.31-81.66c-4.57,5.51-9.46,10.79-13.63,16.6c-4.22,5.89-7.73,12.3-12.51,18.31
		c0.96-5.73,1.5-11.56,2.96-17.16c3.57-13.75,8.53-26.97,16.37-38.96c0.42-0.65,0.54-1.49,0.8-2.24c0.24-0.17,0.47-0.34,0.71-0.51
		c-0.15-0.07-0.41-0.23-0.43-0.2c-0.15,0.19-0.25,0.43-0.37,0.65c-5.6,2.26-11.2,4.52-17.75,7.17c0.7-2.19,0.99-3.89,1.75-5.34
		c7.5-14.27,16.8-27.07,29.78-36.99c2.26-1.73,3.85-4.42,5.52-6.83c5.41-7.81,9.4-16.77,18.35-21.61c2.33-1.26,4.42-2.95,6.88-4.63
		c-8.62-6.22-16.84-10.12-22.04-16.49c-5.15-6.3-7.25-15.09-10.69-22.78c-0.66-2.71-1.43-5.41-1.97-8.15
		c-3.87-19.71-1.85-38.5,8.86-55.9c13.01,2.81,23.3,10.41,32.86,19.06c10.46,9.46,19.5,20.27,24.83,33.41
		c3.01,7.42,4.16,15.6,6.03,23.46c0.4,1.7,0.29,3.53,0.41,5.31c43.9-13.49,84.89-11.39,122.92,20.06c-0.7-2.56-0.65-4.62-1.66-5.69
		c-3.52-3.73-7.41-7.12-11.17-10.62c-0.91-0.84-1.87-1.62-2.81-2.43l-0.09,0.1c6.97,1.86,14.35,2.81,20.82,5.77
		c16.41,7.5,31.57,17.09,43.71,30.79c0.54,0.6,0.97,1.3,1.36,1.82c-8.05,3.4-15.97,6.74-23.85,10.07
		c-3.34-5.6-6.8-11.41-10.25-17.21c1.15,13.52,3.69,21.53,18.43,25.82c10.8,3.14,18.64,10.42,27.62,18.21
		c-3.15,0-5.19-0.06-7.22,0.01c-11.06,0.39-19.6,5.56-26.6,13.83c-1.89,2.24-1.73,4.29,0.76,5.17c3.2,1.13,6.77,1.16,10.07,2.06
		c2.7,0.74,5.92,1.4,7.71,3.26c3.54,3.67,6.72,7.89,9.18,12.36c2.67,4.85,0.16,9.49-2.94,13.27c-2.06,2.51-4.84,4.64-7.68,6.27
		c-17.85,10.22-36.74,17.35-57.6,17.72c-17.74,0.32-31.18,8.45-41.38,22.41c-1.83,2.5-2.55,5.81-3.79,8.73
		c-0.2-0.09-0.4-0.16-0.59-0.23c0.04,0.05,0.08,0.13,0.13,0.13c0.13,0.01,0.26-0.01,0.4-0.01c14.17-9.85,30.52-9.28,45.62-9.73
		c1.82-2,2.84-4.06,4.45-4.72c16.75-6.91,33.6-13.59,50.42-20.33c2.62-1.05,5.34-1.89,7.88-3.11c3.85-1.83,7.29-1.37,10.85,0.85
		c8.6,5.36,10.22,9.58,6.81,19.21c-4.35,12.29-13.33,20.67-24.18,26.95c-9.2,5.32-18.94,9.72-28.47,14.45
		c-12.74,6.33-24.9,13.52-34.84,23.89c-9.25,9.66-15.97,20.78-18.85,34.01c-0.51,2.36-1.35,4.65-2.8,6.87
		c-1.34-9.8-2.68-19.59-4.03-29.39c-0.47-0.01-0.94-0.01-1.41-0.02c-9.66,20-9.35,41.37-7.54,62.94c-0.45,0.14-0.91,0.28-1.36,0.43
		c-3.88-8.64-7.77-17.29-11.87-26.42c-6.18,11.42-6.61,23.74-5.84,36.56c-16.39-28.54-37.31-55.1-38.06-91.57
		c-5.59,10.6-7.93,20.97-8.03,31.75c-0.1,10.52,0.6,21.05,0.92,30.48c-20.53-23.62-36.45-50.9-40.57-84.67
		c-1.47,6.62-3.6,13.17-4.29,19.86c-1.55,14.99-1.06,29.94,3.74,44.47c0.41,1.24,0.12,2.7,0.16,4.06L183.01,371.78z M241.92,170.66
		c2.11,3.46,3.42,6.62,5.6,8.98c10.14,10.97,32.08,15.11,45.52,8.85c11.26-5.24,11.26-5.24,18.87,4.42
		c0.77-0.93,1.36-2.03,2.27-2.68c4.76-3.41,4.43-7.09,1.01-11.26c-4.63-5.65-8.69-11.85-13.77-17.06
		c-10.54-10.81-23.48-14.54-38.38-11.3c-14.09,3.07-25.67,10.72-36.44,19.81c-1.34,1.13-2.06,3.01-3.07,4.54
		c0.29,0.42,0.59,0.83,0.88,1.25C230.32,174.35,236.21,172.48,241.92,170.66z M316.52,153.2c-0.36-2.23-0.21-4-0.92-5.31
		c-4.84-9-9.8-17.94-14.94-26.77c-0.49-0.84-2.48-0.79-4.35-1.32C303.17,131.13,309.58,141.73,316.52,153.2z M319.05,242.76
		c-1.28-2.51-2.02-5.14-2.7-5.13c-4.88,0.1-9.74,0.74-14.61,1.21c0.02,0.7,0.05,1.39,0.07,2.09
		C307.09,241.49,312.37,242.05,319.05,242.76z M334.57,218.84c-8.21-1.46-10.85,0.51-9.12,6.52
		C333.15,225.33,333.95,224.79,334.57,218.84z M333.79,234.99c-9.68-0.91-11.2,0.16-9.32,6.27
		C332.19,242.32,334.53,240.83,333.79,234.99z M314,229.26c2.39-1.76,4.06-2.99,5.72-4.21c-1.03-1.24-2.45-3.69-3.02-3.51
		c-2.28,0.73-4.31,2.28-6.42,3.53C311.31,226.23,312.34,227.39,314,229.26z M348.97,233.52c-8.04-0.04-8.93,0.72-7.48,6.11
		C348.43,240.22,349.25,239.59,348.97,233.52z M340.36,223.46c6.54,1.12,8.02,0.05,7.3-5.28
		C340.41,217.04,339.14,217.96,340.36,223.46z M355.83,222.57c1.97-1.14,3.74-2.17,5.52-3.2c-0.83-0.74-1.67-2.11-2.5-2.1
		C356.47,217.29,354.12,217.89,355.83,222.57z M354.63,233.1c0.3,0.89,0.6,1.77,0.9,2.66c2.01-0.77,4.02-1.53,5.98-2.41
		c0.06-0.03-0.58-1.95-0.66-1.93C358.76,231.89,356.7,232.5,354.63,233.1z"/>
	<path class="st2" d="M154.62,22.17c-10.71,17.4-12.73,36.19-8.86,55.9c0.54,2.74,1.31,5.44,1.97,8.15c-3,14.8,0.21,28.28,8.89,40.6
		c-2.27,2.65-4.49,5.25-6.81,7.97c-7.35-2.94-8.76-10.59-12.51-16.39c-0.5,0.09-1.01,0.19-1.51,0.28
		c1.37,9.54,2.74,19.09,4.11,28.63c-0.48,0.14-0.97,0.28-1.45,0.43c-8.16-9.58-11.49-21.21-13.84-33.53
		c0.62,11.56,1.24,23.12,1.86,34.67c-0.49,0.1-0.98,0.19-1.47,0.29c-1.21-5.29-2.86-10.52-3.56-15.88
		c-4.63-35.33-0.12-69.05,18.48-100.09c2.11-3.53,4.58-7.03,7.61-9.74C149.06,22.1,152.2,22.54,154.62,22.17z"/>
	<path class="st2" d="M379.92,114.95c-2.24-1.7-4.08-3.33-6.14-4.61c-8.87-5.54-17.86-10.89-26.66-16.53
		c-1.28-0.82-2.85-3.18-2.5-4.25c5.02-15.38,12.51-29.38,24.07-40.93c0.45-0.45,1.1-0.69,2.44-1.51c1.53,2.81,3.45,5.33,4.36,8.18
		c5.98,18.71,6.39,37.98,5.35,57.36C380.81,113.24,380.39,113.81,379.92,114.95z"/>
	<path class="st1" d="M414.25,190.91c5.16,4.23,8.44,8.41,9.89,14.19c1.05,4.19,3.29,8.09,5.15,12.46c-4.08,2.5-3.5,6.13-1.52,10.33
		c0.63,1.34,0.06,3.55-0.58,5.1c-0.84,2.05-2.96,3.73-3.34,5.79c-0.71,3.82-2.53,4.65-5.91,3.64c-10.5-3.14-15.11-15.26-9.68-24.78
		C412.78,209.71,414.52,200.96,414.25,190.91z"/>
	<path class="st2" d="M411.92,188.08c-2.63,8.26-4.83,15.47-7.3,22.57c-0.39,1.13-2.05,2.5-3.15,2.53c-1.11,0.03-2.49-1.31-3.3-2.38
		c-0.63-0.84-0.94-2.29-0.72-3.33c1.1-5.41,0.97-10.06-4.64-13.36c-2.13-1.25,0.04-5.62,3.47-5.91
		C401.63,187.74,407.04,188.08,411.92,188.08z"/>
	<path class="st1" d="M381.16,157.7c1.66-0.58,4.02-2.15,4.85-1.57c2.87,2.04,5.21,4.84,7.75,7.34c-0.59,0.79-1.19,1.57-1.78,2.36
		c-3.68-2.12-7.35-4.23-11.03-6.35C381.01,158.89,381.09,158.29,381.16,157.7z"/>
	<path class="st2" d="M126.54,151.11c0.07,0.63,0.12,1.05,0.16,1.47c-0.22-0.16-0.59-0.3-0.62-0.5
		C126.04,151.86,126.3,151.58,126.54,151.11z"/>
	<path class="st1" d="M326.04,104.73c-0.42-0.09-0.83-0.17-1.25-0.26c0.18-0.14,0.36-0.29,0.54-0.43c0.21,0.26,0.41,0.52,0.61,0.78
		C325.95,104.83,326.04,104.73,326.04,104.73z"/>
	<path class="st1" d="M182.93,371.91c0.23-0.03,0.46-0.07,0.7-0.1c-0.01,0.15-0.01,0.3-0.02,0.45c-0.2-0.16-0.4-0.32-0.6-0.48
		C183.01,371.78,182.93,371.91,182.93,371.91z"/>
	<path class="st0" d="M241.92,170.66c-5.71,1.82-11.61,3.69-17.51,5.56c-0.29-0.42-0.59-0.83-0.88-1.25
		c1.01-1.53,1.73-3.41,3.07-4.54c10.78-9.09,22.35-16.74,36.44-19.81c14.89-3.24,27.83,0.48,38.38,11.3
		c5.08,5.21,9.13,11.4,13.77,17.06c3.42,4.17,3.76,7.86-1.01,11.26c-0.91,0.65-1.5,1.75-2.27,2.68c-7.61-9.66-7.61-9.66-18.87-4.42
		c-13.44,6.25-35.38,2.12-45.52-8.85C245.34,177.29,244.04,174.12,241.92,170.66z M274.72,178.31c0.36-5.12,1.1-9.5,0.74-13.77
		c-0.14-1.6-2.85-4.12-4.42-4.14c-1.48-0.02-3.72,2.44-4.35,4.25C265.18,168.96,268.58,175,274.72,178.31z"/>
	<path class="st0" d="M316.52,153.2c-6.94-11.47-13.35-22.07-20.21-33.4c1.87,0.53,3.87,0.49,4.35,1.32
		c5.14,8.83,10.09,17.77,14.94,26.77C316.31,149.2,316.16,150.97,316.52,153.2z"/>
	<path class="st0" d="M319.05,242.76c-6.68-0.71-11.96-1.27-17.24-1.83c-0.02-0.7-0.05-1.39-0.07-2.09
		c4.87-0.47,9.73-1.11,14.61-1.21C317.03,237.62,317.77,240.25,319.05,242.76z"/>
	<path class="st0" d="M334.57,218.84c-0.62,5.95-1.42,6.49-9.12,6.52C323.73,219.35,326.36,217.38,334.57,218.84z"/>
	<path class="st0" d="M333.79,234.99c0.74,5.84-1.6,7.33-9.32,6.27C322.59,235.15,324.11,234.08,333.79,234.99z"/>
	<path class="st0" d="M314,229.26c-1.66-1.87-2.69-3.03-3.72-4.19c2.12-1.25,4.14-2.8,6.42-3.53c0.57-0.18,1.99,2.27,3.02,3.51
		C318.05,226.27,316.39,227.5,314,229.26z"/>
	<path class="st0" d="M348.97,233.52c0.28,6.07-0.54,6.7-7.48,6.11C340.04,234.25,340.94,233.48,348.97,233.52z"/>
	<path class="st0" d="M340.36,223.46c-1.21-5.5,0.06-6.43,7.3-5.28C348.38,223.51,346.89,224.59,340.36,223.46z"/>
	<path class="st0" d="M355.83,222.57c-1.71-4.68,0.64-5.28,3.02-5.3c0.83-0.01,1.67,1.36,2.5,2.1
		C359.58,220.4,357.8,221.43,355.83,222.57z"/>
	<path class="st0" d="M354.63,233.1c2.07-0.59,4.13-1.21,6.22-1.68c0.07-0.02,0.72,1.9,0.66,1.93c-1.96,0.88-3.97,1.63-5.98,2.41
		C355.24,234.87,354.93,233.98,354.63,233.1z"/>
	<path class="st0" d="M135.92,193.72c0.12-0.22,0.22-0.45,0.37-0.65c0.02-0.03,0.28,0.13,0.43,0.2c-0.24,0.17-0.47,0.34-0.71,0.51
		C136.01,193.78,135.92,193.72,135.92,193.72z"/>
	<path class="st0" d="M284.23,285.07c-0.13,0.01-0.27,0.03-0.4,0.01c-0.05,0-0.09-0.09-0.13-0.13c0.19,0.07,0.39,0.14,0.59,0.23
		C284.3,285.19,284.23,285.07,284.23,285.07z"/>
	<path class="st1" d="M274.72,178.31c-6.13-3.31-9.54-9.35-8.03-13.66c0.63-1.81,2.87-4.27,4.35-4.25c1.57,0.02,4.28,2.54,4.42,4.14
		C275.82,168.82,275.07,173.19,274.72,178.31z"/>
</g>
</svg>
